G04 #@! TF.GenerationSoftware,KiCad,Pcbnew,(6.0.6)*
G04 #@! TF.CreationDate,2022-08-19T10:50:45-05:00*
G04 #@! TF.ProjectId,lowercase,6c6f7765-7263-4617-9365-2e6b69636164,1*
G04 #@! TF.SameCoordinates,Original*
G04 #@! TF.FileFunction,Legend,Bot*
G04 #@! TF.FilePolarity,Positive*
%FSLAX46Y46*%
G04 Gerber Fmt 4.6, Leading zero omitted, Abs format (unit mm)*
G04 Created by KiCad (PCBNEW (6.0.6)) date 2022-08-19 10:50:45*
%MOMM*%
%LPD*%
G01*
G04 APERTURE LIST*
G04 APERTURE END LIST*
G36*
X59097030Y-31723959D02*
G01*
X59446998Y-31734946D01*
X59670630Y-31755577D01*
X59789204Y-31787798D01*
X59824000Y-31833555D01*
X59820671Y-31874271D01*
X59765274Y-32005171D01*
X59754199Y-32010753D01*
X59614715Y-32029124D01*
X59347216Y-32040839D01*
X58984615Y-32044935D01*
X58559825Y-32040449D01*
X58272510Y-32033918D01*
X57892976Y-32020535D01*
X57640950Y-32001209D01*
X57489907Y-31972065D01*
X57413324Y-31929231D01*
X57384677Y-31868833D01*
X57384247Y-31866539D01*
X57387105Y-31809386D01*
X57436458Y-31769395D01*
X57556872Y-31743547D01*
X57772911Y-31728823D01*
X58109140Y-31722202D01*
X58590126Y-31720667D01*
X58599446Y-31720667D01*
X59097030Y-31723959D01*
G37*
G36*
X41341860Y-31807164D02*
G01*
X41586177Y-31818096D01*
X41720859Y-31845387D01*
X41778077Y-31896267D01*
X41790000Y-31977963D01*
X41783359Y-32047578D01*
X41738949Y-32102562D01*
X41623806Y-32129603D01*
X41405130Y-32135269D01*
X41050120Y-32126129D01*
X40948580Y-32122539D01*
X40620881Y-32104132D01*
X40422202Y-32074691D01*
X40320044Y-32026915D01*
X40281912Y-31953500D01*
X40278709Y-31905273D01*
X40316319Y-31852473D01*
X40432559Y-31822250D01*
X40657645Y-31808554D01*
X41021792Y-31805333D01*
X41341860Y-31807164D01*
G37*
G36*
X52855084Y-30463458D02*
G01*
X52968102Y-30487050D01*
X53003456Y-30536161D01*
X52991339Y-30616917D01*
X52969336Y-30677599D01*
X52907621Y-30737546D01*
X52779724Y-30771233D01*
X52551279Y-30786037D01*
X52187918Y-30789333D01*
X51951548Y-30788284D01*
X51677667Y-30779283D01*
X51524353Y-30755873D01*
X51461231Y-30711889D01*
X51457927Y-30641167D01*
X51466454Y-30611060D01*
X51522673Y-30549162D01*
X51652660Y-30509369D01*
X51888268Y-30484843D01*
X52261348Y-30468750D01*
X52275297Y-30468315D01*
X52634213Y-30459255D01*
X52855084Y-30463458D01*
G37*
G36*
X66833538Y-29225723D02*
G01*
X67179609Y-29291065D01*
X67413365Y-29394550D01*
X67450264Y-29428129D01*
X67449967Y-29465721D01*
X67364925Y-29490846D01*
X67173996Y-29506026D01*
X66856035Y-29513783D01*
X66389900Y-29516640D01*
X66288538Y-29516672D01*
X65795503Y-29508659D01*
X65470989Y-29486574D01*
X65314793Y-29450319D01*
X65326713Y-29399794D01*
X65506548Y-29334902D01*
X65854094Y-29255543D01*
X66019251Y-29228619D01*
X66428852Y-29203312D01*
X66833538Y-29225723D01*
G37*
G36*
X67588534Y-30468735D02*
G01*
X67824270Y-30476760D01*
X68129848Y-30495377D01*
X68314378Y-30524826D01*
X68408802Y-30571344D01*
X68444061Y-30641167D01*
X68447763Y-30685182D01*
X68413954Y-30740185D01*
X68302518Y-30771683D01*
X68082907Y-30785969D01*
X67724575Y-30789333D01*
X67537683Y-30788571D01*
X67236701Y-30778944D01*
X67050024Y-30752180D01*
X66940018Y-30700694D01*
X66869048Y-30616902D01*
X66850827Y-30587181D01*
X66822380Y-30518924D01*
X66854844Y-30478529D01*
X66975303Y-30460417D01*
X67210839Y-30459011D01*
X67588534Y-30468735D01*
G37*
G36*
X36041721Y-31720720D02*
G01*
X36366884Y-31724002D01*
X36564575Y-31738457D01*
X36666513Y-31772432D01*
X36704415Y-31834276D01*
X36710000Y-31932333D01*
X36709797Y-31968137D01*
X36697327Y-32053706D01*
X36642397Y-32105730D01*
X36513290Y-32132556D01*
X36278286Y-32142530D01*
X35905667Y-32144000D01*
X35769614Y-32143946D01*
X35444451Y-32140665D01*
X35246759Y-32126210D01*
X35144822Y-32092234D01*
X35106919Y-32030391D01*
X35101334Y-31932333D01*
X35101537Y-31896530D01*
X35114007Y-31810960D01*
X35168937Y-31758936D01*
X35298044Y-31732111D01*
X35533048Y-31722136D01*
X35905667Y-31720667D01*
X36041721Y-31720720D01*
G37*
G36*
X62845751Y-30463458D02*
G01*
X62958769Y-30487050D01*
X62994123Y-30536161D01*
X62982005Y-30616917D01*
X62960002Y-30677599D01*
X62898287Y-30737546D01*
X62770391Y-30771233D01*
X62541945Y-30786037D01*
X62178584Y-30789333D01*
X61942215Y-30788284D01*
X61668334Y-30779283D01*
X61515020Y-30755873D01*
X61451898Y-30711889D01*
X61448593Y-30641167D01*
X61457121Y-30611060D01*
X61513340Y-30549162D01*
X61643327Y-30509369D01*
X61878934Y-30484843D01*
X62252014Y-30468750D01*
X62265964Y-30468315D01*
X62624880Y-30459255D01*
X62845751Y-30463458D01*
G37*
G36*
X53624057Y-29773336D02*
G01*
X54241396Y-29776192D01*
X54709781Y-29786334D01*
X55048886Y-29806560D01*
X55278386Y-29839668D01*
X55417955Y-29888456D01*
X55487268Y-29955723D01*
X55506000Y-30044267D01*
X55484388Y-30054443D01*
X55326341Y-30072898D01*
X55035084Y-30088731D01*
X54634511Y-30101092D01*
X54148518Y-30109131D01*
X53601000Y-30112000D01*
X53314774Y-30111231D01*
X52795738Y-30105612D01*
X52350446Y-30095256D01*
X52002796Y-30081014D01*
X51776682Y-30063734D01*
X51696000Y-30044267D01*
X51696017Y-30040987D01*
X51716100Y-29953188D01*
X51787411Y-29886573D01*
X51929624Y-29838345D01*
X52162416Y-29805705D01*
X52505459Y-29785855D01*
X52978429Y-29775997D01*
X53601000Y-29773333D01*
X53624057Y-29773336D01*
G37*
G36*
X42513402Y-32398002D02*
G01*
X43107260Y-32398546D01*
X43553715Y-32401325D01*
X43872208Y-32408166D01*
X44082181Y-32420900D01*
X44203074Y-32441354D01*
X44254328Y-32471359D01*
X44255385Y-32512742D01*
X44225685Y-32567333D01*
X44207856Y-32593912D01*
X44156814Y-32644289D01*
X44073370Y-32681199D01*
X43934701Y-32706725D01*
X43717987Y-32722950D01*
X43400406Y-32731960D01*
X42959137Y-32735837D01*
X42371359Y-32736667D01*
X41922682Y-32735940D01*
X41437452Y-32731782D01*
X41084675Y-32722525D01*
X40843016Y-32706579D01*
X40691139Y-32682358D01*
X40607709Y-32648275D01*
X40571392Y-32602742D01*
X40546339Y-32532933D01*
X40520000Y-32433408D01*
X40541695Y-32428079D01*
X40699889Y-32418434D01*
X40991280Y-32410160D01*
X41391977Y-32403700D01*
X41878087Y-32399499D01*
X42425718Y-32398000D01*
X42513402Y-32398002D01*
G37*
G36*
X64909365Y-31738572D02*
G01*
X65232797Y-31750767D01*
X65485832Y-31770923D01*
X65634695Y-31805928D01*
X65714596Y-31864798D01*
X65760746Y-31956546D01*
X65832131Y-32150093D01*
X65008233Y-32125880D01*
X64944586Y-32123985D01*
X64586998Y-32110354D01*
X64361768Y-32090210D01*
X64236560Y-32055273D01*
X64179033Y-31997265D01*
X64156851Y-31907906D01*
X64154004Y-31887270D01*
X64152724Y-31803979D01*
X64196601Y-31754444D01*
X64316654Y-31731684D01*
X64543903Y-31728720D01*
X64909365Y-31738572D01*
G37*
G36*
X61542876Y-31720728D02*
G01*
X61977961Y-31722890D01*
X62276582Y-31730769D01*
X62464319Y-31747891D01*
X62566750Y-31777785D01*
X62609451Y-31823978D01*
X62618000Y-31890000D01*
X62617554Y-31911040D01*
X62601877Y-31971052D01*
X62544761Y-32012241D01*
X62420626Y-32038136D01*
X62203895Y-32052264D01*
X61868990Y-32058154D01*
X61390334Y-32059333D01*
X61237791Y-32059272D01*
X60802707Y-32057109D01*
X60504085Y-32049231D01*
X60316348Y-32032109D01*
X60213918Y-32002215D01*
X60171217Y-31956021D01*
X60162667Y-31890000D01*
X60163114Y-31868959D01*
X60178790Y-31808948D01*
X60235907Y-31767759D01*
X60360042Y-31741864D01*
X60576773Y-31727736D01*
X60911678Y-31721846D01*
X61390334Y-31720667D01*
X61542876Y-31720728D01*
G37*
G36*
X57882322Y-30451274D02*
G01*
X58182522Y-30457835D01*
X58391152Y-30470073D01*
X58469334Y-30486075D01*
X58475897Y-30520441D01*
X58520726Y-30655408D01*
X58529802Y-30690841D01*
X58502253Y-30741846D01*
X58390516Y-30771746D01*
X58166236Y-30785816D01*
X57801059Y-30789333D01*
X57488011Y-30787566D01*
X57239558Y-30776812D01*
X57101771Y-30749992D01*
X57042602Y-30700067D01*
X57030000Y-30620000D01*
X57034628Y-30563411D01*
X57075335Y-30502399D01*
X57186003Y-30468465D01*
X57399744Y-30453818D01*
X57749667Y-30450667D01*
X57882322Y-30451274D01*
G37*
G36*
X66492003Y-32398009D02*
G01*
X67080185Y-32398696D01*
X67522847Y-32401736D01*
X67839331Y-32408879D01*
X68048978Y-32421873D01*
X68171127Y-32442467D01*
X68225120Y-32472409D01*
X68230298Y-32513448D01*
X68206000Y-32567333D01*
X68192070Y-32591599D01*
X68146618Y-32642902D01*
X68068836Y-32680452D01*
X67935892Y-32706385D01*
X67724950Y-32722837D01*
X67413179Y-32731944D01*
X66977743Y-32735842D01*
X66395811Y-32736667D01*
X66217459Y-32736612D01*
X65676594Y-32734942D01*
X65274793Y-32729335D01*
X64988378Y-32717652D01*
X64793670Y-32697751D01*
X64666990Y-32667492D01*
X64584660Y-32624733D01*
X64523000Y-32567333D01*
X64506218Y-32548642D01*
X64469363Y-32499041D01*
X64470865Y-32461732D01*
X64529435Y-32434966D01*
X64663784Y-32416990D01*
X64892624Y-32406057D01*
X65234664Y-32400414D01*
X65708616Y-32398312D01*
X66333190Y-32398000D01*
X66492003Y-32398009D01*
G37*
G36*
X63132283Y-29791218D02*
G01*
X63210667Y-29805565D01*
X63204167Y-29841228D01*
X63159275Y-29978075D01*
X63158092Y-29981061D01*
X63098929Y-30046166D01*
X62965350Y-30086216D01*
X62725802Y-30106423D01*
X62348734Y-30112000D01*
X62111248Y-30110941D01*
X61837525Y-30101923D01*
X61684305Y-30078503D01*
X61621226Y-30034525D01*
X61617927Y-29963833D01*
X61627187Y-29931942D01*
X61684547Y-29870899D01*
X61816066Y-29831617D01*
X62053465Y-29807341D01*
X62428468Y-29791323D01*
X62616938Y-29786597D01*
X62921958Y-29784669D01*
X63132283Y-29791218D01*
G37*
G36*
X35993345Y-30450680D02*
G01*
X36363551Y-30453598D01*
X36598138Y-30465859D01*
X36727754Y-30493593D01*
X36783047Y-30542930D01*
X36794667Y-30620000D01*
X36794598Y-30629069D01*
X36780011Y-30703110D01*
X36718707Y-30750027D01*
X36580036Y-30775950D01*
X36333350Y-30787009D01*
X35948000Y-30789333D01*
X35902656Y-30789319D01*
X35532450Y-30786402D01*
X35297863Y-30774141D01*
X35168247Y-30746407D01*
X35112954Y-30697070D01*
X35101334Y-30620000D01*
X35101403Y-30610931D01*
X35115990Y-30536890D01*
X35177294Y-30489972D01*
X35315965Y-30464049D01*
X35562651Y-30452991D01*
X35948000Y-30450667D01*
X35993345Y-30450680D01*
G37*
G36*
X28010404Y-29239204D02*
G01*
X28339730Y-29303596D01*
X28552672Y-29395505D01*
X28591977Y-29434575D01*
X28577302Y-29469150D01*
X28475684Y-29492395D01*
X28266528Y-29506559D01*
X27929243Y-29513892D01*
X27443234Y-29516640D01*
X27238785Y-29516353D01*
X26752382Y-29506853D01*
X26433816Y-29484190D01*
X26282330Y-29448047D01*
X26297165Y-29398103D01*
X26477563Y-29334041D01*
X26822767Y-29255542D01*
X26837422Y-29252659D01*
X27207920Y-29209583D01*
X27616024Y-29206482D01*
X28010404Y-29239204D01*
G37*
G36*
X32630672Y-33082545D02*
G01*
X33045395Y-33088174D01*
X33368264Y-33098611D01*
X33573455Y-33112981D01*
X33635149Y-33130407D01*
X33593563Y-33155350D01*
X33421706Y-33222907D01*
X33176538Y-33299757D01*
X33036977Y-33331276D01*
X32648556Y-33373815D01*
X32195908Y-33381262D01*
X31736921Y-33355885D01*
X31329481Y-33299952D01*
X31031477Y-33215730D01*
X30949700Y-33177454D01*
X30905153Y-33142140D01*
X30938412Y-33117355D01*
X31067782Y-33101037D01*
X31311568Y-33091120D01*
X31688076Y-33085542D01*
X32215612Y-33082240D01*
X32630672Y-33082545D01*
G37*
G36*
X28856200Y-30468656D02*
G01*
X29024153Y-30474482D01*
X29340522Y-30492981D01*
X29531927Y-30522428D01*
X29630093Y-30569572D01*
X29666741Y-30641167D01*
X29668295Y-30697295D01*
X29622863Y-30745957D01*
X29496793Y-30773787D01*
X29260536Y-30786379D01*
X28884542Y-30789333D01*
X28881111Y-30789333D01*
X28506945Y-30786865D01*
X28270504Y-30775053D01*
X28140434Y-30747224D01*
X28085383Y-30696705D01*
X28074000Y-30616823D01*
X28083719Y-30538498D01*
X28134862Y-30488452D01*
X28259367Y-30464162D01*
X28489169Y-30459579D01*
X28856200Y-30468656D01*
G37*
G36*
X65215894Y-31132481D02*
G01*
X65481937Y-31150506D01*
X65623980Y-31185521D01*
X65666000Y-31240889D01*
X65662749Y-31281811D01*
X65609556Y-31410222D01*
X65523701Y-31436426D01*
X65309599Y-31456261D01*
X65022852Y-31463984D01*
X64715569Y-31459478D01*
X64439860Y-31442623D01*
X64247834Y-31413302D01*
X64128845Y-31355588D01*
X64057334Y-31245125D01*
X64057335Y-31244642D01*
X64095063Y-31187980D01*
X64224506Y-31152155D01*
X64471447Y-31133413D01*
X64861667Y-31128000D01*
X65215894Y-31132481D01*
G37*
G36*
X33873667Y-31133633D02*
G01*
X33673787Y-31300150D01*
X33603482Y-31351440D01*
X33504603Y-31396332D01*
X33362868Y-31427850D01*
X33152984Y-31448318D01*
X32849656Y-31460061D01*
X32427593Y-31465402D01*
X31861499Y-31466667D01*
X31543093Y-31466598D01*
X31066736Y-31465180D01*
X30728615Y-31460093D01*
X30508467Y-31448987D01*
X30386029Y-31429510D01*
X30341036Y-31399309D01*
X30353226Y-31356034D01*
X30402334Y-31297333D01*
X30410672Y-31288263D01*
X30474796Y-31232209D01*
X30563141Y-31191045D01*
X30699891Y-31162551D01*
X30909229Y-31144503D01*
X31215341Y-31134679D01*
X31642411Y-31130858D01*
X32214623Y-31130817D01*
X33873667Y-31133633D01*
G37*
G36*
X53698961Y-31128007D02*
G01*
X54389817Y-31129655D01*
X54929061Y-31134770D01*
X55333215Y-31144166D01*
X55618798Y-31158660D01*
X55802332Y-31179068D01*
X55900337Y-31206206D01*
X55929334Y-31240889D01*
X55926083Y-31281811D01*
X55872889Y-31410222D01*
X55785586Y-31424527D01*
X55549950Y-31438193D01*
X55189422Y-31449804D01*
X54726842Y-31458796D01*
X54185051Y-31464605D01*
X53586889Y-31466667D01*
X53125849Y-31466522D01*
X52555930Y-31465091D01*
X52123746Y-31460918D01*
X51810267Y-31452556D01*
X51596460Y-31438560D01*
X51463295Y-31417485D01*
X51391740Y-31387886D01*
X51362764Y-31348317D01*
X51357334Y-31297333D01*
X51360113Y-31257235D01*
X51381780Y-31215575D01*
X51441209Y-31183987D01*
X51557194Y-31161079D01*
X51748532Y-31145457D01*
X52034019Y-31135731D01*
X52432451Y-31130508D01*
X52962624Y-31128395D01*
X53643334Y-31128000D01*
X53698961Y-31128007D01*
G37*
G36*
X29233469Y-31722775D02*
G01*
X29477388Y-31734023D01*
X29612496Y-31761153D01*
X29670390Y-31810900D01*
X29682667Y-31890000D01*
X29682631Y-31896612D01*
X29668790Y-31971767D01*
X29608786Y-32019401D01*
X29471833Y-32045729D01*
X29227142Y-32056968D01*
X28843927Y-32059333D01*
X28763054Y-32059296D01*
X28408906Y-32056314D01*
X28189635Y-32044109D01*
X28076080Y-32016465D01*
X28039078Y-31967167D01*
X28049468Y-31890000D01*
X28075106Y-31824356D01*
X28141428Y-31768870D01*
X28276771Y-31737592D01*
X28514558Y-31723773D01*
X28888209Y-31720667D01*
X29233469Y-31722775D01*
G37*
G36*
X42373766Y-29773336D02*
G01*
X42930876Y-29774565D01*
X43344703Y-29779597D01*
X43639641Y-29790743D01*
X43840081Y-29810313D01*
X43970415Y-29840618D01*
X44055035Y-29883965D01*
X44118334Y-29942667D01*
X44125894Y-29951035D01*
X44168476Y-30004032D01*
X44175105Y-30043896D01*
X44126725Y-30072497D01*
X44004284Y-30091704D01*
X43788726Y-30103388D01*
X43460997Y-30109419D01*
X43002043Y-30111666D01*
X42392811Y-30112000D01*
X42360455Y-30112000D01*
X41758695Y-30111522D01*
X41305612Y-30108870D01*
X40981481Y-30102174D01*
X40766574Y-30089567D01*
X40641165Y-30069181D01*
X40585529Y-30039148D01*
X40579938Y-29997599D01*
X40604667Y-29942666D01*
X40611321Y-29930599D01*
X40654085Y-29875052D01*
X40725317Y-29834371D01*
X40848494Y-29806254D01*
X41047093Y-29788395D01*
X41344590Y-29778491D01*
X41764464Y-29774239D01*
X42330190Y-29773333D01*
X42373766Y-29773336D01*
G37*
G36*
X58643295Y-32398024D02*
G01*
X59037500Y-32401171D01*
X59358917Y-32408840D01*
X59575366Y-32419948D01*
X59654667Y-32433408D01*
X59648104Y-32467774D01*
X59603275Y-32602742D01*
X59574329Y-32646479D01*
X59483747Y-32691647D01*
X59309759Y-32719196D01*
X59023762Y-32732934D01*
X58597150Y-32736667D01*
X58432120Y-32736462D01*
X58069425Y-32732115D01*
X57834990Y-32718166D01*
X57698503Y-32689478D01*
X57629655Y-32640913D01*
X57598135Y-32567333D01*
X57587541Y-32505391D01*
X57610872Y-32454863D01*
X57697769Y-32423310D01*
X57874671Y-32406282D01*
X58168022Y-32399329D01*
X58604260Y-32398000D01*
X58643295Y-32398024D01*
G37*
G36*
X50065186Y-32416101D02*
G01*
X50297044Y-32423992D01*
X50603206Y-32442588D01*
X50788105Y-32472029D01*
X50882728Y-32518578D01*
X50918061Y-32588500D01*
X50917168Y-32651527D01*
X50863978Y-32696571D01*
X50728257Y-32722311D01*
X50481085Y-32733944D01*
X50093542Y-32736667D01*
X50022979Y-32736634D01*
X49659771Y-32733510D01*
X49430526Y-32720895D01*
X49304655Y-32692605D01*
X49251566Y-32642457D01*
X49240667Y-32564267D01*
X49240739Y-32553634D01*
X49254032Y-32478433D01*
X49311994Y-32432673D01*
X49445754Y-32410760D01*
X49686442Y-32407101D01*
X50065186Y-32416101D01*
G37*
G36*
X70305224Y-29096010D02*
G01*
X70642238Y-29098576D01*
X70847637Y-29111974D01*
X70954007Y-29145254D01*
X70993933Y-29207467D01*
X71000000Y-29307667D01*
X70999963Y-29326340D01*
X70990725Y-29419955D01*
X70942494Y-29477010D01*
X70822687Y-29506557D01*
X70598718Y-29517648D01*
X70238000Y-29519333D01*
X70170777Y-29519323D01*
X69833763Y-29516757D01*
X69628364Y-29503359D01*
X69521994Y-29470079D01*
X69482068Y-29407866D01*
X69476000Y-29307667D01*
X69476038Y-29288993D01*
X69485276Y-29195378D01*
X69533507Y-29138323D01*
X69653314Y-29108776D01*
X69877283Y-29097685D01*
X70238000Y-29096000D01*
X70305224Y-29096010D01*
G37*
G36*
X27649874Y-32398019D02*
G01*
X28231588Y-32398819D01*
X28669291Y-32402051D01*
X28982138Y-32409406D01*
X29189285Y-32422580D01*
X29309889Y-32443266D01*
X29363106Y-32473158D01*
X29368091Y-32513949D01*
X29344000Y-32567333D01*
X29326510Y-32597124D01*
X29279456Y-32646502D01*
X29198255Y-32682633D01*
X29060377Y-32707577D01*
X28843291Y-32723393D01*
X28524466Y-32732140D01*
X28081372Y-32735878D01*
X27491477Y-32736667D01*
X27247352Y-32736565D01*
X26714085Y-32734675D01*
X26317908Y-32728797D01*
X26035478Y-32716866D01*
X25843449Y-32696818D01*
X25718479Y-32666589D01*
X25637222Y-32624116D01*
X25576334Y-32567333D01*
X25555381Y-32543886D01*
X25521448Y-32495850D01*
X25527029Y-32459719D01*
X25590669Y-32433797D01*
X25730914Y-32416389D01*
X25966309Y-32405801D01*
X26315401Y-32400337D01*
X26796735Y-32398302D01*
X27428857Y-32398000D01*
X27649874Y-32398019D01*
G37*
G36*
X26423497Y-30452182D02*
G01*
X26675627Y-30462537D01*
X26815591Y-30489099D01*
X26875800Y-30539157D01*
X26888667Y-30620000D01*
X26877939Y-30695519D01*
X26823562Y-30746482D01*
X26694110Y-30774697D01*
X26458170Y-30786776D01*
X26084334Y-30789333D01*
X25876482Y-30788127D01*
X25569619Y-30781081D01*
X25358534Y-30769140D01*
X25280000Y-30753925D01*
X25287880Y-30662232D01*
X25347174Y-30554393D01*
X25489085Y-30489977D01*
X25742355Y-30458796D01*
X26135726Y-30450667D01*
X26423497Y-30452182D01*
G37*
G36*
X65221869Y-30450747D02*
G01*
X65554108Y-30453845D01*
X65752624Y-30466082D01*
X65844402Y-30493695D01*
X65856427Y-30542922D01*
X65815685Y-30620000D01*
X65779329Y-30669877D01*
X65692491Y-30732527D01*
X65545576Y-30768703D01*
X65302197Y-30785330D01*
X64925968Y-30789333D01*
X64736345Y-30788279D01*
X64430986Y-30781331D01*
X64220455Y-30769319D01*
X64142000Y-30753925D01*
X64159859Y-30625830D01*
X64234927Y-30535686D01*
X64395193Y-30482449D01*
X64668604Y-30457111D01*
X65083110Y-30450667D01*
X65221869Y-30450747D01*
G37*
G36*
X70538448Y-31129640D02*
G01*
X70788721Y-31140196D01*
X70927585Y-31166889D01*
X70987268Y-31216881D01*
X71000000Y-31297333D01*
X70992621Y-31364099D01*
X70945117Y-31419715D01*
X70824998Y-31450574D01*
X70600035Y-31463837D01*
X70238000Y-31466667D01*
X69937553Y-31465027D01*
X69687280Y-31454470D01*
X69548416Y-31427777D01*
X69488733Y-31377785D01*
X69476000Y-31297333D01*
X69483380Y-31230567D01*
X69530884Y-31174951D01*
X69651003Y-31144092D01*
X69875966Y-31130829D01*
X70238000Y-31128000D01*
X70538448Y-31129640D01*
G37*
G36*
X66868927Y-29774289D02*
G01*
X67290789Y-29778945D01*
X67591422Y-29789728D01*
X67795693Y-29809066D01*
X67928468Y-29839384D01*
X68014615Y-29883109D01*
X68079000Y-29942667D01*
X68087729Y-29952333D01*
X68129634Y-30004903D01*
X68135290Y-30044445D01*
X68085686Y-30072816D01*
X67961810Y-30091868D01*
X67744648Y-30103458D01*
X67415190Y-30109440D01*
X66954422Y-30111669D01*
X66343334Y-30112000D01*
X66235503Y-30111998D01*
X65649548Y-30111490D01*
X65210896Y-30108789D01*
X64900535Y-30102040D01*
X64699453Y-30089390D01*
X64588637Y-30068982D01*
X64549076Y-30038962D01*
X64561756Y-29997475D01*
X64607667Y-29942667D01*
X64667418Y-29886516D01*
X64751368Y-29841824D01*
X64880310Y-29810698D01*
X65079110Y-29790712D01*
X65372636Y-29779440D01*
X65785755Y-29774455D01*
X66343334Y-29773333D01*
X66868927Y-29774289D01*
G37*
G36*
X37334448Y-29229082D02*
G01*
X37762313Y-29266560D01*
X38131737Y-29335793D01*
X38396751Y-29436046D01*
X38407128Y-29446596D01*
X38331742Y-29475466D01*
X38096588Y-29496640D01*
X37708839Y-29509659D01*
X37175667Y-29514066D01*
X36684253Y-29512476D01*
X36322198Y-29506326D01*
X36090208Y-29493675D01*
X35968308Y-29472580D01*
X35936526Y-29441099D01*
X35974889Y-29397290D01*
X36159881Y-29314537D01*
X36487264Y-29252335D01*
X36894109Y-29224095D01*
X37334448Y-29229082D01*
G37*
G36*
X70538448Y-31722306D02*
G01*
X70788721Y-31732863D01*
X70927585Y-31759556D01*
X70987268Y-31809548D01*
X71000000Y-31890000D01*
X70992621Y-31956766D01*
X70945117Y-32012382D01*
X70824998Y-32043241D01*
X70600035Y-32056504D01*
X70238000Y-32059333D01*
X69937553Y-32057693D01*
X69687280Y-32047137D01*
X69548416Y-32020444D01*
X69488733Y-31970452D01*
X69476000Y-31890000D01*
X69483380Y-31823234D01*
X69530884Y-31767618D01*
X69651003Y-31736759D01*
X69875966Y-31723496D01*
X70238000Y-31720667D01*
X70538448Y-31722306D01*
G37*
G36*
X38477307Y-29786116D02*
G01*
X38725314Y-29795898D01*
X38887795Y-29814645D01*
X38986522Y-29843996D01*
X39043268Y-29885588D01*
X39079806Y-29941057D01*
X39090028Y-29960568D01*
X39107283Y-30010100D01*
X39089490Y-30047451D01*
X39017465Y-30074338D01*
X38872024Y-30092481D01*
X38633985Y-30103599D01*
X38284163Y-30109412D01*
X37803375Y-30111640D01*
X37172438Y-30112000D01*
X36650566Y-30111538D01*
X36139891Y-30108879D01*
X35763148Y-30102531D01*
X35500726Y-30091018D01*
X35333017Y-30072867D01*
X35240410Y-30046602D01*
X35203298Y-30010749D01*
X35202069Y-29963833D01*
X35207606Y-29943390D01*
X35241335Y-29899510D01*
X35319765Y-29866193D01*
X35463667Y-29841577D01*
X35693813Y-29823800D01*
X36030976Y-29811001D01*
X36495926Y-29801318D01*
X37109437Y-29792890D01*
X37637619Y-29786901D01*
X38122000Y-29783663D01*
X38477307Y-29786116D01*
G37*
G36*
X27576687Y-29773349D02*
G01*
X28127446Y-29774745D01*
X28536572Y-29780001D01*
X28828178Y-29791358D01*
X29026377Y-29811060D01*
X29155282Y-29841350D01*
X29239008Y-29884471D01*
X29301667Y-29942667D01*
X29319475Y-29962521D01*
X29355634Y-30011739D01*
X29353155Y-30048760D01*
X29293369Y-30075320D01*
X29157603Y-30093156D01*
X28927188Y-30104006D01*
X28583452Y-30109605D01*
X28107724Y-30111691D01*
X27481334Y-30112000D01*
X27249945Y-30111986D01*
X26676958Y-30111267D01*
X26248275Y-30108180D01*
X25945226Y-30100988D01*
X25749140Y-30087954D01*
X25641344Y-30067342D01*
X25603170Y-30037414D01*
X25615946Y-29996435D01*
X25661000Y-29942667D01*
X25669916Y-29932983D01*
X25734179Y-29877168D01*
X25823090Y-29836094D01*
X25960762Y-29807519D01*
X26171310Y-29789198D01*
X26478845Y-29778889D01*
X26907482Y-29774348D01*
X27481334Y-29773333D01*
X27576687Y-29773349D01*
G37*
G36*
X60464207Y-29191482D02*
G01*
X60601399Y-29212817D01*
X60658973Y-29262126D01*
X60670667Y-29346576D01*
X60665386Y-29408683D01*
X60623505Y-29468892D01*
X60511480Y-29502159D01*
X60296260Y-29516351D01*
X59944792Y-29519333D01*
X59753332Y-29518621D01*
X59472909Y-29510310D01*
X59315699Y-29487343D01*
X59250779Y-29443151D01*
X59247229Y-29371167D01*
X59248650Y-29364343D01*
X59292367Y-29291249D01*
X59405477Y-29244514D01*
X59621287Y-29216210D01*
X59973104Y-29198409D01*
X60213662Y-29190955D01*
X60464207Y-29191482D01*
G37*
G36*
X60217899Y-29774716D02*
G01*
X60504201Y-29785374D01*
X60679668Y-29812382D01*
X60779775Y-29862545D01*
X60840000Y-29942667D01*
X60863458Y-29990123D01*
X60870135Y-30048142D01*
X60813185Y-30084036D01*
X60666182Y-30103107D01*
X60402700Y-30110661D01*
X59996313Y-30112000D01*
X59670430Y-30109765D01*
X59355161Y-30102288D01*
X59140977Y-30090799D01*
X59062000Y-30076591D01*
X59074111Y-29966794D01*
X59140789Y-29867727D01*
X59291250Y-29808874D01*
X59553884Y-29780615D01*
X59957080Y-29773333D01*
X60217899Y-29774716D01*
G37*
G36*
X43826309Y-31128002D02*
G01*
X44230416Y-31133647D01*
X44489700Y-31152250D01*
X44627878Y-31186951D01*
X44668667Y-31240889D01*
X44665315Y-31281543D01*
X44609271Y-31413173D01*
X44578560Y-31425382D01*
X44408222Y-31444668D01*
X44129738Y-31452951D01*
X43784739Y-31448451D01*
X43642823Y-31443540D01*
X43322203Y-31425194D01*
X43128094Y-31395820D01*
X43028458Y-31348463D01*
X42991260Y-31276167D01*
X42992158Y-31213141D01*
X43045352Y-31168096D01*
X43181075Y-31142356D01*
X43428248Y-31130723D01*
X43815792Y-31128000D01*
X43826309Y-31128002D01*
G37*
G36*
X48649415Y-29219763D02*
G01*
X48913787Y-29347183D01*
X49113667Y-29513700D01*
X48457500Y-29516516D01*
X48366507Y-29516337D01*
X48018739Y-29498284D01*
X47836632Y-29451290D01*
X47819111Y-29374813D01*
X47965101Y-29268312D01*
X48014139Y-29245056D01*
X48321668Y-29183405D01*
X48649415Y-29219763D01*
G37*
G36*
X60003727Y-30450668D02*
G01*
X60394599Y-30453562D01*
X60714305Y-30461188D01*
X60930123Y-30472406D01*
X61009334Y-30486075D01*
X61015897Y-30520441D01*
X61060726Y-30655408D01*
X61068334Y-30685841D01*
X61044771Y-30731305D01*
X60950018Y-30761309D01*
X60759547Y-30778930D01*
X60448828Y-30787245D01*
X59993334Y-30789333D01*
X59739294Y-30788846D01*
X59361379Y-30783937D01*
X59115615Y-30771216D01*
X58977473Y-30747606D01*
X58922425Y-30710030D01*
X58925942Y-30655408D01*
X58950995Y-30585599D01*
X58977334Y-30486075D01*
X58977387Y-30485713D01*
X59060409Y-30472091D01*
X59279221Y-30460949D01*
X59601103Y-30453427D01*
X59993334Y-30450667D01*
X60003727Y-30450668D01*
G37*
G36*
X50104897Y-29265355D02*
G01*
X50530698Y-29277656D01*
X50796182Y-29313842D01*
X50908612Y-29375743D01*
X50875254Y-29465191D01*
X50849360Y-29476003D01*
X50686261Y-29498189D01*
X50413582Y-29513576D01*
X50073223Y-29519333D01*
X50038711Y-29519307D01*
X49682921Y-29513330D01*
X49464845Y-29493473D01*
X49355358Y-29454789D01*
X49325334Y-29392333D01*
X49325636Y-29384278D01*
X49362636Y-29324941D01*
X49481751Y-29288582D01*
X49711983Y-29270334D01*
X50082337Y-29265333D01*
X50104897Y-29265355D01*
G37*
G36*
X41802033Y-30464294D02*
G01*
X41890332Y-30489172D01*
X41899611Y-30538182D01*
X41856953Y-30616902D01*
X41826803Y-30659884D01*
X41742576Y-30727896D01*
X41602027Y-30767084D01*
X41367522Y-30785035D01*
X41001426Y-30789333D01*
X40779444Y-30788398D01*
X40503512Y-30779614D01*
X40348983Y-30756341D01*
X40285308Y-30712289D01*
X40281940Y-30641167D01*
X40296242Y-30598796D01*
X40360848Y-30542802D01*
X40501960Y-30506619D01*
X40750519Y-30484008D01*
X41137467Y-30468735D01*
X41280044Y-30464624D01*
X41607631Y-30457970D01*
X41802033Y-30464294D01*
G37*
G36*
X38613050Y-30451651D02*
G01*
X38948529Y-30465932D01*
X39170037Y-30494841D01*
X39250000Y-30535333D01*
X39245462Y-30545865D01*
X39130781Y-30584677D01*
X38884051Y-30610576D01*
X38535331Y-30620000D01*
X38414396Y-30618794D01*
X38101256Y-30603395D01*
X37871604Y-30573996D01*
X37768334Y-30535333D01*
X37765553Y-30524571D01*
X37852737Y-30484368D01*
X38095497Y-30459306D01*
X38483004Y-30450667D01*
X38613050Y-30451651D01*
G37*
G36*
X43898660Y-30452200D02*
G01*
X44208472Y-30459420D01*
X44420645Y-30471211D01*
X44499334Y-30486075D01*
X44505897Y-30520441D01*
X44550726Y-30655408D01*
X44559894Y-30695316D01*
X44527142Y-30744004D01*
X44409201Y-30772545D01*
X44178048Y-30785976D01*
X43805659Y-30789333D01*
X43697601Y-30788816D01*
X43278168Y-30770842D01*
X43002805Y-30723317D01*
X42851940Y-30640938D01*
X42806000Y-30518400D01*
X42842683Y-30498716D01*
X43015326Y-30473933D01*
X43297267Y-30456961D01*
X43652667Y-30450667D01*
X43898660Y-30452200D01*
G37*
G36*
X57336166Y-29198385D02*
G01*
X57453974Y-29202559D01*
X57778895Y-29221068D01*
X57975800Y-29250560D01*
X58076987Y-29298204D01*
X58114756Y-29371167D01*
X58118746Y-29410279D01*
X58089035Y-29467842D01*
X57982822Y-29500827D01*
X57769187Y-29515801D01*
X57417209Y-29519333D01*
X57279096Y-29518686D01*
X56978368Y-29512081D01*
X56769544Y-29499865D01*
X56691334Y-29483925D01*
X56684236Y-29447738D01*
X56638619Y-29311143D01*
X56628139Y-29271958D01*
X56653222Y-29221961D01*
X56760231Y-29196163D01*
X56978201Y-29189868D01*
X57336166Y-29198385D01*
G37*
G36*
X48799791Y-29785135D02*
G01*
X49345410Y-29792590D01*
X49706833Y-29798464D01*
X50162659Y-29808954D01*
X50486351Y-29822946D01*
X50700818Y-29842935D01*
X50828968Y-29871416D01*
X50893710Y-29910884D01*
X50917951Y-29963833D01*
X50918513Y-30010196D01*
X50883086Y-30050083D01*
X50788135Y-30077992D01*
X50611699Y-30096032D01*
X50331817Y-30106308D01*
X49926530Y-30110928D01*
X49373875Y-30112000D01*
X49238558Y-30111980D01*
X48721382Y-30110780D01*
X48345901Y-30105937D01*
X48089469Y-30094984D01*
X47929442Y-30075456D01*
X47843174Y-30044886D01*
X47808020Y-30000808D01*
X47801334Y-29940757D01*
X47801447Y-29928033D01*
X47811251Y-29870913D01*
X47853212Y-29830040D01*
X47950189Y-29803219D01*
X48125039Y-29788256D01*
X48400620Y-29782960D01*
X48799791Y-29785135D01*
G37*
G36*
X38962368Y-31728249D02*
G01*
X39209197Y-31742565D01*
X39361618Y-31769966D01*
X39448332Y-31814164D01*
X39498043Y-31878868D01*
X39537716Y-31982952D01*
X39529244Y-32090534D01*
X39507797Y-32100130D01*
X39351414Y-32122408D01*
X39084311Y-32137731D01*
X38749056Y-32143226D01*
X38427623Y-32137532D01*
X38111811Y-32108376D01*
X37856083Y-32044323D01*
X37599000Y-31934207D01*
X37175667Y-31725962D01*
X38294522Y-31723314D01*
X38592426Y-31723309D01*
X38962368Y-31728249D01*
G37*
G36*
X33993563Y-30462416D02*
G01*
X34112343Y-30485612D01*
X34160776Y-30534519D01*
X34170000Y-30614377D01*
X34168458Y-30653665D01*
X34147736Y-30709112D01*
X34082651Y-30746614D01*
X33948210Y-30769421D01*
X33719422Y-30780778D01*
X33371294Y-30783933D01*
X32878834Y-30782133D01*
X31587667Y-30774932D01*
X32053334Y-30643244D01*
X32154725Y-30618040D01*
X32501820Y-30556550D01*
X32921549Y-30506026D01*
X33344500Y-30475488D01*
X33420411Y-30472202D01*
X33773299Y-30459693D01*
X33993563Y-30462416D01*
G37*
G36*
X42747906Y-29221679D02*
G01*
X43103657Y-29309117D01*
X43352100Y-29446222D01*
X43355096Y-29450459D01*
X43285696Y-29477809D01*
X43076322Y-29499641D01*
X42752645Y-29514101D01*
X42340334Y-29519333D01*
X41948806Y-29516237D01*
X41601231Y-29502030D01*
X41409582Y-29473756D01*
X41366521Y-29428652D01*
X41464707Y-29363951D01*
X41696801Y-29276889D01*
X41939421Y-29218811D01*
X42341083Y-29189659D01*
X42747906Y-29221679D01*
G37*
G36*
X50375947Y-31725496D02*
G01*
X50682497Y-31750263D01*
X50858073Y-31802810D01*
X50924056Y-31890590D01*
X50901827Y-32021054D01*
X50845509Y-32078379D01*
X50702154Y-32117507D01*
X50445485Y-32138045D01*
X50047658Y-32144000D01*
X49907364Y-32143942D01*
X49582910Y-32140615D01*
X49385679Y-32126096D01*
X49284006Y-32092080D01*
X49246224Y-32030261D01*
X49240667Y-31932333D01*
X49240842Y-31898424D01*
X49252911Y-31811964D01*
X49307045Y-31759383D01*
X49435060Y-31732257D01*
X49668774Y-31722160D01*
X50040004Y-31720667D01*
X50375947Y-31725496D01*
G37*
G36*
X62784459Y-29181805D02*
G01*
X63090660Y-29188808D01*
X63301502Y-29200781D01*
X63380000Y-29216075D01*
X63373437Y-29250441D01*
X63328609Y-29385408D01*
X63273880Y-29450383D01*
X63144620Y-29492291D01*
X62910083Y-29513473D01*
X62538387Y-29519333D01*
X62173456Y-29515722D01*
X61912569Y-29499111D01*
X61771292Y-29462302D01*
X61723706Y-29398120D01*
X61743893Y-29299389D01*
X61788724Y-29251168D01*
X61928617Y-29209545D01*
X62185258Y-29187272D01*
X62584726Y-29180667D01*
X62784459Y-29181805D01*
G37*
G36*
X70538448Y-32399640D02*
G01*
X70788721Y-32410196D01*
X70927585Y-32436889D01*
X70987268Y-32486881D01*
X71000000Y-32567333D01*
X70992621Y-32634099D01*
X70945117Y-32689715D01*
X70824998Y-32720574D01*
X70600035Y-32733837D01*
X70238000Y-32736667D01*
X69937553Y-32735027D01*
X69687280Y-32724470D01*
X69548416Y-32697777D01*
X69488733Y-32647785D01*
X69476000Y-32567333D01*
X69483380Y-32500567D01*
X69530884Y-32444951D01*
X69651003Y-32414092D01*
X69875966Y-32400829D01*
X70238000Y-32398000D01*
X70538448Y-32399640D01*
G37*
G36*
X53881784Y-32398939D02*
G01*
X54403476Y-32404748D01*
X54850379Y-32415154D01*
X55198857Y-32429334D01*
X55425275Y-32446468D01*
X55506000Y-32465733D01*
X55493540Y-32510596D01*
X55404400Y-32635067D01*
X55402961Y-32636445D01*
X55299918Y-32674300D01*
X55076062Y-32702584D01*
X54719298Y-32721963D01*
X54217531Y-32733101D01*
X53558667Y-32736667D01*
X53461206Y-32736625D01*
X52853348Y-32733291D01*
X52392542Y-32722693D01*
X52059273Y-32702117D01*
X51834031Y-32668847D01*
X51697302Y-32620170D01*
X51629574Y-32553370D01*
X51611334Y-32465733D01*
X51638329Y-32454494D01*
X51805332Y-32436348D01*
X52104502Y-32420804D01*
X52512204Y-32408683D01*
X53004804Y-32400808D01*
X53558667Y-32398000D01*
X53881784Y-32398939D01*
G37*
G36*
X32342057Y-29900345D02*
G01*
X32918838Y-29901755D01*
X33350060Y-29906713D01*
X33657027Y-29916918D01*
X33861040Y-29934071D01*
X33983403Y-29959870D01*
X34045418Y-29996016D01*
X34068389Y-30044207D01*
X34070679Y-30062455D01*
X34056021Y-30105524D01*
X33994206Y-30137494D01*
X33864872Y-30159981D01*
X33647659Y-30174604D01*
X33322203Y-30182981D01*
X32868144Y-30186728D01*
X32265119Y-30187464D01*
X32043318Y-30187301D01*
X31492795Y-30185335D01*
X31084377Y-30179886D01*
X30797717Y-30169331D01*
X30612469Y-30152047D01*
X30508286Y-30126411D01*
X30464822Y-30090800D01*
X30461731Y-30043590D01*
X30462883Y-30038170D01*
X30489045Y-29991456D01*
X30556828Y-29956568D01*
X30687516Y-29931814D01*
X30902393Y-29915505D01*
X31222744Y-29905949D01*
X31669852Y-29901455D01*
X32265000Y-29900333D01*
X32342057Y-29900345D01*
G37*
G36*
X33627754Y-31975243D02*
G01*
X33956170Y-31988902D01*
X34175075Y-32018101D01*
X34254667Y-32059333D01*
X34249768Y-32070245D01*
X34133666Y-32108882D01*
X33885475Y-32134636D01*
X33535000Y-32144000D01*
X33442247Y-32143423D01*
X33113831Y-32129764D01*
X32894926Y-32100565D01*
X32815334Y-32059333D01*
X32820233Y-32048421D01*
X32936335Y-32009784D01*
X33184526Y-31984030D01*
X33535000Y-31974667D01*
X33627754Y-31975243D01*
G37*
G36*
X28004868Y-31128158D02*
G01*
X28572882Y-31129633D01*
X29003608Y-31133864D01*
X29316018Y-31142285D01*
X29529083Y-31156326D01*
X29661775Y-31177419D01*
X29733067Y-31206997D01*
X29761929Y-31246491D01*
X29767334Y-31297333D01*
X29765234Y-31333650D01*
X29745698Y-31376519D01*
X29689631Y-31409027D01*
X29578061Y-31432605D01*
X29392018Y-31448685D01*
X29112528Y-31458700D01*
X28720621Y-31464080D01*
X28197325Y-31466259D01*
X27523667Y-31466667D01*
X27042466Y-31466508D01*
X26474452Y-31465034D01*
X26043726Y-31460802D01*
X25731316Y-31452382D01*
X25518251Y-31438341D01*
X25385559Y-31417247D01*
X25314267Y-31387669D01*
X25285405Y-31348175D01*
X25280000Y-31297333D01*
X25282100Y-31261016D01*
X25301637Y-31218147D01*
X25357704Y-31185640D01*
X25469273Y-31162061D01*
X25655317Y-31145981D01*
X25934806Y-31135967D01*
X26326713Y-31130586D01*
X26850009Y-31128408D01*
X27523667Y-31128000D01*
X28004868Y-31128158D01*
G37*
G36*
X55163519Y-30451873D02*
G01*
X55470382Y-30458919D01*
X55681467Y-30470859D01*
X55760000Y-30486075D01*
X55766564Y-30520441D01*
X55811392Y-30655408D01*
X55819400Y-30704492D01*
X55774726Y-30748424D01*
X55642634Y-30774180D01*
X55395840Y-30786302D01*
X55007059Y-30789333D01*
X54947417Y-30789309D01*
X54579513Y-30786252D01*
X54346445Y-30773827D01*
X54217722Y-30745999D01*
X54162849Y-30696734D01*
X54151334Y-30620000D01*
X54162062Y-30544481D01*
X54216439Y-30493518D01*
X54345891Y-30465303D01*
X54581831Y-30453223D01*
X54955667Y-30450667D01*
X55163519Y-30451873D01*
G37*
G36*
X70538448Y-33076973D02*
G01*
X70788721Y-33087530D01*
X70927585Y-33114223D01*
X70987268Y-33164214D01*
X71000000Y-33244667D01*
X70992621Y-33311433D01*
X70945117Y-33367049D01*
X70824998Y-33397907D01*
X70600035Y-33411170D01*
X70238000Y-33414000D01*
X69937553Y-33412360D01*
X69687280Y-33401803D01*
X69548416Y-33375110D01*
X69488733Y-33325119D01*
X69476000Y-33244667D01*
X69483380Y-33177900D01*
X69530884Y-33122284D01*
X69651003Y-33091426D01*
X69875966Y-33078163D01*
X70238000Y-33075333D01*
X70538448Y-33076973D01*
G37*
G36*
X54197329Y-33084333D02*
G01*
X54528723Y-33091294D01*
X54748844Y-33101798D01*
X54828667Y-33115104D01*
X54802349Y-33137672D01*
X54656836Y-33202843D01*
X54426500Y-33284034D01*
X54262939Y-33325982D01*
X53831279Y-33376870D01*
X53353964Y-33374060D01*
X52900504Y-33320015D01*
X52540411Y-33217199D01*
X52485244Y-33192563D01*
X52410581Y-33150732D01*
X52410727Y-33121690D01*
X52504587Y-33102879D01*
X52711066Y-33091739D01*
X53049069Y-33085713D01*
X53537500Y-33082240D01*
X53783684Y-33081653D01*
X54197329Y-33084333D01*
G37*
G36*
X67066662Y-33084333D02*
G01*
X67398057Y-33091294D01*
X67618177Y-33101798D01*
X67698000Y-33115104D01*
X67671708Y-33137630D01*
X67526198Y-33202648D01*
X67295834Y-33283605D01*
X67116347Y-33328908D01*
X66683433Y-33378825D01*
X66209810Y-33375959D01*
X65763369Y-33322568D01*
X65412000Y-33220911D01*
X65349389Y-33192354D01*
X65276185Y-33150233D01*
X65277466Y-33121145D01*
X65372202Y-33102446D01*
X65579362Y-33091492D01*
X65917916Y-33085638D01*
X66406834Y-33082240D01*
X66653017Y-33081653D01*
X67066662Y-33084333D01*
G37*
G36*
X57505500Y-29791052D02*
G01*
X57623307Y-29795226D01*
X57948229Y-29813735D01*
X58145133Y-29843227D01*
X58246320Y-29890871D01*
X58284089Y-29963833D01*
X58288079Y-30002946D01*
X58258368Y-30060509D01*
X58152155Y-30093493D01*
X57938520Y-30108468D01*
X57586542Y-30112000D01*
X57448429Y-30111352D01*
X57147701Y-30104748D01*
X56938877Y-30092531D01*
X56860667Y-30076591D01*
X56853569Y-30040404D01*
X56807952Y-29903810D01*
X56797473Y-29864625D01*
X56822555Y-29814628D01*
X56929564Y-29788829D01*
X57147534Y-29782535D01*
X57505500Y-29791052D01*
G37*
G36*
X70538448Y-30452306D02*
G01*
X70788721Y-30462863D01*
X70927585Y-30489556D01*
X70987268Y-30539548D01*
X71000000Y-30620000D01*
X70992621Y-30686766D01*
X70945117Y-30742382D01*
X70824998Y-30773241D01*
X70600035Y-30786504D01*
X70238000Y-30789333D01*
X69937553Y-30787693D01*
X69687280Y-30777137D01*
X69548416Y-30750444D01*
X69488733Y-30700452D01*
X69476000Y-30620000D01*
X69483380Y-30553234D01*
X69530884Y-30497618D01*
X69651003Y-30466759D01*
X69875966Y-30453496D01*
X70238000Y-30450667D01*
X70538448Y-30452306D01*
G37*
G36*
X58884071Y-33076915D02*
G01*
X59194298Y-33084158D01*
X59406623Y-33095927D01*
X59485334Y-33110742D01*
X59478300Y-33146714D01*
X59432775Y-33283117D01*
X59422977Y-33304239D01*
X59358214Y-33361717D01*
X59222622Y-33393170D01*
X58983524Y-33403066D01*
X58608242Y-33395875D01*
X58455846Y-33390596D01*
X58136951Y-33372187D01*
X57943939Y-33342784D01*
X57844901Y-33295512D01*
X57807927Y-33223500D01*
X57808825Y-33160475D01*
X57862019Y-33115430D01*
X57997742Y-33089689D01*
X58244915Y-33078056D01*
X58632459Y-33075333D01*
X58884071Y-33076915D01*
G37*
G36*
X32292108Y-29192052D02*
G01*
X32693692Y-29231061D01*
X33042698Y-29293824D01*
X33281000Y-29374992D01*
X33336997Y-29406358D01*
X33393867Y-29449497D01*
X33379989Y-29479073D01*
X33275648Y-29497660D01*
X33061125Y-29507835D01*
X32716703Y-29512173D01*
X32222667Y-29513251D01*
X32183565Y-29513266D01*
X31698844Y-29511810D01*
X31361440Y-29505693D01*
X31150765Y-29492720D01*
X31046228Y-29470696D01*
X31027240Y-29437427D01*
X31073210Y-29390717D01*
X31074694Y-29389601D01*
X31274312Y-29287263D01*
X31524508Y-29213379D01*
X31563711Y-29206690D01*
X31896073Y-29182146D01*
X32292108Y-29192052D01*
G37*
G36*
X61671809Y-33077480D02*
G01*
X61986442Y-33084931D01*
X62200391Y-33096457D01*
X62279334Y-33110742D01*
X62272770Y-33145107D01*
X62227942Y-33280075D01*
X62218090Y-33300445D01*
X62147881Y-33357086D01*
X61999905Y-33391798D01*
X61743703Y-33409223D01*
X61348817Y-33414000D01*
X60993079Y-33411676D01*
X60736685Y-33399939D01*
X60586975Y-33372425D01*
X60511247Y-33322784D01*
X60476802Y-33244667D01*
X60468288Y-33206831D01*
X60475050Y-33145120D01*
X60539214Y-33106504D01*
X60688761Y-33085594D01*
X60951671Y-33077000D01*
X61355927Y-33075333D01*
X61671809Y-33077480D01*
G37*
G36*
X67839980Y-31721251D02*
G01*
X68150727Y-31729724D01*
X68378054Y-31746177D01*
X68479014Y-31767902D01*
X68498113Y-31823389D01*
X68483251Y-31979569D01*
X68458332Y-32042608D01*
X68376645Y-32106747D01*
X68207598Y-32136639D01*
X67910376Y-32144000D01*
X67664843Y-32139174D01*
X67347262Y-32120131D01*
X67118343Y-32091568D01*
X66985444Y-32058733D01*
X66905875Y-31995094D01*
X66941405Y-31879902D01*
X66949887Y-31864908D01*
X67021441Y-31790503D01*
X67150332Y-31746683D01*
X67373829Y-31725915D01*
X67729202Y-31720667D01*
X67839980Y-31721251D01*
G37*
G36*
X36089787Y-33079743D02*
G01*
X36356269Y-33097729D01*
X36498566Y-33132762D01*
X36540667Y-33188222D01*
X36537416Y-33229144D01*
X36484223Y-33357555D01*
X36436972Y-33372963D01*
X36247646Y-33394099D01*
X35952937Y-33408609D01*
X35592244Y-33414000D01*
X35471160Y-33413934D01*
X35133198Y-33410892D01*
X34929383Y-33398706D01*
X34832166Y-33371115D01*
X34814000Y-33321856D01*
X34847334Y-33244667D01*
X34885482Y-33186798D01*
X34968396Y-33127997D01*
X35114844Y-33094279D01*
X35360070Y-33078955D01*
X35739313Y-33075333D01*
X36089787Y-33079743D01*
G37*
G36*
X61677953Y-32399291D02*
G01*
X62048748Y-32408485D01*
X62285862Y-32428557D01*
X62411700Y-32461894D01*
X62448667Y-32510889D01*
X62445416Y-32551811D01*
X62392223Y-32680222D01*
X62294886Y-32701708D01*
X62062110Y-32719869D01*
X61729956Y-32732152D01*
X61333889Y-32736667D01*
X61054984Y-32736142D01*
X60719369Y-32730966D01*
X60507516Y-32716272D01*
X60391172Y-32687285D01*
X60342085Y-32639231D01*
X60332000Y-32567333D01*
X60337383Y-32509911D01*
X60374369Y-32457886D01*
X60470649Y-32425084D01*
X60653731Y-32407103D01*
X60951124Y-32399542D01*
X61390334Y-32398000D01*
X61677953Y-32399291D01*
G37*
G36*
X53882861Y-29220630D02*
G01*
X54271601Y-29261134D01*
X54585478Y-29332981D01*
X54778574Y-29435373D01*
X54779508Y-29436352D01*
X54732700Y-29472284D01*
X54518753Y-29497727D01*
X54139497Y-29512555D01*
X53596767Y-29516640D01*
X53181023Y-29514609D01*
X52820332Y-29508198D01*
X52591211Y-29495331D01*
X52473065Y-29473759D01*
X52445302Y-29441233D01*
X52487329Y-29395505D01*
X52497641Y-29388037D01*
X52726648Y-29295175D01*
X53064466Y-29236852D01*
X53465177Y-29212270D01*
X53882861Y-29220630D01*
G37*
G36*
X70538448Y-28504973D02*
G01*
X70788721Y-28515530D01*
X70927585Y-28542223D01*
X70987268Y-28592214D01*
X71000000Y-28672667D01*
X70992621Y-28739433D01*
X70945117Y-28795049D01*
X70824998Y-28825907D01*
X70600035Y-28839170D01*
X70238000Y-28842000D01*
X69937553Y-28840360D01*
X69687280Y-28829803D01*
X69548416Y-28803110D01*
X69488733Y-28753119D01*
X69476000Y-28672667D01*
X69483380Y-28605900D01*
X69530884Y-28550284D01*
X69651003Y-28519426D01*
X69875966Y-28506163D01*
X70238000Y-28503333D01*
X70538448Y-28504973D01*
G37*
G36*
X50494308Y-33080830D02*
G01*
X50754416Y-33099366D01*
X50893063Y-33134108D01*
X50934000Y-33188222D01*
X50930749Y-33229144D01*
X50877556Y-33357555D01*
X50841693Y-33370914D01*
X50665220Y-33393041D01*
X50381382Y-33408308D01*
X50030889Y-33414000D01*
X49691426Y-33411954D01*
X49446704Y-33400794D01*
X49311121Y-33373718D01*
X49253001Y-33323938D01*
X49240667Y-33244667D01*
X49240736Y-33235598D01*
X49255323Y-33161556D01*
X49316628Y-33114639D01*
X49455298Y-33088716D01*
X49701984Y-33077657D01*
X50087334Y-33075333D01*
X50088986Y-33075333D01*
X50494308Y-33080830D01*
G37*
G36*
X38125513Y-33076357D02*
G01*
X38536165Y-33080872D01*
X38866028Y-33089427D01*
X39085588Y-33101098D01*
X39165334Y-33114962D01*
X39165218Y-33116279D01*
X39094485Y-33181798D01*
X38932500Y-33280906D01*
X38803534Y-33330910D01*
X38451633Y-33389227D01*
X37937667Y-33410052D01*
X37563005Y-33405201D01*
X37282184Y-33380975D01*
X37083392Y-33329903D01*
X36921667Y-33244667D01*
X36667667Y-33076449D01*
X37916500Y-33075891D01*
X38125513Y-33076357D01*
G37*
G36*
X43820112Y-31720689D02*
G01*
X44193421Y-31726078D01*
X44425541Y-31747801D01*
X44542255Y-31795767D01*
X44569350Y-31879888D01*
X44532609Y-32010075D01*
X44525853Y-32024983D01*
X44459403Y-32084290D01*
X44316309Y-32120678D01*
X44065745Y-32138973D01*
X43676884Y-32144000D01*
X43429726Y-32142885D01*
X43144779Y-32134098D01*
X42984114Y-32112345D01*
X42919809Y-32072659D01*
X42923942Y-32010075D01*
X42947406Y-31940298D01*
X42975334Y-31798408D01*
X43002762Y-31778310D01*
X43162837Y-31748655D01*
X43434060Y-31728256D01*
X43779667Y-31720667D01*
X43820112Y-31720689D01*
G37*
G36*
X36918511Y-31128005D02*
G01*
X37539933Y-31130569D01*
X38015790Y-31138804D01*
X38368682Y-31154145D01*
X38621205Y-31178029D01*
X38795957Y-31211893D01*
X38915538Y-31257174D01*
X38935441Y-31267593D01*
X39098453Y-31364644D01*
X39165334Y-31426507D01*
X39126054Y-31434361D01*
X38941594Y-31444772D01*
X38626955Y-31453665D01*
X38205273Y-31460583D01*
X37699687Y-31465069D01*
X37133334Y-31466667D01*
X36961453Y-31466650D01*
X36362721Y-31465808D01*
X35908483Y-31462482D01*
X35578810Y-31455010D01*
X35353770Y-31441732D01*
X35213433Y-31420986D01*
X35137869Y-31391111D01*
X35107146Y-31350447D01*
X35101334Y-31297333D01*
X35103869Y-31256874D01*
X35126658Y-31210556D01*
X35191142Y-31176909D01*
X35318594Y-31153912D01*
X35530286Y-31139543D01*
X35847493Y-31131783D01*
X36291486Y-31128609D01*
X36883538Y-31128000D01*
X36918511Y-31128005D01*
G37*
G36*
X70538448Y-29774973D02*
G01*
X70788721Y-29785530D01*
X70927585Y-29812223D01*
X70987268Y-29862214D01*
X71000000Y-29942667D01*
X70992621Y-30009433D01*
X70945117Y-30065049D01*
X70824998Y-30095907D01*
X70600035Y-30109170D01*
X70238000Y-30112000D01*
X69937553Y-30110360D01*
X69687280Y-30099803D01*
X69548416Y-30073110D01*
X69488733Y-30023119D01*
X69476000Y-29942667D01*
X69483380Y-29875900D01*
X69530884Y-29820284D01*
X69651003Y-29789426D01*
X69875966Y-29776163D01*
X70238000Y-29773333D01*
X70538448Y-29774973D01*
G37*
G36*
X39306851Y-32396897D02*
G01*
X39511213Y-32409715D01*
X39588667Y-32433408D01*
X39582104Y-32467774D01*
X39537275Y-32602742D01*
X39520540Y-32629828D01*
X39462755Y-32664994D01*
X39349935Y-32691632D01*
X39163030Y-32710876D01*
X38882993Y-32723865D01*
X38490776Y-32731735D01*
X37967331Y-32735623D01*
X37293609Y-32736667D01*
X36886128Y-32736557D01*
X36311083Y-32735240D01*
X35874978Y-32731220D01*
X35558621Y-32723016D01*
X35342819Y-32709144D01*
X35208382Y-32688122D01*
X35136116Y-32658468D01*
X35106831Y-32618699D01*
X35101334Y-32567333D01*
X35102379Y-32536615D01*
X35124890Y-32472407D01*
X35199326Y-32431807D01*
X35355036Y-32409448D01*
X35621368Y-32399968D01*
X36027670Y-32398000D01*
X36323298Y-32402035D01*
X36664565Y-32419131D01*
X36903378Y-32446971D01*
X37006334Y-32482667D01*
X37021054Y-32497854D01*
X37163568Y-32547363D01*
X37387334Y-32567333D01*
X37447139Y-32565959D01*
X37657150Y-32537129D01*
X37768334Y-32482667D01*
X37851321Y-32456144D01*
X38060263Y-32431637D01*
X38352285Y-32412323D01*
X38685389Y-32399337D01*
X39017576Y-32393816D01*
X39306851Y-32396897D01*
G37*
G36*
X60296709Y-31122643D02*
G01*
X60666031Y-31135251D01*
X60975459Y-31158026D01*
X61188839Y-31190908D01*
X61270018Y-31233833D01*
X61281153Y-31296225D01*
X61319407Y-31233833D01*
X61321890Y-31228880D01*
X61431486Y-31174137D01*
X61651887Y-31138587D01*
X61936562Y-31122005D01*
X62238976Y-31124167D01*
X62512597Y-31144852D01*
X62710894Y-31183833D01*
X62787334Y-31240889D01*
X62784110Y-31281880D01*
X62731663Y-31409448D01*
X62697243Y-31417030D01*
X62515294Y-31428673D01*
X62196224Y-31437854D01*
X61760594Y-31444311D01*
X61228967Y-31447783D01*
X60621904Y-31448009D01*
X59959967Y-31444726D01*
X59934095Y-31444531D01*
X59187091Y-31438314D01*
X58591613Y-31431449D01*
X58130393Y-31422875D01*
X57786162Y-31411533D01*
X57541650Y-31396361D01*
X57379590Y-31376299D01*
X57282713Y-31350286D01*
X57233749Y-31317262D01*
X57215430Y-31276167D01*
X57211338Y-31241054D01*
X57237805Y-31181399D01*
X57339910Y-31147203D01*
X57548859Y-31131668D01*
X57895859Y-31128000D01*
X58278062Y-31139753D01*
X58562980Y-31174743D01*
X58706401Y-31229600D01*
X58783010Y-31288504D01*
X58808000Y-31229600D01*
X58817055Y-31214304D01*
X58943546Y-31175138D01*
X59190911Y-31146451D01*
X59522995Y-31128182D01*
X59903646Y-31120266D01*
X60296709Y-31122643D01*
G37*
G36*
X32265000Y-31805596D02*
G01*
X31968667Y-31964423D01*
X31890194Y-32002365D01*
X31653470Y-32075156D01*
X31334082Y-32116669D01*
X30889167Y-32133624D01*
X30551595Y-32136103D01*
X30308884Y-32128280D01*
X30174943Y-32103076D01*
X30117929Y-32054025D01*
X30106000Y-31974667D01*
X30112408Y-31913735D01*
X30151833Y-31863319D01*
X30251612Y-31831555D01*
X30438987Y-31814171D01*
X30741202Y-31806898D01*
X31185500Y-31805465D01*
X32265000Y-31805596D01*
G37*
G36*
X68083115Y-31129640D02*
G01*
X68333388Y-31140196D01*
X68472251Y-31166889D01*
X68531935Y-31216881D01*
X68544667Y-31297333D01*
X68537288Y-31364099D01*
X68489783Y-31419715D01*
X68369665Y-31450574D01*
X68144702Y-31463837D01*
X67782667Y-31466667D01*
X67482220Y-31465027D01*
X67231947Y-31454470D01*
X67093083Y-31427777D01*
X67033400Y-31377785D01*
X67020667Y-31297333D01*
X67028046Y-31230567D01*
X67075551Y-31174951D01*
X67195670Y-31144092D01*
X67420632Y-31130829D01*
X67782667Y-31128000D01*
X68083115Y-31129640D01*
G37*
G36*
X55766114Y-31738976D02*
G01*
X55844667Y-31753009D01*
X55838165Y-31788627D01*
X55793275Y-31925408D01*
X55786887Y-31939620D01*
X55720896Y-31999266D01*
X55578399Y-32035868D01*
X55328524Y-32054275D01*
X54940401Y-32059333D01*
X54645722Y-32057770D01*
X54379844Y-32047930D01*
X54231269Y-32024008D01*
X54170308Y-31980317D01*
X54167273Y-31911167D01*
X54181266Y-31869362D01*
X54245446Y-31813097D01*
X54385995Y-31776753D01*
X54633900Y-31754064D01*
X55020148Y-31738767D01*
X55246531Y-31733598D01*
X55554642Y-31732296D01*
X55766114Y-31738976D01*
G37*
G36*
X42558769Y-33076403D02*
G01*
X42962398Y-33083233D01*
X43278948Y-33095326D01*
X43481004Y-33111459D01*
X43541149Y-33130407D01*
X43499966Y-33154831D01*
X43328087Y-33220383D01*
X43082538Y-33294026D01*
X42932096Y-33330875D01*
X42250574Y-33403861D01*
X41540930Y-33322481D01*
X41468598Y-33306580D01*
X41197419Y-33234260D01*
X41088966Y-33175983D01*
X41144472Y-33131351D01*
X41365175Y-33099964D01*
X41752311Y-33081424D01*
X42307115Y-33075333D01*
X42558769Y-33076403D01*
G37*
G36*
X28060312Y-33085998D02*
G01*
X28378766Y-33095263D01*
X28582712Y-33108737D01*
X28644745Y-33125478D01*
X28627147Y-33138607D01*
X28486868Y-33208788D01*
X28270800Y-33296694D01*
X27974897Y-33362148D01*
X27566353Y-33387053D01*
X27121390Y-33369618D01*
X26704623Y-33312519D01*
X26380667Y-33218430D01*
X26319376Y-33190931D01*
X26247284Y-33149641D01*
X26250234Y-33121015D01*
X26347083Y-33102507D01*
X26556690Y-33091573D01*
X26897913Y-33085665D01*
X27389612Y-33082240D01*
X27654755Y-33081887D01*
X28060312Y-33085998D01*
G37*
G36*
X50108854Y-31128095D02*
G01*
X50505053Y-31134665D01*
X50759000Y-31153682D01*
X50894161Y-31188103D01*
X50934000Y-31240889D01*
X50930651Y-31281551D01*
X50874695Y-31413083D01*
X50833860Y-31427202D01*
X50651299Y-31445286D01*
X50362521Y-31452886D01*
X50007842Y-31448361D01*
X49800992Y-31441330D01*
X49491005Y-31422870D01*
X49303688Y-31393485D01*
X49207760Y-31346732D01*
X49171940Y-31276167D01*
X49171125Y-31271729D01*
X49176030Y-31207075D01*
X49236921Y-31165216D01*
X49382126Y-31141313D01*
X49639974Y-31130521D01*
X50038792Y-31128000D01*
X50108854Y-31128095D01*
G37*
G36*
X49476384Y-30450680D02*
G01*
X49999175Y-30451824D01*
X50379314Y-30456563D01*
X50639479Y-30467349D01*
X50802351Y-30486634D01*
X50890609Y-30516869D01*
X50926933Y-30560507D01*
X50934000Y-30620000D01*
X50933877Y-30631753D01*
X50923297Y-30688271D01*
X50879461Y-30729367D01*
X50779689Y-30757493D01*
X50601304Y-30775101D01*
X50321624Y-30784642D01*
X49917972Y-30788569D01*
X49367667Y-30789333D01*
X49258950Y-30789320D01*
X48736159Y-30788176D01*
X48356021Y-30783437D01*
X48095855Y-30772651D01*
X47932983Y-30753366D01*
X47844725Y-30723130D01*
X47808402Y-30679492D01*
X47801334Y-30620000D01*
X47801457Y-30608247D01*
X47812038Y-30551729D01*
X47855874Y-30510633D01*
X47955645Y-30482507D01*
X48134031Y-30464899D01*
X48413710Y-30455357D01*
X48817362Y-30451431D01*
X49367667Y-30450667D01*
X49476384Y-30450680D01*
G37*
G36*
X70293375Y-27910733D02*
G01*
X70645931Y-27917065D01*
X70861928Y-27937115D01*
X70970305Y-27975708D01*
X71000000Y-28037667D01*
X70999599Y-28046896D01*
X70961612Y-28105655D01*
X70841308Y-28141654D01*
X70609750Y-28159717D01*
X70238000Y-28164667D01*
X70182626Y-28164600D01*
X69830070Y-28158268D01*
X69614073Y-28138218D01*
X69505696Y-28099625D01*
X69476000Y-28037667D01*
X69476402Y-28028437D01*
X69514389Y-27969678D01*
X69634693Y-27933679D01*
X69866251Y-27915616D01*
X70238000Y-27910667D01*
X70293375Y-27910733D01*
G37*
G36*
X32379834Y-32409931D02*
G01*
X32994710Y-32412844D01*
X33461258Y-32420534D01*
X33795769Y-32433869D01*
X34014536Y-32453721D01*
X34133850Y-32480959D01*
X34170000Y-32516453D01*
X34167383Y-32551309D01*
X34113556Y-32680222D01*
X34078343Y-32688843D01*
X33902113Y-32702451D01*
X33604900Y-32714040D01*
X33215732Y-32723452D01*
X32763636Y-32730526D01*
X32277641Y-32735105D01*
X31786774Y-32737029D01*
X31320063Y-32736139D01*
X30906536Y-32732276D01*
X30575220Y-32725281D01*
X30355143Y-32714995D01*
X30275334Y-32701258D01*
X30269712Y-32670186D01*
X30226356Y-32538216D01*
X30222734Y-32525560D01*
X30237324Y-32487668D01*
X30308691Y-32458958D01*
X30455591Y-32438193D01*
X30696783Y-32424137D01*
X31051024Y-32415552D01*
X31537074Y-32411204D01*
X32173690Y-32409855D01*
X32379834Y-32409931D01*
G37*
M02*
