%FSLAX45Y45*%
G04 Gerber Fmt 4.5, Leading zero omitted, Abs format (unit mm)*
G04 Created by KiCad (PCBNEW (6.0.6)) date 2022-08-19 10:50:52*
%MOMM*%
%LPD*%
G01*
G04 APERTURE LIST*
%TA.AperFunction,Profile*%
%ADD10C,0.050000*%
%TD*%
%ADD11C,0.200000*%
G04 APERTURE END LIST*
D10*
X2250000Y-2600000D02*
X23366000Y-2600000D01*
X23366000Y-2600000D02*
X23366000Y-13900000D01*
X23366000Y-13900000D02*
X2250000Y-13900000D01*
X2250000Y-13900000D02*
X2250000Y-2600000D01*
D11*
X2505119Y-14212976D02*
X2505119Y-14012976D01*
X2552738Y-14012976D01*
X2581310Y-14022500D01*
X2600357Y-14041548D01*
X2609881Y-14060595D01*
X2619405Y-14098690D01*
X2619405Y-14127262D01*
X2609881Y-14165357D01*
X2600357Y-14184405D01*
X2581310Y-14203452D01*
X2552738Y-14212976D01*
X2505119Y-14212976D01*
X2705119Y-14212976D02*
X2705119Y-14079643D01*
X2705119Y-14117738D02*
X2714643Y-14098690D01*
X2724167Y-14089167D01*
X2743214Y-14079643D01*
X2762262Y-14079643D01*
X2828928Y-14212976D02*
X2828928Y-14079643D01*
X2828928Y-14012976D02*
X2819405Y-14022500D01*
X2828928Y-14032024D01*
X2838452Y-14022500D01*
X2828928Y-14012976D01*
X2828928Y-14032024D01*
X2952738Y-14212976D02*
X2933690Y-14203452D01*
X2924167Y-14184405D01*
X2924167Y-14012976D01*
X3057500Y-14212976D02*
X3038452Y-14203452D01*
X3028928Y-14184405D01*
X3028928Y-14012976D01*
X3286071Y-14212976D02*
X3286071Y-14012976D01*
X3352738Y-14155833D01*
X3419405Y-14012976D01*
X3419405Y-14212976D01*
X3600357Y-14212976D02*
X3600357Y-14108214D01*
X3590833Y-14089167D01*
X3571786Y-14079643D01*
X3533690Y-14079643D01*
X3514643Y-14089167D01*
X3600357Y-14203452D02*
X3581309Y-14212976D01*
X3533690Y-14212976D01*
X3514643Y-14203452D01*
X3505119Y-14184405D01*
X3505119Y-14165357D01*
X3514643Y-14146309D01*
X3533690Y-14136786D01*
X3581309Y-14136786D01*
X3600357Y-14127262D01*
X3695595Y-14079643D02*
X3695595Y-14279643D01*
X3695595Y-14089167D02*
X3714643Y-14079643D01*
X3752738Y-14079643D01*
X3771786Y-14089167D01*
X3781309Y-14098690D01*
X3790833Y-14117738D01*
X3790833Y-14174881D01*
X3781309Y-14193928D01*
X3771786Y-14203452D01*
X3752738Y-14212976D01*
X3714643Y-14212976D01*
X3695595Y-14203452D01*
X3876548Y-14193928D02*
X3886071Y-14203452D01*
X3876548Y-14212976D01*
X3867024Y-14203452D01*
X3876548Y-14193928D01*
X3876548Y-14212976D01*
X3876548Y-14089167D02*
X3886071Y-14098690D01*
X3876548Y-14108214D01*
X3867024Y-14098690D01*
X3876548Y-14089167D01*
X3876548Y-14108214D01*
M02*
