%FSLAX45Y45*%
G04 Gerber Fmt 4.5, Leading zero omitted, Abs format (unit mm)*
G04 Created by KiCad (PCBNEW (6.0.6)) date 2022-08-19 10:50:52*
%MOMM*%
%LPD*%
G01*
G04 APERTURE LIST*
%TA.AperFunction,Profile*%
%ADD10C,0.050000*%
%TD*%
%ADD11C,0.200000*%
%ADD12C,0.160000*%
G04 APERTURE END LIST*
D10*
X2250000Y-2600000D02*
X23366000Y-2600000D01*
X23366000Y-2600000D02*
X23366000Y-13900000D01*
X23366000Y-13900000D02*
X2250000Y-13900000D01*
X2250000Y-13900000D02*
X2250000Y-2600000D01*
D11*
D12*
X3922000Y-3709000D02*
X4082000Y-3869000D01*
X4082000Y-3709000D02*
X3922000Y-3869000D01*
X4318000Y-3709000D02*
X4478000Y-3869000D01*
X4478000Y-3709000D02*
X4318000Y-3869000D01*
X4714000Y-3709000D02*
X4874000Y-3869000D01*
X4874000Y-3709000D02*
X4714000Y-3869000D01*
X5110000Y-3709000D02*
X5270000Y-3869000D01*
X5270000Y-3709000D02*
X5110000Y-3869000D01*
X5506000Y-3709000D02*
X5666000Y-3869000D01*
X5666000Y-3709000D02*
X5506000Y-3869000D01*
X5902000Y-3709000D02*
X6062000Y-3869000D01*
X6062000Y-3709000D02*
X5902000Y-3869000D01*
X11050000Y-3709000D02*
X11210000Y-3869000D01*
X11210000Y-3709000D02*
X11050000Y-3869000D01*
X11446000Y-3709000D02*
X11606000Y-3869000D01*
X11606000Y-3709000D02*
X11446000Y-3869000D01*
X11842000Y-3709000D02*
X12002000Y-3869000D01*
X12002000Y-3709000D02*
X11842000Y-3869000D01*
X12238000Y-3709000D02*
X12398000Y-3869000D01*
X12398000Y-3709000D02*
X12238000Y-3869000D01*
X12634000Y-3709000D02*
X12794000Y-3869000D01*
X12794000Y-3709000D02*
X12634000Y-3869000D01*
X13030000Y-3709000D02*
X13190000Y-3869000D01*
X13190000Y-3709000D02*
X13030000Y-3869000D01*
X13426000Y-3709000D02*
X13586000Y-3869000D01*
X13586000Y-3709000D02*
X13426000Y-3869000D01*
X13822000Y-3709000D02*
X13982000Y-3869000D01*
X13982000Y-3709000D02*
X13822000Y-3869000D01*
X14218000Y-3709000D02*
X14378000Y-3869000D01*
X14378000Y-3709000D02*
X14218000Y-3869000D01*
X14614000Y-3709000D02*
X14774000Y-3869000D01*
X14774000Y-3709000D02*
X14614000Y-3869000D01*
X15010000Y-3709000D02*
X15170000Y-3869000D01*
X15170000Y-3709000D02*
X15010000Y-3869000D01*
X15406000Y-3709000D02*
X15566000Y-3869000D01*
X15566000Y-3709000D02*
X15406000Y-3869000D01*
D11*
X2505119Y-14212976D02*
X2505119Y-14012976D01*
X2552738Y-14012976D01*
X2581310Y-14022500D01*
X2600357Y-14041548D01*
X2609881Y-14060595D01*
X2619405Y-14098690D01*
X2619405Y-14127262D01*
X2609881Y-14165357D01*
X2600357Y-14184405D01*
X2581310Y-14203452D01*
X2552738Y-14212976D01*
X2505119Y-14212976D01*
X2705119Y-14212976D02*
X2705119Y-14079643D01*
X2705119Y-14117738D02*
X2714643Y-14098690D01*
X2724167Y-14089167D01*
X2743214Y-14079643D01*
X2762262Y-14079643D01*
X2828928Y-14212976D02*
X2828928Y-14079643D01*
X2828928Y-14012976D02*
X2819405Y-14022500D01*
X2828928Y-14032024D01*
X2838452Y-14022500D01*
X2828928Y-14012976D01*
X2828928Y-14032024D01*
X2952738Y-14212976D02*
X2933690Y-14203452D01*
X2924167Y-14184405D01*
X2924167Y-14012976D01*
X3057500Y-14212976D02*
X3038452Y-14203452D01*
X3028928Y-14184405D01*
X3028928Y-14012976D01*
X3286071Y-14212976D02*
X3286071Y-14012976D01*
X3352738Y-14155833D01*
X3419405Y-14012976D01*
X3419405Y-14212976D01*
X3600357Y-14212976D02*
X3600357Y-14108214D01*
X3590833Y-14089167D01*
X3571786Y-14079643D01*
X3533690Y-14079643D01*
X3514643Y-14089167D01*
X3600357Y-14203452D02*
X3581309Y-14212976D01*
X3533690Y-14212976D01*
X3514643Y-14203452D01*
X3505119Y-14184405D01*
X3505119Y-14165357D01*
X3514643Y-14146309D01*
X3533690Y-14136786D01*
X3581309Y-14136786D01*
X3600357Y-14127262D01*
X3695595Y-14079643D02*
X3695595Y-14279643D01*
X3695595Y-14089167D02*
X3714643Y-14079643D01*
X3752738Y-14079643D01*
X3771786Y-14089167D01*
X3781309Y-14098690D01*
X3790833Y-14117738D01*
X3790833Y-14174881D01*
X3781309Y-14193928D01*
X3771786Y-14203452D01*
X3752738Y-14212976D01*
X3714643Y-14212976D01*
X3695595Y-14203452D01*
X3876548Y-14193928D02*
X3886071Y-14203452D01*
X3876548Y-14212976D01*
X3867024Y-14203452D01*
X3876548Y-14193928D01*
X3876548Y-14212976D01*
X3876548Y-14089167D02*
X3886071Y-14098690D01*
X3876548Y-14108214D01*
X3867024Y-14098690D01*
X3876548Y-14089167D01*
X3876548Y-14108214D01*
D12*
X2087500Y-14462500D02*
X2247500Y-14622500D01*
X2247500Y-14462500D02*
X2087500Y-14622500D01*
D11*
X2609881Y-14632976D02*
X2495595Y-14632976D01*
X2552738Y-14632976D02*
X2552738Y-14432976D01*
X2533690Y-14461548D01*
X2514643Y-14480595D01*
X2495595Y-14490119D01*
X2695595Y-14613928D02*
X2705119Y-14623452D01*
X2695595Y-14632976D01*
X2686071Y-14623452D01*
X2695595Y-14613928D01*
X2695595Y-14632976D01*
X2876548Y-14432976D02*
X2838452Y-14432976D01*
X2819405Y-14442500D01*
X2809881Y-14452024D01*
X2790833Y-14480595D01*
X2781310Y-14518690D01*
X2781310Y-14594881D01*
X2790833Y-14613928D01*
X2800357Y-14623452D01*
X2819405Y-14632976D01*
X2857500Y-14632976D01*
X2876548Y-14623452D01*
X2886071Y-14613928D01*
X2895595Y-14594881D01*
X2895595Y-14547262D01*
X2886071Y-14528214D01*
X2876548Y-14518690D01*
X2857500Y-14509167D01*
X2819405Y-14509167D01*
X2800357Y-14518690D01*
X2790833Y-14528214D01*
X2781310Y-14547262D01*
X3019405Y-14432976D02*
X3038452Y-14432976D01*
X3057500Y-14442500D01*
X3067024Y-14452024D01*
X3076548Y-14471071D01*
X3086071Y-14509167D01*
X3086071Y-14556786D01*
X3076548Y-14594881D01*
X3067024Y-14613928D01*
X3057500Y-14623452D01*
X3038452Y-14632976D01*
X3019405Y-14632976D01*
X3000357Y-14623452D01*
X2990833Y-14613928D01*
X2981309Y-14594881D01*
X2971786Y-14556786D01*
X2971786Y-14509167D01*
X2981309Y-14471071D01*
X2990833Y-14452024D01*
X3000357Y-14442500D01*
X3019405Y-14432976D01*
X3209881Y-14432976D02*
X3228928Y-14432976D01*
X3247976Y-14442500D01*
X3257500Y-14452024D01*
X3267024Y-14471071D01*
X3276548Y-14509167D01*
X3276548Y-14556786D01*
X3267024Y-14594881D01*
X3257500Y-14613928D01*
X3247976Y-14623452D01*
X3228928Y-14632976D01*
X3209881Y-14632976D01*
X3190833Y-14623452D01*
X3181309Y-14613928D01*
X3171786Y-14594881D01*
X3162262Y-14556786D01*
X3162262Y-14509167D01*
X3171786Y-14471071D01*
X3181309Y-14452024D01*
X3190833Y-14442500D01*
X3209881Y-14432976D01*
X3362262Y-14632976D02*
X3362262Y-14499643D01*
X3362262Y-14518690D02*
X3371786Y-14509167D01*
X3390833Y-14499643D01*
X3419405Y-14499643D01*
X3438452Y-14509167D01*
X3447976Y-14528214D01*
X3447976Y-14632976D01*
X3447976Y-14528214D02*
X3457500Y-14509167D01*
X3476548Y-14499643D01*
X3505119Y-14499643D01*
X3524167Y-14509167D01*
X3533690Y-14528214D01*
X3533690Y-14632976D01*
X3628928Y-14632976D02*
X3628928Y-14499643D01*
X3628928Y-14518690D02*
X3638452Y-14509167D01*
X3657500Y-14499643D01*
X3686071Y-14499643D01*
X3705119Y-14509167D01*
X3714643Y-14528214D01*
X3714643Y-14632976D01*
X3714643Y-14528214D02*
X3724167Y-14509167D01*
X3743214Y-14499643D01*
X3771786Y-14499643D01*
X3790833Y-14509167D01*
X3800357Y-14528214D01*
X3800357Y-14632976D01*
X4190833Y-14423452D02*
X4019405Y-14680595D01*
X4447976Y-14432976D02*
X4467024Y-14432976D01*
X4486071Y-14442500D01*
X4495595Y-14452024D01*
X4505119Y-14471071D01*
X4514643Y-14509167D01*
X4514643Y-14556786D01*
X4505119Y-14594881D01*
X4495595Y-14613928D01*
X4486071Y-14623452D01*
X4467024Y-14632976D01*
X4447976Y-14632976D01*
X4428929Y-14623452D01*
X4419405Y-14613928D01*
X4409881Y-14594881D01*
X4400357Y-14556786D01*
X4400357Y-14509167D01*
X4409881Y-14471071D01*
X4419405Y-14452024D01*
X4428929Y-14442500D01*
X4447976Y-14432976D01*
X4600357Y-14613928D02*
X4609881Y-14623452D01*
X4600357Y-14632976D01*
X4590833Y-14623452D01*
X4600357Y-14613928D01*
X4600357Y-14632976D01*
X4733690Y-14432976D02*
X4752738Y-14432976D01*
X4771786Y-14442500D01*
X4781310Y-14452024D01*
X4790833Y-14471071D01*
X4800357Y-14509167D01*
X4800357Y-14556786D01*
X4790833Y-14594881D01*
X4781310Y-14613928D01*
X4771786Y-14623452D01*
X4752738Y-14632976D01*
X4733690Y-14632976D01*
X4714643Y-14623452D01*
X4705119Y-14613928D01*
X4695595Y-14594881D01*
X4686071Y-14556786D01*
X4686071Y-14509167D01*
X4695595Y-14471071D01*
X4705119Y-14452024D01*
X4714643Y-14442500D01*
X4733690Y-14432976D01*
X4971786Y-14432976D02*
X4933690Y-14432976D01*
X4914643Y-14442500D01*
X4905119Y-14452024D01*
X4886071Y-14480595D01*
X4876548Y-14518690D01*
X4876548Y-14594881D01*
X4886071Y-14613928D01*
X4895595Y-14623452D01*
X4914643Y-14632976D01*
X4952738Y-14632976D01*
X4971786Y-14623452D01*
X4981310Y-14613928D01*
X4990833Y-14594881D01*
X4990833Y-14547262D01*
X4981310Y-14528214D01*
X4971786Y-14518690D01*
X4952738Y-14509167D01*
X4914643Y-14509167D01*
X4895595Y-14518690D01*
X4886071Y-14528214D01*
X4876548Y-14547262D01*
X5057500Y-14432976D02*
X5181310Y-14432976D01*
X5114643Y-14509167D01*
X5143214Y-14509167D01*
X5162262Y-14518690D01*
X5171786Y-14528214D01*
X5181310Y-14547262D01*
X5181310Y-14594881D01*
X5171786Y-14613928D01*
X5162262Y-14623452D01*
X5143214Y-14632976D01*
X5086071Y-14632976D01*
X5067024Y-14623452D01*
X5057500Y-14613928D01*
X5305119Y-14432976D02*
X5324167Y-14432976D01*
X5343214Y-14442500D01*
X5352738Y-14452024D01*
X5362262Y-14471071D01*
X5371786Y-14509167D01*
X5371786Y-14556786D01*
X5362262Y-14594881D01*
X5352738Y-14613928D01*
X5343214Y-14623452D01*
X5324167Y-14632976D01*
X5305119Y-14632976D01*
X5286071Y-14623452D01*
X5276548Y-14613928D01*
X5267024Y-14594881D01*
X5257500Y-14556786D01*
X5257500Y-14509167D01*
X5267024Y-14471071D01*
X5276548Y-14452024D01*
X5286071Y-14442500D01*
X5305119Y-14432976D01*
X5447976Y-14432976D02*
X5447976Y-14471071D01*
X5524167Y-14432976D02*
X5524167Y-14471071D01*
X5819405Y-14709167D02*
X5809881Y-14699643D01*
X5790833Y-14671071D01*
X5781309Y-14652024D01*
X5771786Y-14623452D01*
X5762262Y-14575833D01*
X5762262Y-14537738D01*
X5771786Y-14490119D01*
X5781309Y-14461548D01*
X5790833Y-14442500D01*
X5809881Y-14413928D01*
X5819405Y-14404405D01*
X6000357Y-14632976D02*
X5886071Y-14632976D01*
X5943214Y-14632976D02*
X5943214Y-14432976D01*
X5924167Y-14461548D01*
X5905119Y-14480595D01*
X5886071Y-14490119D01*
X6114643Y-14518690D02*
X6095595Y-14509167D01*
X6086071Y-14499643D01*
X6076548Y-14480595D01*
X6076548Y-14471071D01*
X6086071Y-14452024D01*
X6095595Y-14442500D01*
X6114643Y-14432976D01*
X6152738Y-14432976D01*
X6171786Y-14442500D01*
X6181309Y-14452024D01*
X6190833Y-14471071D01*
X6190833Y-14480595D01*
X6181309Y-14499643D01*
X6171786Y-14509167D01*
X6152738Y-14518690D01*
X6114643Y-14518690D01*
X6095595Y-14528214D01*
X6086071Y-14537738D01*
X6076548Y-14556786D01*
X6076548Y-14594881D01*
X6086071Y-14613928D01*
X6095595Y-14623452D01*
X6114643Y-14632976D01*
X6152738Y-14632976D01*
X6171786Y-14623452D01*
X6181309Y-14613928D01*
X6190833Y-14594881D01*
X6190833Y-14556786D01*
X6181309Y-14537738D01*
X6171786Y-14528214D01*
X6152738Y-14518690D01*
X6428928Y-14632976D02*
X6428928Y-14432976D01*
X6514643Y-14632976D02*
X6514643Y-14528214D01*
X6505119Y-14509167D01*
X6486071Y-14499643D01*
X6457500Y-14499643D01*
X6438452Y-14509167D01*
X6428928Y-14518690D01*
X6638452Y-14632976D02*
X6619405Y-14623452D01*
X6609881Y-14613928D01*
X6600357Y-14594881D01*
X6600357Y-14537738D01*
X6609881Y-14518690D01*
X6619405Y-14509167D01*
X6638452Y-14499643D01*
X6667024Y-14499643D01*
X6686071Y-14509167D01*
X6695595Y-14518690D01*
X6705119Y-14537738D01*
X6705119Y-14594881D01*
X6695595Y-14613928D01*
X6686071Y-14623452D01*
X6667024Y-14632976D01*
X6638452Y-14632976D01*
X6819405Y-14632976D02*
X6800357Y-14623452D01*
X6790833Y-14604405D01*
X6790833Y-14432976D01*
X6971786Y-14623452D02*
X6952738Y-14632976D01*
X6914643Y-14632976D01*
X6895595Y-14623452D01*
X6886071Y-14604405D01*
X6886071Y-14528214D01*
X6895595Y-14509167D01*
X6914643Y-14499643D01*
X6952738Y-14499643D01*
X6971786Y-14509167D01*
X6981309Y-14528214D01*
X6981309Y-14547262D01*
X6886071Y-14566309D01*
X7057500Y-14623452D02*
X7076548Y-14632976D01*
X7114643Y-14632976D01*
X7133690Y-14623452D01*
X7143214Y-14604405D01*
X7143214Y-14594881D01*
X7133690Y-14575833D01*
X7114643Y-14566309D01*
X7086071Y-14566309D01*
X7067024Y-14556786D01*
X7057500Y-14537738D01*
X7057500Y-14528214D01*
X7067024Y-14509167D01*
X7086071Y-14499643D01*
X7114643Y-14499643D01*
X7133690Y-14509167D01*
X7209881Y-14709167D02*
X7219405Y-14699643D01*
X7238452Y-14671071D01*
X7247976Y-14652024D01*
X7257500Y-14623452D01*
X7267024Y-14575833D01*
X7267024Y-14537738D01*
X7257500Y-14490119D01*
X7247976Y-14461548D01*
X7238452Y-14442500D01*
X7219405Y-14413928D01*
X7209881Y-14404405D01*
M02*
