G04 #@! TF.GenerationSoftware,KiCad,Pcbnew,(6.0.6)*
G04 #@! TF.CreationDate,2022-08-19T10:50:45-05:00*
G04 #@! TF.ProjectId,lowercase,6c6f7765-7263-4617-9365-2e6b69636164,1*
G04 #@! TF.SameCoordinates,Original*
G04 #@! TF.FileFunction,Copper,L1,Top*
G04 #@! TF.FilePolarity,Positive*
%FSLAX46Y46*%
G04 Gerber Fmt 4.6, Leading zero omitted, Abs format (unit mm)*
G04 Created by KiCad (PCBNEW (6.0.6)) date 2022-08-19 10:50:45*
%MOMM*%
%LPD*%
G01*
G04 APERTURE LIST*
G04 #@! TA.AperFunction,EtchedComponent*
%ADD10C,0.600000*%
G04 #@! TD*
G04 #@! TA.AperFunction,EtchedComponent*
%ADD11C,0.100000*%
G04 #@! TD*
G04 #@! TA.AperFunction,ConnectorPad*
%ADD12R,6.300000X13.000000*%
G04 #@! TD*
G04 #@! TA.AperFunction,ConnectorPad*
%ADD13R,3.000000X5.500000*%
G04 #@! TD*
G04 #@! TA.AperFunction,ComponentPad*
%ADD14R,2.100000X2.100000*%
G04 #@! TD*
G04 #@! TA.AperFunction,ComponentPad*
%ADD15O,2.100000X2.100000*%
G04 #@! TD*
G04 #@! TA.AperFunction,Conductor*
%ADD16C,1.300000*%
G04 #@! TD*
G04 #@! TA.AperFunction,Conductor*
%ADD17C,0.500000*%
G04 #@! TD*
G04 APERTURE END LIST*
D10*
X33550000Y-52350000D02*
G75*
G03*
X33550000Y-52350000I-300000J0D01*
G01*
X47050000Y-52350000D02*
G75*
G03*
X47050000Y-52350000I-300000J0D01*
G01*
G36*
X39000000Y-66500000D02*
G01*
X32700000Y-66500000D01*
X32700000Y-53500000D01*
X39000000Y-53500000D01*
X39000000Y-66500000D01*
G37*
D11*
X39000000Y-66500000D02*
X32700000Y-66500000D01*
X32700000Y-53500000D01*
X39000000Y-53500000D01*
X39000000Y-66500000D01*
D10*
X49431250Y-73350000D02*
G75*
G03*
X49431250Y-73350000I-300000J0D01*
G01*
X35931250Y-73350000D02*
G75*
G03*
X35931250Y-73350000I-300000J0D01*
G01*
G36*
X41381250Y-87500000D02*
G01*
X35081250Y-87500000D01*
X35081250Y-74500000D01*
X41381250Y-74500000D01*
X41381250Y-87500000D01*
G37*
D11*
X41381250Y-87500000D02*
X35081250Y-87500000D01*
X35081250Y-74500000D01*
X41381250Y-74500000D01*
X41381250Y-87500000D01*
D10*
X40693750Y-94350000D02*
G75*
G03*
X40693750Y-94350000I-300000J0D01*
G01*
X54193750Y-94350000D02*
G75*
G03*
X54193750Y-94350000I-300000J0D01*
G01*
G36*
X46143750Y-108500000D02*
G01*
X39843750Y-108500000D01*
X39843750Y-95500000D01*
X46143750Y-95500000D01*
X46143750Y-108500000D01*
G37*
D11*
X46143750Y-108500000D02*
X39843750Y-108500000D01*
X39843750Y-95500000D01*
X46143750Y-95500000D01*
X46143750Y-108500000D01*
D10*
X51812500Y-115350000D02*
G75*
G03*
X51812500Y-115350000I-300000J0D01*
G01*
X38312500Y-115350000D02*
G75*
G03*
X38312500Y-115350000I-300000J0D01*
G01*
G36*
X43762500Y-129500000D02*
G01*
X37462500Y-129500000D01*
X37462500Y-116500000D01*
X43762500Y-116500000D01*
X43762500Y-129500000D01*
G37*
D11*
X43762500Y-129500000D02*
X37462500Y-129500000D01*
X37462500Y-116500000D01*
X43762500Y-116500000D01*
X43762500Y-129500000D01*
D10*
X66100000Y-52350000D02*
G75*
G03*
X66100000Y-52350000I-300000J0D01*
G01*
X52600000Y-52350000D02*
G75*
G03*
X52600000Y-52350000I-300000J0D01*
G01*
G36*
X58050000Y-66500000D02*
G01*
X51750000Y-66500000D01*
X51750000Y-53500000D01*
X58050000Y-53500000D01*
X58050000Y-66500000D01*
G37*
D11*
X58050000Y-66500000D02*
X51750000Y-66500000D01*
X51750000Y-53500000D01*
X58050000Y-53500000D01*
X58050000Y-66500000D01*
D10*
X70860000Y-73320000D02*
G75*
G03*
X70860000Y-73320000I-300000J0D01*
G01*
X57360000Y-73320000D02*
G75*
G03*
X57360000Y-73320000I-300000J0D01*
G01*
G36*
X62810000Y-87470000D02*
G01*
X56510000Y-87470000D01*
X56510000Y-74470000D01*
X62810000Y-74470000D01*
X62810000Y-87470000D01*
G37*
D11*
X62810000Y-87470000D02*
X56510000Y-87470000D01*
X56510000Y-74470000D01*
X62810000Y-74470000D01*
X62810000Y-87470000D01*
D10*
X80387500Y-94350000D02*
G75*
G03*
X80387500Y-94350000I-300000J0D01*
G01*
X66887500Y-94350000D02*
G75*
G03*
X66887500Y-94350000I-300000J0D01*
G01*
G36*
X72337500Y-108500000D02*
G01*
X66037500Y-108500000D01*
X66037500Y-95500000D01*
X72337500Y-95500000D01*
X72337500Y-108500000D01*
G37*
D11*
X72337500Y-108500000D02*
X66037500Y-108500000D01*
X66037500Y-95500000D01*
X72337500Y-95500000D01*
X72337500Y-108500000D01*
D10*
X132775000Y-115350000D02*
G75*
G03*
X132775000Y-115350000I-300000J0D01*
G01*
X119275000Y-115350000D02*
G75*
G03*
X119275000Y-115350000I-300000J0D01*
G01*
G36*
X124725000Y-129500000D02*
G01*
X118425000Y-129500000D01*
X118425000Y-116500000D01*
X124725000Y-116500000D01*
X124725000Y-129500000D01*
G37*
D11*
X124725000Y-129500000D02*
X118425000Y-129500000D01*
X118425000Y-116500000D01*
X124725000Y-116500000D01*
X124725000Y-129500000D01*
D10*
X85150000Y-52350000D02*
G75*
G03*
X85150000Y-52350000I-300000J0D01*
G01*
X71650000Y-52350000D02*
G75*
G03*
X71650000Y-52350000I-300000J0D01*
G01*
G36*
X77100000Y-66500000D02*
G01*
X70800000Y-66500000D01*
X70800000Y-53500000D01*
X77100000Y-53500000D01*
X77100000Y-66500000D01*
G37*
D11*
X77100000Y-66500000D02*
X70800000Y-66500000D01*
X70800000Y-53500000D01*
X77100000Y-53500000D01*
X77100000Y-66500000D01*
D10*
X89912500Y-73350000D02*
G75*
G03*
X89912500Y-73350000I-300000J0D01*
G01*
X76412500Y-73350000D02*
G75*
G03*
X76412500Y-73350000I-300000J0D01*
G01*
G36*
X81862500Y-87500000D02*
G01*
X75562500Y-87500000D01*
X75562500Y-74500000D01*
X81862500Y-74500000D01*
X81862500Y-87500000D01*
G37*
D11*
X81862500Y-87500000D02*
X75562500Y-87500000D01*
X75562500Y-74500000D01*
X81862500Y-74500000D01*
X81862500Y-87500000D01*
D10*
X85937500Y-94350000D02*
G75*
G03*
X85937500Y-94350000I-300000J0D01*
G01*
X99437500Y-94350000D02*
G75*
G03*
X99437500Y-94350000I-300000J0D01*
G01*
G36*
X91387500Y-108500000D02*
G01*
X85087500Y-108500000D01*
X85087500Y-95500000D01*
X91387500Y-95500000D01*
X91387500Y-108500000D01*
G37*
D11*
X91387500Y-108500000D02*
X85087500Y-108500000D01*
X85087500Y-95500000D01*
X91387500Y-95500000D01*
X91387500Y-108500000D01*
D10*
X216118750Y-115350000D02*
G75*
G03*
X216118750Y-115350000I-300000J0D01*
G01*
X202618750Y-115350000D02*
G75*
G03*
X202618750Y-115350000I-300000J0D01*
G01*
G36*
X208068750Y-129500000D02*
G01*
X201768750Y-129500000D01*
X201768750Y-116500000D01*
X208068750Y-116500000D01*
X208068750Y-129500000D01*
G37*
D11*
X208068750Y-129500000D02*
X201768750Y-129500000D01*
X201768750Y-116500000D01*
X208068750Y-116500000D01*
X208068750Y-129500000D01*
D10*
X90700000Y-52350000D02*
G75*
G03*
X90700000Y-52350000I-300000J0D01*
G01*
X104200000Y-52350000D02*
G75*
G03*
X104200000Y-52350000I-300000J0D01*
G01*
G36*
X96150000Y-66500000D02*
G01*
X89850000Y-66500000D01*
X89850000Y-53500000D01*
X96150000Y-53500000D01*
X96150000Y-66500000D01*
G37*
D11*
X96150000Y-66500000D02*
X89850000Y-66500000D01*
X89850000Y-53500000D01*
X96150000Y-53500000D01*
X96150000Y-66500000D01*
D10*
X95462500Y-73350000D02*
G75*
G03*
X95462500Y-73350000I-300000J0D01*
G01*
X108962500Y-73350000D02*
G75*
G03*
X108962500Y-73350000I-300000J0D01*
G01*
G36*
X100912500Y-87500000D02*
G01*
X94612500Y-87500000D01*
X94612500Y-74500000D01*
X100912500Y-74500000D01*
X100912500Y-87500000D01*
G37*
D11*
X100912500Y-87500000D02*
X94612500Y-87500000D01*
X94612500Y-74500000D01*
X100912500Y-74500000D01*
X100912500Y-87500000D01*
D10*
X118487500Y-94350000D02*
G75*
G03*
X118487500Y-94350000I-300000J0D01*
G01*
X104987500Y-94350000D02*
G75*
G03*
X104987500Y-94350000I-300000J0D01*
G01*
G36*
X110437500Y-108500000D02*
G01*
X104137500Y-108500000D01*
X104137500Y-95500000D01*
X110437500Y-95500000D01*
X110437500Y-108500000D01*
G37*
D11*
X110437500Y-108500000D02*
X104137500Y-108500000D01*
X104137500Y-95500000D01*
X110437500Y-95500000D01*
X110437500Y-108500000D01*
D10*
X123250000Y-52350000D02*
G75*
G03*
X123250000Y-52350000I-300000J0D01*
G01*
X109750000Y-52350000D02*
G75*
G03*
X109750000Y-52350000I-300000J0D01*
G01*
G36*
X115200000Y-66500000D02*
G01*
X108900000Y-66500000D01*
X108900000Y-53500000D01*
X115200000Y-53500000D01*
X115200000Y-66500000D01*
G37*
D11*
X115200000Y-66500000D02*
X108900000Y-66500000D01*
X108900000Y-53500000D01*
X115200000Y-53500000D01*
X115200000Y-66500000D01*
D10*
X128012500Y-73350000D02*
G75*
G03*
X128012500Y-73350000I-300000J0D01*
G01*
X114512500Y-73350000D02*
G75*
G03*
X114512500Y-73350000I-300000J0D01*
G01*
G36*
X119962500Y-87500000D02*
G01*
X113662500Y-87500000D01*
X113662500Y-74500000D01*
X119962500Y-74500000D01*
X119962500Y-87500000D01*
G37*
D11*
X119962500Y-87500000D02*
X113662500Y-87500000D01*
X113662500Y-74500000D01*
X119962500Y-74500000D01*
X119962500Y-87500000D01*
D10*
X124037500Y-94350000D02*
G75*
G03*
X124037500Y-94350000I-300000J0D01*
G01*
X137537500Y-94350000D02*
G75*
G03*
X137537500Y-94350000I-300000J0D01*
G01*
G36*
X129487500Y-108500000D02*
G01*
X123187500Y-108500000D01*
X123187500Y-95500000D01*
X129487500Y-95500000D01*
X129487500Y-108500000D01*
G37*
D11*
X129487500Y-108500000D02*
X123187500Y-108500000D01*
X123187500Y-95500000D01*
X129487500Y-95500000D01*
X129487500Y-108500000D01*
D10*
X142300000Y-52350000D02*
G75*
G03*
X142300000Y-52350000I-300000J0D01*
G01*
X128800000Y-52350000D02*
G75*
G03*
X128800000Y-52350000I-300000J0D01*
G01*
G36*
X134250000Y-66500000D02*
G01*
X127950000Y-66500000D01*
X127950000Y-53500000D01*
X134250000Y-53500000D01*
X134250000Y-66500000D01*
G37*
D11*
X134250000Y-66500000D02*
X127950000Y-66500000D01*
X127950000Y-53500000D01*
X134250000Y-53500000D01*
X134250000Y-66500000D01*
D10*
X147062500Y-73350000D02*
G75*
G03*
X147062500Y-73350000I-300000J0D01*
G01*
X133562500Y-73350000D02*
G75*
G03*
X133562500Y-73350000I-300000J0D01*
G01*
G36*
X139012500Y-87500000D02*
G01*
X132712500Y-87500000D01*
X132712500Y-74500000D01*
X139012500Y-74500000D01*
X139012500Y-87500000D01*
G37*
D11*
X139012500Y-87500000D02*
X132712500Y-87500000D01*
X132712500Y-74500000D01*
X139012500Y-74500000D01*
X139012500Y-87500000D01*
D10*
X156587500Y-94350000D02*
G75*
G03*
X156587500Y-94350000I-300000J0D01*
G01*
X143087500Y-94350000D02*
G75*
G03*
X143087500Y-94350000I-300000J0D01*
G01*
G36*
X148537500Y-108500000D02*
G01*
X142237500Y-108500000D01*
X142237500Y-95500000D01*
X148537500Y-95500000D01*
X148537500Y-108500000D01*
G37*
D11*
X148537500Y-108500000D02*
X142237500Y-108500000D01*
X142237500Y-95500000D01*
X148537500Y-95500000D01*
X148537500Y-108500000D01*
D10*
X161350000Y-52350000D02*
G75*
G03*
X161350000Y-52350000I-300000J0D01*
G01*
X147850000Y-52350000D02*
G75*
G03*
X147850000Y-52350000I-300000J0D01*
G01*
G36*
X153300000Y-66500000D02*
G01*
X147000000Y-66500000D01*
X147000000Y-53500000D01*
X153300000Y-53500000D01*
X153300000Y-66500000D01*
G37*
D11*
X153300000Y-66500000D02*
X147000000Y-66500000D01*
X147000000Y-53500000D01*
X153300000Y-53500000D01*
X153300000Y-66500000D01*
D10*
X166112500Y-73350000D02*
G75*
G03*
X166112500Y-73350000I-300000J0D01*
G01*
X152612500Y-73350000D02*
G75*
G03*
X152612500Y-73350000I-300000J0D01*
G01*
G36*
X158062500Y-87500000D02*
G01*
X151762500Y-87500000D01*
X151762500Y-74500000D01*
X158062500Y-74500000D01*
X158062500Y-87500000D01*
G37*
D11*
X158062500Y-87500000D02*
X151762500Y-87500000D01*
X151762500Y-74500000D01*
X158062500Y-74500000D01*
X158062500Y-87500000D01*
D10*
X162137500Y-94350000D02*
G75*
G03*
X162137500Y-94350000I-300000J0D01*
G01*
X175637500Y-94350000D02*
G75*
G03*
X175637500Y-94350000I-300000J0D01*
G01*
G36*
X167587500Y-108500000D02*
G01*
X161287500Y-108500000D01*
X161287500Y-95500000D01*
X167587500Y-95500000D01*
X167587500Y-108500000D01*
G37*
D11*
X167587500Y-108500000D02*
X161287500Y-108500000D01*
X161287500Y-95500000D01*
X167587500Y-95500000D01*
X167587500Y-108500000D01*
D10*
X180400000Y-52350000D02*
G75*
G03*
X180400000Y-52350000I-300000J0D01*
G01*
X166900000Y-52350000D02*
G75*
G03*
X166900000Y-52350000I-300000J0D01*
G01*
G36*
X172350000Y-66500000D02*
G01*
X166050000Y-66500000D01*
X166050000Y-53500000D01*
X172350000Y-53500000D01*
X172350000Y-66500000D01*
G37*
D11*
X172350000Y-66500000D02*
X166050000Y-66500000D01*
X166050000Y-53500000D01*
X172350000Y-53500000D01*
X172350000Y-66500000D01*
D10*
X171662500Y-73350000D02*
G75*
G03*
X171662500Y-73350000I-300000J0D01*
G01*
X185162500Y-73350000D02*
G75*
G03*
X185162500Y-73350000I-300000J0D01*
G01*
G36*
X177112500Y-87500000D02*
G01*
X170812500Y-87500000D01*
X170812500Y-74500000D01*
X177112500Y-74500000D01*
X177112500Y-87500000D01*
G37*
D11*
X177112500Y-87500000D02*
X170812500Y-87500000D01*
X170812500Y-74500000D01*
X177112500Y-74500000D01*
X177112500Y-87500000D01*
D10*
X194687500Y-94350000D02*
G75*
G03*
X194687500Y-94350000I-300000J0D01*
G01*
X181187500Y-94350000D02*
G75*
G03*
X181187500Y-94350000I-300000J0D01*
G01*
G36*
X186637500Y-108500000D02*
G01*
X180337500Y-108500000D01*
X180337500Y-95500000D01*
X186637500Y-95500000D01*
X186637500Y-108500000D01*
G37*
D11*
X186637500Y-108500000D02*
X180337500Y-108500000D01*
X180337500Y-95500000D01*
X186637500Y-95500000D01*
X186637500Y-108500000D01*
D10*
X199450000Y-52350000D02*
G75*
G03*
X199450000Y-52350000I-300000J0D01*
G01*
X185950000Y-52350000D02*
G75*
G03*
X185950000Y-52350000I-300000J0D01*
G01*
G36*
X191400000Y-66500000D02*
G01*
X185100000Y-66500000D01*
X185100000Y-53500000D01*
X191400000Y-53500000D01*
X191400000Y-66500000D01*
G37*
D11*
X191400000Y-66500000D02*
X185100000Y-66500000D01*
X185100000Y-53500000D01*
X191400000Y-53500000D01*
X191400000Y-66500000D01*
D10*
X204212500Y-73350000D02*
G75*
G03*
X204212500Y-73350000I-300000J0D01*
G01*
X190712500Y-73350000D02*
G75*
G03*
X190712500Y-73350000I-300000J0D01*
G01*
G36*
X196162500Y-87500000D02*
G01*
X189862500Y-87500000D01*
X189862500Y-74500000D01*
X196162500Y-74500000D01*
X196162500Y-87500000D01*
G37*
D11*
X196162500Y-87500000D02*
X189862500Y-87500000D01*
X189862500Y-74500000D01*
X196162500Y-74500000D01*
X196162500Y-87500000D01*
D10*
X205000000Y-94350000D02*
G75*
G03*
X205000000Y-94350000I-300000J0D01*
G01*
X218500000Y-94350000D02*
G75*
G03*
X218500000Y-94350000I-300000J0D01*
G01*
G36*
X210450000Y-108500000D02*
G01*
X204150000Y-108500000D01*
X204150000Y-95500000D01*
X210450000Y-95500000D01*
X210450000Y-108500000D01*
G37*
D11*
X210450000Y-108500000D02*
X204150000Y-108500000D01*
X204150000Y-95500000D01*
X210450000Y-95500000D01*
X210450000Y-108500000D01*
D10*
X220881250Y-52350000D02*
G75*
G03*
X220881250Y-52350000I-300000J0D01*
G01*
X207381250Y-52350000D02*
G75*
G03*
X207381250Y-52350000I-300000J0D01*
G01*
G36*
X212831250Y-66500000D02*
G01*
X206531250Y-66500000D01*
X206531250Y-53500000D01*
X212831250Y-53500000D01*
X212831250Y-66500000D01*
G37*
D11*
X212831250Y-66500000D02*
X206531250Y-66500000D01*
X206531250Y-53500000D01*
X212831250Y-53500000D01*
X212831250Y-66500000D01*
D10*
X223262500Y-73350000D02*
G75*
G03*
X223262500Y-73350000I-300000J0D01*
G01*
X209762500Y-73350000D02*
G75*
G03*
X209762500Y-73350000I-300000J0D01*
G01*
G36*
X215212500Y-87500000D02*
G01*
X208912500Y-87500000D01*
X208912500Y-74500000D01*
X215212500Y-74500000D01*
X215212500Y-87500000D01*
G37*
D11*
X215212500Y-87500000D02*
X208912500Y-87500000D01*
X208912500Y-74500000D01*
X215212500Y-74500000D01*
X215212500Y-87500000D01*
D12*
X44150000Y-60000000D03*
X46531250Y-81000000D03*
X51293750Y-102000000D03*
X48912500Y-123000000D03*
X63200000Y-60000000D03*
X67960000Y-80970000D03*
X77487500Y-102000000D03*
X129875000Y-123000000D03*
X82250000Y-60000000D03*
X87012500Y-81000000D03*
X96537500Y-102000000D03*
X213218750Y-123000000D03*
X101300000Y-60000000D03*
X106062500Y-81000000D03*
X115587500Y-102000000D03*
X120350000Y-60000000D03*
X125112500Y-81000000D03*
X134637500Y-102000000D03*
X139400000Y-60000000D03*
X144162500Y-81000000D03*
X153687500Y-102000000D03*
X158450000Y-60000000D03*
X163212500Y-81000000D03*
X172737500Y-102000000D03*
X177500000Y-60000000D03*
X182262500Y-81000000D03*
X191787500Y-102000000D03*
X196550000Y-60000000D03*
X201312500Y-81000000D03*
X215600000Y-102000000D03*
X217981250Y-60000000D03*
X220362500Y-81000000D03*
D13*
X88500000Y-123000000D03*
D14*
X40020000Y-37890000D03*
D15*
X43980000Y-37890000D03*
X47940000Y-37890000D03*
X51900000Y-37890000D03*
X55860000Y-37890000D03*
X59820000Y-37890000D03*
X111300000Y-37890000D03*
X115260000Y-37890000D03*
X119220000Y-37890000D03*
X123180000Y-37890000D03*
X127140000Y-37890000D03*
X131100000Y-37890000D03*
X135060000Y-37890000D03*
X139020000Y-37890000D03*
X142980000Y-37890000D03*
X146940000Y-37890000D03*
X150900000Y-37890000D03*
X154860000Y-37890000D03*
D13*
X164400000Y-123000000D03*
D16*
X49840000Y-37102994D02*
X48727006Y-35990000D01*
X24760000Y-33200000D02*
X24760000Y-33101828D01*
X53800000Y-36750000D02*
X52980000Y-35930000D01*
X56647006Y-35990000D02*
X57760000Y-37102994D01*
X24810000Y-105694366D02*
X24810000Y-33250000D01*
X53420000Y-39790000D02*
X48727006Y-39790000D01*
X48727006Y-35990000D02*
X47595634Y-35990000D01*
X53480000Y-39790000D02*
X53450000Y-39760000D01*
X26057817Y-106942183D02*
X24810000Y-105694366D01*
X51778274Y-35930000D02*
X49638274Y-33790000D01*
X52980000Y-35930000D02*
X51778274Y-35930000D01*
X45725634Y-34120000D02*
X29964366Y-34120000D01*
X53800000Y-36750000D02*
X53800000Y-37520000D01*
X43980000Y-37890000D02*
X45880000Y-39790000D01*
X27010000Y-33963096D02*
X27010000Y-90320000D01*
X53891268Y-33730000D02*
X56151268Y-35990000D01*
X53800000Y-39470000D02*
X53480000Y-39790000D01*
X40020000Y-37890000D02*
X43980000Y-37890000D01*
X57760000Y-38677006D02*
X56647006Y-39790000D01*
X49638274Y-33790000D02*
X48506902Y-33790000D01*
X47595634Y-35990000D02*
X45725634Y-34120000D01*
X48506902Y-33790000D02*
X46636902Y-31920000D01*
X53450000Y-39760000D02*
X53420000Y-39790000D01*
X29300000Y-69400000D02*
X31020000Y-69400000D01*
X27010000Y-90320000D02*
X28810000Y-90320000D01*
X24760000Y-33101828D02*
X28141828Y-29720000D01*
X53620001Y-36570001D02*
X53800000Y-36750000D01*
X48727006Y-39790000D02*
X45880000Y-39790000D01*
X29053096Y-31920000D02*
X27010000Y-33963096D01*
X46636902Y-31920000D02*
X29053096Y-31920000D01*
X57760000Y-37102994D02*
X57760000Y-38677006D01*
X29300000Y-34784365D02*
X29300000Y-69400000D01*
X49418170Y-31590000D02*
X50549542Y-31590000D01*
X48727006Y-39790000D02*
X49840000Y-38677006D01*
X53800000Y-37520000D02*
X53620001Y-36570001D01*
X52689542Y-33730000D02*
X53891268Y-33730000D01*
X49840000Y-38677006D02*
X49840000Y-37102994D01*
X53800000Y-37520000D02*
X53800000Y-39470000D01*
X56151268Y-35990000D02*
X56647006Y-35990000D01*
X56647006Y-39790000D02*
X53480000Y-39790000D01*
X47548170Y-29720000D02*
X49418170Y-31590000D01*
X24810000Y-33250000D02*
X24760000Y-33200000D01*
X50549542Y-31590000D02*
X52689542Y-33730000D01*
X29964366Y-34120000D02*
X29300000Y-34784365D01*
X28141828Y-29720000D02*
X47548170Y-29720000D01*
D17*
X213218750Y-112618750D02*
X213218750Y-123000000D01*
X170320000Y-112500000D02*
X173850000Y-112500000D01*
X129875000Y-112585000D02*
X129875000Y-123000000D01*
X59820000Y-37607360D02*
X59820000Y-37890000D01*
X92260000Y-123000000D02*
X92260000Y-112560000D01*
X56606902Y-34890000D02*
X57102640Y-34890000D01*
X88500000Y-123000000D02*
X92260000Y-123000000D01*
X48980000Y-112500000D02*
X23660000Y-112500000D01*
X48912500Y-112567500D02*
X48912500Y-123000000D01*
X51005176Y-30490000D02*
X53145176Y-32630000D01*
X168150000Y-122970000D02*
X168150000Y-112500000D01*
X94420000Y-112500000D02*
X170320000Y-112500000D01*
X48980000Y-112500000D02*
X48912500Y-112567500D01*
X168150000Y-122970000D02*
X168120000Y-123000000D01*
X168120000Y-123000000D02*
X164400000Y-123000000D01*
X53145176Y-32630000D02*
X54346902Y-32630000D01*
X48003804Y-28620000D02*
X49873804Y-30490000D01*
X27686193Y-28620000D02*
X48003804Y-28620000D01*
X57102640Y-34890000D02*
X59820000Y-37607360D01*
X48980000Y-112500000D02*
X92320000Y-112500000D01*
X213100000Y-112500000D02*
X213218750Y-112618750D01*
X129790000Y-112500000D02*
X129875000Y-112585000D01*
X23660000Y-32646194D02*
X27686193Y-28620000D01*
X49873804Y-30490000D02*
X51005176Y-30490000D01*
X173850000Y-112500000D02*
X213100000Y-112500000D01*
X92320000Y-112500000D02*
X94420000Y-112500000D01*
X92260000Y-112560000D02*
X92320000Y-112500000D01*
X54346902Y-32630000D02*
X56606902Y-34890000D01*
X23660000Y-112500000D02*
X23660000Y-32646194D01*
X77390000Y-91500000D02*
X77610000Y-91500000D01*
X51293750Y-91646250D02*
X51293750Y-102000000D01*
X215600000Y-91500000D02*
X215600000Y-102000000D01*
X191720000Y-91500000D02*
X191787500Y-91567500D01*
X153520000Y-91500000D02*
X191720000Y-91500000D01*
X96537500Y-91797500D02*
X96537500Y-102000000D01*
X96240000Y-91500000D02*
X96537500Y-91797500D01*
X53435634Y-34830000D02*
X55860000Y-37254366D01*
X153520000Y-91500000D02*
X153687500Y-91667500D01*
X77487500Y-91597500D02*
X77487500Y-102000000D01*
X51440000Y-91500000D02*
X77390000Y-91500000D01*
X134390000Y-91500000D02*
X153520000Y-91500000D01*
X77610000Y-91500000D02*
X96240000Y-91500000D01*
X134637500Y-91747500D02*
X134637500Y-102000000D01*
X48962536Y-32690000D02*
X50093908Y-32690000D01*
X47092536Y-30820000D02*
X48962536Y-32690000D01*
X51440000Y-91500000D02*
X51293750Y-91646250D01*
X172737500Y-91572500D02*
X172737500Y-102000000D01*
X25910000Y-33507462D02*
X28597462Y-30820000D01*
X52233908Y-34830000D02*
X53435634Y-34830000D01*
X50093908Y-32690000D02*
X52233908Y-34830000D01*
X96240000Y-91500000D02*
X115390000Y-91500000D01*
X191787500Y-91567500D02*
X191787500Y-102000000D01*
X115390000Y-91500000D02*
X115587500Y-91697500D01*
X115390000Y-91500000D02*
X134390000Y-91500000D01*
X51440000Y-91500000D02*
X25910000Y-91500000D01*
X25910000Y-91500000D02*
X25910000Y-33507462D01*
X77390000Y-91500000D02*
X77487500Y-91597500D01*
X134390000Y-91500000D02*
X134637500Y-91747500D01*
X115587500Y-91697500D02*
X115587500Y-102000000D01*
X55860000Y-37254366D02*
X55860000Y-37890000D01*
X153687500Y-91667500D02*
X153687500Y-102000000D01*
X28597462Y-30820000D02*
X47092536Y-30820000D01*
X191720000Y-91500000D02*
X215600000Y-91500000D01*
X201480000Y-70500000D02*
X106130000Y-70500000D01*
X106130000Y-70500000D02*
X87080000Y-70500000D01*
X45100000Y-70500000D02*
X28200000Y-70500000D01*
X182300000Y-70500000D02*
X182262500Y-70537500D01*
X49182640Y-34890000D02*
X51900000Y-37607360D01*
X106062500Y-70567500D02*
X106062500Y-81000000D01*
X45100000Y-70500000D02*
X46330000Y-70500000D01*
X67940000Y-70500000D02*
X45100000Y-70500000D01*
X163400000Y-70500000D02*
X163212500Y-70687500D01*
X125030000Y-70500000D02*
X125112500Y-70582500D01*
X28200000Y-34328729D02*
X29508731Y-33020000D01*
X201480000Y-70500000D02*
X201312500Y-70667500D01*
X87012500Y-70567500D02*
X87080000Y-70500000D01*
X51900000Y-37607360D02*
X51900000Y-37890000D01*
X67960000Y-70520000D02*
X67960000Y-80970000D01*
X29508731Y-33020000D02*
X46181268Y-33020000D01*
X220362500Y-70500000D02*
X201480000Y-70500000D01*
X46330000Y-70500000D02*
X46531250Y-70701250D01*
X48051268Y-34890000D02*
X49182640Y-34890000D01*
X182262500Y-70537500D02*
X182262500Y-81000000D01*
X144162500Y-70527500D02*
X144162500Y-81000000D01*
X106130000Y-70500000D02*
X106062500Y-70567500D01*
X46181268Y-33020000D02*
X48051268Y-34890000D01*
X201312500Y-70667500D02*
X201312500Y-81000000D01*
X87080000Y-70500000D02*
X67940000Y-70500000D01*
X87012500Y-81000000D02*
X87012500Y-70567500D01*
X67940000Y-70500000D02*
X67960000Y-70520000D01*
X125112500Y-70582500D02*
X125112500Y-81000000D01*
X163212500Y-70687500D02*
X163212500Y-81000000D01*
X220362500Y-81000000D02*
X220362500Y-70500000D01*
X46531250Y-70701250D02*
X46531250Y-81000000D01*
X28200000Y-70500000D02*
X28200000Y-34328729D01*
X158600000Y-47850000D02*
X158450000Y-48000000D01*
X82460000Y-47850000D02*
X82250000Y-48060000D01*
X41710000Y-47850000D02*
X30400000Y-47850000D01*
X120350000Y-48030000D02*
X120350000Y-60000000D01*
X45270000Y-35220000D02*
X47940000Y-37890000D01*
X217981250Y-47850000D02*
X177300000Y-47850000D01*
X177300000Y-47850000D02*
X158600000Y-47850000D01*
X158600000Y-47850000D02*
X139340000Y-47850000D01*
X43900000Y-47850000D02*
X44150000Y-48100000D01*
X120530000Y-47850000D02*
X120350000Y-48030000D01*
X177300000Y-47850000D02*
X177500000Y-48050000D01*
X177500000Y-48050000D02*
X177500000Y-60000000D01*
X139400000Y-47910000D02*
X139400000Y-60000000D01*
X30420001Y-35220000D02*
X45270000Y-35220000D01*
X139340000Y-47850000D02*
X120530000Y-47850000D01*
X101300000Y-48050000D02*
X101300000Y-60000000D01*
X101500000Y-47850000D02*
X101300000Y-48050000D01*
X217981250Y-47850000D02*
X217981250Y-60000000D01*
X82460000Y-47850000D02*
X63140000Y-47850000D01*
X196550000Y-48250000D02*
X196550000Y-60000000D01*
X120530000Y-47850000D02*
X101500000Y-47850000D01*
X43900000Y-47850000D02*
X41710000Y-47850000D01*
X63200000Y-47910000D02*
X63200000Y-60000000D01*
X82250000Y-48060000D02*
X82250000Y-60000000D01*
X63140000Y-47850000D02*
X63200000Y-47910000D01*
X158450000Y-48000000D02*
X158450000Y-60000000D01*
X30400000Y-35240000D02*
X30420001Y-35220000D01*
X30400000Y-47850000D02*
X30400000Y-35240000D01*
X44150000Y-48100000D02*
X44150000Y-60000000D01*
X101500000Y-47850000D02*
X82460000Y-47850000D01*
X63140000Y-47850000D02*
X41710000Y-47850000D01*
X139340000Y-47850000D02*
X139400000Y-47910000D01*
G04 #@! TA.AperFunction,Conductor*
G36*
X233093621Y-26528502D02*
G01*
X233140114Y-26582158D01*
X233151500Y-26634500D01*
X233151500Y-117133033D01*
X233131498Y-117201154D01*
X233077842Y-117247647D01*
X233025268Y-117259033D01*
X228297311Y-117250322D01*
X228229227Y-117230194D01*
X228182833Y-117176453D01*
X228171543Y-117124621D01*
X228001168Y-45247719D01*
X228001125Y-45229605D01*
X114319446Y-45334961D01*
X31284617Y-45411914D01*
X31216478Y-45391975D01*
X31169935Y-45338362D01*
X31158500Y-45285914D01*
X31158500Y-38984669D01*
X38462001Y-38984669D01*
X38462371Y-38991490D01*
X38467895Y-39042352D01*
X38471521Y-39057604D01*
X38516676Y-39178054D01*
X38525214Y-39193649D01*
X38601715Y-39295724D01*
X38614276Y-39308285D01*
X38716351Y-39384786D01*
X38731946Y-39393324D01*
X38852394Y-39438478D01*
X38867649Y-39442105D01*
X38918514Y-39447631D01*
X38925328Y-39448000D01*
X39747885Y-39448000D01*
X39763124Y-39443525D01*
X39764329Y-39442135D01*
X39766000Y-39434452D01*
X39766000Y-39429884D01*
X40274000Y-39429884D01*
X40278475Y-39445123D01*
X40279865Y-39446328D01*
X40287548Y-39447999D01*
X41114669Y-39447999D01*
X41121490Y-39447629D01*
X41172352Y-39442105D01*
X41187604Y-39438479D01*
X41308054Y-39393324D01*
X41323649Y-39384786D01*
X41425724Y-39308285D01*
X41438285Y-39295724D01*
X41514786Y-39193649D01*
X41523324Y-39178054D01*
X41568478Y-39057606D01*
X41572105Y-39042351D01*
X41577631Y-38991486D01*
X41578000Y-38984672D01*
X41578000Y-38162115D01*
X41576625Y-38157431D01*
X42441933Y-38157431D01*
X42492517Y-38368125D01*
X42495566Y-38377510D01*
X42585625Y-38594933D01*
X42590107Y-38603728D01*
X42713065Y-38804376D01*
X42718872Y-38812369D01*
X42871708Y-38991317D01*
X42878683Y-38998292D01*
X43057631Y-39151128D01*
X43065624Y-39156935D01*
X43266272Y-39279893D01*
X43275067Y-39284375D01*
X43492490Y-39374434D01*
X43501875Y-39377483D01*
X43708385Y-39427062D01*
X43722470Y-39426357D01*
X43726000Y-39417478D01*
X43726000Y-39413176D01*
X44234000Y-39413176D01*
X44237973Y-39426707D01*
X44247431Y-39428067D01*
X44458125Y-39377483D01*
X44467510Y-39374434D01*
X44684933Y-39284375D01*
X44693728Y-39279893D01*
X44894376Y-39156935D01*
X44902369Y-39151128D01*
X45081317Y-38998292D01*
X45088292Y-38991317D01*
X45241128Y-38812369D01*
X45246935Y-38804376D01*
X45369893Y-38603728D01*
X45374375Y-38594933D01*
X45464434Y-38377510D01*
X45467483Y-38368125D01*
X45517062Y-38161615D01*
X45516357Y-38147530D01*
X45507478Y-38144000D01*
X44252115Y-38144000D01*
X44236876Y-38148475D01*
X44235671Y-38149865D01*
X44234000Y-38157548D01*
X44234000Y-39413176D01*
X43726000Y-39413176D01*
X43726000Y-38162115D01*
X43721525Y-38146876D01*
X43720135Y-38145671D01*
X43712452Y-38144000D01*
X42456824Y-38144000D01*
X42443293Y-38147973D01*
X42441933Y-38157431D01*
X41576625Y-38157431D01*
X41573525Y-38146876D01*
X41572135Y-38145671D01*
X41564452Y-38144000D01*
X40292115Y-38144000D01*
X40276876Y-38148475D01*
X40275671Y-38149865D01*
X40274000Y-38157548D01*
X40274000Y-39429884D01*
X39766000Y-39429884D01*
X39766000Y-38162115D01*
X39761525Y-38146876D01*
X39760135Y-38145671D01*
X39752452Y-38144000D01*
X38480116Y-38144000D01*
X38464877Y-38148475D01*
X38463672Y-38149865D01*
X38462001Y-38157548D01*
X38462001Y-38984669D01*
X31158500Y-38984669D01*
X31158500Y-37617885D01*
X38462000Y-37617885D01*
X38466475Y-37633124D01*
X38467865Y-37634329D01*
X38475548Y-37636000D01*
X39747885Y-37636000D01*
X39763124Y-37631525D01*
X39764329Y-37630135D01*
X39766000Y-37622452D01*
X39766000Y-37617885D01*
X40274000Y-37617885D01*
X40278475Y-37633124D01*
X40279865Y-37634329D01*
X40287548Y-37636000D01*
X41559884Y-37636000D01*
X41575123Y-37631525D01*
X41576328Y-37630135D01*
X41577999Y-37622452D01*
X41577999Y-37618385D01*
X42442938Y-37618385D01*
X42443643Y-37632470D01*
X42452522Y-37636000D01*
X43707885Y-37636000D01*
X43723124Y-37631525D01*
X43724329Y-37630135D01*
X43726000Y-37622452D01*
X43726000Y-37617885D01*
X44234000Y-37617885D01*
X44238475Y-37633124D01*
X44239865Y-37634329D01*
X44247548Y-37636000D01*
X45503176Y-37636000D01*
X45516707Y-37632027D01*
X45518067Y-37622569D01*
X45467483Y-37411875D01*
X45464434Y-37402490D01*
X45374375Y-37185067D01*
X45369893Y-37176272D01*
X45246935Y-36975624D01*
X45241128Y-36967631D01*
X45088292Y-36788683D01*
X45081317Y-36781708D01*
X44902369Y-36628872D01*
X44894376Y-36623065D01*
X44693728Y-36500107D01*
X44684933Y-36495625D01*
X44467510Y-36405566D01*
X44458125Y-36402517D01*
X44251615Y-36352938D01*
X44237530Y-36353643D01*
X44234000Y-36362522D01*
X44234000Y-37617885D01*
X43726000Y-37617885D01*
X43726000Y-36366824D01*
X43722027Y-36353293D01*
X43712569Y-36351933D01*
X43501875Y-36402517D01*
X43492490Y-36405566D01*
X43275067Y-36495625D01*
X43266272Y-36500107D01*
X43065624Y-36623065D01*
X43057631Y-36628872D01*
X42878683Y-36781708D01*
X42871708Y-36788683D01*
X42718872Y-36967631D01*
X42713065Y-36975624D01*
X42590107Y-37176272D01*
X42585625Y-37185067D01*
X42495566Y-37402490D01*
X42492517Y-37411875D01*
X42442938Y-37618385D01*
X41577999Y-37618385D01*
X41577999Y-36795331D01*
X41577629Y-36788510D01*
X41572105Y-36737648D01*
X41568479Y-36722396D01*
X41523324Y-36601946D01*
X41514786Y-36586351D01*
X41438285Y-36484276D01*
X41425724Y-36471715D01*
X41323649Y-36395214D01*
X41308054Y-36386676D01*
X41187606Y-36341522D01*
X41172351Y-36337895D01*
X41121486Y-36332369D01*
X41114672Y-36332000D01*
X40292115Y-36332000D01*
X40276876Y-36336475D01*
X40275671Y-36337865D01*
X40274000Y-36345548D01*
X40274000Y-37617885D01*
X39766000Y-37617885D01*
X39766000Y-36350116D01*
X39761525Y-36334877D01*
X39760135Y-36333672D01*
X39752452Y-36332001D01*
X38925331Y-36332001D01*
X38918510Y-36332371D01*
X38867648Y-36337895D01*
X38852396Y-36341521D01*
X38731946Y-36386676D01*
X38716351Y-36395214D01*
X38614276Y-36471715D01*
X38601715Y-36484276D01*
X38525214Y-36586351D01*
X38516676Y-36601946D01*
X38471522Y-36722394D01*
X38467895Y-36737649D01*
X38462369Y-36788514D01*
X38462000Y-36795328D01*
X38462000Y-37617885D01*
X31158500Y-37617885D01*
X31158500Y-36104500D01*
X31178502Y-36036379D01*
X31232158Y-35989886D01*
X31284500Y-35978500D01*
X44903629Y-35978500D01*
X44971750Y-35998502D01*
X44992724Y-36015405D01*
X46389947Y-37412628D01*
X46423973Y-37474940D01*
X46423370Y-37531138D01*
X46397085Y-37640621D01*
X46397084Y-37640629D01*
X46395928Y-37645443D01*
X46376681Y-37890000D01*
X46395928Y-38134557D01*
X46397082Y-38139364D01*
X46397083Y-38139370D01*
X46402424Y-38161615D01*
X46453195Y-38373092D01*
X46547073Y-38599732D01*
X46675248Y-38808896D01*
X46834567Y-38995433D01*
X46838323Y-38998641D01*
X47016861Y-39151128D01*
X47021104Y-39154752D01*
X47025327Y-39157340D01*
X47025330Y-39157342D01*
X47094515Y-39199738D01*
X47230268Y-39282927D01*
X47374967Y-39342864D01*
X47452335Y-39374911D01*
X47452337Y-39374912D01*
X47456908Y-39376805D01*
X47525715Y-39393324D01*
X47690630Y-39432917D01*
X47690636Y-39432918D01*
X47695443Y-39434072D01*
X47940000Y-39453319D01*
X48184557Y-39434072D01*
X48189364Y-39432918D01*
X48189370Y-39432917D01*
X48354285Y-39393324D01*
X48423092Y-39376805D01*
X48427663Y-39374912D01*
X48427665Y-39374911D01*
X48505033Y-39342864D01*
X48649732Y-39282927D01*
X48785485Y-39199738D01*
X48854670Y-39157342D01*
X48854673Y-39157340D01*
X48858896Y-39154752D01*
X48863140Y-39151128D01*
X49041677Y-38998641D01*
X49045433Y-38995433D01*
X49204752Y-38808896D01*
X49332927Y-38599732D01*
X49426805Y-38373092D01*
X49477576Y-38161615D01*
X49482917Y-38139370D01*
X49482918Y-38139364D01*
X49484072Y-38134557D01*
X49503319Y-37890000D01*
X49484072Y-37645443D01*
X49482915Y-37640621D01*
X49427960Y-37411720D01*
X49426805Y-37406908D01*
X49332927Y-37180268D01*
X49204752Y-36971104D01*
X49193056Y-36957409D01*
X49048641Y-36788323D01*
X49045433Y-36784567D01*
X48990500Y-36737649D01*
X48862663Y-36628465D01*
X48862660Y-36628463D01*
X48858896Y-36625248D01*
X48854673Y-36622660D01*
X48854670Y-36622658D01*
X48785485Y-36580262D01*
X48649732Y-36497073D01*
X48505033Y-36437136D01*
X48427665Y-36405089D01*
X48427663Y-36405088D01*
X48423092Y-36403195D01*
X48298862Y-36373370D01*
X48189370Y-36347083D01*
X48189364Y-36347082D01*
X48184557Y-36345928D01*
X47940000Y-36326681D01*
X47695443Y-36345928D01*
X47690629Y-36347084D01*
X47690621Y-36347085D01*
X47581138Y-36373370D01*
X47510230Y-36369824D01*
X47462628Y-36339947D01*
X45853770Y-34731089D01*
X45841384Y-34716677D01*
X45832851Y-34705082D01*
X45832846Y-34705077D01*
X45828508Y-34699182D01*
X45822930Y-34694443D01*
X45822927Y-34694440D01*
X45788232Y-34664965D01*
X45780716Y-34658035D01*
X45775021Y-34652340D01*
X45763102Y-34642910D01*
X45752749Y-34634719D01*
X45749345Y-34631928D01*
X45699297Y-34589409D01*
X45699295Y-34589408D01*
X45693715Y-34584667D01*
X45687199Y-34581339D01*
X45682150Y-34577972D01*
X45677021Y-34574805D01*
X45671284Y-34570266D01*
X45605125Y-34539345D01*
X45601225Y-34537439D01*
X45536192Y-34504231D01*
X45529084Y-34502492D01*
X45523441Y-34500393D01*
X45517678Y-34498476D01*
X45511050Y-34495378D01*
X45439583Y-34480513D01*
X45435299Y-34479543D01*
X45415037Y-34474585D01*
X45364390Y-34462192D01*
X45358788Y-34461844D01*
X45358785Y-34461844D01*
X45353236Y-34461500D01*
X45353238Y-34461464D01*
X45349245Y-34461225D01*
X45345053Y-34460851D01*
X45337885Y-34459360D01*
X45274083Y-34461086D01*
X45260479Y-34461454D01*
X45257072Y-34461500D01*
X30487076Y-34461500D01*
X30468123Y-34460066D01*
X30453909Y-34457903D01*
X30453907Y-34457903D01*
X30446671Y-34456802D01*
X30439378Y-34457395D01*
X30439377Y-34457395D01*
X30393984Y-34461086D01*
X30383773Y-34461500D01*
X30375708Y-34461500D01*
X30347497Y-34464789D01*
X30343164Y-34465218D01*
X30292481Y-34469339D01*
X30277675Y-34470543D01*
X30277674Y-34470543D01*
X30270383Y-34471136D01*
X30263421Y-34473391D01*
X30257447Y-34474585D01*
X30251583Y-34475971D01*
X30244320Y-34476818D01*
X30179372Y-34500393D01*
X30175722Y-34501718D01*
X30171561Y-34503147D01*
X30102119Y-34525641D01*
X30095861Y-34529438D01*
X30090366Y-34531954D01*
X30084941Y-34534671D01*
X30078064Y-34537167D01*
X30017030Y-34577182D01*
X30013340Y-34579510D01*
X29955711Y-34614479D01*
X29950909Y-34617393D01*
X29942532Y-34624791D01*
X29942508Y-34624764D01*
X29939513Y-34627420D01*
X29936272Y-34630130D01*
X29930149Y-34634144D01*
X29925115Y-34639458D01*
X29907102Y-34658473D01*
X29890311Y-34673302D01*
X29879182Y-34681492D01*
X29874445Y-34687068D01*
X29844968Y-34721764D01*
X29838038Y-34729279D01*
X29832352Y-34734965D01*
X29830090Y-34737824D01*
X29824231Y-34745229D01*
X29816902Y-34753690D01*
X29808511Y-34762547D01*
X29805108Y-34768405D01*
X29801505Y-34772923D01*
X29769406Y-34810706D01*
X29769403Y-34810710D01*
X29764667Y-34816285D01*
X29761337Y-34822806D01*
X29757982Y-34827837D01*
X29754819Y-34832958D01*
X29750276Y-34838700D01*
X29747178Y-34845329D01*
X29719370Y-34904825D01*
X29717445Y-34908763D01*
X29684231Y-34973808D01*
X29682493Y-34980912D01*
X29680398Y-34986543D01*
X29678481Y-34992305D01*
X29675384Y-34998932D01*
X29673894Y-35006095D01*
X29660513Y-35070415D01*
X29659543Y-35074699D01*
X29643527Y-35140152D01*
X29643526Y-35140158D01*
X29642192Y-35145610D01*
X29641500Y-35156764D01*
X29641464Y-35156762D01*
X29641225Y-35160755D01*
X29640853Y-35164926D01*
X29639361Y-35172096D01*
X29639559Y-35179416D01*
X29641454Y-35249529D01*
X29641500Y-35252934D01*
X29641500Y-45287554D01*
X29621498Y-45355675D01*
X29567842Y-45402168D01*
X29515618Y-45413554D01*
X29316592Y-45413738D01*
X29084617Y-45413953D01*
X29016477Y-45394014D01*
X28969935Y-45340401D01*
X28958500Y-45287953D01*
X28958500Y-34695101D01*
X28978502Y-34626980D01*
X28995405Y-34606005D01*
X29786008Y-33815404D01*
X29848320Y-33781379D01*
X29875103Y-33778500D01*
X45814897Y-33778500D01*
X45883018Y-33798502D01*
X45903992Y-33815405D01*
X47467498Y-35378911D01*
X47479884Y-35393323D01*
X47488417Y-35404918D01*
X47488422Y-35404923D01*
X47492760Y-35410818D01*
X47498338Y-35415557D01*
X47498341Y-35415560D01*
X47533036Y-35445035D01*
X47540552Y-35451965D01*
X47546247Y-35457660D01*
X47549129Y-35459940D01*
X47568519Y-35475281D01*
X47571923Y-35478072D01*
X47621971Y-35520591D01*
X47627553Y-35525333D01*
X47634069Y-35528661D01*
X47639118Y-35532028D01*
X47644247Y-35535195D01*
X47649984Y-35539734D01*
X47716140Y-35570653D01*
X47720037Y-35572558D01*
X47785076Y-35605769D01*
X47792184Y-35607508D01*
X47797827Y-35609607D01*
X47803590Y-35611524D01*
X47810218Y-35614622D01*
X47862060Y-35625405D01*
X47881680Y-35629486D01*
X47885964Y-35630456D01*
X47956878Y-35647808D01*
X47962480Y-35648156D01*
X47962483Y-35648156D01*
X47968032Y-35648500D01*
X47968030Y-35648536D01*
X47972023Y-35648775D01*
X47976215Y-35649149D01*
X47983383Y-35650640D01*
X48060788Y-35648546D01*
X48064196Y-35648500D01*
X48816269Y-35648500D01*
X48884390Y-35668502D01*
X48905364Y-35685405D01*
X50416246Y-37196287D01*
X50450272Y-37258599D01*
X50443560Y-37333600D01*
X50413195Y-37406908D01*
X50412040Y-37411720D01*
X50357086Y-37640621D01*
X50355928Y-37645443D01*
X50336681Y-37890000D01*
X50355928Y-38134557D01*
X50357082Y-38139364D01*
X50357083Y-38139370D01*
X50362424Y-38161615D01*
X50413195Y-38373092D01*
X50507073Y-38599732D01*
X50635248Y-38808896D01*
X50794567Y-38995433D01*
X50798323Y-38998641D01*
X50976861Y-39151128D01*
X50981104Y-39154752D01*
X50985327Y-39157340D01*
X50985330Y-39157342D01*
X51054515Y-39199738D01*
X51190268Y-39282927D01*
X51334967Y-39342864D01*
X51412335Y-39374911D01*
X51412337Y-39374912D01*
X51416908Y-39376805D01*
X51485715Y-39393324D01*
X51650630Y-39432917D01*
X51650636Y-39432918D01*
X51655443Y-39434072D01*
X51900000Y-39453319D01*
X52144557Y-39434072D01*
X52149364Y-39432918D01*
X52149370Y-39432917D01*
X52314285Y-39393324D01*
X52383092Y-39376805D01*
X52387663Y-39374912D01*
X52387665Y-39374911D01*
X52465033Y-39342864D01*
X52609732Y-39282927D01*
X52745485Y-39199738D01*
X52814670Y-39157342D01*
X52814673Y-39157340D01*
X52818896Y-39154752D01*
X52823140Y-39151128D01*
X53001677Y-38998641D01*
X53005433Y-38995433D01*
X53164752Y-38808896D01*
X53292927Y-38599732D01*
X53386805Y-38373092D01*
X53437576Y-38161615D01*
X53442917Y-38139370D01*
X53442918Y-38139364D01*
X53444072Y-38134557D01*
X53463319Y-37890000D01*
X53444072Y-37645443D01*
X53442915Y-37640621D01*
X53387960Y-37411720D01*
X53386805Y-37406908D01*
X53292927Y-37180268D01*
X53164752Y-36971104D01*
X53153056Y-36957409D01*
X53008641Y-36788323D01*
X53005433Y-36784567D01*
X52950500Y-36737649D01*
X52822663Y-36628465D01*
X52822660Y-36628463D01*
X52818896Y-36625248D01*
X52814673Y-36622660D01*
X52814670Y-36622658D01*
X52745485Y-36580262D01*
X52609732Y-36497073D01*
X52465033Y-36437136D01*
X52387665Y-36405089D01*
X52387663Y-36405088D01*
X52383092Y-36403195D01*
X52258862Y-36373370D01*
X52149370Y-36347083D01*
X52149364Y-36347082D01*
X52144557Y-36345928D01*
X51900000Y-36326681D01*
X51765083Y-36337299D01*
X51695604Y-36322703D01*
X51666103Y-36300782D01*
X49766410Y-34401089D01*
X49754024Y-34386677D01*
X49745491Y-34375082D01*
X49745486Y-34375077D01*
X49741148Y-34369182D01*
X49735570Y-34364443D01*
X49735567Y-34364440D01*
X49700872Y-34334965D01*
X49693356Y-34328035D01*
X49687661Y-34322340D01*
X49671030Y-34309182D01*
X49665389Y-34304719D01*
X49661985Y-34301928D01*
X49611937Y-34259409D01*
X49611935Y-34259408D01*
X49606355Y-34254667D01*
X49599839Y-34251339D01*
X49594790Y-34247972D01*
X49589661Y-34244805D01*
X49583924Y-34240266D01*
X49517765Y-34209345D01*
X49513865Y-34207439D01*
X49448832Y-34174231D01*
X49441724Y-34172492D01*
X49436081Y-34170393D01*
X49430318Y-34168476D01*
X49423690Y-34165378D01*
X49404003Y-34161283D01*
X49352228Y-34150514D01*
X49347939Y-34149543D01*
X49347236Y-34149371D01*
X49277030Y-34132192D01*
X49271428Y-34131844D01*
X49271425Y-34131844D01*
X49265876Y-34131500D01*
X49265878Y-34131464D01*
X49261885Y-34131225D01*
X49257693Y-34130851D01*
X49250525Y-34129360D01*
X49184315Y-34131151D01*
X49173119Y-34131454D01*
X49169712Y-34131500D01*
X48417639Y-34131500D01*
X48349518Y-34111498D01*
X48328544Y-34094595D01*
X46765038Y-32531089D01*
X46752652Y-32516677D01*
X46744119Y-32505082D01*
X46744114Y-32505077D01*
X46739776Y-32499182D01*
X46734198Y-32494443D01*
X46734195Y-32494440D01*
X46699500Y-32464965D01*
X46691984Y-32458035D01*
X46686289Y-32452340D01*
X46680148Y-32447482D01*
X46664017Y-32434719D01*
X46660613Y-32431928D01*
X46610565Y-32389409D01*
X46610563Y-32389408D01*
X46604983Y-32384667D01*
X46598467Y-32381339D01*
X46593418Y-32377972D01*
X46588289Y-32374805D01*
X46582552Y-32370266D01*
X46516393Y-32339345D01*
X46512493Y-32337439D01*
X46447460Y-32304231D01*
X46440352Y-32302492D01*
X46434709Y-32300393D01*
X46428946Y-32298476D01*
X46422318Y-32295378D01*
X46350851Y-32280513D01*
X46346567Y-32279543D01*
X46275658Y-32262192D01*
X46270056Y-32261844D01*
X46270053Y-32261844D01*
X46264504Y-32261500D01*
X46264506Y-32261464D01*
X46260513Y-32261225D01*
X46256321Y-32260851D01*
X46249153Y-32259360D01*
X46185388Y-32261085D01*
X46171747Y-32261454D01*
X46168340Y-32261500D01*
X29575801Y-32261500D01*
X29556853Y-32260067D01*
X29549512Y-32258950D01*
X29542615Y-32257901D01*
X29542613Y-32257901D01*
X29535383Y-32256801D01*
X29528091Y-32257394D01*
X29528088Y-32257394D01*
X29482714Y-32261085D01*
X29472499Y-32261500D01*
X29464438Y-32261500D01*
X29436216Y-32264790D01*
X29431861Y-32265221D01*
X29409657Y-32267027D01*
X29366393Y-32270546D01*
X29366390Y-32270547D01*
X29359095Y-32271140D01*
X29352131Y-32273396D01*
X29346192Y-32274583D01*
X29340322Y-32275970D01*
X29333050Y-32276818D01*
X29326172Y-32279315D01*
X29326162Y-32279317D01*
X29264418Y-32301730D01*
X29260319Y-32303138D01*
X29190833Y-32325648D01*
X29184571Y-32329448D01*
X29179099Y-32331953D01*
X29173673Y-32334670D01*
X29166794Y-32337167D01*
X29105730Y-32377203D01*
X29102067Y-32379513D01*
X29039624Y-32417404D01*
X29031248Y-32424802D01*
X29031224Y-32424775D01*
X29028231Y-32427430D01*
X29025003Y-32430129D01*
X29018879Y-32434144D01*
X29013845Y-32439458D01*
X28965623Y-32490362D01*
X28963245Y-32492805D01*
X27711085Y-33744963D01*
X27696673Y-33757349D01*
X27679182Y-33770221D01*
X27674443Y-33775799D01*
X27674440Y-33775802D01*
X27644965Y-33810497D01*
X27638035Y-33818013D01*
X27632340Y-33823708D01*
X27630060Y-33826590D01*
X27614719Y-33845980D01*
X27611928Y-33849384D01*
X27591157Y-33873833D01*
X27564667Y-33905014D01*
X27561339Y-33911530D01*
X27557972Y-33916579D01*
X27554805Y-33921708D01*
X27550266Y-33927445D01*
X27519345Y-33993604D01*
X27517442Y-33997498D01*
X27484231Y-34062537D01*
X27482491Y-34069649D01*
X27480397Y-34075279D01*
X27478479Y-34081044D01*
X27475378Y-34087679D01*
X27462402Y-34150069D01*
X27460517Y-34159130D01*
X27459554Y-34163387D01*
X27442192Y-34234339D01*
X27441500Y-34245493D01*
X27441464Y-34245491D01*
X27441225Y-34249479D01*
X27440850Y-34253679D01*
X27439360Y-34260843D01*
X27439558Y-34268158D01*
X27441454Y-34338249D01*
X27441500Y-34341656D01*
X27441500Y-45289593D01*
X27421498Y-45357714D01*
X27367842Y-45404207D01*
X27315618Y-45415593D01*
X27115064Y-45415779D01*
X26794617Y-45416075D01*
X26726477Y-45396136D01*
X26679935Y-45342523D01*
X26668500Y-45290075D01*
X26668500Y-33873833D01*
X26688502Y-33805712D01*
X26705405Y-33784738D01*
X28874738Y-31615405D01*
X28937050Y-31581379D01*
X28963833Y-31578500D01*
X46726165Y-31578500D01*
X46794286Y-31598502D01*
X46815260Y-31615405D01*
X48378766Y-33178911D01*
X48391152Y-33193323D01*
X48399685Y-33204918D01*
X48399690Y-33204923D01*
X48404028Y-33210818D01*
X48409606Y-33215557D01*
X48409609Y-33215560D01*
X48444304Y-33245035D01*
X48451820Y-33251965D01*
X48457515Y-33257660D01*
X48460397Y-33259940D01*
X48479787Y-33275281D01*
X48483191Y-33278072D01*
X48533239Y-33320591D01*
X48538821Y-33325333D01*
X48545337Y-33328661D01*
X48550386Y-33332028D01*
X48555515Y-33335195D01*
X48561252Y-33339734D01*
X48627411Y-33370655D01*
X48631305Y-33372558D01*
X48696344Y-33405769D01*
X48703452Y-33407508D01*
X48709095Y-33409607D01*
X48714858Y-33411524D01*
X48721486Y-33414622D01*
X48773328Y-33425405D01*
X48792948Y-33429486D01*
X48797232Y-33430456D01*
X48868146Y-33447808D01*
X48873748Y-33448156D01*
X48873751Y-33448156D01*
X48879300Y-33448500D01*
X48879298Y-33448536D01*
X48883291Y-33448775D01*
X48887483Y-33449149D01*
X48894651Y-33450640D01*
X48972056Y-33448546D01*
X48975464Y-33448500D01*
X49727537Y-33448500D01*
X49795658Y-33468502D01*
X49816632Y-33485405D01*
X51650138Y-35318911D01*
X51662524Y-35333323D01*
X51671057Y-35344918D01*
X51671062Y-35344923D01*
X51675400Y-35350818D01*
X51680978Y-35355557D01*
X51680981Y-35355560D01*
X51715676Y-35385035D01*
X51723192Y-35391965D01*
X51728887Y-35397660D01*
X51731769Y-35399940D01*
X51751159Y-35415281D01*
X51754563Y-35418072D01*
X51803832Y-35459929D01*
X51810193Y-35465333D01*
X51816709Y-35468661D01*
X51821758Y-35472028D01*
X51826887Y-35475195D01*
X51832624Y-35479734D01*
X51898783Y-35510655D01*
X51902677Y-35512558D01*
X51967716Y-35545769D01*
X51974824Y-35547508D01*
X51980467Y-35549607D01*
X51986230Y-35551524D01*
X51992858Y-35554622D01*
X52000020Y-35556112D01*
X52000021Y-35556112D01*
X52064320Y-35569486D01*
X52068604Y-35570456D01*
X52139518Y-35587808D01*
X52145120Y-35588156D01*
X52145123Y-35588156D01*
X52150672Y-35588500D01*
X52150670Y-35588536D01*
X52154663Y-35588775D01*
X52158855Y-35589149D01*
X52166023Y-35590640D01*
X52243428Y-35588546D01*
X52246836Y-35588500D01*
X53069263Y-35588500D01*
X53137384Y-35608502D01*
X53158358Y-35625405D01*
X54490362Y-36957409D01*
X54524388Y-37019721D01*
X54519323Y-37090536D01*
X54508700Y-37112338D01*
X54467073Y-37180268D01*
X54373195Y-37406908D01*
X54372040Y-37411720D01*
X54317086Y-37640621D01*
X54315928Y-37645443D01*
X54296681Y-37890000D01*
X54315928Y-38134557D01*
X54317082Y-38139364D01*
X54317083Y-38139370D01*
X54322424Y-38161615D01*
X54373195Y-38373092D01*
X54467073Y-38599732D01*
X54595248Y-38808896D01*
X54754567Y-38995433D01*
X54758323Y-38998641D01*
X54936861Y-39151128D01*
X54941104Y-39154752D01*
X54945327Y-39157340D01*
X54945330Y-39157342D01*
X55014515Y-39199738D01*
X55150268Y-39282927D01*
X55294967Y-39342864D01*
X55372335Y-39374911D01*
X55372337Y-39374912D01*
X55376908Y-39376805D01*
X55445715Y-39393324D01*
X55610630Y-39432917D01*
X55610636Y-39432918D01*
X55615443Y-39434072D01*
X55860000Y-39453319D01*
X56104557Y-39434072D01*
X56109364Y-39432918D01*
X56109370Y-39432917D01*
X56274285Y-39393324D01*
X56343092Y-39376805D01*
X56347663Y-39374912D01*
X56347665Y-39374911D01*
X56425033Y-39342864D01*
X56569732Y-39282927D01*
X56705485Y-39199738D01*
X56774670Y-39157342D01*
X56774673Y-39157340D01*
X56778896Y-39154752D01*
X56783140Y-39151128D01*
X56961677Y-38998641D01*
X56965433Y-38995433D01*
X57124752Y-38808896D01*
X57252927Y-38599732D01*
X57346805Y-38373092D01*
X57397576Y-38161615D01*
X57402917Y-38139370D01*
X57402918Y-38139364D01*
X57404072Y-38134557D01*
X57423319Y-37890000D01*
X57404072Y-37645443D01*
X57402915Y-37640621D01*
X57347960Y-37411720D01*
X57346805Y-37406908D01*
X57252927Y-37180268D01*
X57124752Y-36971104D01*
X57113056Y-36957409D01*
X56968641Y-36788323D01*
X56965433Y-36784567D01*
X56910500Y-36737649D01*
X56782663Y-36628465D01*
X56782660Y-36628463D01*
X56778896Y-36625248D01*
X56774673Y-36622660D01*
X56774670Y-36622658D01*
X56705485Y-36580262D01*
X56569732Y-36497073D01*
X56425033Y-36437136D01*
X56347665Y-36405089D01*
X56347663Y-36405088D01*
X56343092Y-36403195D01*
X56218862Y-36373370D01*
X56109370Y-36347083D01*
X56109364Y-36347082D01*
X56104557Y-36345928D01*
X56068795Y-36343113D01*
X56063721Y-36342714D01*
X55997379Y-36317428D01*
X55984512Y-36306197D01*
X54019404Y-34341089D01*
X54007018Y-34326677D01*
X53998485Y-34315082D01*
X53998480Y-34315077D01*
X53994142Y-34309182D01*
X53988564Y-34304443D01*
X53988561Y-34304440D01*
X53953866Y-34274965D01*
X53946350Y-34268035D01*
X53940655Y-34262340D01*
X53934514Y-34257482D01*
X53918383Y-34244719D01*
X53914979Y-34241928D01*
X53864931Y-34199409D01*
X53864929Y-34199408D01*
X53859349Y-34194667D01*
X53852833Y-34191339D01*
X53847784Y-34187972D01*
X53842655Y-34184805D01*
X53836918Y-34180266D01*
X53770759Y-34149345D01*
X53766859Y-34147439D01*
X53701826Y-34114231D01*
X53694718Y-34112492D01*
X53689075Y-34110393D01*
X53683312Y-34108476D01*
X53676684Y-34105378D01*
X53605217Y-34090513D01*
X53600933Y-34089543D01*
X53530024Y-34072192D01*
X53524422Y-34071844D01*
X53524419Y-34071844D01*
X53518870Y-34071500D01*
X53518872Y-34071464D01*
X53514879Y-34071225D01*
X53510687Y-34070851D01*
X53503519Y-34069360D01*
X53437309Y-34071151D01*
X53426113Y-34071454D01*
X53422706Y-34071500D01*
X52600279Y-34071500D01*
X52532158Y-34051498D01*
X52511184Y-34034595D01*
X50677678Y-32201089D01*
X50665292Y-32186677D01*
X50656759Y-32175082D01*
X50656754Y-32175077D01*
X50652416Y-32169182D01*
X50646838Y-32164443D01*
X50646835Y-32164440D01*
X50612140Y-32134965D01*
X50604624Y-32128035D01*
X50598929Y-32122340D01*
X50582298Y-32109182D01*
X50576657Y-32104719D01*
X50573253Y-32101928D01*
X50523205Y-32059409D01*
X50523203Y-32059408D01*
X50517623Y-32054667D01*
X50511107Y-32051339D01*
X50506058Y-32047972D01*
X50500929Y-32044805D01*
X50495192Y-32040266D01*
X50429033Y-32009345D01*
X50425133Y-32007439D01*
X50360100Y-31974231D01*
X50352992Y-31972492D01*
X50347349Y-31970393D01*
X50341586Y-31968476D01*
X50334958Y-31965378D01*
X50263491Y-31950513D01*
X50259207Y-31949543D01*
X50258504Y-31949371D01*
X50188298Y-31932192D01*
X50182696Y-31931844D01*
X50182693Y-31931844D01*
X50177144Y-31931500D01*
X50177146Y-31931464D01*
X50173153Y-31931225D01*
X50168961Y-31930851D01*
X50161793Y-31929360D01*
X50095583Y-31931151D01*
X50084387Y-31931454D01*
X50080980Y-31931500D01*
X49328907Y-31931500D01*
X49260786Y-31911498D01*
X49239812Y-31894595D01*
X47676306Y-30331089D01*
X47663920Y-30316677D01*
X47655387Y-30305082D01*
X47655382Y-30305077D01*
X47651044Y-30299182D01*
X47645466Y-30294443D01*
X47645463Y-30294440D01*
X47610768Y-30264965D01*
X47603252Y-30258035D01*
X47597557Y-30252340D01*
X47591416Y-30247482D01*
X47575285Y-30234719D01*
X47571881Y-30231928D01*
X47521833Y-30189409D01*
X47521831Y-30189408D01*
X47516251Y-30184667D01*
X47509735Y-30181339D01*
X47504686Y-30177972D01*
X47499557Y-30174805D01*
X47493820Y-30170266D01*
X47427661Y-30139345D01*
X47423761Y-30137439D01*
X47358728Y-30104231D01*
X47351620Y-30102492D01*
X47345977Y-30100393D01*
X47340214Y-30098476D01*
X47333586Y-30095378D01*
X47262119Y-30080513D01*
X47257835Y-30079543D01*
X47223494Y-30071140D01*
X47186926Y-30062192D01*
X47181324Y-30061844D01*
X47181321Y-30061844D01*
X47175772Y-30061500D01*
X47175774Y-30061464D01*
X47171781Y-30061225D01*
X47167589Y-30060851D01*
X47160421Y-30059360D01*
X47096656Y-30061085D01*
X47083015Y-30061454D01*
X47079608Y-30061500D01*
X28664531Y-30061500D01*
X28645583Y-30060067D01*
X28638242Y-30058950D01*
X28631345Y-30057901D01*
X28631343Y-30057901D01*
X28624113Y-30056801D01*
X28616821Y-30057394D01*
X28616818Y-30057394D01*
X28571444Y-30061085D01*
X28561229Y-30061500D01*
X28553169Y-30061500D01*
X28539879Y-30063049D01*
X28524955Y-30064789D01*
X28520580Y-30065222D01*
X28455123Y-30070546D01*
X28455120Y-30070547D01*
X28447825Y-30071140D01*
X28440861Y-30073396D01*
X28434902Y-30074587D01*
X28429047Y-30075971D01*
X28421781Y-30076818D01*
X28353135Y-30101735D01*
X28349007Y-30103152D01*
X28286526Y-30123393D01*
X28286524Y-30123394D01*
X28279563Y-30125649D01*
X28273308Y-30129445D01*
X28267834Y-30131951D01*
X28262404Y-30134670D01*
X28255525Y-30137167D01*
X28194478Y-30177191D01*
X28190789Y-30179518D01*
X28182305Y-30184667D01*
X28133155Y-30214491D01*
X28133150Y-30214495D01*
X28128354Y-30217405D01*
X28119978Y-30224803D01*
X28119955Y-30224777D01*
X28116965Y-30227426D01*
X28113726Y-30230134D01*
X28107610Y-30234144D01*
X28102583Y-30239451D01*
X28102579Y-30239454D01*
X28054334Y-30290383D01*
X28051956Y-30292825D01*
X25421089Y-32923692D01*
X25406677Y-32936078D01*
X25395082Y-32944611D01*
X25395077Y-32944616D01*
X25389182Y-32948954D01*
X25384443Y-32954532D01*
X25384440Y-32954535D01*
X25354965Y-32989230D01*
X25348035Y-32996746D01*
X25342340Y-33002441D01*
X25340060Y-33005323D01*
X25324719Y-33024713D01*
X25321928Y-33028117D01*
X25279409Y-33078165D01*
X25274667Y-33083747D01*
X25271339Y-33090263D01*
X25267972Y-33095312D01*
X25264805Y-33100441D01*
X25260266Y-33106178D01*
X25229345Y-33172337D01*
X25227442Y-33176231D01*
X25194231Y-33241270D01*
X25192492Y-33248378D01*
X25190393Y-33254021D01*
X25188476Y-33259784D01*
X25185378Y-33266412D01*
X25183888Y-33273574D01*
X25183888Y-33273575D01*
X25170514Y-33337874D01*
X25169544Y-33342158D01*
X25152192Y-33413072D01*
X25151500Y-33424226D01*
X25151464Y-33424224D01*
X25151225Y-33428217D01*
X25150851Y-33432409D01*
X25149360Y-33439577D01*
X25150600Y-33485405D01*
X25151454Y-33516983D01*
X25151500Y-33520390D01*
X25151500Y-45291715D01*
X25131498Y-45359836D01*
X25077842Y-45406329D01*
X25025617Y-45417715D01*
X24544616Y-45418161D01*
X24476478Y-45398222D01*
X24429935Y-45344610D01*
X24418500Y-45292161D01*
X24418500Y-33012565D01*
X24438502Y-32944444D01*
X24455405Y-32923470D01*
X27963469Y-29415405D01*
X28025781Y-29381379D01*
X28052564Y-29378500D01*
X47637433Y-29378500D01*
X47705554Y-29398502D01*
X47726528Y-29415405D01*
X49290034Y-30978911D01*
X49302420Y-30993323D01*
X49310953Y-31004918D01*
X49310958Y-31004923D01*
X49315296Y-31010818D01*
X49320874Y-31015557D01*
X49320877Y-31015560D01*
X49355572Y-31045035D01*
X49363088Y-31051965D01*
X49368783Y-31057660D01*
X49371665Y-31059940D01*
X49391055Y-31075281D01*
X49394459Y-31078072D01*
X49444507Y-31120591D01*
X49450089Y-31125333D01*
X49456605Y-31128661D01*
X49461654Y-31132028D01*
X49466783Y-31135195D01*
X49472520Y-31139734D01*
X49538679Y-31170655D01*
X49542573Y-31172558D01*
X49607612Y-31205769D01*
X49614720Y-31207508D01*
X49620363Y-31209607D01*
X49626126Y-31211524D01*
X49632754Y-31214622D01*
X49639916Y-31216112D01*
X49639917Y-31216112D01*
X49704216Y-31229486D01*
X49708500Y-31230456D01*
X49779414Y-31247808D01*
X49785016Y-31248156D01*
X49785019Y-31248156D01*
X49790568Y-31248500D01*
X49790566Y-31248536D01*
X49794559Y-31248775D01*
X49798751Y-31249149D01*
X49805919Y-31250640D01*
X49883324Y-31248546D01*
X49886732Y-31248500D01*
X50638805Y-31248500D01*
X50706926Y-31268502D01*
X50727900Y-31285405D01*
X52561406Y-33118911D01*
X52573792Y-33133323D01*
X52582325Y-33144918D01*
X52582330Y-33144923D01*
X52586668Y-33150818D01*
X52592246Y-33155557D01*
X52592249Y-33155560D01*
X52626944Y-33185035D01*
X52634460Y-33191965D01*
X52640155Y-33197660D01*
X52643037Y-33199940D01*
X52662427Y-33215281D01*
X52665831Y-33218072D01*
X52712429Y-33257660D01*
X52721461Y-33265333D01*
X52727977Y-33268661D01*
X52733026Y-33272028D01*
X52738155Y-33275195D01*
X52743892Y-33279734D01*
X52810051Y-33310655D01*
X52813945Y-33312558D01*
X52878984Y-33345769D01*
X52886092Y-33347508D01*
X52891735Y-33349607D01*
X52897498Y-33351524D01*
X52904126Y-33354622D01*
X52911288Y-33356112D01*
X52911289Y-33356112D01*
X52975588Y-33369486D01*
X52979872Y-33370456D01*
X53050786Y-33387808D01*
X53056388Y-33388156D01*
X53056391Y-33388156D01*
X53061940Y-33388500D01*
X53061938Y-33388536D01*
X53065931Y-33388775D01*
X53070123Y-33389149D01*
X53077291Y-33390640D01*
X53154696Y-33388546D01*
X53158104Y-33388500D01*
X53980531Y-33388500D01*
X54048652Y-33408502D01*
X54069626Y-33425405D01*
X56023132Y-35378911D01*
X56035518Y-35393323D01*
X56044051Y-35404918D01*
X56044056Y-35404923D01*
X56048394Y-35410818D01*
X56053972Y-35415557D01*
X56053975Y-35415560D01*
X56088670Y-35445035D01*
X56096186Y-35451965D01*
X56101882Y-35457661D01*
X56104743Y-35459924D01*
X56104748Y-35459929D01*
X56124158Y-35475285D01*
X56127560Y-35478074D01*
X56168154Y-35512561D01*
X56183187Y-35525333D01*
X56189704Y-35528661D01*
X56194752Y-35532027D01*
X56199874Y-35535190D01*
X56205618Y-35539735D01*
X56271797Y-35570664D01*
X56275677Y-35572561D01*
X56340710Y-35605769D01*
X56347825Y-35607510D01*
X56353480Y-35609613D01*
X56359219Y-35611522D01*
X56365852Y-35614622D01*
X56437337Y-35629491D01*
X56441603Y-35630457D01*
X56512512Y-35647808D01*
X56518114Y-35648156D01*
X56518117Y-35648156D01*
X56523666Y-35648500D01*
X56523664Y-35648535D01*
X56527636Y-35648775D01*
X56531857Y-35649152D01*
X56539017Y-35650641D01*
X56616444Y-35648546D01*
X56619852Y-35648500D01*
X56736269Y-35648500D01*
X56804390Y-35668502D01*
X56825364Y-35685405D01*
X58336246Y-37196287D01*
X58370272Y-37258599D01*
X58363560Y-37333600D01*
X58333195Y-37406908D01*
X58332040Y-37411720D01*
X58277086Y-37640621D01*
X58275928Y-37645443D01*
X58256681Y-37890000D01*
X58275928Y-38134557D01*
X58277082Y-38139364D01*
X58277083Y-38139370D01*
X58282424Y-38161615D01*
X58333195Y-38373092D01*
X58427073Y-38599732D01*
X58555248Y-38808896D01*
X58714567Y-38995433D01*
X58718323Y-38998641D01*
X58896861Y-39151128D01*
X58901104Y-39154752D01*
X58905327Y-39157340D01*
X58905330Y-39157342D01*
X58974515Y-39199738D01*
X59110268Y-39282927D01*
X59254967Y-39342864D01*
X59332335Y-39374911D01*
X59332337Y-39374912D01*
X59336908Y-39376805D01*
X59405715Y-39393324D01*
X59570630Y-39432917D01*
X59570636Y-39432918D01*
X59575443Y-39434072D01*
X59820000Y-39453319D01*
X60064557Y-39434072D01*
X60069364Y-39432918D01*
X60069370Y-39432917D01*
X60234285Y-39393324D01*
X60303092Y-39376805D01*
X60307663Y-39374912D01*
X60307665Y-39374911D01*
X60385033Y-39342864D01*
X60529732Y-39282927D01*
X60665485Y-39199738D01*
X60734670Y-39157342D01*
X60734673Y-39157340D01*
X60738896Y-39154752D01*
X60743140Y-39151128D01*
X60921677Y-38998641D01*
X60925433Y-38995433D01*
X61084752Y-38808896D01*
X61212927Y-38599732D01*
X61306805Y-38373092D01*
X61357576Y-38161615D01*
X61362917Y-38139370D01*
X61362918Y-38139364D01*
X61364072Y-38134557D01*
X61383319Y-37890000D01*
X109736681Y-37890000D01*
X109755928Y-38134557D01*
X109757082Y-38139364D01*
X109757083Y-38139370D01*
X109762424Y-38161615D01*
X109813195Y-38373092D01*
X109907073Y-38599732D01*
X110035248Y-38808896D01*
X110194567Y-38995433D01*
X110198323Y-38998641D01*
X110376861Y-39151128D01*
X110381104Y-39154752D01*
X110385327Y-39157340D01*
X110385330Y-39157342D01*
X110454515Y-39199738D01*
X110590268Y-39282927D01*
X110734967Y-39342864D01*
X110812335Y-39374911D01*
X110812337Y-39374912D01*
X110816908Y-39376805D01*
X110885715Y-39393324D01*
X111050630Y-39432917D01*
X111050636Y-39432918D01*
X111055443Y-39434072D01*
X111300000Y-39453319D01*
X111544557Y-39434072D01*
X111549364Y-39432918D01*
X111549370Y-39432917D01*
X111714285Y-39393324D01*
X111783092Y-39376805D01*
X111787663Y-39374912D01*
X111787665Y-39374911D01*
X111865033Y-39342864D01*
X112009732Y-39282927D01*
X112145485Y-39199738D01*
X112214670Y-39157342D01*
X112214673Y-39157340D01*
X112218896Y-39154752D01*
X112223140Y-39151128D01*
X112401677Y-38998641D01*
X112405433Y-38995433D01*
X112564752Y-38808896D01*
X112692927Y-38599732D01*
X112786805Y-38373092D01*
X112837576Y-38161615D01*
X112842917Y-38139370D01*
X112842918Y-38139364D01*
X112844072Y-38134557D01*
X112863319Y-37890000D01*
X113696681Y-37890000D01*
X113715928Y-38134557D01*
X113717082Y-38139364D01*
X113717083Y-38139370D01*
X113722424Y-38161615D01*
X113773195Y-38373092D01*
X113867073Y-38599732D01*
X113995248Y-38808896D01*
X114154567Y-38995433D01*
X114158323Y-38998641D01*
X114336861Y-39151128D01*
X114341104Y-39154752D01*
X114345327Y-39157340D01*
X114345330Y-39157342D01*
X114414515Y-39199738D01*
X114550268Y-39282927D01*
X114694967Y-39342864D01*
X114772335Y-39374911D01*
X114772337Y-39374912D01*
X114776908Y-39376805D01*
X114845715Y-39393324D01*
X115010630Y-39432917D01*
X115010636Y-39432918D01*
X115015443Y-39434072D01*
X115260000Y-39453319D01*
X115504557Y-39434072D01*
X115509364Y-39432918D01*
X115509370Y-39432917D01*
X115674285Y-39393324D01*
X115743092Y-39376805D01*
X115747663Y-39374912D01*
X115747665Y-39374911D01*
X115825033Y-39342864D01*
X115969732Y-39282927D01*
X116105485Y-39199738D01*
X116174670Y-39157342D01*
X116174673Y-39157340D01*
X116178896Y-39154752D01*
X116183140Y-39151128D01*
X116361677Y-38998641D01*
X116365433Y-38995433D01*
X116524752Y-38808896D01*
X116652927Y-38599732D01*
X116746805Y-38373092D01*
X116797576Y-38161615D01*
X116802917Y-38139370D01*
X116802918Y-38139364D01*
X116804072Y-38134557D01*
X116823319Y-37890000D01*
X117656681Y-37890000D01*
X117675928Y-38134557D01*
X117677082Y-38139364D01*
X117677083Y-38139370D01*
X117682424Y-38161615D01*
X117733195Y-38373092D01*
X117827073Y-38599732D01*
X117955248Y-38808896D01*
X118114567Y-38995433D01*
X118118323Y-38998641D01*
X118296861Y-39151128D01*
X118301104Y-39154752D01*
X118305327Y-39157340D01*
X118305330Y-39157342D01*
X118374515Y-39199738D01*
X118510268Y-39282927D01*
X118654967Y-39342864D01*
X118732335Y-39374911D01*
X118732337Y-39374912D01*
X118736908Y-39376805D01*
X118805715Y-39393324D01*
X118970630Y-39432917D01*
X118970636Y-39432918D01*
X118975443Y-39434072D01*
X119220000Y-39453319D01*
X119464557Y-39434072D01*
X119469364Y-39432918D01*
X119469370Y-39432917D01*
X119634285Y-39393324D01*
X119703092Y-39376805D01*
X119707663Y-39374912D01*
X119707665Y-39374911D01*
X119785033Y-39342864D01*
X119929732Y-39282927D01*
X120065485Y-39199738D01*
X120134670Y-39157342D01*
X120134673Y-39157340D01*
X120138896Y-39154752D01*
X120143140Y-39151128D01*
X120321677Y-38998641D01*
X120325433Y-38995433D01*
X120484752Y-38808896D01*
X120612927Y-38599732D01*
X120706805Y-38373092D01*
X120757576Y-38161615D01*
X120762917Y-38139370D01*
X120762918Y-38139364D01*
X120764072Y-38134557D01*
X120783319Y-37890000D01*
X121616681Y-37890000D01*
X121635928Y-38134557D01*
X121637082Y-38139364D01*
X121637083Y-38139370D01*
X121642424Y-38161615D01*
X121693195Y-38373092D01*
X121787073Y-38599732D01*
X121915248Y-38808896D01*
X122074567Y-38995433D01*
X122078323Y-38998641D01*
X122256861Y-39151128D01*
X122261104Y-39154752D01*
X122265327Y-39157340D01*
X122265330Y-39157342D01*
X122334515Y-39199738D01*
X122470268Y-39282927D01*
X122614967Y-39342864D01*
X122692335Y-39374911D01*
X122692337Y-39374912D01*
X122696908Y-39376805D01*
X122765715Y-39393324D01*
X122930630Y-39432917D01*
X122930636Y-39432918D01*
X122935443Y-39434072D01*
X123180000Y-39453319D01*
X123424557Y-39434072D01*
X123429364Y-39432918D01*
X123429370Y-39432917D01*
X123594285Y-39393324D01*
X123663092Y-39376805D01*
X123667663Y-39374912D01*
X123667665Y-39374911D01*
X123745033Y-39342864D01*
X123889732Y-39282927D01*
X124025485Y-39199738D01*
X124094670Y-39157342D01*
X124094673Y-39157340D01*
X124098896Y-39154752D01*
X124103140Y-39151128D01*
X124281677Y-38998641D01*
X124285433Y-38995433D01*
X124444752Y-38808896D01*
X124572927Y-38599732D01*
X124666805Y-38373092D01*
X124717576Y-38161615D01*
X124722917Y-38139370D01*
X124722918Y-38139364D01*
X124724072Y-38134557D01*
X124743319Y-37890000D01*
X125576681Y-37890000D01*
X125595928Y-38134557D01*
X125597082Y-38139364D01*
X125597083Y-38139370D01*
X125602424Y-38161615D01*
X125653195Y-38373092D01*
X125747073Y-38599732D01*
X125875248Y-38808896D01*
X126034567Y-38995433D01*
X126038323Y-38998641D01*
X126216861Y-39151128D01*
X126221104Y-39154752D01*
X126225327Y-39157340D01*
X126225330Y-39157342D01*
X126294515Y-39199738D01*
X126430268Y-39282927D01*
X126574967Y-39342864D01*
X126652335Y-39374911D01*
X126652337Y-39374912D01*
X126656908Y-39376805D01*
X126725715Y-39393324D01*
X126890630Y-39432917D01*
X126890636Y-39432918D01*
X126895443Y-39434072D01*
X127140000Y-39453319D01*
X127384557Y-39434072D01*
X127389364Y-39432918D01*
X127389370Y-39432917D01*
X127554285Y-39393324D01*
X127623092Y-39376805D01*
X127627663Y-39374912D01*
X127627665Y-39374911D01*
X127705033Y-39342864D01*
X127849732Y-39282927D01*
X127985485Y-39199738D01*
X128054670Y-39157342D01*
X128054673Y-39157340D01*
X128058896Y-39154752D01*
X128063140Y-39151128D01*
X128241677Y-38998641D01*
X128245433Y-38995433D01*
X128404752Y-38808896D01*
X128532927Y-38599732D01*
X128626805Y-38373092D01*
X128677576Y-38161615D01*
X128682917Y-38139370D01*
X128682918Y-38139364D01*
X128684072Y-38134557D01*
X128703319Y-37890000D01*
X129536681Y-37890000D01*
X129555928Y-38134557D01*
X129557082Y-38139364D01*
X129557083Y-38139370D01*
X129562424Y-38161615D01*
X129613195Y-38373092D01*
X129707073Y-38599732D01*
X129835248Y-38808896D01*
X129994567Y-38995433D01*
X129998323Y-38998641D01*
X130176861Y-39151128D01*
X130181104Y-39154752D01*
X130185327Y-39157340D01*
X130185330Y-39157342D01*
X130254515Y-39199738D01*
X130390268Y-39282927D01*
X130534967Y-39342864D01*
X130612335Y-39374911D01*
X130612337Y-39374912D01*
X130616908Y-39376805D01*
X130685715Y-39393324D01*
X130850630Y-39432917D01*
X130850636Y-39432918D01*
X130855443Y-39434072D01*
X131100000Y-39453319D01*
X131344557Y-39434072D01*
X131349364Y-39432918D01*
X131349370Y-39432917D01*
X131514285Y-39393324D01*
X131583092Y-39376805D01*
X131587663Y-39374912D01*
X131587665Y-39374911D01*
X131665033Y-39342864D01*
X131809732Y-39282927D01*
X131945485Y-39199738D01*
X132014670Y-39157342D01*
X132014673Y-39157340D01*
X132018896Y-39154752D01*
X132023140Y-39151128D01*
X132201677Y-38998641D01*
X132205433Y-38995433D01*
X132364752Y-38808896D01*
X132492927Y-38599732D01*
X132586805Y-38373092D01*
X132637576Y-38161615D01*
X132642917Y-38139370D01*
X132642918Y-38139364D01*
X132644072Y-38134557D01*
X132663319Y-37890000D01*
X133496681Y-37890000D01*
X133515928Y-38134557D01*
X133517082Y-38139364D01*
X133517083Y-38139370D01*
X133522424Y-38161615D01*
X133573195Y-38373092D01*
X133667073Y-38599732D01*
X133795248Y-38808896D01*
X133954567Y-38995433D01*
X133958323Y-38998641D01*
X134136861Y-39151128D01*
X134141104Y-39154752D01*
X134145327Y-39157340D01*
X134145330Y-39157342D01*
X134214515Y-39199738D01*
X134350268Y-39282927D01*
X134494967Y-39342864D01*
X134572335Y-39374911D01*
X134572337Y-39374912D01*
X134576908Y-39376805D01*
X134645715Y-39393324D01*
X134810630Y-39432917D01*
X134810636Y-39432918D01*
X134815443Y-39434072D01*
X135060000Y-39453319D01*
X135304557Y-39434072D01*
X135309364Y-39432918D01*
X135309370Y-39432917D01*
X135474285Y-39393324D01*
X135543092Y-39376805D01*
X135547663Y-39374912D01*
X135547665Y-39374911D01*
X135625033Y-39342864D01*
X135769732Y-39282927D01*
X135905485Y-39199738D01*
X135974670Y-39157342D01*
X135974673Y-39157340D01*
X135978896Y-39154752D01*
X135983140Y-39151128D01*
X136161677Y-38998641D01*
X136165433Y-38995433D01*
X136324752Y-38808896D01*
X136452927Y-38599732D01*
X136546805Y-38373092D01*
X136597576Y-38161615D01*
X136602917Y-38139370D01*
X136602918Y-38139364D01*
X136604072Y-38134557D01*
X136623319Y-37890000D01*
X137456681Y-37890000D01*
X137475928Y-38134557D01*
X137477082Y-38139364D01*
X137477083Y-38139370D01*
X137482424Y-38161615D01*
X137533195Y-38373092D01*
X137627073Y-38599732D01*
X137755248Y-38808896D01*
X137914567Y-38995433D01*
X137918323Y-38998641D01*
X138096861Y-39151128D01*
X138101104Y-39154752D01*
X138105327Y-39157340D01*
X138105330Y-39157342D01*
X138174515Y-39199738D01*
X138310268Y-39282927D01*
X138454967Y-39342864D01*
X138532335Y-39374911D01*
X138532337Y-39374912D01*
X138536908Y-39376805D01*
X138605715Y-39393324D01*
X138770630Y-39432917D01*
X138770636Y-39432918D01*
X138775443Y-39434072D01*
X139020000Y-39453319D01*
X139264557Y-39434072D01*
X139269364Y-39432918D01*
X139269370Y-39432917D01*
X139434285Y-39393324D01*
X139503092Y-39376805D01*
X139507663Y-39374912D01*
X139507665Y-39374911D01*
X139585033Y-39342864D01*
X139729732Y-39282927D01*
X139865485Y-39199738D01*
X139934670Y-39157342D01*
X139934673Y-39157340D01*
X139938896Y-39154752D01*
X139943140Y-39151128D01*
X140121677Y-38998641D01*
X140125433Y-38995433D01*
X140284752Y-38808896D01*
X140412927Y-38599732D01*
X140506805Y-38373092D01*
X140557576Y-38161615D01*
X140562917Y-38139370D01*
X140562918Y-38139364D01*
X140564072Y-38134557D01*
X140583319Y-37890000D01*
X141416681Y-37890000D01*
X141435928Y-38134557D01*
X141437082Y-38139364D01*
X141437083Y-38139370D01*
X141442424Y-38161615D01*
X141493195Y-38373092D01*
X141587073Y-38599732D01*
X141715248Y-38808896D01*
X141874567Y-38995433D01*
X141878323Y-38998641D01*
X142056861Y-39151128D01*
X142061104Y-39154752D01*
X142065327Y-39157340D01*
X142065330Y-39157342D01*
X142134515Y-39199738D01*
X142270268Y-39282927D01*
X142414967Y-39342864D01*
X142492335Y-39374911D01*
X142492337Y-39374912D01*
X142496908Y-39376805D01*
X142565715Y-39393324D01*
X142730630Y-39432917D01*
X142730636Y-39432918D01*
X142735443Y-39434072D01*
X142980000Y-39453319D01*
X143224557Y-39434072D01*
X143229364Y-39432918D01*
X143229370Y-39432917D01*
X143394285Y-39393324D01*
X143463092Y-39376805D01*
X143467663Y-39374912D01*
X143467665Y-39374911D01*
X143545033Y-39342864D01*
X143689732Y-39282927D01*
X143825485Y-39199738D01*
X143894670Y-39157342D01*
X143894673Y-39157340D01*
X143898896Y-39154752D01*
X143903140Y-39151128D01*
X144081677Y-38998641D01*
X144085433Y-38995433D01*
X144244752Y-38808896D01*
X144372927Y-38599732D01*
X144466805Y-38373092D01*
X144517576Y-38161615D01*
X144522917Y-38139370D01*
X144522918Y-38139364D01*
X144524072Y-38134557D01*
X144543319Y-37890000D01*
X145376681Y-37890000D01*
X145395928Y-38134557D01*
X145397082Y-38139364D01*
X145397083Y-38139370D01*
X145402424Y-38161615D01*
X145453195Y-38373092D01*
X145547073Y-38599732D01*
X145675248Y-38808896D01*
X145834567Y-38995433D01*
X145838323Y-38998641D01*
X146016861Y-39151128D01*
X146021104Y-39154752D01*
X146025327Y-39157340D01*
X146025330Y-39157342D01*
X146094515Y-39199738D01*
X146230268Y-39282927D01*
X146374967Y-39342864D01*
X146452335Y-39374911D01*
X146452337Y-39374912D01*
X146456908Y-39376805D01*
X146525715Y-39393324D01*
X146690630Y-39432917D01*
X146690636Y-39432918D01*
X146695443Y-39434072D01*
X146940000Y-39453319D01*
X147184557Y-39434072D01*
X147189364Y-39432918D01*
X147189370Y-39432917D01*
X147354285Y-39393324D01*
X147423092Y-39376805D01*
X147427663Y-39374912D01*
X147427665Y-39374911D01*
X147505033Y-39342864D01*
X147649732Y-39282927D01*
X147785485Y-39199738D01*
X147854670Y-39157342D01*
X147854673Y-39157340D01*
X147858896Y-39154752D01*
X147863140Y-39151128D01*
X148041677Y-38998641D01*
X148045433Y-38995433D01*
X148204752Y-38808896D01*
X148332927Y-38599732D01*
X148426805Y-38373092D01*
X148477576Y-38161615D01*
X148478581Y-38157431D01*
X149361933Y-38157431D01*
X149412517Y-38368125D01*
X149415566Y-38377510D01*
X149505625Y-38594933D01*
X149510107Y-38603728D01*
X149633065Y-38804376D01*
X149638872Y-38812369D01*
X149791708Y-38991317D01*
X149798683Y-38998292D01*
X149977631Y-39151128D01*
X149985624Y-39156935D01*
X150186272Y-39279893D01*
X150195067Y-39284375D01*
X150412490Y-39374434D01*
X150421875Y-39377483D01*
X150628385Y-39427062D01*
X150642470Y-39426357D01*
X150646000Y-39417478D01*
X150646000Y-39413176D01*
X151154000Y-39413176D01*
X151157973Y-39426707D01*
X151167431Y-39428067D01*
X151378125Y-39377483D01*
X151387510Y-39374434D01*
X151604933Y-39284375D01*
X151613728Y-39279893D01*
X151814376Y-39156935D01*
X151822369Y-39151128D01*
X152001317Y-38998292D01*
X152008292Y-38991317D01*
X152161128Y-38812369D01*
X152166935Y-38804376D01*
X152289893Y-38603728D01*
X152294375Y-38594933D01*
X152384434Y-38377510D01*
X152387483Y-38368125D01*
X152437062Y-38161615D01*
X152436853Y-38157431D01*
X153321933Y-38157431D01*
X153372517Y-38368125D01*
X153375566Y-38377510D01*
X153465625Y-38594933D01*
X153470107Y-38603728D01*
X153593065Y-38804376D01*
X153598872Y-38812369D01*
X153751708Y-38991317D01*
X153758683Y-38998292D01*
X153937631Y-39151128D01*
X153945624Y-39156935D01*
X154146272Y-39279893D01*
X154155067Y-39284375D01*
X154372490Y-39374434D01*
X154381875Y-39377483D01*
X154588385Y-39427062D01*
X154602470Y-39426357D01*
X154606000Y-39417478D01*
X154606000Y-39413176D01*
X155114000Y-39413176D01*
X155117973Y-39426707D01*
X155127431Y-39428067D01*
X155338125Y-39377483D01*
X155347510Y-39374434D01*
X155564933Y-39284375D01*
X155573728Y-39279893D01*
X155774376Y-39156935D01*
X155782369Y-39151128D01*
X155961317Y-38998292D01*
X155968292Y-38991317D01*
X156121128Y-38812369D01*
X156126935Y-38804376D01*
X156249893Y-38603728D01*
X156254375Y-38594933D01*
X156344434Y-38377510D01*
X156347483Y-38368125D01*
X156397062Y-38161615D01*
X156396357Y-38147530D01*
X156387478Y-38144000D01*
X155132115Y-38144000D01*
X155116876Y-38148475D01*
X155115671Y-38149865D01*
X155114000Y-38157548D01*
X155114000Y-39413176D01*
X154606000Y-39413176D01*
X154606000Y-38162115D01*
X154601525Y-38146876D01*
X154600135Y-38145671D01*
X154592452Y-38144000D01*
X153336824Y-38144000D01*
X153323293Y-38147973D01*
X153321933Y-38157431D01*
X152436853Y-38157431D01*
X152436357Y-38147530D01*
X152427478Y-38144000D01*
X151172115Y-38144000D01*
X151156876Y-38148475D01*
X151155671Y-38149865D01*
X151154000Y-38157548D01*
X151154000Y-39413176D01*
X150646000Y-39413176D01*
X150646000Y-38162115D01*
X150641525Y-38146876D01*
X150640135Y-38145671D01*
X150632452Y-38144000D01*
X149376824Y-38144000D01*
X149363293Y-38147973D01*
X149361933Y-38157431D01*
X148478581Y-38157431D01*
X148482917Y-38139370D01*
X148482918Y-38139364D01*
X148484072Y-38134557D01*
X148503319Y-37890000D01*
X148484072Y-37645443D01*
X148482915Y-37640621D01*
X148477577Y-37618385D01*
X149362938Y-37618385D01*
X149363643Y-37632470D01*
X149372522Y-37636000D01*
X150627885Y-37636000D01*
X150643124Y-37631525D01*
X150644329Y-37630135D01*
X150646000Y-37622452D01*
X150646000Y-37617885D01*
X151154000Y-37617885D01*
X151158475Y-37633124D01*
X151159865Y-37634329D01*
X151167548Y-37636000D01*
X152423176Y-37636000D01*
X152436707Y-37632027D01*
X152438067Y-37622569D01*
X152437062Y-37618385D01*
X153322938Y-37618385D01*
X153323643Y-37632470D01*
X153332522Y-37636000D01*
X154587885Y-37636000D01*
X154603124Y-37631525D01*
X154604329Y-37630135D01*
X154606000Y-37622452D01*
X154606000Y-37617885D01*
X155114000Y-37617885D01*
X155118475Y-37633124D01*
X155119865Y-37634329D01*
X155127548Y-37636000D01*
X156383176Y-37636000D01*
X156396707Y-37632027D01*
X156398067Y-37622569D01*
X156347483Y-37411875D01*
X156344434Y-37402490D01*
X156254375Y-37185067D01*
X156249893Y-37176272D01*
X156126935Y-36975624D01*
X156121128Y-36967631D01*
X155968292Y-36788683D01*
X155961317Y-36781708D01*
X155782369Y-36628872D01*
X155774376Y-36623065D01*
X155573728Y-36500107D01*
X155564933Y-36495625D01*
X155347510Y-36405566D01*
X155338125Y-36402517D01*
X155131615Y-36352938D01*
X155117530Y-36353643D01*
X155114000Y-36362522D01*
X155114000Y-37617885D01*
X154606000Y-37617885D01*
X154606000Y-36366824D01*
X154602027Y-36353293D01*
X154592569Y-36351933D01*
X154381875Y-36402517D01*
X154372490Y-36405566D01*
X154155067Y-36495625D01*
X154146272Y-36500107D01*
X153945624Y-36623065D01*
X153937631Y-36628872D01*
X153758683Y-36781708D01*
X153751708Y-36788683D01*
X153598872Y-36967631D01*
X153593065Y-36975624D01*
X153470107Y-37176272D01*
X153465625Y-37185067D01*
X153375566Y-37402490D01*
X153372517Y-37411875D01*
X153322938Y-37618385D01*
X152437062Y-37618385D01*
X152387483Y-37411875D01*
X152384434Y-37402490D01*
X152294375Y-37185067D01*
X152289893Y-37176272D01*
X152166935Y-36975624D01*
X152161128Y-36967631D01*
X152008292Y-36788683D01*
X152001317Y-36781708D01*
X151822369Y-36628872D01*
X151814376Y-36623065D01*
X151613728Y-36500107D01*
X151604933Y-36495625D01*
X151387510Y-36405566D01*
X151378125Y-36402517D01*
X151171615Y-36352938D01*
X151157530Y-36353643D01*
X151154000Y-36362522D01*
X151154000Y-37617885D01*
X150646000Y-37617885D01*
X150646000Y-36366824D01*
X150642027Y-36353293D01*
X150632569Y-36351933D01*
X150421875Y-36402517D01*
X150412490Y-36405566D01*
X150195067Y-36495625D01*
X150186272Y-36500107D01*
X149985624Y-36623065D01*
X149977631Y-36628872D01*
X149798683Y-36781708D01*
X149791708Y-36788683D01*
X149638872Y-36967631D01*
X149633065Y-36975624D01*
X149510107Y-37176272D01*
X149505625Y-37185067D01*
X149415566Y-37402490D01*
X149412517Y-37411875D01*
X149362938Y-37618385D01*
X148477577Y-37618385D01*
X148427960Y-37411720D01*
X148426805Y-37406908D01*
X148332927Y-37180268D01*
X148204752Y-36971104D01*
X148193056Y-36957409D01*
X148048641Y-36788323D01*
X148045433Y-36784567D01*
X147990500Y-36737649D01*
X147862663Y-36628465D01*
X147862660Y-36628463D01*
X147858896Y-36625248D01*
X147854673Y-36622660D01*
X147854670Y-36622658D01*
X147785485Y-36580262D01*
X147649732Y-36497073D01*
X147505033Y-36437136D01*
X147427665Y-36405089D01*
X147427663Y-36405088D01*
X147423092Y-36403195D01*
X147298862Y-36373370D01*
X147189370Y-36347083D01*
X147189364Y-36347082D01*
X147184557Y-36345928D01*
X146940000Y-36326681D01*
X146695443Y-36345928D01*
X146690636Y-36347082D01*
X146690630Y-36347083D01*
X146581138Y-36373370D01*
X146456908Y-36403195D01*
X146452337Y-36405088D01*
X146452335Y-36405089D01*
X146374967Y-36437136D01*
X146230268Y-36497073D01*
X146094515Y-36580262D01*
X146025330Y-36622658D01*
X146025327Y-36622660D01*
X146021104Y-36625248D01*
X146017340Y-36628463D01*
X146017337Y-36628465D01*
X145889500Y-36737649D01*
X145834567Y-36784567D01*
X145831359Y-36788323D01*
X145686945Y-36957409D01*
X145675248Y-36971104D01*
X145547073Y-37180268D01*
X145453195Y-37406908D01*
X145452040Y-37411720D01*
X145397086Y-37640621D01*
X145395928Y-37645443D01*
X145376681Y-37890000D01*
X144543319Y-37890000D01*
X144524072Y-37645443D01*
X144522915Y-37640621D01*
X144467960Y-37411720D01*
X144466805Y-37406908D01*
X144372927Y-37180268D01*
X144244752Y-36971104D01*
X144233056Y-36957409D01*
X144088641Y-36788323D01*
X144085433Y-36784567D01*
X144030500Y-36737649D01*
X143902663Y-36628465D01*
X143902660Y-36628463D01*
X143898896Y-36625248D01*
X143894673Y-36622660D01*
X143894670Y-36622658D01*
X143825485Y-36580262D01*
X143689732Y-36497073D01*
X143545033Y-36437136D01*
X143467665Y-36405089D01*
X143467663Y-36405088D01*
X143463092Y-36403195D01*
X143338862Y-36373370D01*
X143229370Y-36347083D01*
X143229364Y-36347082D01*
X143224557Y-36345928D01*
X142980000Y-36326681D01*
X142735443Y-36345928D01*
X142730636Y-36347082D01*
X142730630Y-36347083D01*
X142621138Y-36373370D01*
X142496908Y-36403195D01*
X142492337Y-36405088D01*
X142492335Y-36405089D01*
X142414967Y-36437136D01*
X142270268Y-36497073D01*
X142134515Y-36580262D01*
X142065330Y-36622658D01*
X142065327Y-36622660D01*
X142061104Y-36625248D01*
X142057340Y-36628463D01*
X142057337Y-36628465D01*
X141929500Y-36737649D01*
X141874567Y-36784567D01*
X141871359Y-36788323D01*
X141726945Y-36957409D01*
X141715248Y-36971104D01*
X141587073Y-37180268D01*
X141493195Y-37406908D01*
X141492040Y-37411720D01*
X141437086Y-37640621D01*
X141435928Y-37645443D01*
X141416681Y-37890000D01*
X140583319Y-37890000D01*
X140564072Y-37645443D01*
X140562915Y-37640621D01*
X140507960Y-37411720D01*
X140506805Y-37406908D01*
X140412927Y-37180268D01*
X140284752Y-36971104D01*
X140273056Y-36957409D01*
X140128641Y-36788323D01*
X140125433Y-36784567D01*
X140070500Y-36737649D01*
X139942663Y-36628465D01*
X139942660Y-36628463D01*
X139938896Y-36625248D01*
X139934673Y-36622660D01*
X139934670Y-36622658D01*
X139865485Y-36580262D01*
X139729732Y-36497073D01*
X139585033Y-36437136D01*
X139507665Y-36405089D01*
X139507663Y-36405088D01*
X139503092Y-36403195D01*
X139378862Y-36373370D01*
X139269370Y-36347083D01*
X139269364Y-36347082D01*
X139264557Y-36345928D01*
X139020000Y-36326681D01*
X138775443Y-36345928D01*
X138770636Y-36347082D01*
X138770630Y-36347083D01*
X138661138Y-36373370D01*
X138536908Y-36403195D01*
X138532337Y-36405088D01*
X138532335Y-36405089D01*
X138454967Y-36437136D01*
X138310268Y-36497073D01*
X138174515Y-36580262D01*
X138105330Y-36622658D01*
X138105327Y-36622660D01*
X138101104Y-36625248D01*
X138097340Y-36628463D01*
X138097337Y-36628465D01*
X137969500Y-36737649D01*
X137914567Y-36784567D01*
X137911359Y-36788323D01*
X137766945Y-36957409D01*
X137755248Y-36971104D01*
X137627073Y-37180268D01*
X137533195Y-37406908D01*
X137532040Y-37411720D01*
X137477086Y-37640621D01*
X137475928Y-37645443D01*
X137456681Y-37890000D01*
X136623319Y-37890000D01*
X136604072Y-37645443D01*
X136602915Y-37640621D01*
X136547960Y-37411720D01*
X136546805Y-37406908D01*
X136452927Y-37180268D01*
X136324752Y-36971104D01*
X136313056Y-36957409D01*
X136168641Y-36788323D01*
X136165433Y-36784567D01*
X136110500Y-36737649D01*
X135982663Y-36628465D01*
X135982660Y-36628463D01*
X135978896Y-36625248D01*
X135974673Y-36622660D01*
X135974670Y-36622658D01*
X135905485Y-36580262D01*
X135769732Y-36497073D01*
X135625033Y-36437136D01*
X135547665Y-36405089D01*
X135547663Y-36405088D01*
X135543092Y-36403195D01*
X135418862Y-36373370D01*
X135309370Y-36347083D01*
X135309364Y-36347082D01*
X135304557Y-36345928D01*
X135060000Y-36326681D01*
X134815443Y-36345928D01*
X134810636Y-36347082D01*
X134810630Y-36347083D01*
X134701138Y-36373370D01*
X134576908Y-36403195D01*
X134572337Y-36405088D01*
X134572335Y-36405089D01*
X134494967Y-36437136D01*
X134350268Y-36497073D01*
X134214515Y-36580262D01*
X134145330Y-36622658D01*
X134145327Y-36622660D01*
X134141104Y-36625248D01*
X134137340Y-36628463D01*
X134137337Y-36628465D01*
X134009500Y-36737649D01*
X133954567Y-36784567D01*
X133951359Y-36788323D01*
X133806945Y-36957409D01*
X133795248Y-36971104D01*
X133667073Y-37180268D01*
X133573195Y-37406908D01*
X133572040Y-37411720D01*
X133517086Y-37640621D01*
X133515928Y-37645443D01*
X133496681Y-37890000D01*
X132663319Y-37890000D01*
X132644072Y-37645443D01*
X132642915Y-37640621D01*
X132587960Y-37411720D01*
X132586805Y-37406908D01*
X132492927Y-37180268D01*
X132364752Y-36971104D01*
X132353056Y-36957409D01*
X132208641Y-36788323D01*
X132205433Y-36784567D01*
X132150500Y-36737649D01*
X132022663Y-36628465D01*
X132022660Y-36628463D01*
X132018896Y-36625248D01*
X132014673Y-36622660D01*
X132014670Y-36622658D01*
X131945485Y-36580262D01*
X131809732Y-36497073D01*
X131665033Y-36437136D01*
X131587665Y-36405089D01*
X131587663Y-36405088D01*
X131583092Y-36403195D01*
X131458862Y-36373370D01*
X131349370Y-36347083D01*
X131349364Y-36347082D01*
X131344557Y-36345928D01*
X131100000Y-36326681D01*
X130855443Y-36345928D01*
X130850636Y-36347082D01*
X130850630Y-36347083D01*
X130741138Y-36373370D01*
X130616908Y-36403195D01*
X130612337Y-36405088D01*
X130612335Y-36405089D01*
X130534967Y-36437136D01*
X130390268Y-36497073D01*
X130254515Y-36580262D01*
X130185330Y-36622658D01*
X130185327Y-36622660D01*
X130181104Y-36625248D01*
X130177340Y-36628463D01*
X130177337Y-36628465D01*
X130049500Y-36737649D01*
X129994567Y-36784567D01*
X129991359Y-36788323D01*
X129846945Y-36957409D01*
X129835248Y-36971104D01*
X129707073Y-37180268D01*
X129613195Y-37406908D01*
X129612040Y-37411720D01*
X129557086Y-37640621D01*
X129555928Y-37645443D01*
X129536681Y-37890000D01*
X128703319Y-37890000D01*
X128684072Y-37645443D01*
X128682915Y-37640621D01*
X128627960Y-37411720D01*
X128626805Y-37406908D01*
X128532927Y-37180268D01*
X128404752Y-36971104D01*
X128393056Y-36957409D01*
X128248641Y-36788323D01*
X128245433Y-36784567D01*
X128190500Y-36737649D01*
X128062663Y-36628465D01*
X128062660Y-36628463D01*
X128058896Y-36625248D01*
X128054673Y-36622660D01*
X128054670Y-36622658D01*
X127985485Y-36580262D01*
X127849732Y-36497073D01*
X127705033Y-36437136D01*
X127627665Y-36405089D01*
X127627663Y-36405088D01*
X127623092Y-36403195D01*
X127498862Y-36373370D01*
X127389370Y-36347083D01*
X127389364Y-36347082D01*
X127384557Y-36345928D01*
X127140000Y-36326681D01*
X126895443Y-36345928D01*
X126890636Y-36347082D01*
X126890630Y-36347083D01*
X126781138Y-36373370D01*
X126656908Y-36403195D01*
X126652337Y-36405088D01*
X126652335Y-36405089D01*
X126574967Y-36437136D01*
X126430268Y-36497073D01*
X126294515Y-36580262D01*
X126225330Y-36622658D01*
X126225327Y-36622660D01*
X126221104Y-36625248D01*
X126217340Y-36628463D01*
X126217337Y-36628465D01*
X126089500Y-36737649D01*
X126034567Y-36784567D01*
X126031359Y-36788323D01*
X125886945Y-36957409D01*
X125875248Y-36971104D01*
X125747073Y-37180268D01*
X125653195Y-37406908D01*
X125652040Y-37411720D01*
X125597086Y-37640621D01*
X125595928Y-37645443D01*
X125576681Y-37890000D01*
X124743319Y-37890000D01*
X124724072Y-37645443D01*
X124722915Y-37640621D01*
X124667960Y-37411720D01*
X124666805Y-37406908D01*
X124572927Y-37180268D01*
X124444752Y-36971104D01*
X124433056Y-36957409D01*
X124288641Y-36788323D01*
X124285433Y-36784567D01*
X124230500Y-36737649D01*
X124102663Y-36628465D01*
X124102660Y-36628463D01*
X124098896Y-36625248D01*
X124094673Y-36622660D01*
X124094670Y-36622658D01*
X124025485Y-36580262D01*
X123889732Y-36497073D01*
X123745033Y-36437136D01*
X123667665Y-36405089D01*
X123667663Y-36405088D01*
X123663092Y-36403195D01*
X123538862Y-36373370D01*
X123429370Y-36347083D01*
X123429364Y-36347082D01*
X123424557Y-36345928D01*
X123180000Y-36326681D01*
X122935443Y-36345928D01*
X122930636Y-36347082D01*
X122930630Y-36347083D01*
X122821138Y-36373370D01*
X122696908Y-36403195D01*
X122692337Y-36405088D01*
X122692335Y-36405089D01*
X122614967Y-36437136D01*
X122470268Y-36497073D01*
X122334515Y-36580262D01*
X122265330Y-36622658D01*
X122265327Y-36622660D01*
X122261104Y-36625248D01*
X122257340Y-36628463D01*
X122257337Y-36628465D01*
X122129500Y-36737649D01*
X122074567Y-36784567D01*
X122071359Y-36788323D01*
X121926945Y-36957409D01*
X121915248Y-36971104D01*
X121787073Y-37180268D01*
X121693195Y-37406908D01*
X121692040Y-37411720D01*
X121637086Y-37640621D01*
X121635928Y-37645443D01*
X121616681Y-37890000D01*
X120783319Y-37890000D01*
X120764072Y-37645443D01*
X120762915Y-37640621D01*
X120707960Y-37411720D01*
X120706805Y-37406908D01*
X120612927Y-37180268D01*
X120484752Y-36971104D01*
X120473056Y-36957409D01*
X120328641Y-36788323D01*
X120325433Y-36784567D01*
X120270500Y-36737649D01*
X120142663Y-36628465D01*
X120142660Y-36628463D01*
X120138896Y-36625248D01*
X120134673Y-36622660D01*
X120134670Y-36622658D01*
X120065485Y-36580262D01*
X119929732Y-36497073D01*
X119785033Y-36437136D01*
X119707665Y-36405089D01*
X119707663Y-36405088D01*
X119703092Y-36403195D01*
X119578862Y-36373370D01*
X119469370Y-36347083D01*
X119469364Y-36347082D01*
X119464557Y-36345928D01*
X119220000Y-36326681D01*
X118975443Y-36345928D01*
X118970636Y-36347082D01*
X118970630Y-36347083D01*
X118861138Y-36373370D01*
X118736908Y-36403195D01*
X118732337Y-36405088D01*
X118732335Y-36405089D01*
X118654967Y-36437136D01*
X118510268Y-36497073D01*
X118374515Y-36580262D01*
X118305330Y-36622658D01*
X118305327Y-36622660D01*
X118301104Y-36625248D01*
X118297340Y-36628463D01*
X118297337Y-36628465D01*
X118169500Y-36737649D01*
X118114567Y-36784567D01*
X118111359Y-36788323D01*
X117966945Y-36957409D01*
X117955248Y-36971104D01*
X117827073Y-37180268D01*
X117733195Y-37406908D01*
X117732040Y-37411720D01*
X117677086Y-37640621D01*
X117675928Y-37645443D01*
X117656681Y-37890000D01*
X116823319Y-37890000D01*
X116804072Y-37645443D01*
X116802915Y-37640621D01*
X116747960Y-37411720D01*
X116746805Y-37406908D01*
X116652927Y-37180268D01*
X116524752Y-36971104D01*
X116513056Y-36957409D01*
X116368641Y-36788323D01*
X116365433Y-36784567D01*
X116310500Y-36737649D01*
X116182663Y-36628465D01*
X116182660Y-36628463D01*
X116178896Y-36625248D01*
X116174673Y-36622660D01*
X116174670Y-36622658D01*
X116105485Y-36580262D01*
X115969732Y-36497073D01*
X115825033Y-36437136D01*
X115747665Y-36405089D01*
X115747663Y-36405088D01*
X115743092Y-36403195D01*
X115618862Y-36373370D01*
X115509370Y-36347083D01*
X115509364Y-36347082D01*
X115504557Y-36345928D01*
X115260000Y-36326681D01*
X115015443Y-36345928D01*
X115010636Y-36347082D01*
X115010630Y-36347083D01*
X114901138Y-36373370D01*
X114776908Y-36403195D01*
X114772337Y-36405088D01*
X114772335Y-36405089D01*
X114694967Y-36437136D01*
X114550268Y-36497073D01*
X114414515Y-36580262D01*
X114345330Y-36622658D01*
X114345327Y-36622660D01*
X114341104Y-36625248D01*
X114337340Y-36628463D01*
X114337337Y-36628465D01*
X114209500Y-36737649D01*
X114154567Y-36784567D01*
X114151359Y-36788323D01*
X114006945Y-36957409D01*
X113995248Y-36971104D01*
X113867073Y-37180268D01*
X113773195Y-37406908D01*
X113772040Y-37411720D01*
X113717086Y-37640621D01*
X113715928Y-37645443D01*
X113696681Y-37890000D01*
X112863319Y-37890000D01*
X112844072Y-37645443D01*
X112842915Y-37640621D01*
X112787960Y-37411720D01*
X112786805Y-37406908D01*
X112692927Y-37180268D01*
X112564752Y-36971104D01*
X112553056Y-36957409D01*
X112408641Y-36788323D01*
X112405433Y-36784567D01*
X112350500Y-36737649D01*
X112222663Y-36628465D01*
X112222660Y-36628463D01*
X112218896Y-36625248D01*
X112214673Y-36622660D01*
X112214670Y-36622658D01*
X112145485Y-36580262D01*
X112009732Y-36497073D01*
X111865033Y-36437136D01*
X111787665Y-36405089D01*
X111787663Y-36405088D01*
X111783092Y-36403195D01*
X111658862Y-36373370D01*
X111549370Y-36347083D01*
X111549364Y-36347082D01*
X111544557Y-36345928D01*
X111300000Y-36326681D01*
X111055443Y-36345928D01*
X111050636Y-36347082D01*
X111050630Y-36347083D01*
X110941138Y-36373370D01*
X110816908Y-36403195D01*
X110812337Y-36405088D01*
X110812335Y-36405089D01*
X110734967Y-36437136D01*
X110590268Y-36497073D01*
X110454515Y-36580262D01*
X110385330Y-36622658D01*
X110385327Y-36622660D01*
X110381104Y-36625248D01*
X110377340Y-36628463D01*
X110377337Y-36628465D01*
X110249500Y-36737649D01*
X110194567Y-36784567D01*
X110191359Y-36788323D01*
X110046945Y-36957409D01*
X110035248Y-36971104D01*
X109907073Y-37180268D01*
X109813195Y-37406908D01*
X109812040Y-37411720D01*
X109757086Y-37640621D01*
X109755928Y-37645443D01*
X109736681Y-37890000D01*
X61383319Y-37890000D01*
X61364072Y-37645443D01*
X61362915Y-37640621D01*
X61307960Y-37411720D01*
X61306805Y-37406908D01*
X61212927Y-37180268D01*
X61084752Y-36971104D01*
X61073056Y-36957409D01*
X60928641Y-36788323D01*
X60925433Y-36784567D01*
X60870500Y-36737649D01*
X60742663Y-36628465D01*
X60742660Y-36628463D01*
X60738896Y-36625248D01*
X60734673Y-36622660D01*
X60734670Y-36622658D01*
X60665485Y-36580262D01*
X60529732Y-36497073D01*
X60385033Y-36437136D01*
X60307665Y-36405089D01*
X60307663Y-36405088D01*
X60303092Y-36403195D01*
X60178862Y-36373370D01*
X60069370Y-36347083D01*
X60069364Y-36347082D01*
X60064557Y-36345928D01*
X59820000Y-36326681D01*
X59685083Y-36337299D01*
X59615604Y-36322703D01*
X59586103Y-36300782D01*
X57686410Y-34401089D01*
X57674024Y-34386677D01*
X57665491Y-34375082D01*
X57665486Y-34375077D01*
X57661148Y-34369182D01*
X57655570Y-34364443D01*
X57655567Y-34364440D01*
X57620872Y-34334965D01*
X57613356Y-34328035D01*
X57607661Y-34322340D01*
X57591030Y-34309182D01*
X57585389Y-34304719D01*
X57581985Y-34301928D01*
X57531937Y-34259409D01*
X57531935Y-34259408D01*
X57526355Y-34254667D01*
X57519839Y-34251339D01*
X57514790Y-34247972D01*
X57509661Y-34244805D01*
X57503924Y-34240266D01*
X57437765Y-34209345D01*
X57433865Y-34207439D01*
X57368832Y-34174231D01*
X57361724Y-34172492D01*
X57356081Y-34170393D01*
X57350318Y-34168476D01*
X57343690Y-34165378D01*
X57324003Y-34161283D01*
X57272228Y-34150514D01*
X57267939Y-34149543D01*
X57267236Y-34149371D01*
X57197030Y-34132192D01*
X57191428Y-34131844D01*
X57191425Y-34131844D01*
X57185876Y-34131500D01*
X57185878Y-34131464D01*
X57181885Y-34131225D01*
X57177693Y-34130851D01*
X57170525Y-34129360D01*
X57104315Y-34131151D01*
X57093119Y-34131454D01*
X57089712Y-34131500D01*
X56973273Y-34131500D01*
X56905152Y-34111498D01*
X56884178Y-34094595D01*
X54930672Y-32141089D01*
X54918286Y-32126677D01*
X54909753Y-32115082D01*
X54909748Y-32115077D01*
X54905410Y-32109182D01*
X54899832Y-32104443D01*
X54899829Y-32104440D01*
X54865134Y-32074965D01*
X54857618Y-32068035D01*
X54851923Y-32062340D01*
X54845782Y-32057482D01*
X54829651Y-32044719D01*
X54826247Y-32041928D01*
X54776199Y-31999409D01*
X54776197Y-31999408D01*
X54770617Y-31994667D01*
X54764101Y-31991339D01*
X54759052Y-31987972D01*
X54753923Y-31984805D01*
X54748186Y-31980266D01*
X54682027Y-31949345D01*
X54678127Y-31947439D01*
X54613094Y-31914231D01*
X54605986Y-31912492D01*
X54600343Y-31910393D01*
X54594580Y-31908476D01*
X54587952Y-31905378D01*
X54516485Y-31890513D01*
X54512201Y-31889543D01*
X54441292Y-31872192D01*
X54435690Y-31871844D01*
X54435687Y-31871844D01*
X54430138Y-31871500D01*
X54430140Y-31871464D01*
X54426147Y-31871225D01*
X54421955Y-31870851D01*
X54414787Y-31869360D01*
X54348577Y-31871151D01*
X54337381Y-31871454D01*
X54333974Y-31871500D01*
X53511547Y-31871500D01*
X53443426Y-31851498D01*
X53422452Y-31834595D01*
X51588946Y-30001089D01*
X51576560Y-29986677D01*
X51568027Y-29975082D01*
X51568022Y-29975077D01*
X51563684Y-29969182D01*
X51558106Y-29964443D01*
X51558103Y-29964440D01*
X51523408Y-29934965D01*
X51515892Y-29928035D01*
X51510197Y-29922340D01*
X51504056Y-29917482D01*
X51487925Y-29904719D01*
X51484521Y-29901928D01*
X51434473Y-29859409D01*
X51434471Y-29859408D01*
X51428891Y-29854667D01*
X51422375Y-29851339D01*
X51417326Y-29847972D01*
X51412197Y-29844805D01*
X51406460Y-29840266D01*
X51340301Y-29809345D01*
X51336401Y-29807439D01*
X51271368Y-29774231D01*
X51264260Y-29772492D01*
X51258617Y-29770393D01*
X51252854Y-29768476D01*
X51246226Y-29765378D01*
X51174759Y-29750513D01*
X51170475Y-29749543D01*
X51099566Y-29732192D01*
X51093964Y-29731844D01*
X51093961Y-29731844D01*
X51088412Y-29731500D01*
X51088414Y-29731464D01*
X51084421Y-29731225D01*
X51080229Y-29730851D01*
X51073061Y-29729360D01*
X51006851Y-29731151D01*
X50995655Y-29731454D01*
X50992248Y-29731500D01*
X50240175Y-29731500D01*
X50172054Y-29711498D01*
X50151080Y-29694595D01*
X48587574Y-28131089D01*
X48575188Y-28116677D01*
X48566655Y-28105082D01*
X48566650Y-28105077D01*
X48562312Y-28099182D01*
X48556734Y-28094443D01*
X48556731Y-28094440D01*
X48522036Y-28064965D01*
X48514520Y-28058035D01*
X48508825Y-28052340D01*
X48502684Y-28047482D01*
X48486553Y-28034719D01*
X48483149Y-28031928D01*
X48433101Y-27989409D01*
X48433099Y-27989408D01*
X48427519Y-27984667D01*
X48421003Y-27981339D01*
X48415954Y-27977972D01*
X48410825Y-27974805D01*
X48405088Y-27970266D01*
X48338929Y-27939345D01*
X48335029Y-27937439D01*
X48269996Y-27904231D01*
X48262888Y-27902492D01*
X48257245Y-27900393D01*
X48251482Y-27898476D01*
X48244854Y-27895378D01*
X48173387Y-27880513D01*
X48169103Y-27879543D01*
X48134762Y-27871140D01*
X48098194Y-27862192D01*
X48092592Y-27861844D01*
X48092589Y-27861844D01*
X48087040Y-27861500D01*
X48087042Y-27861464D01*
X48083049Y-27861225D01*
X48078857Y-27860851D01*
X48071689Y-27859360D01*
X48007924Y-27861085D01*
X47994283Y-27861454D01*
X47990876Y-27861500D01*
X27753255Y-27861500D01*
X27734306Y-27860067D01*
X27734099Y-27860036D01*
X27712843Y-27856802D01*
X27705551Y-27857395D01*
X27705548Y-27857395D01*
X27660183Y-27861085D01*
X27649969Y-27861500D01*
X27641900Y-27861500D01*
X27613635Y-27864795D01*
X27609332Y-27865221D01*
X27574806Y-27868029D01*
X27543854Y-27870546D01*
X27543851Y-27870547D01*
X27536556Y-27871140D01*
X27529592Y-27873396D01*
X27523633Y-27874587D01*
X27517778Y-27875971D01*
X27510512Y-27876818D01*
X27441866Y-27901735D01*
X27437738Y-27903152D01*
X27375257Y-27923393D01*
X27375255Y-27923394D01*
X27368294Y-27925649D01*
X27362039Y-27929445D01*
X27356565Y-27931951D01*
X27351135Y-27934670D01*
X27344256Y-27937167D01*
X27283209Y-27977191D01*
X27279520Y-27979518D01*
X27271036Y-27984667D01*
X27221886Y-28014491D01*
X27221881Y-28014495D01*
X27217085Y-28017405D01*
X27208709Y-28024803D01*
X27208686Y-28024777D01*
X27205696Y-28027426D01*
X27202457Y-28030134D01*
X27196341Y-28034144D01*
X27191314Y-28039451D01*
X27191310Y-28039454D01*
X27143065Y-28090383D01*
X27140687Y-28092825D01*
X25153444Y-30080069D01*
X23223595Y-32009918D01*
X23161283Y-32043944D01*
X23090468Y-32038879D01*
X23033632Y-31996332D01*
X23008821Y-31929812D01*
X23008500Y-31920823D01*
X23008500Y-26634500D01*
X23028502Y-26566379D01*
X23082158Y-26519886D01*
X23134500Y-26508500D01*
X233025500Y-26508500D01*
X233093621Y-26528502D01*
G37*
G04 #@! TD.AperFunction*
M02*
