G04 #@! TF.GenerationSoftware,KiCad,Pcbnew,(6.0.6)*
G04 #@! TF.CreationDate,2022-08-19T10:50:45-05:00*
G04 #@! TF.ProjectId,lowercase,6c6f7765-7263-4617-9365-2e6b69636164,1*
G04 #@! TF.SameCoordinates,Original*
G04 #@! TF.FileFunction,Legend,Top*
G04 #@! TF.FilePolarity,Positive*
%FSLAX46Y46*%
G04 Gerber Fmt 4.6, Leading zero omitted, Abs format (unit mm)*
G04 Created by KiCad (PCBNEW (6.0.6)) date 2022-08-19 10:50:45*
%MOMM*%
%LPD*%
G01*
G04 APERTURE LIST*
%ADD10C,0.120000*%
G04 APERTURE END LIST*
D10*
X42000000Y-39220000D02*
X156840000Y-39220000D01*
X156840000Y-39220000D02*
X156840000Y-36560000D01*
X42000000Y-39220000D02*
X42000000Y-36560000D01*
X42000000Y-36560000D02*
X156840000Y-36560000D01*
X40020000Y-39220000D02*
X38690000Y-39220000D01*
X38690000Y-39220000D02*
X38690000Y-37890000D01*
G36*
X208895940Y-32798256D02*
G01*
X209167163Y-32818655D01*
X209327238Y-32848310D01*
X209354666Y-32868408D01*
X209382594Y-33010298D01*
X209406058Y-33080075D01*
X209410191Y-33142659D01*
X209345886Y-33182345D01*
X209185221Y-33204098D01*
X208900274Y-33212885D01*
X208653116Y-33214000D01*
X208264255Y-33208973D01*
X208013691Y-33190678D01*
X207870597Y-33154290D01*
X207804147Y-33094983D01*
X207797391Y-33080075D01*
X207760650Y-32949888D01*
X207787745Y-32865767D01*
X207904459Y-32817801D01*
X208136579Y-32796078D01*
X208509888Y-32790689D01*
X208550333Y-32790667D01*
X208895940Y-32798256D01*
G37*
G36*
X202661226Y-32792160D02*
G01*
X202894940Y-32802257D01*
X203022955Y-32829383D01*
X203077089Y-32881964D01*
X203089158Y-32968424D01*
X203089333Y-33002333D01*
X203083776Y-33100261D01*
X203045994Y-33162080D01*
X202944321Y-33196096D01*
X202747090Y-33210615D01*
X202422636Y-33213942D01*
X202282342Y-33214000D01*
X201884515Y-33208045D01*
X201627846Y-33187507D01*
X201484491Y-33148379D01*
X201428173Y-33091054D01*
X201405944Y-32960590D01*
X201471927Y-32872810D01*
X201647503Y-32820263D01*
X201954053Y-32795496D01*
X202289996Y-32790667D01*
X202661226Y-32792160D01*
G37*
G36*
X182454034Y-31523496D02*
G01*
X182678997Y-31536759D01*
X182799116Y-31567618D01*
X182846620Y-31623234D01*
X182854000Y-31690000D01*
X182841267Y-31770452D01*
X182781584Y-31820444D01*
X182642720Y-31847137D01*
X182392447Y-31857693D01*
X182092000Y-31859333D01*
X181729965Y-31856504D01*
X181505002Y-31843241D01*
X181384883Y-31812382D01*
X181337379Y-31756766D01*
X181330000Y-31690000D01*
X181342732Y-31609548D01*
X181402415Y-31559556D01*
X181541279Y-31532863D01*
X181791552Y-31522306D01*
X182092000Y-31520667D01*
X182454034Y-31523496D01*
G37*
G36*
X208901752Y-32200723D02*
G01*
X209148925Y-32212356D01*
X209284648Y-32238096D01*
X209337842Y-32283141D01*
X209338740Y-32346167D01*
X209301542Y-32418463D01*
X209201906Y-32465820D01*
X209007797Y-32495194D01*
X208687177Y-32513540D01*
X208545261Y-32518451D01*
X208200262Y-32522951D01*
X207921778Y-32514668D01*
X207751440Y-32495382D01*
X207720729Y-32483173D01*
X207664685Y-32351543D01*
X207661333Y-32310889D01*
X207702122Y-32256951D01*
X207840300Y-32222250D01*
X208099584Y-32203647D01*
X208503691Y-32198002D01*
X208514208Y-32198000D01*
X208901752Y-32200723D01*
G37*
G36*
X215662333Y-34146449D02*
G01*
X215408333Y-34314667D01*
X215246608Y-34399903D01*
X215047816Y-34450975D01*
X214766995Y-34475201D01*
X214392333Y-34480052D01*
X213878367Y-34459227D01*
X213526466Y-34400910D01*
X213397500Y-34350906D01*
X213235515Y-34251798D01*
X213164782Y-34186279D01*
X213164666Y-34184962D01*
X213244412Y-34171098D01*
X213463972Y-34159427D01*
X213793835Y-34150872D01*
X214204487Y-34146357D01*
X214413500Y-34145891D01*
X215662333Y-34146449D01*
G37*
G36*
X214035478Y-32793314D02*
G01*
X215154333Y-32795962D01*
X214731000Y-33004207D01*
X214473917Y-33114323D01*
X214218189Y-33178376D01*
X213902377Y-33207532D01*
X213580944Y-33213226D01*
X213245689Y-33207731D01*
X212978586Y-33192408D01*
X212822203Y-33170130D01*
X212800756Y-33160534D01*
X212792284Y-33052952D01*
X212831957Y-32948868D01*
X212881668Y-32884164D01*
X212968382Y-32839966D01*
X213120803Y-32812565D01*
X213367632Y-32798249D01*
X213737574Y-32793309D01*
X214035478Y-32793314D01*
G37*
G36*
X204315861Y-30315056D02*
G01*
X204364899Y-30338312D01*
X204510889Y-30444813D01*
X204493368Y-30521290D01*
X204311261Y-30568284D01*
X203963493Y-30586337D01*
X203872500Y-30586516D01*
X203216333Y-30583700D01*
X203416213Y-30417183D01*
X203680585Y-30289763D01*
X204008332Y-30253405D01*
X204315861Y-30315056D01*
G37*
G36*
X216796952Y-32792136D02*
G01*
X217031956Y-32802111D01*
X217161063Y-32828936D01*
X217215993Y-32880960D01*
X217228463Y-32966530D01*
X217228666Y-33002333D01*
X217223081Y-33100391D01*
X217185178Y-33162234D01*
X217083241Y-33196210D01*
X216885549Y-33210665D01*
X216560386Y-33213946D01*
X216424333Y-33214000D01*
X216051714Y-33212530D01*
X215816710Y-33202556D01*
X215687603Y-33175730D01*
X215632673Y-33123706D01*
X215620203Y-33038137D01*
X215620000Y-33002333D01*
X215625585Y-32904276D01*
X215663487Y-32842432D01*
X215765425Y-32808457D01*
X215963116Y-32794002D01*
X216288279Y-32790720D01*
X216424333Y-32790667D01*
X216796952Y-32792136D01*
G37*
G36*
X211049956Y-31534624D02*
G01*
X211192533Y-31538735D01*
X211579481Y-31554008D01*
X211828040Y-31576619D01*
X211969152Y-31612802D01*
X212033758Y-31668796D01*
X212048060Y-31711167D01*
X212044692Y-31782289D01*
X211981017Y-31826341D01*
X211826488Y-31849614D01*
X211550556Y-31858398D01*
X211328574Y-31859333D01*
X210962478Y-31855035D01*
X210727973Y-31837084D01*
X210587424Y-31797896D01*
X210503197Y-31729884D01*
X210473047Y-31686902D01*
X210430389Y-31608182D01*
X210439668Y-31559172D01*
X210527967Y-31534294D01*
X210722369Y-31527970D01*
X211049956Y-31534624D01*
G37*
G36*
X194161978Y-33469329D02*
G01*
X194455329Y-33476282D01*
X194632231Y-33493310D01*
X194719128Y-33524863D01*
X194742459Y-33575391D01*
X194731865Y-33637333D01*
X194700345Y-33710913D01*
X194631497Y-33759478D01*
X194495010Y-33788166D01*
X194260575Y-33802115D01*
X193897880Y-33806462D01*
X193732850Y-33806667D01*
X193306238Y-33802934D01*
X193020241Y-33789196D01*
X192846253Y-33761647D01*
X192755671Y-33716479D01*
X192726725Y-33672742D01*
X192681896Y-33537774D01*
X192675333Y-33503408D01*
X192754634Y-33489948D01*
X192971083Y-33478840D01*
X193292500Y-33471171D01*
X193686705Y-33468024D01*
X193725740Y-33468000D01*
X194161978Y-33469329D01*
G37*
G36*
X194930256Y-31523818D02*
G01*
X195143997Y-31538465D01*
X195254665Y-31572399D01*
X195295372Y-31633411D01*
X195300000Y-31690000D01*
X195287398Y-31770067D01*
X195228229Y-31819992D01*
X195090442Y-31846812D01*
X194841989Y-31857566D01*
X194528941Y-31859333D01*
X194163764Y-31855816D01*
X193939484Y-31841746D01*
X193827747Y-31811846D01*
X193800198Y-31760841D01*
X193809274Y-31725408D01*
X193854103Y-31590441D01*
X193860666Y-31556075D01*
X193938848Y-31540073D01*
X194147478Y-31527835D01*
X194447678Y-31521274D01*
X194580333Y-31520667D01*
X194930256Y-31523818D01*
G37*
G36*
X199265534Y-30306852D02*
G01*
X199603352Y-30365175D01*
X199832359Y-30458037D01*
X199842671Y-30465505D01*
X199884698Y-30511233D01*
X199856935Y-30543759D01*
X199738789Y-30565331D01*
X199509668Y-30578198D01*
X199148977Y-30584609D01*
X198733233Y-30586640D01*
X198190503Y-30582555D01*
X197811247Y-30567727D01*
X197597300Y-30542284D01*
X197550492Y-30506352D01*
X197551426Y-30505373D01*
X197744522Y-30402981D01*
X198058399Y-30331134D01*
X198447139Y-30290630D01*
X198864823Y-30282270D01*
X199265534Y-30306852D01*
G37*
G36*
X199351571Y-30845997D02*
G01*
X199824541Y-30855855D01*
X200167584Y-30875705D01*
X200400376Y-30908345D01*
X200542589Y-30956573D01*
X200613900Y-31023188D01*
X200633983Y-31110987D01*
X200634000Y-31114267D01*
X200553318Y-31133734D01*
X200327204Y-31151014D01*
X199979554Y-31165256D01*
X199534262Y-31175612D01*
X199015226Y-31181231D01*
X198729000Y-31182000D01*
X198181482Y-31179131D01*
X197695489Y-31171092D01*
X197294916Y-31158731D01*
X197003659Y-31142898D01*
X196845612Y-31124443D01*
X196824000Y-31114267D01*
X196842732Y-31025723D01*
X196912045Y-30958456D01*
X197051614Y-30909668D01*
X197281114Y-30876560D01*
X197620219Y-30856334D01*
X198088604Y-30846192D01*
X198705943Y-30843336D01*
X198729000Y-30843333D01*
X199351571Y-30845997D01*
G37*
G36*
X186310749Y-30298619D02*
G01*
X186475906Y-30325543D01*
X186823452Y-30404902D01*
X187003287Y-30469794D01*
X187015207Y-30520319D01*
X186859011Y-30556574D01*
X186534497Y-30578659D01*
X186041462Y-30586672D01*
X185940100Y-30586640D01*
X185473965Y-30583783D01*
X185156004Y-30576026D01*
X184965075Y-30560846D01*
X184880033Y-30535721D01*
X184879736Y-30498129D01*
X184916635Y-30464550D01*
X185150391Y-30361065D01*
X185496462Y-30295723D01*
X185901148Y-30273312D01*
X186310749Y-30298619D01*
G37*
G36*
X221588798Y-32876898D02*
G01*
X221891013Y-32884171D01*
X222078388Y-32901555D01*
X222178167Y-32933319D01*
X222217592Y-32983735D01*
X222224000Y-33044667D01*
X222212071Y-33124025D01*
X222155057Y-33173076D01*
X222021116Y-33198280D01*
X221778405Y-33206103D01*
X221440833Y-33203624D01*
X220995918Y-33186669D01*
X220676530Y-33145156D01*
X220439806Y-33072365D01*
X220361333Y-33034423D01*
X220065000Y-32875596D01*
X221144500Y-32875465D01*
X221588798Y-32876898D01*
G37*
G36*
X199325196Y-33470808D02*
G01*
X199817796Y-33478683D01*
X200225498Y-33490804D01*
X200524668Y-33506348D01*
X200691671Y-33524494D01*
X200718666Y-33535733D01*
X200700426Y-33623370D01*
X200632698Y-33690170D01*
X200495969Y-33738847D01*
X200270727Y-33772117D01*
X199937458Y-33792693D01*
X199476652Y-33803291D01*
X198868794Y-33806625D01*
X198771333Y-33806667D01*
X198112469Y-33803101D01*
X197610702Y-33791963D01*
X197253938Y-33772584D01*
X197030082Y-33744300D01*
X196927039Y-33706445D01*
X196925600Y-33705067D01*
X196836460Y-33580596D01*
X196824000Y-33535733D01*
X196904725Y-33516468D01*
X197131143Y-33499334D01*
X197479621Y-33485154D01*
X197926524Y-33474748D01*
X198448216Y-33468939D01*
X198771333Y-33468000D01*
X199325196Y-33470808D01*
G37*
G36*
X220687589Y-32200858D02*
G01*
X221114659Y-32204679D01*
X221420771Y-32214503D01*
X221630109Y-32232551D01*
X221766859Y-32261045D01*
X221855204Y-32302209D01*
X221919328Y-32358263D01*
X221927666Y-32367333D01*
X221976774Y-32426034D01*
X221988964Y-32469309D01*
X221943971Y-32499510D01*
X221821533Y-32518987D01*
X221601385Y-32530093D01*
X221263264Y-32535180D01*
X220786907Y-32536598D01*
X220468501Y-32536667D01*
X219902407Y-32535402D01*
X219480344Y-32530061D01*
X219177016Y-32518318D01*
X218967132Y-32497850D01*
X218825397Y-32466332D01*
X218726518Y-32421440D01*
X218656213Y-32370150D01*
X218456333Y-32203633D01*
X220115377Y-32200817D01*
X220687589Y-32200858D01*
G37*
G36*
X214234503Y-31529306D02*
G01*
X214477263Y-31554368D01*
X214564447Y-31594571D01*
X214561666Y-31605333D01*
X214458396Y-31643996D01*
X214228744Y-31673395D01*
X213915604Y-31688794D01*
X213794669Y-31690000D01*
X213445949Y-31680576D01*
X213199219Y-31654677D01*
X213084538Y-31615865D01*
X213080000Y-31605333D01*
X213159963Y-31564841D01*
X213381471Y-31535932D01*
X213716950Y-31521651D01*
X213846996Y-31520667D01*
X214234503Y-31529306D01*
G37*
G36*
X186621384Y-33468312D02*
G01*
X187095336Y-33470414D01*
X187437376Y-33476057D01*
X187666216Y-33486990D01*
X187800565Y-33504966D01*
X187859135Y-33531732D01*
X187860637Y-33569041D01*
X187823782Y-33618642D01*
X187807000Y-33637333D01*
X187745340Y-33694733D01*
X187663010Y-33737492D01*
X187536330Y-33767751D01*
X187341622Y-33787652D01*
X187055207Y-33799335D01*
X186653406Y-33804942D01*
X186112541Y-33806612D01*
X185934189Y-33806667D01*
X185352257Y-33805842D01*
X184916821Y-33801944D01*
X184605050Y-33792837D01*
X184394108Y-33776385D01*
X184261164Y-33750452D01*
X184183382Y-33712902D01*
X184137930Y-33661599D01*
X184124000Y-33637333D01*
X184099702Y-33583448D01*
X184104880Y-33542409D01*
X184158873Y-33512467D01*
X184281022Y-33491873D01*
X184490669Y-33478879D01*
X184807153Y-33471736D01*
X185249815Y-33468696D01*
X185837997Y-33468009D01*
X185996810Y-33468000D01*
X186621384Y-33468312D01*
G37*
G36*
X189713062Y-30856597D02*
G01*
X189901532Y-30861323D01*
X190276535Y-30877341D01*
X190513934Y-30901617D01*
X190645453Y-30940899D01*
X190702813Y-31001942D01*
X190712073Y-31033833D01*
X190708774Y-31104525D01*
X190645695Y-31148503D01*
X190492475Y-31171923D01*
X190218752Y-31180941D01*
X189981266Y-31182000D01*
X189604198Y-31176423D01*
X189364650Y-31156216D01*
X189231071Y-31116166D01*
X189171908Y-31051061D01*
X189170725Y-31048075D01*
X189125833Y-30911228D01*
X189119333Y-30875565D01*
X189197717Y-30861218D01*
X189408042Y-30854669D01*
X189713062Y-30856597D01*
G37*
G36*
X185923166Y-34152240D02*
G01*
X186412084Y-34155638D01*
X186750638Y-34161492D01*
X186957798Y-34172446D01*
X187052534Y-34191145D01*
X187053815Y-34220233D01*
X186980611Y-34262354D01*
X186918000Y-34290911D01*
X186566631Y-34392568D01*
X186120190Y-34445959D01*
X185646567Y-34448825D01*
X185213653Y-34398908D01*
X185034166Y-34353605D01*
X184803802Y-34272648D01*
X184658292Y-34207630D01*
X184632000Y-34185104D01*
X184711823Y-34171798D01*
X184931943Y-34161294D01*
X185263338Y-34154333D01*
X185676983Y-34151653D01*
X185923166Y-34152240D01*
G37*
G36*
X192356896Y-30268409D02*
G01*
X192708713Y-30286210D01*
X192924523Y-30314514D01*
X193037633Y-30361249D01*
X193081350Y-30434343D01*
X193082771Y-30441167D01*
X193079221Y-30513151D01*
X193014301Y-30557343D01*
X192857091Y-30580310D01*
X192576668Y-30588621D01*
X192385208Y-30589333D01*
X192033740Y-30586351D01*
X191818520Y-30572159D01*
X191706495Y-30538892D01*
X191664614Y-30478683D01*
X191659333Y-30416576D01*
X191671027Y-30332126D01*
X191728601Y-30282817D01*
X191865793Y-30261482D01*
X192116338Y-30260955D01*
X192356896Y-30268409D01*
G37*
G36*
X202628016Y-34147657D02*
G01*
X202874702Y-34158716D01*
X203013372Y-34184639D01*
X203074677Y-34231556D01*
X203089264Y-34305598D01*
X203089333Y-34314667D01*
X203076999Y-34393938D01*
X203018879Y-34443718D01*
X202883296Y-34470794D01*
X202638574Y-34481954D01*
X202299111Y-34484000D01*
X201948618Y-34478308D01*
X201664780Y-34463041D01*
X201488307Y-34440914D01*
X201452444Y-34427555D01*
X201399251Y-34299144D01*
X201396000Y-34258222D01*
X201436937Y-34204108D01*
X201575584Y-34169366D01*
X201835692Y-34150830D01*
X202241014Y-34145333D01*
X202242666Y-34145333D01*
X202628016Y-34147657D01*
G37*
G36*
X216969930Y-34148955D02*
G01*
X217215156Y-34164279D01*
X217361604Y-34197997D01*
X217444518Y-34256798D01*
X217482666Y-34314667D01*
X217516000Y-34391856D01*
X217497834Y-34441115D01*
X217400617Y-34468706D01*
X217196802Y-34480892D01*
X216858840Y-34483934D01*
X216737756Y-34484000D01*
X216377063Y-34478609D01*
X216082354Y-34464099D01*
X215893028Y-34442963D01*
X215845777Y-34427555D01*
X215792584Y-34299144D01*
X215789333Y-34258222D01*
X215831434Y-34202762D01*
X215973731Y-34167729D01*
X216240213Y-34149743D01*
X216590687Y-34145333D01*
X216969930Y-34148955D01*
G37*
G36*
X192776116Y-30850615D02*
G01*
X193038750Y-30878874D01*
X193189211Y-30937727D01*
X193255889Y-31036794D01*
X193268000Y-31146591D01*
X193189023Y-31160799D01*
X192974839Y-31172288D01*
X192659570Y-31179765D01*
X192333687Y-31182000D01*
X191927300Y-31180661D01*
X191663818Y-31173107D01*
X191516815Y-31154036D01*
X191459865Y-31118142D01*
X191466542Y-31060123D01*
X191490000Y-31012667D01*
X191550225Y-30932545D01*
X191650332Y-30882382D01*
X191825799Y-30855374D01*
X192112101Y-30844716D01*
X192372920Y-30843333D01*
X192776116Y-30850615D01*
G37*
G36*
X225533265Y-33468302D02*
G01*
X226014599Y-33470337D01*
X226363691Y-33475801D01*
X226599086Y-33486389D01*
X226739331Y-33503797D01*
X226802971Y-33529719D01*
X226808552Y-33565850D01*
X226774619Y-33613886D01*
X226753666Y-33637333D01*
X226692778Y-33694116D01*
X226611521Y-33736589D01*
X226486551Y-33766818D01*
X226294522Y-33786866D01*
X226012092Y-33798797D01*
X225615915Y-33804675D01*
X225082648Y-33806565D01*
X224838523Y-33806667D01*
X224248628Y-33805878D01*
X223805534Y-33802140D01*
X223486709Y-33793393D01*
X223269623Y-33777577D01*
X223131745Y-33752633D01*
X223050544Y-33716502D01*
X223003490Y-33667124D01*
X222986000Y-33637333D01*
X222961909Y-33583949D01*
X222966894Y-33543158D01*
X223020111Y-33513266D01*
X223140715Y-33492580D01*
X223347862Y-33479406D01*
X223660709Y-33472051D01*
X224098412Y-33468819D01*
X224680126Y-33468019D01*
X224901143Y-33468000D01*
X225533265Y-33468302D01*
G37*
G36*
X184956171Y-32795915D02*
G01*
X185179668Y-32816683D01*
X185308559Y-32860503D01*
X185380113Y-32934908D01*
X185388595Y-32949902D01*
X185424125Y-33065094D01*
X185344556Y-33128733D01*
X185211657Y-33161568D01*
X184982738Y-33190131D01*
X184665157Y-33209174D01*
X184419624Y-33214000D01*
X184122402Y-33206639D01*
X183953355Y-33176747D01*
X183871668Y-33112608D01*
X183846749Y-33049569D01*
X183831887Y-32893389D01*
X183850986Y-32837902D01*
X183951946Y-32816177D01*
X184179273Y-32799724D01*
X184490020Y-32791251D01*
X184600798Y-32790667D01*
X184956171Y-32795915D01*
G37*
G36*
X200054703Y-31538315D02*
G01*
X200068652Y-31538750D01*
X200441732Y-31554843D01*
X200677340Y-31579369D01*
X200807327Y-31619162D01*
X200863546Y-31681060D01*
X200872073Y-31711167D01*
X200868769Y-31781889D01*
X200805647Y-31825873D01*
X200652333Y-31849283D01*
X200378452Y-31858284D01*
X200142082Y-31859333D01*
X199778721Y-31856037D01*
X199550276Y-31841233D01*
X199422379Y-31807546D01*
X199360664Y-31747599D01*
X199338661Y-31686917D01*
X199326544Y-31606161D01*
X199361898Y-31557050D01*
X199474916Y-31533458D01*
X199695787Y-31529255D01*
X200054703Y-31538315D01*
G37*
G36*
X194220860Y-32792202D02*
G01*
X194557089Y-32798823D01*
X194773128Y-32813547D01*
X194893542Y-32839395D01*
X194942895Y-32879386D01*
X194945753Y-32936539D01*
X194945323Y-32938833D01*
X194916676Y-32999231D01*
X194840093Y-33042065D01*
X194689050Y-33071209D01*
X194437024Y-33090535D01*
X194057490Y-33103918D01*
X193770175Y-33110449D01*
X193345385Y-33114935D01*
X192982784Y-33110839D01*
X192715285Y-33099124D01*
X192575801Y-33080753D01*
X192564726Y-33075171D01*
X192509329Y-32944271D01*
X192506000Y-32903555D01*
X192540796Y-32857798D01*
X192659370Y-32825577D01*
X192883002Y-32804946D01*
X193232970Y-32793959D01*
X193730554Y-32790667D01*
X193739874Y-32790667D01*
X194220860Y-32792202D01*
G37*
G36*
X210565536Y-30844239D02*
G01*
X210985410Y-30848491D01*
X211282907Y-30858395D01*
X211481506Y-30876254D01*
X211604683Y-30904371D01*
X211675915Y-30945052D01*
X211718679Y-31000599D01*
X211725333Y-31012666D01*
X211750062Y-31067599D01*
X211744471Y-31109148D01*
X211688835Y-31139181D01*
X211563426Y-31159567D01*
X211348519Y-31172174D01*
X211024388Y-31178870D01*
X210571305Y-31181522D01*
X209969545Y-31182000D01*
X209937189Y-31182000D01*
X209327957Y-31181666D01*
X208869003Y-31179419D01*
X208541274Y-31173388D01*
X208325716Y-31161704D01*
X208203275Y-31142497D01*
X208154895Y-31113896D01*
X208161524Y-31074032D01*
X208204106Y-31021035D01*
X208211666Y-31012667D01*
X208274965Y-30953965D01*
X208359585Y-30910618D01*
X208489919Y-30880313D01*
X208690359Y-30860743D01*
X208985297Y-30849597D01*
X209399124Y-30844565D01*
X209956234Y-30843336D01*
X209999810Y-30843333D01*
X210565536Y-30844239D01*
G37*
G36*
X226587645Y-31528796D02*
G01*
X226840915Y-31559977D01*
X226982826Y-31624393D01*
X227042120Y-31732232D01*
X227050000Y-31823925D01*
X226971466Y-31839140D01*
X226760381Y-31851081D01*
X226453518Y-31858127D01*
X226245666Y-31859333D01*
X225871830Y-31856776D01*
X225635890Y-31844697D01*
X225506438Y-31816482D01*
X225452061Y-31765519D01*
X225441333Y-31690000D01*
X225454200Y-31609157D01*
X225514409Y-31559099D01*
X225654373Y-31532537D01*
X225906503Y-31522182D01*
X226194274Y-31520667D01*
X226587645Y-31528796D01*
G37*
G36*
X182463749Y-28985616D02*
G01*
X182695307Y-29003679D01*
X182815611Y-29039678D01*
X182853598Y-29098437D01*
X182854000Y-29107667D01*
X182824304Y-29169625D01*
X182715927Y-29208218D01*
X182499930Y-29228268D01*
X182147374Y-29234600D01*
X182092000Y-29234667D01*
X181720250Y-29229717D01*
X181488692Y-29211654D01*
X181368388Y-29175655D01*
X181330401Y-29116896D01*
X181330000Y-29107667D01*
X181359695Y-29045708D01*
X181468072Y-29007115D01*
X181684069Y-28987065D01*
X182036625Y-28980733D01*
X182092000Y-28980667D01*
X182463749Y-28985616D01*
G37*
G36*
X182454034Y-33470829D02*
G01*
X182678997Y-33484092D01*
X182799116Y-33514951D01*
X182846620Y-33570567D01*
X182854000Y-33637333D01*
X182841267Y-33717785D01*
X182781584Y-33767777D01*
X182642720Y-33794470D01*
X182392447Y-33805027D01*
X182092000Y-33806667D01*
X181729965Y-33803837D01*
X181505002Y-33790574D01*
X181384883Y-33759715D01*
X181337379Y-33704099D01*
X181330000Y-33637333D01*
X181342732Y-33556881D01*
X181402415Y-33506889D01*
X181541279Y-33480196D01*
X181791552Y-33469640D01*
X182092000Y-33468000D01*
X182454034Y-33470829D01*
G37*
G36*
X195400436Y-30858829D02*
G01*
X195507445Y-30884628D01*
X195532527Y-30934625D01*
X195522048Y-30973810D01*
X195476431Y-31110404D01*
X195469333Y-31146591D01*
X195391123Y-31162531D01*
X195182299Y-31174748D01*
X194881571Y-31181352D01*
X194743458Y-31182000D01*
X194391480Y-31178468D01*
X194177845Y-31163493D01*
X194071632Y-31130509D01*
X194041921Y-31072946D01*
X194045911Y-31033833D01*
X194083680Y-30960871D01*
X194184867Y-30913227D01*
X194381771Y-30883735D01*
X194706693Y-30865226D01*
X194824500Y-30861052D01*
X195182466Y-30852535D01*
X195400436Y-30858829D01*
G37*
G36*
X202884246Y-33480760D02*
G01*
X203018006Y-33502673D01*
X203075968Y-33548433D01*
X203089261Y-33623634D01*
X203089333Y-33634267D01*
X203078434Y-33712457D01*
X203025345Y-33762605D01*
X202899474Y-33790895D01*
X202670229Y-33803510D01*
X202307021Y-33806634D01*
X202236458Y-33806667D01*
X201848915Y-33803944D01*
X201601743Y-33792311D01*
X201466022Y-33766571D01*
X201412832Y-33721527D01*
X201411939Y-33658500D01*
X201447272Y-33588578D01*
X201541895Y-33542029D01*
X201726794Y-33512588D01*
X202032956Y-33493992D01*
X202264814Y-33486101D01*
X202643558Y-33477101D01*
X202884246Y-33480760D01*
G37*
G36*
X187661396Y-31527111D02*
G01*
X187934807Y-31552449D01*
X188095073Y-31605686D01*
X188170141Y-31695830D01*
X188188000Y-31823925D01*
X188109545Y-31839319D01*
X187899014Y-31851331D01*
X187593655Y-31858279D01*
X187404032Y-31859333D01*
X187027803Y-31855330D01*
X186784424Y-31838703D01*
X186637509Y-31802527D01*
X186550671Y-31739877D01*
X186514315Y-31690000D01*
X186473573Y-31612922D01*
X186485598Y-31563695D01*
X186577376Y-31536082D01*
X186775892Y-31523845D01*
X187108131Y-31520747D01*
X187246890Y-31520667D01*
X187661396Y-31527111D01*
G37*
G36*
X191378876Y-33469542D02*
G01*
X191676269Y-33477103D01*
X191859351Y-33495084D01*
X191955631Y-33527886D01*
X191992617Y-33579911D01*
X191998000Y-33637333D01*
X191987915Y-33709231D01*
X191938828Y-33757285D01*
X191822484Y-33786272D01*
X191610631Y-33800966D01*
X191275016Y-33806142D01*
X190996111Y-33806667D01*
X190600044Y-33802152D01*
X190267890Y-33789869D01*
X190035114Y-33771708D01*
X189937777Y-33750222D01*
X189884584Y-33621811D01*
X189881333Y-33580889D01*
X189918300Y-33531894D01*
X190044138Y-33498557D01*
X190281252Y-33478485D01*
X190652047Y-33469291D01*
X190939666Y-33468000D01*
X191378876Y-33469542D01*
G37*
G36*
X198792500Y-34152240D02*
G01*
X199280931Y-34155713D01*
X199618934Y-34161739D01*
X199825413Y-34172879D01*
X199919273Y-34191690D01*
X199919419Y-34220732D01*
X199844756Y-34262563D01*
X199789589Y-34287199D01*
X199429496Y-34390015D01*
X198976036Y-34444060D01*
X198498721Y-34446870D01*
X198067061Y-34395982D01*
X197903500Y-34354034D01*
X197673164Y-34272843D01*
X197527651Y-34207672D01*
X197501333Y-34185104D01*
X197581156Y-34171798D01*
X197801277Y-34161294D01*
X198132671Y-34154333D01*
X198546316Y-34151653D01*
X198792500Y-34152240D01*
G37*
G36*
X218909589Y-31542202D02*
G01*
X218985500Y-31545488D01*
X219408451Y-31576026D01*
X219828180Y-31626550D01*
X220175275Y-31688040D01*
X220276666Y-31713244D01*
X220742333Y-31844932D01*
X219451166Y-31852133D01*
X218958706Y-31853933D01*
X218610578Y-31850778D01*
X218381790Y-31839421D01*
X218247349Y-31816614D01*
X218182264Y-31779112D01*
X218161542Y-31723665D01*
X218160000Y-31684377D01*
X218169224Y-31604519D01*
X218217657Y-31555612D01*
X218336437Y-31532416D01*
X218556701Y-31529693D01*
X218909589Y-31542202D01*
G37*
G36*
X190064036Y-31538315D02*
G01*
X190077986Y-31538750D01*
X190451066Y-31554843D01*
X190686673Y-31579369D01*
X190816660Y-31619162D01*
X190872879Y-31681060D01*
X190881407Y-31711167D01*
X190878102Y-31781889D01*
X190814980Y-31825873D01*
X190661666Y-31849283D01*
X190387785Y-31858284D01*
X190151416Y-31859333D01*
X189788055Y-31856037D01*
X189559609Y-31841233D01*
X189431713Y-31807546D01*
X189369998Y-31747599D01*
X189347995Y-31686917D01*
X189335877Y-31606161D01*
X189371231Y-31557050D01*
X189484249Y-31533458D01*
X189705120Y-31529255D01*
X190064036Y-31538315D01*
G37*
G36*
X220792926Y-33481204D02*
G01*
X221278976Y-33485552D01*
X221633217Y-33494137D01*
X221874409Y-33508193D01*
X222021309Y-33528958D01*
X222092676Y-33557668D01*
X222107266Y-33595560D01*
X222103644Y-33608216D01*
X222060288Y-33740186D01*
X222054666Y-33771258D01*
X221974857Y-33784995D01*
X221754780Y-33795281D01*
X221423464Y-33802276D01*
X221009937Y-33806139D01*
X220543226Y-33807029D01*
X220052359Y-33805105D01*
X219566364Y-33800526D01*
X219114268Y-33793452D01*
X218725100Y-33784040D01*
X218427887Y-33772451D01*
X218251657Y-33758843D01*
X218216444Y-33750222D01*
X218162617Y-33621309D01*
X218160000Y-33586453D01*
X218196150Y-33550959D01*
X218315464Y-33523721D01*
X218534231Y-33503869D01*
X218868742Y-33490534D01*
X219335290Y-33482844D01*
X219950166Y-33479931D01*
X220156310Y-33479855D01*
X220792926Y-33481204D01*
G37*
G36*
X220766289Y-30276690D02*
G01*
X220805492Y-30283379D01*
X221055688Y-30357263D01*
X221255306Y-30459601D01*
X221256790Y-30460717D01*
X221302760Y-30507427D01*
X221283772Y-30540696D01*
X221179235Y-30562720D01*
X220968560Y-30575693D01*
X220631156Y-30581810D01*
X220146435Y-30583266D01*
X220107333Y-30583251D01*
X219613297Y-30582173D01*
X219268875Y-30577835D01*
X219054352Y-30567660D01*
X218950011Y-30549073D01*
X218936133Y-30519497D01*
X218993003Y-30476358D01*
X219049000Y-30444992D01*
X219287302Y-30363824D01*
X219636308Y-30301061D01*
X220037892Y-30262052D01*
X220433927Y-30252146D01*
X220766289Y-30276690D01*
G37*
G36*
X224070633Y-31534162D02*
G01*
X224195138Y-31558452D01*
X224246281Y-31608498D01*
X224256000Y-31686823D01*
X224244617Y-31766705D01*
X224189566Y-31817224D01*
X224059496Y-31845053D01*
X223823055Y-31856865D01*
X223448889Y-31859333D01*
X223445458Y-31859333D01*
X223069464Y-31856379D01*
X222833207Y-31843787D01*
X222707137Y-31815957D01*
X222661705Y-31767295D01*
X222663259Y-31711167D01*
X222699907Y-31639572D01*
X222798073Y-31592428D01*
X222989478Y-31562981D01*
X223305847Y-31544482D01*
X223473800Y-31538656D01*
X223840831Y-31529579D01*
X224070633Y-31534162D01*
G37*
G36*
X194085085Y-34148056D02*
G01*
X194332258Y-34159689D01*
X194467981Y-34185430D01*
X194521175Y-34230475D01*
X194522073Y-34293500D01*
X194485099Y-34365512D01*
X194386061Y-34412784D01*
X194193049Y-34442187D01*
X193874154Y-34460596D01*
X193721758Y-34465875D01*
X193346476Y-34473066D01*
X193107378Y-34463170D01*
X192971786Y-34431717D01*
X192907023Y-34374239D01*
X192897225Y-34353117D01*
X192851700Y-34216714D01*
X192844666Y-34180742D01*
X192923377Y-34165927D01*
X193135702Y-34154158D01*
X193445929Y-34146915D01*
X193697541Y-34145333D01*
X194085085Y-34148056D01*
G37*
G36*
X202618017Y-30340334D02*
G01*
X202848249Y-30358582D01*
X202967364Y-30394941D01*
X203004364Y-30454278D01*
X203004666Y-30462333D01*
X202974642Y-30524789D01*
X202865155Y-30563473D01*
X202647079Y-30583330D01*
X202291289Y-30589307D01*
X202256777Y-30589333D01*
X201916418Y-30583576D01*
X201643739Y-30568189D01*
X201480640Y-30546003D01*
X201454746Y-30535191D01*
X201421388Y-30445743D01*
X201533818Y-30383842D01*
X201799302Y-30347656D01*
X202225103Y-30335355D01*
X202247663Y-30335333D01*
X202618017Y-30340334D01*
G37*
G36*
X214692381Y-30856901D02*
G01*
X215220563Y-30862890D01*
X215834074Y-30871318D01*
X216299024Y-30881001D01*
X216636187Y-30893800D01*
X216866333Y-30911577D01*
X217010235Y-30936193D01*
X217088665Y-30969510D01*
X217122394Y-31013390D01*
X217127931Y-31033833D01*
X217126702Y-31080749D01*
X217089590Y-31116602D01*
X216996983Y-31142867D01*
X216829274Y-31161018D01*
X216566852Y-31172531D01*
X216190109Y-31178879D01*
X215679434Y-31181538D01*
X215157562Y-31182000D01*
X214526625Y-31181640D01*
X214045837Y-31179412D01*
X213696015Y-31173599D01*
X213457976Y-31162481D01*
X213312535Y-31144338D01*
X213240510Y-31117451D01*
X213222717Y-31080100D01*
X213239972Y-31030568D01*
X213250194Y-31011057D01*
X213286732Y-30955588D01*
X213343478Y-30913996D01*
X213442205Y-30884645D01*
X213604686Y-30865898D01*
X213852693Y-30856116D01*
X214208000Y-30853663D01*
X214692381Y-30856901D01*
G37*
G36*
X191378329Y-34147000D02*
G01*
X191641239Y-34155594D01*
X191790786Y-34176504D01*
X191854950Y-34215120D01*
X191861712Y-34276831D01*
X191853198Y-34314667D01*
X191818753Y-34392784D01*
X191743025Y-34442425D01*
X191593315Y-34469939D01*
X191336921Y-34481676D01*
X190981183Y-34484000D01*
X190586297Y-34479223D01*
X190330095Y-34461798D01*
X190182119Y-34427086D01*
X190111910Y-34370445D01*
X190102058Y-34350075D01*
X190057230Y-34215107D01*
X190050666Y-34180742D01*
X190129609Y-34166457D01*
X190343558Y-34154931D01*
X190658191Y-34147480D01*
X190974073Y-34145333D01*
X191378329Y-34147000D01*
G37*
G36*
X195569769Y-30266163D02*
G01*
X195676778Y-30291961D01*
X195701861Y-30341958D01*
X195691381Y-30381143D01*
X195645764Y-30517738D01*
X195638666Y-30553925D01*
X195560456Y-30569865D01*
X195351632Y-30582081D01*
X195050904Y-30588686D01*
X194912791Y-30589333D01*
X194560813Y-30585801D01*
X194347178Y-30570827D01*
X194240965Y-30537842D01*
X194211254Y-30480279D01*
X194215244Y-30441167D01*
X194253013Y-30368204D01*
X194354200Y-30320560D01*
X194551105Y-30291068D01*
X194876026Y-30272559D01*
X194993834Y-30268385D01*
X195351799Y-30259868D01*
X195569769Y-30266163D01*
G37*
G36*
X191418322Y-32791846D02*
G01*
X191753227Y-32797736D01*
X191969958Y-32811864D01*
X192094093Y-32837759D01*
X192151210Y-32878948D01*
X192166886Y-32938959D01*
X192167333Y-32960000D01*
X192158783Y-33026021D01*
X192116082Y-33072215D01*
X192013652Y-33102109D01*
X191825915Y-33119231D01*
X191527293Y-33127109D01*
X191092209Y-33129272D01*
X190939666Y-33129333D01*
X190461010Y-33128154D01*
X190126105Y-33122264D01*
X189909374Y-33108136D01*
X189785239Y-33082241D01*
X189728123Y-33041052D01*
X189712446Y-32981040D01*
X189712000Y-32960000D01*
X189720549Y-32893978D01*
X189763250Y-32847785D01*
X189865681Y-32817891D01*
X190053418Y-32800769D01*
X190352039Y-32792890D01*
X190787124Y-32790728D01*
X190939666Y-32790667D01*
X191418322Y-32791846D01*
G37*
G36*
X190144742Y-30257272D02*
G01*
X190401383Y-30279545D01*
X190541276Y-30321168D01*
X190586107Y-30369389D01*
X190606294Y-30468120D01*
X190558708Y-30532302D01*
X190417431Y-30569111D01*
X190156544Y-30585722D01*
X189791613Y-30589333D01*
X189419917Y-30583473D01*
X189185380Y-30562291D01*
X189056120Y-30520383D01*
X189001391Y-30455408D01*
X188956563Y-30320441D01*
X188950000Y-30286075D01*
X189028498Y-30270781D01*
X189239340Y-30258808D01*
X189545541Y-30251805D01*
X189745274Y-30250667D01*
X190144742Y-30257272D01*
G37*
G36*
X203512638Y-31521431D02*
G01*
X203916290Y-31525357D01*
X204195969Y-31534899D01*
X204374355Y-31552507D01*
X204474126Y-31580633D01*
X204517962Y-31621729D01*
X204528543Y-31678247D01*
X204528666Y-31690000D01*
X204521598Y-31749492D01*
X204485275Y-31793130D01*
X204397017Y-31823366D01*
X204234145Y-31842651D01*
X203973979Y-31853437D01*
X203593841Y-31858176D01*
X203071050Y-31859320D01*
X202962333Y-31859333D01*
X202412028Y-31858569D01*
X202008376Y-31854642D01*
X201728696Y-31845101D01*
X201550311Y-31827493D01*
X201450539Y-31799367D01*
X201406703Y-31758271D01*
X201396123Y-31701753D01*
X201396000Y-31690000D01*
X201403067Y-31630507D01*
X201439391Y-31586869D01*
X201527649Y-31556634D01*
X201690521Y-31537349D01*
X201950686Y-31526563D01*
X202330825Y-31521824D01*
X202853616Y-31520680D01*
X202962333Y-31520667D01*
X203512638Y-31521431D01*
G37*
G36*
X225122080Y-30279583D02*
G01*
X225492578Y-30322659D01*
X225507233Y-30325542D01*
X225852437Y-30404041D01*
X226032835Y-30468103D01*
X226047670Y-30518047D01*
X225896184Y-30554190D01*
X225577618Y-30576853D01*
X225091215Y-30586353D01*
X224886766Y-30586640D01*
X224400757Y-30583892D01*
X224063472Y-30576559D01*
X223854316Y-30562395D01*
X223752698Y-30539150D01*
X223738023Y-30504575D01*
X223777328Y-30465505D01*
X223990270Y-30373596D01*
X224319596Y-30309204D01*
X224713976Y-30276482D01*
X225122080Y-30279583D01*
G37*
G36*
X192728897Y-31523427D02*
G01*
X193050779Y-31530949D01*
X193269591Y-31542091D01*
X193352613Y-31555713D01*
X193352666Y-31556075D01*
X193379005Y-31655599D01*
X193404058Y-31725408D01*
X193407575Y-31780030D01*
X193352527Y-31817606D01*
X193214385Y-31841216D01*
X192968621Y-31853937D01*
X192590706Y-31858846D01*
X192336666Y-31859333D01*
X191881172Y-31857245D01*
X191570453Y-31848930D01*
X191379982Y-31831309D01*
X191285229Y-31801305D01*
X191261666Y-31755841D01*
X191269274Y-31725408D01*
X191314103Y-31590441D01*
X191320666Y-31556075D01*
X191399877Y-31542406D01*
X191615695Y-31531188D01*
X191935401Y-31523562D01*
X192326273Y-31520668D01*
X192336666Y-31520667D01*
X192728897Y-31523427D01*
G37*
G36*
X199367376Y-32198395D02*
G01*
X199897549Y-32200508D01*
X200295981Y-32205731D01*
X200581468Y-32215457D01*
X200772806Y-32231079D01*
X200888791Y-32253987D01*
X200948220Y-32285575D01*
X200969887Y-32327235D01*
X200972666Y-32367333D01*
X200967236Y-32418317D01*
X200938260Y-32457886D01*
X200866705Y-32487485D01*
X200733540Y-32508560D01*
X200519733Y-32522556D01*
X200206254Y-32530918D01*
X199774070Y-32535091D01*
X199204151Y-32536522D01*
X198743111Y-32536667D01*
X198144949Y-32534605D01*
X197603158Y-32528796D01*
X197140578Y-32519804D01*
X196780050Y-32508193D01*
X196544414Y-32494527D01*
X196457111Y-32480222D01*
X196403917Y-32351811D01*
X196400666Y-32310889D01*
X196429663Y-32276206D01*
X196527668Y-32249068D01*
X196711202Y-32228660D01*
X196996785Y-32214166D01*
X197400939Y-32204770D01*
X197940183Y-32199655D01*
X198631039Y-32198007D01*
X198686666Y-32198000D01*
X199367376Y-32198395D01*
G37*
G36*
X182454034Y-29576163D02*
G01*
X182678997Y-29589426D01*
X182799116Y-29620284D01*
X182846620Y-29675900D01*
X182854000Y-29742667D01*
X182841267Y-29823119D01*
X182781584Y-29873110D01*
X182642720Y-29899803D01*
X182392447Y-29910360D01*
X182092000Y-29912000D01*
X181729965Y-29909170D01*
X181505002Y-29895907D01*
X181384883Y-29865049D01*
X181337379Y-29809433D01*
X181330000Y-29742667D01*
X181342732Y-29662214D01*
X181402415Y-29612223D01*
X181541279Y-29585530D01*
X181791552Y-29574973D01*
X182092000Y-29573333D01*
X182454034Y-29576163D01*
G37*
G36*
X182454034Y-34148163D02*
G01*
X182678997Y-34161426D01*
X182799116Y-34192284D01*
X182846620Y-34247900D01*
X182854000Y-34314667D01*
X182841267Y-34395119D01*
X182781584Y-34445110D01*
X182642720Y-34471803D01*
X182392447Y-34482360D01*
X182092000Y-34484000D01*
X181729965Y-34481170D01*
X181505002Y-34467907D01*
X181384883Y-34437049D01*
X181337379Y-34381433D01*
X181330000Y-34314667D01*
X181342732Y-34234214D01*
X181402415Y-34184223D01*
X181541279Y-34157530D01*
X181791552Y-34146973D01*
X182092000Y-34145333D01*
X182454034Y-34148163D01*
G37*
G36*
X188013346Y-32801684D02*
G01*
X188133399Y-32824444D01*
X188177276Y-32873979D01*
X188175996Y-32957270D01*
X188173149Y-32977906D01*
X188150967Y-33067265D01*
X188093440Y-33125273D01*
X187968232Y-33160210D01*
X187743002Y-33180354D01*
X187385414Y-33193985D01*
X187321767Y-33195880D01*
X186497869Y-33220093D01*
X186569254Y-33026546D01*
X186615404Y-32934798D01*
X186695305Y-32875928D01*
X186844168Y-32840923D01*
X187097203Y-32820767D01*
X187420635Y-32808572D01*
X187786097Y-32798720D01*
X188013346Y-32801684D01*
G37*
G36*
X197748169Y-31523223D02*
G01*
X197984109Y-31535303D01*
X198113561Y-31563518D01*
X198167938Y-31614481D01*
X198178666Y-31690000D01*
X198167151Y-31766734D01*
X198112278Y-31815999D01*
X197983555Y-31843827D01*
X197750487Y-31856252D01*
X197382583Y-31859309D01*
X197322941Y-31859333D01*
X196934160Y-31856302D01*
X196687366Y-31844180D01*
X196555274Y-31818424D01*
X196510600Y-31774492D01*
X196518608Y-31725408D01*
X196563436Y-31590441D01*
X196570000Y-31556075D01*
X196648533Y-31540859D01*
X196859618Y-31528919D01*
X197166481Y-31521873D01*
X197374333Y-31520667D01*
X197748169Y-31523223D01*
G37*
G36*
X182454034Y-30846163D02*
G01*
X182678997Y-30859426D01*
X182799116Y-30890284D01*
X182846620Y-30945900D01*
X182854000Y-31012667D01*
X182841267Y-31093119D01*
X182781584Y-31143110D01*
X182642720Y-31169803D01*
X182392447Y-31180360D01*
X182092000Y-31182000D01*
X181729965Y-31179170D01*
X181505002Y-31165907D01*
X181384883Y-31135049D01*
X181337379Y-31079433D01*
X181330000Y-31012667D01*
X181342732Y-30932214D01*
X181402415Y-30882223D01*
X181541279Y-30855530D01*
X181791552Y-30844973D01*
X182092000Y-30843333D01*
X182454034Y-30846163D01*
G37*
G36*
X220660148Y-30971455D02*
G01*
X221107256Y-30975949D01*
X221427607Y-30985505D01*
X221642484Y-31001814D01*
X221773172Y-31026568D01*
X221840955Y-31061456D01*
X221867117Y-31108170D01*
X221868269Y-31113590D01*
X221865178Y-31160800D01*
X221821714Y-31196411D01*
X221717531Y-31222047D01*
X221532283Y-31239331D01*
X221245623Y-31249886D01*
X220837205Y-31255335D01*
X220286682Y-31257301D01*
X220064881Y-31257464D01*
X219461856Y-31256728D01*
X219007797Y-31252981D01*
X218682341Y-31244604D01*
X218465128Y-31229981D01*
X218335794Y-31207494D01*
X218273979Y-31175524D01*
X218259321Y-31132455D01*
X218261611Y-31114207D01*
X218284582Y-31066016D01*
X218346597Y-31029870D01*
X218468960Y-31004071D01*
X218672973Y-30986918D01*
X218979940Y-30976713D01*
X219411162Y-30971755D01*
X219987943Y-30970345D01*
X220065000Y-30970333D01*
X220660148Y-30971455D01*
G37*
G36*
X210577689Y-34151424D02*
G01*
X210964825Y-34169964D01*
X211185528Y-34201351D01*
X211241034Y-34245983D01*
X211132581Y-34304260D01*
X210861402Y-34376580D01*
X210789070Y-34392481D01*
X210079426Y-34473861D01*
X209397904Y-34400875D01*
X209247462Y-34364026D01*
X209001913Y-34290383D01*
X208830034Y-34224831D01*
X208788851Y-34200407D01*
X208848996Y-34181459D01*
X209051052Y-34165326D01*
X209367602Y-34153233D01*
X209771231Y-34146403D01*
X210022885Y-34145333D01*
X210577689Y-34151424D01*
G37*
G36*
X210451913Y-33469499D02*
G01*
X210938023Y-33473700D01*
X211338720Y-33480160D01*
X211630111Y-33488434D01*
X211788305Y-33498079D01*
X211810000Y-33503408D01*
X211783661Y-33602933D01*
X211758608Y-33672742D01*
X211722291Y-33718275D01*
X211638861Y-33752358D01*
X211486984Y-33776579D01*
X211245325Y-33792525D01*
X210892548Y-33801782D01*
X210407318Y-33805940D01*
X209958641Y-33806667D01*
X209370863Y-33805837D01*
X208929594Y-33801960D01*
X208612013Y-33792950D01*
X208395299Y-33776725D01*
X208256630Y-33751199D01*
X208173186Y-33714289D01*
X208122144Y-33663912D01*
X208104315Y-33637333D01*
X208074615Y-33582742D01*
X208075672Y-33541359D01*
X208126926Y-33511354D01*
X208247819Y-33490900D01*
X208457792Y-33478166D01*
X208776285Y-33471325D01*
X209222740Y-33468546D01*
X209816598Y-33468002D01*
X209904282Y-33468000D01*
X210451913Y-33469499D01*
G37*
G36*
X187858553Y-32203413D02*
G01*
X188105494Y-32222155D01*
X188234937Y-32257980D01*
X188272665Y-32314642D01*
X188272666Y-32315125D01*
X188201155Y-32425588D01*
X188082166Y-32483302D01*
X187890140Y-32512623D01*
X187614431Y-32529478D01*
X187307148Y-32533984D01*
X187020401Y-32526261D01*
X186806299Y-32506426D01*
X186720444Y-32480222D01*
X186667251Y-32351811D01*
X186664000Y-32310889D01*
X186706020Y-32255521D01*
X186848063Y-32220506D01*
X187114106Y-32202481D01*
X187468333Y-32198000D01*
X187858553Y-32203413D01*
G37*
G36*
X182452717Y-30167685D02*
G01*
X182676686Y-30178776D01*
X182796493Y-30208323D01*
X182844724Y-30265378D01*
X182853962Y-30358993D01*
X182854000Y-30377667D01*
X182847932Y-30477866D01*
X182808006Y-30540079D01*
X182701636Y-30573359D01*
X182496237Y-30586757D01*
X182159223Y-30589323D01*
X182092000Y-30589333D01*
X181731282Y-30587648D01*
X181507313Y-30576557D01*
X181387506Y-30547010D01*
X181339275Y-30489955D01*
X181330037Y-30396340D01*
X181330000Y-30377667D01*
X181336067Y-30277467D01*
X181375993Y-30215254D01*
X181482363Y-30181974D01*
X181687762Y-30168576D01*
X182024776Y-30166010D01*
X182092000Y-30166000D01*
X182452717Y-30167685D01*
G37*
G36*
X182454034Y-32793496D02*
G01*
X182678997Y-32806759D01*
X182799116Y-32837618D01*
X182846620Y-32893234D01*
X182854000Y-32960000D01*
X182841267Y-33040452D01*
X182781584Y-33090444D01*
X182642720Y-33117137D01*
X182392447Y-33127693D01*
X182092000Y-33129333D01*
X181729965Y-33126504D01*
X181505002Y-33113241D01*
X181384883Y-33082382D01*
X181337379Y-33026766D01*
X181330000Y-32960000D01*
X181342732Y-32879548D01*
X181402415Y-32829556D01*
X181541279Y-32802863D01*
X181791552Y-32792306D01*
X182092000Y-32790667D01*
X182454034Y-32793496D01*
G37*
G36*
X225479991Y-32198408D02*
G01*
X226003287Y-32200586D01*
X226395194Y-32205967D01*
X226674683Y-32215981D01*
X226860727Y-32232061D01*
X226972296Y-32255640D01*
X227028363Y-32288147D01*
X227047900Y-32331016D01*
X227050000Y-32367333D01*
X227044595Y-32418175D01*
X227015733Y-32457669D01*
X226944441Y-32487247D01*
X226811749Y-32508341D01*
X226598684Y-32522382D01*
X226286274Y-32530802D01*
X225855548Y-32535034D01*
X225287534Y-32536508D01*
X224806333Y-32536667D01*
X224132675Y-32536259D01*
X223609379Y-32534080D01*
X223217472Y-32528700D01*
X222937982Y-32518685D01*
X222751939Y-32502605D01*
X222640369Y-32479027D01*
X222584302Y-32446519D01*
X222564766Y-32403650D01*
X222562666Y-32367333D01*
X222568071Y-32316491D01*
X222596933Y-32276997D01*
X222668225Y-32247419D01*
X222800917Y-32226326D01*
X223013982Y-32212285D01*
X223326392Y-32203864D01*
X223757118Y-32199633D01*
X224325132Y-32198158D01*
X224806333Y-32198000D01*
X225479991Y-32198408D01*
G37*
G36*
X204204961Y-30858256D02*
G01*
X204379811Y-30873219D01*
X204476788Y-30900040D01*
X204518749Y-30940913D01*
X204528553Y-30998033D01*
X204528666Y-31010757D01*
X204521980Y-31070808D01*
X204486826Y-31114886D01*
X204400558Y-31145456D01*
X204240531Y-31164984D01*
X203984099Y-31175937D01*
X203608618Y-31180780D01*
X203091442Y-31181980D01*
X202956125Y-31182000D01*
X202403470Y-31180928D01*
X201998183Y-31176308D01*
X201718301Y-31166032D01*
X201541865Y-31147992D01*
X201446914Y-31120083D01*
X201411487Y-31080196D01*
X201412049Y-31033833D01*
X201436290Y-30980884D01*
X201501032Y-30941416D01*
X201629182Y-30912935D01*
X201843649Y-30892946D01*
X202167341Y-30878954D01*
X202623167Y-30868464D01*
X202984590Y-30862590D01*
X203530209Y-30855135D01*
X203929380Y-30852960D01*
X204204961Y-30858256D01*
G37*
G36*
X219145474Y-33054030D02*
G01*
X219393665Y-33079784D01*
X219509767Y-33118421D01*
X219514666Y-33129333D01*
X219435074Y-33170565D01*
X219216169Y-33199764D01*
X218887753Y-33213423D01*
X218795000Y-33214000D01*
X218444525Y-33204636D01*
X218196334Y-33178882D01*
X218080232Y-33140245D01*
X218075333Y-33129333D01*
X218154925Y-33088101D01*
X218373830Y-33058902D01*
X218702246Y-33045243D01*
X218795000Y-33044667D01*
X219145474Y-33054030D01*
G37*
G36*
X182454034Y-32200829D02*
G01*
X182678997Y-32214092D01*
X182799116Y-32244951D01*
X182846620Y-32300567D01*
X182854000Y-32367333D01*
X182841267Y-32447785D01*
X182781584Y-32497777D01*
X182642720Y-32524470D01*
X182392447Y-32535027D01*
X182092000Y-32536667D01*
X181729965Y-32533837D01*
X181505002Y-32520574D01*
X181384883Y-32489715D01*
X181337379Y-32434099D01*
X181330000Y-32367333D01*
X181342732Y-32286881D01*
X181402415Y-32236889D01*
X181541279Y-32210196D01*
X181791552Y-32199640D01*
X182092000Y-32198000D01*
X182454034Y-32200829D01*
G37*
G36*
X220641924Y-34155542D02*
G01*
X221018432Y-34161120D01*
X221262218Y-34171037D01*
X221391588Y-34187355D01*
X221424847Y-34212140D01*
X221380300Y-34247454D01*
X221298523Y-34285730D01*
X221000519Y-34369952D01*
X220593079Y-34425885D01*
X220134092Y-34451262D01*
X219681444Y-34443815D01*
X219293023Y-34401276D01*
X219153462Y-34369757D01*
X218908294Y-34292907D01*
X218736437Y-34225350D01*
X218694851Y-34200407D01*
X218756545Y-34182981D01*
X218961736Y-34168611D01*
X219284605Y-34158174D01*
X219699328Y-34152545D01*
X220114388Y-34152240D01*
X220641924Y-34155542D01*
G37*
G36*
X224940388Y-34152240D02*
G01*
X225432087Y-34155665D01*
X225773310Y-34161573D01*
X225982917Y-34172507D01*
X226079766Y-34191015D01*
X226082716Y-34219641D01*
X226010624Y-34260931D01*
X225949333Y-34288430D01*
X225625377Y-34382519D01*
X225208610Y-34439618D01*
X224763647Y-34457053D01*
X224355103Y-34432148D01*
X224059200Y-34366694D01*
X223843132Y-34278788D01*
X223702853Y-34208607D01*
X223685255Y-34195478D01*
X223747288Y-34178737D01*
X223951234Y-34165263D01*
X224269688Y-34155998D01*
X224675245Y-34151887D01*
X224940388Y-34152240D01*
G37*
G36*
X186544245Y-30844455D02*
G01*
X186957364Y-30849440D01*
X187250890Y-30860712D01*
X187449690Y-30880698D01*
X187578632Y-30911824D01*
X187662582Y-30956516D01*
X187722333Y-31012667D01*
X187768244Y-31067475D01*
X187780924Y-31108962D01*
X187741363Y-31138982D01*
X187630547Y-31159390D01*
X187429465Y-31172040D01*
X187119104Y-31178789D01*
X186680452Y-31181490D01*
X186094497Y-31181998D01*
X185986666Y-31182000D01*
X185375578Y-31181669D01*
X184914810Y-31179440D01*
X184585352Y-31173458D01*
X184368190Y-31161868D01*
X184244314Y-31142816D01*
X184194710Y-31114445D01*
X184200366Y-31074903D01*
X184242271Y-31022333D01*
X184251000Y-31012667D01*
X184315385Y-30953109D01*
X184401532Y-30909384D01*
X184534307Y-30879066D01*
X184738578Y-30859728D01*
X185039211Y-30848945D01*
X185461073Y-30844289D01*
X185986666Y-30843333D01*
X186544245Y-30844455D01*
G37*
G36*
X197083469Y-32803598D02*
G01*
X197309852Y-32808767D01*
X197696100Y-32824064D01*
X197944005Y-32846753D01*
X198084554Y-32883097D01*
X198148734Y-32939362D01*
X198162727Y-32981167D01*
X198159692Y-33050317D01*
X198098731Y-33094008D01*
X197950156Y-33117930D01*
X197684278Y-33127770D01*
X197389599Y-33129333D01*
X197001476Y-33124275D01*
X196751601Y-33105868D01*
X196609104Y-33069266D01*
X196543113Y-33009620D01*
X196536725Y-32995408D01*
X196491835Y-32858627D01*
X196485333Y-32823009D01*
X196563886Y-32808976D01*
X196775358Y-32802296D01*
X197083469Y-32803598D01*
G37*
G36*
X215842736Y-30322335D02*
G01*
X216170119Y-30384537D01*
X216355111Y-30467290D01*
X216393474Y-30511099D01*
X216361692Y-30542580D01*
X216239792Y-30563675D01*
X216007802Y-30576326D01*
X215645747Y-30582476D01*
X215154333Y-30584066D01*
X214621161Y-30579659D01*
X214233412Y-30566640D01*
X213998258Y-30545466D01*
X213922872Y-30516596D01*
X213933249Y-30506046D01*
X214198263Y-30405793D01*
X214567687Y-30336560D01*
X214995552Y-30299082D01*
X215435891Y-30294095D01*
X215842736Y-30322335D01*
G37*
G36*
X192807005Y-32198182D02*
G01*
X193139089Y-32216451D01*
X193386454Y-32245138D01*
X193512945Y-32284304D01*
X193522000Y-32299600D01*
X193546990Y-32358504D01*
X193623599Y-32299600D01*
X193767020Y-32244743D01*
X194051938Y-32209753D01*
X194434141Y-32198000D01*
X194781141Y-32201668D01*
X194990090Y-32217203D01*
X195092195Y-32251399D01*
X195118662Y-32311054D01*
X195114570Y-32346167D01*
X195096251Y-32387262D01*
X195047287Y-32420286D01*
X194950410Y-32446299D01*
X194788350Y-32466361D01*
X194543838Y-32481533D01*
X194199607Y-32492875D01*
X193738387Y-32501449D01*
X193142909Y-32508314D01*
X192395905Y-32514531D01*
X192370033Y-32514726D01*
X191708096Y-32518009D01*
X191101033Y-32517783D01*
X190569406Y-32514311D01*
X190133776Y-32507854D01*
X189814706Y-32498673D01*
X189632757Y-32487030D01*
X189598337Y-32479448D01*
X189545890Y-32351880D01*
X189542666Y-32310889D01*
X189619106Y-32253833D01*
X189817403Y-32214852D01*
X190091024Y-32194167D01*
X190393438Y-32192005D01*
X190678113Y-32208587D01*
X190898514Y-32244137D01*
X191008110Y-32298880D01*
X191010593Y-32303833D01*
X191048847Y-32366225D01*
X191059982Y-32303833D01*
X191141161Y-32260908D01*
X191354541Y-32228026D01*
X191663969Y-32205251D01*
X192033291Y-32192643D01*
X192426354Y-32190266D01*
X192807005Y-32198182D01*
G37*
G36*
X225422518Y-30844348D02*
G01*
X225851155Y-30848889D01*
X226158690Y-30859198D01*
X226369238Y-30877519D01*
X226506910Y-30906094D01*
X226595821Y-30947168D01*
X226660084Y-31002983D01*
X226669000Y-31012667D01*
X226714054Y-31066435D01*
X226726830Y-31107414D01*
X226688656Y-31137342D01*
X226580860Y-31157954D01*
X226384774Y-31170988D01*
X226081725Y-31178180D01*
X225653042Y-31181267D01*
X225080055Y-31181986D01*
X224848666Y-31182000D01*
X224222276Y-31181691D01*
X223746548Y-31179605D01*
X223402812Y-31174006D01*
X223172397Y-31163156D01*
X223036631Y-31145320D01*
X222976845Y-31118760D01*
X222974366Y-31081739D01*
X223010525Y-31032521D01*
X223028333Y-31012667D01*
X223090992Y-30954471D01*
X223174718Y-30911350D01*
X223303623Y-30881060D01*
X223501822Y-30861358D01*
X223793428Y-30850001D01*
X224202554Y-30844745D01*
X224753313Y-30843349D01*
X224848666Y-30843333D01*
X225422518Y-30844348D01*
G37*
G36*
X209032733Y-31526961D02*
G01*
X209314674Y-31543933D01*
X209487317Y-31568716D01*
X209524000Y-31588400D01*
X209478060Y-31710938D01*
X209327195Y-31793317D01*
X209051832Y-31840842D01*
X208632399Y-31858816D01*
X208524341Y-31859333D01*
X208151952Y-31855976D01*
X207920799Y-31842545D01*
X207802858Y-31814004D01*
X207770106Y-31765316D01*
X207779274Y-31725408D01*
X207824103Y-31590441D01*
X207830666Y-31556075D01*
X207909355Y-31541211D01*
X208121528Y-31529420D01*
X208431340Y-31522200D01*
X208677333Y-31520667D01*
X209032733Y-31526961D01*
G37*
G36*
X210390579Y-30288811D02*
G01*
X210633199Y-30346889D01*
X210865293Y-30433951D01*
X210963479Y-30498652D01*
X210920418Y-30543756D01*
X210728769Y-30572030D01*
X210381194Y-30586237D01*
X209989666Y-30589333D01*
X209577355Y-30584101D01*
X209253678Y-30569641D01*
X209044304Y-30547809D01*
X208974904Y-30520459D01*
X208977900Y-30516222D01*
X209226343Y-30379117D01*
X209582094Y-30291679D01*
X209988917Y-30259659D01*
X210390579Y-30288811D01*
G37*
G36*
X213644611Y-33469337D02*
G01*
X213977715Y-33482323D01*
X214269737Y-33501637D01*
X214478679Y-33526144D01*
X214561666Y-33552667D01*
X214672850Y-33607129D01*
X214882861Y-33635959D01*
X214942666Y-33637333D01*
X215166432Y-33617363D01*
X215308946Y-33567854D01*
X215323666Y-33552667D01*
X215426622Y-33516971D01*
X215665435Y-33489131D01*
X216006702Y-33472035D01*
X216302330Y-33468000D01*
X216708632Y-33469968D01*
X216974964Y-33479448D01*
X217130674Y-33501807D01*
X217205110Y-33542407D01*
X217227621Y-33606615D01*
X217228666Y-33637333D01*
X217223169Y-33688699D01*
X217193884Y-33728468D01*
X217121618Y-33758122D01*
X216987181Y-33779144D01*
X216771379Y-33793016D01*
X216455022Y-33801220D01*
X216018917Y-33805240D01*
X215443872Y-33806557D01*
X215036391Y-33806667D01*
X214362669Y-33805623D01*
X213839224Y-33801735D01*
X213447007Y-33793865D01*
X213166970Y-33780876D01*
X212980065Y-33761632D01*
X212867245Y-33734994D01*
X212809460Y-33699828D01*
X212792725Y-33672742D01*
X212747896Y-33537774D01*
X212741333Y-33503408D01*
X212818787Y-33479715D01*
X213023149Y-33466897D01*
X213312424Y-33463816D01*
X213644611Y-33469337D01*
G37*
G36*
X223815442Y-32793773D02*
G01*
X224053229Y-32807592D01*
X224188572Y-32838870D01*
X224254894Y-32894356D01*
X224280532Y-32960000D01*
X224290922Y-33037167D01*
X224253920Y-33086465D01*
X224140365Y-33114109D01*
X223921094Y-33126314D01*
X223566946Y-33129296D01*
X223486073Y-33129333D01*
X223102858Y-33126968D01*
X222858167Y-33115729D01*
X222721214Y-33089401D01*
X222661210Y-33041767D01*
X222647369Y-32966612D01*
X222647333Y-32960000D01*
X222659610Y-32880900D01*
X222717504Y-32831153D01*
X222852612Y-32804023D01*
X223096531Y-32792775D01*
X223441791Y-32790667D01*
X223815442Y-32793773D01*
G37*
G36*
X185354697Y-31530417D02*
G01*
X185475156Y-31548529D01*
X185507620Y-31588924D01*
X185479173Y-31657181D01*
X185460952Y-31686902D01*
X185389982Y-31770694D01*
X185279976Y-31822180D01*
X185093299Y-31848944D01*
X184792317Y-31858571D01*
X184605425Y-31859333D01*
X184247093Y-31855969D01*
X184027482Y-31841683D01*
X183916046Y-31810185D01*
X183882237Y-31755182D01*
X183885939Y-31711167D01*
X183921198Y-31641344D01*
X184015622Y-31594826D01*
X184200152Y-31565377D01*
X184505730Y-31546760D01*
X184741466Y-31538735D01*
X185119161Y-31529011D01*
X185354697Y-31530417D01*
G37*
G36*
X202690026Y-32200521D02*
G01*
X202947874Y-32211313D01*
X203093079Y-32235216D01*
X203153970Y-32277075D01*
X203158875Y-32341729D01*
X203158060Y-32346167D01*
X203122240Y-32416732D01*
X203026312Y-32463485D01*
X202838995Y-32492870D01*
X202529008Y-32511330D01*
X202322158Y-32518361D01*
X201967479Y-32522886D01*
X201678701Y-32515286D01*
X201496140Y-32497202D01*
X201455305Y-32483083D01*
X201399349Y-32351551D01*
X201396000Y-32310889D01*
X201435839Y-32258103D01*
X201571000Y-32223682D01*
X201824947Y-32204665D01*
X202221146Y-32198095D01*
X202291208Y-32198000D01*
X202690026Y-32200521D01*
G37*
G36*
X184909368Y-32200829D02*
G01*
X185134330Y-32214092D01*
X185254449Y-32244951D01*
X185301954Y-32300567D01*
X185309333Y-32367333D01*
X185296600Y-32447785D01*
X185236917Y-32497777D01*
X185098053Y-32524470D01*
X184847780Y-32535027D01*
X184547333Y-32536667D01*
X184185298Y-32533837D01*
X183960335Y-32520574D01*
X183840217Y-32489715D01*
X183792712Y-32434099D01*
X183785333Y-32367333D01*
X183798065Y-32286881D01*
X183857749Y-32236889D01*
X183996612Y-32210196D01*
X184246885Y-32199640D01*
X184547333Y-32198000D01*
X184909368Y-32200829D01*
G37*
G36*
X211672355Y-32878554D02*
G01*
X211897441Y-32892250D01*
X212013681Y-32922473D01*
X212051291Y-32975273D01*
X212048088Y-33023500D01*
X212009956Y-33096915D01*
X211907798Y-33144691D01*
X211709119Y-33174132D01*
X211381420Y-33192539D01*
X211279880Y-33196129D01*
X210924870Y-33205269D01*
X210706194Y-33199603D01*
X210591051Y-33172562D01*
X210546641Y-33117578D01*
X210540000Y-33047963D01*
X210551923Y-32966267D01*
X210609141Y-32915387D01*
X210743823Y-32888096D01*
X210988140Y-32877164D01*
X211308208Y-32875333D01*
X211672355Y-32878554D01*
G37*
G36*
X216038514Y-32198609D02*
G01*
X216482507Y-32201783D01*
X216799714Y-32209543D01*
X217011406Y-32223912D01*
X217138858Y-32246909D01*
X217203342Y-32280556D01*
X217226131Y-32326874D01*
X217228666Y-32367333D01*
X217222854Y-32420447D01*
X217192131Y-32461111D01*
X217116567Y-32490986D01*
X216976230Y-32511732D01*
X216751190Y-32525010D01*
X216421517Y-32532482D01*
X215967279Y-32535808D01*
X215368547Y-32536650D01*
X215196666Y-32536667D01*
X214630313Y-32535069D01*
X214124727Y-32530583D01*
X213703045Y-32523665D01*
X213388406Y-32514772D01*
X213203946Y-32504361D01*
X213164666Y-32496507D01*
X213231547Y-32434644D01*
X213394559Y-32337593D01*
X213414462Y-32327174D01*
X213534043Y-32281893D01*
X213708795Y-32248029D01*
X213961318Y-32224145D01*
X214314210Y-32208804D01*
X214790067Y-32200569D01*
X215411489Y-32198005D01*
X215446462Y-32198000D01*
X216038514Y-32198609D01*
G37*
G36*
X216767349Y-31522991D02*
G01*
X217014035Y-31534049D01*
X217152706Y-31559972D01*
X217214010Y-31606890D01*
X217228597Y-31680931D01*
X217228666Y-31690000D01*
X217217046Y-31767070D01*
X217161753Y-31816407D01*
X217032137Y-31844141D01*
X216797550Y-31856402D01*
X216427344Y-31859319D01*
X216382000Y-31859333D01*
X215996650Y-31857009D01*
X215749964Y-31845950D01*
X215611293Y-31820027D01*
X215549989Y-31773110D01*
X215535402Y-31699069D01*
X215535333Y-31690000D01*
X215546953Y-31612930D01*
X215602246Y-31563593D01*
X215731862Y-31535859D01*
X215966449Y-31523598D01*
X216336655Y-31520680D01*
X216382000Y-31520667D01*
X216767349Y-31522991D01*
G37*
M02*
