G04 #@! TF.GenerationSoftware,KiCad,Pcbnew,(6.0.6)*
G04 #@! TF.CreationDate,2022-08-19T10:49:20-05:00*
G04 #@! TF.ProjectId,gndplate,676e6470-6c61-4746-952e-6b696361645f,rev?*
G04 #@! TF.SameCoordinates,Original*
G04 #@! TF.FileFunction,Copper,L2,Bot*
G04 #@! TF.FilePolarity,Positive*
%FSLAX46Y46*%
G04 Gerber Fmt 4.6, Leading zero omitted, Abs format (unit mm)*
G04 Created by KiCad (PCBNEW (6.0.6)) date 2022-08-19 10:49:20*
%MOMM*%
%LPD*%
G01*
G04 APERTURE LIST*
G04 #@! TA.AperFunction,ComponentPad*
%ADD10R,2.100000X2.100000*%
G04 #@! TD*
G04 #@! TA.AperFunction,ComponentPad*
%ADD11O,2.100000X2.100000*%
G04 #@! TD*
G04 #@! TA.AperFunction,ViaPad*
%ADD12C,0.800000*%
G04 #@! TD*
G04 #@! TA.AperFunction,Conductor*
%ADD13C,0.700000*%
G04 #@! TD*
G04 APERTURE END LIST*
D10*
X40020000Y-37890000D03*
D11*
X43980000Y-37890000D03*
X47940000Y-37890000D03*
X51900000Y-37890000D03*
X55860000Y-37890000D03*
X59820000Y-37890000D03*
X111300000Y-37890000D03*
X115260000Y-37890000D03*
X119220000Y-37890000D03*
X123180000Y-37890000D03*
X127140000Y-37890000D03*
X131100000Y-37890000D03*
X135060000Y-37890000D03*
X139020000Y-37890000D03*
X142980000Y-37890000D03*
X146940000Y-37890000D03*
X150900000Y-37890000D03*
X154860000Y-37890000D03*
D12*
X70000000Y-110000000D03*
X80000000Y-120000000D03*
X54285000Y-40312500D03*
X80000000Y-100000000D03*
X60000000Y-110000000D03*
X80000000Y-50000000D03*
X60000000Y-80000000D03*
X60000000Y-100000000D03*
X60000000Y-60000000D03*
X60000000Y-70000000D03*
X80000000Y-70000000D03*
X70000000Y-80000000D03*
X80000000Y-110000000D03*
X80000000Y-40000000D03*
X70000000Y-100000000D03*
X70000000Y-40000000D03*
X70000000Y-120000000D03*
X80000000Y-60000000D03*
X60000000Y-90000000D03*
X70000000Y-70000000D03*
X70000000Y-50000000D03*
X80000000Y-90000000D03*
X60000000Y-50000000D03*
X80000000Y-80000000D03*
X70000000Y-60000000D03*
X70000000Y-90000000D03*
X60000000Y-120000000D03*
X100000000Y-110000000D03*
X110000000Y-120000000D03*
X90000000Y-40000000D03*
X130000000Y-50000000D03*
X140000000Y-60000000D03*
X140000000Y-40000000D03*
X110000000Y-100000000D03*
X120000000Y-50000000D03*
X90000000Y-110000000D03*
X110000000Y-50000000D03*
X140000000Y-80000000D03*
X130000000Y-120000000D03*
X90000000Y-80000000D03*
X140000000Y-110000000D03*
X130000000Y-60000000D03*
X90000000Y-100000000D03*
X130000000Y-90000000D03*
X90000000Y-60000000D03*
X140000000Y-70000000D03*
X90000000Y-70000000D03*
X110000000Y-70000000D03*
X130000000Y-40000000D03*
X130000000Y-100000000D03*
X100000000Y-80000000D03*
X110000000Y-110000000D03*
X140000000Y-100000000D03*
X110000000Y-40000000D03*
X100000000Y-100000000D03*
X100000000Y-40000000D03*
X130000000Y-80000000D03*
X130000000Y-110000000D03*
X130000000Y-70000000D03*
X100000000Y-120000000D03*
X110000000Y-60000000D03*
X90000000Y-90000000D03*
X120000000Y-100000000D03*
X120000000Y-60000000D03*
X100000000Y-70000000D03*
X120000000Y-110000000D03*
X120000000Y-70000000D03*
X100000000Y-50000000D03*
X120000000Y-80000000D03*
X140000000Y-50000000D03*
X120000000Y-40000000D03*
X140000000Y-120000000D03*
X120000000Y-90000000D03*
X140000000Y-90000000D03*
X110000000Y-90000000D03*
X90000000Y-50000000D03*
X110000000Y-80000000D03*
X100000000Y-60000000D03*
X100000000Y-90000000D03*
X90000000Y-120000000D03*
X120000000Y-120000000D03*
X160000000Y-110000000D03*
X170000000Y-120000000D03*
X150000000Y-40000000D03*
X190000000Y-50000000D03*
X220000000Y-50000000D03*
X200000000Y-60000000D03*
X200000000Y-40000000D03*
X170000000Y-100000000D03*
X180000000Y-50000000D03*
X150000000Y-110000000D03*
X170000000Y-50000000D03*
X200000000Y-80000000D03*
X190000000Y-120000000D03*
X150000000Y-80000000D03*
X200000000Y-110000000D03*
X210000000Y-90000000D03*
X190000000Y-60000000D03*
X210000000Y-70000000D03*
X150000000Y-100000000D03*
X190000000Y-90000000D03*
X150000000Y-60000000D03*
X210000000Y-100000000D03*
X210000000Y-60000000D03*
X200000000Y-70000000D03*
X150000000Y-70000000D03*
X170000000Y-70000000D03*
X190000000Y-40000000D03*
X220000000Y-70000000D03*
X210000000Y-40000000D03*
X220000000Y-110000000D03*
X220000000Y-90000000D03*
X190000000Y-100000000D03*
X160000000Y-80000000D03*
X210000000Y-50000000D03*
X170000000Y-110000000D03*
X200000000Y-100000000D03*
X220000000Y-60000000D03*
X170000000Y-40000000D03*
X160000000Y-100000000D03*
X160000000Y-40000000D03*
X190000000Y-80000000D03*
X190000000Y-110000000D03*
X190000000Y-70000000D03*
X160000000Y-120000000D03*
X170000000Y-60000000D03*
X150000000Y-90000000D03*
X220000000Y-80000000D03*
X180000000Y-100000000D03*
X210000000Y-80000000D03*
X180000000Y-60000000D03*
X160000000Y-70000000D03*
X180000000Y-110000000D03*
X180000000Y-70000000D03*
X160000000Y-50000000D03*
X220000000Y-100000000D03*
X180000000Y-80000000D03*
X200000000Y-50000000D03*
X180000000Y-40000000D03*
X210000000Y-110000000D03*
X200000000Y-120000000D03*
X180000000Y-90000000D03*
X200000000Y-90000000D03*
X170000000Y-90000000D03*
X220000000Y-120000000D03*
X150000000Y-50000000D03*
X220000000Y-40000000D03*
X210000000Y-120000000D03*
X170000000Y-80000000D03*
X160000000Y-60000000D03*
X160000000Y-90000000D03*
X150000000Y-120000000D03*
X180000000Y-120000000D03*
X170000000Y-130000000D03*
X110000000Y-130000000D03*
X50000000Y-130000000D03*
X70000000Y-130000000D03*
X140000000Y-130000000D03*
X40000000Y-130000000D03*
X220000000Y-130000000D03*
X180000000Y-130000000D03*
X160000000Y-130000000D03*
X210000000Y-130000000D03*
X150000000Y-130000000D03*
X190000000Y-130000000D03*
X80000000Y-130000000D03*
X200000000Y-130000000D03*
X100000000Y-130000000D03*
X120000000Y-130000000D03*
X90000000Y-130000000D03*
X30000000Y-130000000D03*
X60000000Y-130000000D03*
X130000000Y-130000000D03*
X40000000Y-60000000D03*
X50000000Y-110000000D03*
X40000000Y-100000000D03*
X50000000Y-120000000D03*
X50000000Y-60000000D03*
X30000000Y-60000000D03*
X30000000Y-110000000D03*
X30000000Y-70000000D03*
X30000000Y-90000000D03*
X40000000Y-90000000D03*
X30000000Y-100000000D03*
X40000000Y-80000000D03*
X40000000Y-120000000D03*
X44285000Y-40312500D03*
X30000000Y-50000000D03*
X34285000Y-40312500D03*
X50000000Y-70000000D03*
X30000000Y-120000000D03*
X40000000Y-50000000D03*
X30000000Y-80000000D03*
X50000000Y-90000000D03*
X50000000Y-80000000D03*
X50000000Y-100000000D03*
X40000000Y-110000000D03*
X40000000Y-70000000D03*
X30000000Y-40000000D03*
X50000000Y-50000000D03*
D13*
X157735000Y-37920000D02*
X155050000Y-37920000D01*
X155465000Y-38335000D02*
X155465000Y-39950000D01*
X36285000Y-37932500D02*
X36295000Y-37922500D01*
X155775000Y-40260000D02*
X156015000Y-40260000D01*
X155050000Y-35165000D02*
X155055000Y-35160000D01*
X39980000Y-41767500D02*
X39980000Y-37922500D01*
X39980000Y-41767500D02*
X40005000Y-41792500D01*
X155050000Y-35165000D02*
X155050000Y-37920000D01*
X39980000Y-37922500D02*
X39980000Y-38037500D01*
X39980000Y-37922500D02*
X36295000Y-37922500D01*
X39980000Y-33297500D02*
X39980000Y-37922500D01*
X155465000Y-39950000D02*
X155775000Y-40260000D01*
X39980000Y-33297500D02*
X39985000Y-33292500D01*
X155050000Y-37920000D02*
X155465000Y-38335000D01*
G04 #@! TA.AperFunction,Conductor*
G36*
X24364299Y-29520002D02*
G01*
X24410792Y-29573658D01*
X24420921Y-29643753D01*
X24392249Y-29845216D01*
X24392227Y-29849505D01*
X24392226Y-29849512D01*
X24390765Y-30128417D01*
X24390743Y-30132703D01*
X24428268Y-30417734D01*
X24504129Y-30695036D01*
X24616923Y-30959476D01*
X24764561Y-31206161D01*
X24944313Y-31430528D01*
X25152851Y-31628423D01*
X25386317Y-31796186D01*
X25390112Y-31798195D01*
X25390113Y-31798196D01*
X25411869Y-31809715D01*
X25640392Y-31930712D01*
X25910373Y-32029511D01*
X26191264Y-32090755D01*
X26219841Y-32093004D01*
X26414282Y-32108307D01*
X26414291Y-32108307D01*
X26416739Y-32108500D01*
X26572271Y-32108500D01*
X26574407Y-32108354D01*
X26574418Y-32108354D01*
X26782548Y-32094165D01*
X26782554Y-32094164D01*
X26786825Y-32093873D01*
X26791020Y-32093004D01*
X26791022Y-32093004D01*
X26927584Y-32064723D01*
X27068342Y-32035574D01*
X27339343Y-31939607D01*
X27594812Y-31807750D01*
X27598313Y-31805289D01*
X27598317Y-31805287D01*
X27712418Y-31725095D01*
X27830023Y-31642441D01*
X28040622Y-31446740D01*
X28222713Y-31224268D01*
X28372927Y-30979142D01*
X28488483Y-30715898D01*
X28567244Y-30439406D01*
X28607751Y-30154784D01*
X28607845Y-30136951D01*
X28609235Y-29871583D01*
X28609235Y-29871576D01*
X28609257Y-29867297D01*
X28579655Y-29642446D01*
X28590594Y-29572297D01*
X28637723Y-29519199D01*
X28704577Y-29500000D01*
X63626178Y-29500000D01*
X63694299Y-29520002D01*
X63740792Y-29573658D01*
X63750921Y-29643753D01*
X63722249Y-29845216D01*
X63722227Y-29849505D01*
X63722226Y-29849512D01*
X63720765Y-30128417D01*
X63720743Y-30132703D01*
X63758268Y-30417734D01*
X63834129Y-30695036D01*
X63946923Y-30959476D01*
X64094561Y-31206161D01*
X64274313Y-31430528D01*
X64482851Y-31628423D01*
X64716317Y-31796186D01*
X64720112Y-31798195D01*
X64720113Y-31798196D01*
X64741869Y-31809715D01*
X64970392Y-31930712D01*
X65240373Y-32029511D01*
X65521264Y-32090755D01*
X65549841Y-32093004D01*
X65744282Y-32108307D01*
X65744291Y-32108307D01*
X65746739Y-32108500D01*
X65902271Y-32108500D01*
X65904407Y-32108354D01*
X65904418Y-32108354D01*
X66112548Y-32094165D01*
X66112554Y-32094164D01*
X66116825Y-32093873D01*
X66121020Y-32093004D01*
X66121022Y-32093004D01*
X66257584Y-32064723D01*
X66398342Y-32035574D01*
X66669343Y-31939607D01*
X66924812Y-31807750D01*
X66928313Y-31805289D01*
X66928317Y-31805287D01*
X67042418Y-31725095D01*
X67160023Y-31642441D01*
X67370622Y-31446740D01*
X67552713Y-31224268D01*
X67702927Y-30979142D01*
X67818483Y-30715898D01*
X67897244Y-30439406D01*
X67937751Y-30154784D01*
X67937845Y-30136951D01*
X67939235Y-29871583D01*
X67939235Y-29871576D01*
X67939257Y-29867297D01*
X67909655Y-29642446D01*
X67920594Y-29572297D01*
X67967723Y-29519199D01*
X68034577Y-29500000D01*
X102956178Y-29500000D01*
X103024299Y-29520002D01*
X103070792Y-29573658D01*
X103080921Y-29643753D01*
X103052249Y-29845216D01*
X103052227Y-29849505D01*
X103052226Y-29849512D01*
X103050765Y-30128417D01*
X103050743Y-30132703D01*
X103088268Y-30417734D01*
X103164129Y-30695036D01*
X103276923Y-30959476D01*
X103424561Y-31206161D01*
X103604313Y-31430528D01*
X103812851Y-31628423D01*
X104046317Y-31796186D01*
X104050112Y-31798195D01*
X104050113Y-31798196D01*
X104071869Y-31809715D01*
X104300392Y-31930712D01*
X104570373Y-32029511D01*
X104851264Y-32090755D01*
X104879841Y-32093004D01*
X105074282Y-32108307D01*
X105074291Y-32108307D01*
X105076739Y-32108500D01*
X105232271Y-32108500D01*
X105234407Y-32108354D01*
X105234418Y-32108354D01*
X105442548Y-32094165D01*
X105442554Y-32094164D01*
X105446825Y-32093873D01*
X105451020Y-32093004D01*
X105451022Y-32093004D01*
X105587584Y-32064723D01*
X105728342Y-32035574D01*
X105999343Y-31939607D01*
X106254812Y-31807750D01*
X106258313Y-31805289D01*
X106258317Y-31805287D01*
X106372418Y-31725095D01*
X106490023Y-31642441D01*
X106700622Y-31446740D01*
X106882713Y-31224268D01*
X107032927Y-30979142D01*
X107148483Y-30715898D01*
X107227244Y-30439406D01*
X107267751Y-30154784D01*
X107267845Y-30136951D01*
X107269235Y-29871583D01*
X107269235Y-29871576D01*
X107269257Y-29867297D01*
X107239655Y-29642446D01*
X107250594Y-29572297D01*
X107297723Y-29519199D01*
X107364577Y-29500000D01*
X142286178Y-29500000D01*
X142354299Y-29520002D01*
X142400792Y-29573658D01*
X142410921Y-29643753D01*
X142382249Y-29845216D01*
X142382227Y-29849505D01*
X142382226Y-29849512D01*
X142380765Y-30128417D01*
X142380743Y-30132703D01*
X142418268Y-30417734D01*
X142494129Y-30695036D01*
X142606923Y-30959476D01*
X142754561Y-31206161D01*
X142934313Y-31430528D01*
X143142851Y-31628423D01*
X143376317Y-31796186D01*
X143380112Y-31798195D01*
X143380113Y-31798196D01*
X143401869Y-31809715D01*
X143630392Y-31930712D01*
X143900373Y-32029511D01*
X144181264Y-32090755D01*
X144209841Y-32093004D01*
X144404282Y-32108307D01*
X144404291Y-32108307D01*
X144406739Y-32108500D01*
X144562271Y-32108500D01*
X144564407Y-32108354D01*
X144564418Y-32108354D01*
X144772548Y-32094165D01*
X144772554Y-32094164D01*
X144776825Y-32093873D01*
X144781020Y-32093004D01*
X144781022Y-32093004D01*
X144917584Y-32064723D01*
X145058342Y-32035574D01*
X145329343Y-31939607D01*
X145584812Y-31807750D01*
X145588313Y-31805289D01*
X145588317Y-31805287D01*
X145702418Y-31725095D01*
X145820023Y-31642441D01*
X146030622Y-31446740D01*
X146212713Y-31224268D01*
X146362927Y-30979142D01*
X146478483Y-30715898D01*
X146557244Y-30439406D01*
X146597751Y-30154784D01*
X146597845Y-30136951D01*
X146599235Y-29871583D01*
X146599235Y-29871576D01*
X146599257Y-29867297D01*
X146569655Y-29642446D01*
X146580594Y-29572297D01*
X146627723Y-29519199D01*
X146694577Y-29500000D01*
X181616178Y-29500000D01*
X181684299Y-29520002D01*
X181730792Y-29573658D01*
X181740921Y-29643753D01*
X181712249Y-29845216D01*
X181712227Y-29849505D01*
X181712226Y-29849512D01*
X181710765Y-30128417D01*
X181710743Y-30132703D01*
X181748268Y-30417734D01*
X181824129Y-30695036D01*
X181936923Y-30959476D01*
X182084561Y-31206161D01*
X182264313Y-31430528D01*
X182472851Y-31628423D01*
X182706317Y-31796186D01*
X182710112Y-31798195D01*
X182710113Y-31798196D01*
X182731869Y-31809715D01*
X182960392Y-31930712D01*
X183230373Y-32029511D01*
X183511264Y-32090755D01*
X183539841Y-32093004D01*
X183734282Y-32108307D01*
X183734291Y-32108307D01*
X183736739Y-32108500D01*
X183892271Y-32108500D01*
X183894407Y-32108354D01*
X183894418Y-32108354D01*
X184102548Y-32094165D01*
X184102554Y-32094164D01*
X184106825Y-32093873D01*
X184111020Y-32093004D01*
X184111022Y-32093004D01*
X184247584Y-32064723D01*
X184388342Y-32035574D01*
X184659343Y-31939607D01*
X184914812Y-31807750D01*
X184918313Y-31805289D01*
X184918317Y-31805287D01*
X185032418Y-31725095D01*
X185150023Y-31642441D01*
X185360622Y-31446740D01*
X185542713Y-31224268D01*
X185692927Y-30979142D01*
X185808483Y-30715898D01*
X185887244Y-30439406D01*
X185927751Y-30154784D01*
X185927845Y-30136951D01*
X185929235Y-29871583D01*
X185929235Y-29871576D01*
X185929257Y-29867297D01*
X185899655Y-29642446D01*
X185910594Y-29572297D01*
X185957723Y-29519199D01*
X186024577Y-29500000D01*
X220946178Y-29500000D01*
X221014299Y-29520002D01*
X221060792Y-29573658D01*
X221070921Y-29643753D01*
X221042249Y-29845216D01*
X221042227Y-29849505D01*
X221042226Y-29849512D01*
X221040765Y-30128417D01*
X221040743Y-30132703D01*
X221078268Y-30417734D01*
X221154129Y-30695036D01*
X221266923Y-30959476D01*
X221414561Y-31206161D01*
X221594313Y-31430528D01*
X221802851Y-31628423D01*
X222036317Y-31796186D01*
X222040112Y-31798195D01*
X222040113Y-31798196D01*
X222061869Y-31809715D01*
X222290392Y-31930712D01*
X222560373Y-32029511D01*
X222841264Y-32090755D01*
X222869841Y-32093004D01*
X223064282Y-32108307D01*
X223064291Y-32108307D01*
X223066739Y-32108500D01*
X223222271Y-32108500D01*
X223224407Y-32108354D01*
X223224418Y-32108354D01*
X223432548Y-32094165D01*
X223432554Y-32094164D01*
X223436825Y-32093873D01*
X223441020Y-32093004D01*
X223441022Y-32093004D01*
X223577584Y-32064723D01*
X223718342Y-32035574D01*
X223989343Y-31939607D01*
X224244812Y-31807750D01*
X224248313Y-31805289D01*
X224248317Y-31805287D01*
X224362418Y-31725095D01*
X224480023Y-31642441D01*
X224690622Y-31446740D01*
X224872713Y-31224268D01*
X225022927Y-30979142D01*
X225138483Y-30715898D01*
X225217244Y-30439406D01*
X225257751Y-30154784D01*
X225257845Y-30136951D01*
X225259235Y-29871583D01*
X225259235Y-29871576D01*
X225259257Y-29867297D01*
X225229655Y-29642446D01*
X225240594Y-29572297D01*
X225287723Y-29519199D01*
X225354577Y-29500000D01*
X227765500Y-29500000D01*
X227833621Y-29520002D01*
X227880114Y-29573658D01*
X227891500Y-29626000D01*
X227891500Y-135874000D01*
X227871498Y-135942121D01*
X227817842Y-135988614D01*
X227765500Y-136000000D01*
X225206686Y-136000000D01*
X225138565Y-135979998D01*
X225092072Y-135926342D01*
X225081968Y-135856068D01*
X225091311Y-135823359D01*
X225138483Y-135715898D01*
X225217244Y-135439406D01*
X225257751Y-135154784D01*
X225257845Y-135136951D01*
X225259235Y-134871583D01*
X225259235Y-134871576D01*
X225259257Y-134867297D01*
X225221732Y-134582266D01*
X225145871Y-134304964D01*
X225033077Y-134040524D01*
X224885439Y-133793839D01*
X224705687Y-133569472D01*
X224497149Y-133371577D01*
X224263683Y-133203814D01*
X224241843Y-133192250D01*
X224218654Y-133179972D01*
X224009608Y-133069288D01*
X223739627Y-132970489D01*
X223458736Y-132909245D01*
X223427685Y-132906801D01*
X223235718Y-132891693D01*
X223235709Y-132891693D01*
X223233261Y-132891500D01*
X223077729Y-132891500D01*
X223075593Y-132891646D01*
X223075582Y-132891646D01*
X222867452Y-132905835D01*
X222867446Y-132905836D01*
X222863175Y-132906127D01*
X222858980Y-132906996D01*
X222858978Y-132906996D01*
X222722417Y-132935276D01*
X222581658Y-132964426D01*
X222310657Y-133060393D01*
X222055188Y-133192250D01*
X222051687Y-133194711D01*
X222051683Y-133194713D01*
X222041594Y-133201804D01*
X221819977Y-133357559D01*
X221609378Y-133553260D01*
X221427287Y-133775732D01*
X221277073Y-134020858D01*
X221161517Y-134284102D01*
X221082756Y-134560594D01*
X221042249Y-134845216D01*
X221042227Y-134849505D01*
X221042226Y-134849512D01*
X221040765Y-135128417D01*
X221040743Y-135132703D01*
X221078268Y-135417734D01*
X221154129Y-135695036D01*
X221155813Y-135698984D01*
X221209378Y-135824565D01*
X221217707Y-135895072D01*
X221186594Y-135958888D01*
X221125919Y-135995753D01*
X221093481Y-136000000D01*
X185876686Y-136000000D01*
X185808565Y-135979998D01*
X185762072Y-135926342D01*
X185751968Y-135856068D01*
X185761311Y-135823359D01*
X185808483Y-135715898D01*
X185887244Y-135439406D01*
X185927751Y-135154784D01*
X185927845Y-135136951D01*
X185929235Y-134871583D01*
X185929235Y-134871576D01*
X185929257Y-134867297D01*
X185891732Y-134582266D01*
X185815871Y-134304964D01*
X185703077Y-134040524D01*
X185555439Y-133793839D01*
X185375687Y-133569472D01*
X185167149Y-133371577D01*
X184933683Y-133203814D01*
X184911843Y-133192250D01*
X184888654Y-133179972D01*
X184679608Y-133069288D01*
X184409627Y-132970489D01*
X184128736Y-132909245D01*
X184097685Y-132906801D01*
X183905718Y-132891693D01*
X183905709Y-132891693D01*
X183903261Y-132891500D01*
X183747729Y-132891500D01*
X183745593Y-132891646D01*
X183745582Y-132891646D01*
X183537452Y-132905835D01*
X183537446Y-132905836D01*
X183533175Y-132906127D01*
X183528980Y-132906996D01*
X183528978Y-132906996D01*
X183392417Y-132935276D01*
X183251658Y-132964426D01*
X182980657Y-133060393D01*
X182725188Y-133192250D01*
X182721687Y-133194711D01*
X182721683Y-133194713D01*
X182711594Y-133201804D01*
X182489977Y-133357559D01*
X182279378Y-133553260D01*
X182097287Y-133775732D01*
X181947073Y-134020858D01*
X181831517Y-134284102D01*
X181752756Y-134560594D01*
X181712249Y-134845216D01*
X181712227Y-134849505D01*
X181712226Y-134849512D01*
X181710765Y-135128417D01*
X181710743Y-135132703D01*
X181748268Y-135417734D01*
X181824129Y-135695036D01*
X181825813Y-135698984D01*
X181879378Y-135824565D01*
X181887707Y-135895072D01*
X181856594Y-135958888D01*
X181795919Y-135995753D01*
X181763481Y-136000000D01*
X146546686Y-136000000D01*
X146478565Y-135979998D01*
X146432072Y-135926342D01*
X146421968Y-135856068D01*
X146431311Y-135823359D01*
X146478483Y-135715898D01*
X146557244Y-135439406D01*
X146597751Y-135154784D01*
X146597845Y-135136951D01*
X146599235Y-134871583D01*
X146599235Y-134871576D01*
X146599257Y-134867297D01*
X146561732Y-134582266D01*
X146485871Y-134304964D01*
X146373077Y-134040524D01*
X146225439Y-133793839D01*
X146045687Y-133569472D01*
X145837149Y-133371577D01*
X145603683Y-133203814D01*
X145581843Y-133192250D01*
X145558654Y-133179972D01*
X145349608Y-133069288D01*
X145079627Y-132970489D01*
X144798736Y-132909245D01*
X144767685Y-132906801D01*
X144575718Y-132891693D01*
X144575709Y-132891693D01*
X144573261Y-132891500D01*
X144417729Y-132891500D01*
X144415593Y-132891646D01*
X144415582Y-132891646D01*
X144207452Y-132905835D01*
X144207446Y-132905836D01*
X144203175Y-132906127D01*
X144198980Y-132906996D01*
X144198978Y-132906996D01*
X144062417Y-132935276D01*
X143921658Y-132964426D01*
X143650657Y-133060393D01*
X143395188Y-133192250D01*
X143391687Y-133194711D01*
X143391683Y-133194713D01*
X143381594Y-133201804D01*
X143159977Y-133357559D01*
X142949378Y-133553260D01*
X142767287Y-133775732D01*
X142617073Y-134020858D01*
X142501517Y-134284102D01*
X142422756Y-134560594D01*
X142382249Y-134845216D01*
X142382227Y-134849505D01*
X142382226Y-134849512D01*
X142380765Y-135128417D01*
X142380743Y-135132703D01*
X142418268Y-135417734D01*
X142494129Y-135695036D01*
X142495813Y-135698984D01*
X142549378Y-135824565D01*
X142557707Y-135895072D01*
X142526594Y-135958888D01*
X142465919Y-135995753D01*
X142433481Y-136000000D01*
X107216686Y-136000000D01*
X107148565Y-135979998D01*
X107102072Y-135926342D01*
X107091968Y-135856068D01*
X107101311Y-135823359D01*
X107148483Y-135715898D01*
X107227244Y-135439406D01*
X107267751Y-135154784D01*
X107267845Y-135136951D01*
X107269235Y-134871583D01*
X107269235Y-134871576D01*
X107269257Y-134867297D01*
X107231732Y-134582266D01*
X107155871Y-134304964D01*
X107043077Y-134040524D01*
X106895439Y-133793839D01*
X106715687Y-133569472D01*
X106507149Y-133371577D01*
X106273683Y-133203814D01*
X106251843Y-133192250D01*
X106228654Y-133179972D01*
X106019608Y-133069288D01*
X105749627Y-132970489D01*
X105468736Y-132909245D01*
X105437685Y-132906801D01*
X105245718Y-132891693D01*
X105245709Y-132891693D01*
X105243261Y-132891500D01*
X105087729Y-132891500D01*
X105085593Y-132891646D01*
X105085582Y-132891646D01*
X104877452Y-132905835D01*
X104877446Y-132905836D01*
X104873175Y-132906127D01*
X104868980Y-132906996D01*
X104868978Y-132906996D01*
X104732417Y-132935276D01*
X104591658Y-132964426D01*
X104320657Y-133060393D01*
X104065188Y-133192250D01*
X104061687Y-133194711D01*
X104061683Y-133194713D01*
X104051594Y-133201804D01*
X103829977Y-133357559D01*
X103619378Y-133553260D01*
X103437287Y-133775732D01*
X103287073Y-134020858D01*
X103171517Y-134284102D01*
X103092756Y-134560594D01*
X103052249Y-134845216D01*
X103052227Y-134849505D01*
X103052226Y-134849512D01*
X103050765Y-135128417D01*
X103050743Y-135132703D01*
X103088268Y-135417734D01*
X103164129Y-135695036D01*
X103165813Y-135698984D01*
X103219378Y-135824565D01*
X103227707Y-135895072D01*
X103196594Y-135958888D01*
X103135919Y-135995753D01*
X103103481Y-136000000D01*
X67886686Y-136000000D01*
X67818565Y-135979998D01*
X67772072Y-135926342D01*
X67761968Y-135856068D01*
X67771311Y-135823359D01*
X67818483Y-135715898D01*
X67897244Y-135439406D01*
X67937751Y-135154784D01*
X67937845Y-135136951D01*
X67939235Y-134871583D01*
X67939235Y-134871576D01*
X67939257Y-134867297D01*
X67901732Y-134582266D01*
X67825871Y-134304964D01*
X67713077Y-134040524D01*
X67565439Y-133793839D01*
X67385687Y-133569472D01*
X67177149Y-133371577D01*
X66943683Y-133203814D01*
X66921843Y-133192250D01*
X66898654Y-133179972D01*
X66689608Y-133069288D01*
X66419627Y-132970489D01*
X66138736Y-132909245D01*
X66107685Y-132906801D01*
X65915718Y-132891693D01*
X65915709Y-132891693D01*
X65913261Y-132891500D01*
X65757729Y-132891500D01*
X65755593Y-132891646D01*
X65755582Y-132891646D01*
X65547452Y-132905835D01*
X65547446Y-132905836D01*
X65543175Y-132906127D01*
X65538980Y-132906996D01*
X65538978Y-132906996D01*
X65402417Y-132935276D01*
X65261658Y-132964426D01*
X64990657Y-133060393D01*
X64735188Y-133192250D01*
X64731687Y-133194711D01*
X64731683Y-133194713D01*
X64721594Y-133201804D01*
X64499977Y-133357559D01*
X64289378Y-133553260D01*
X64107287Y-133775732D01*
X63957073Y-134020858D01*
X63841517Y-134284102D01*
X63762756Y-134560594D01*
X63722249Y-134845216D01*
X63722227Y-134849505D01*
X63722226Y-134849512D01*
X63720765Y-135128417D01*
X63720743Y-135132703D01*
X63758268Y-135417734D01*
X63834129Y-135695036D01*
X63835813Y-135698984D01*
X63889378Y-135824565D01*
X63897707Y-135895072D01*
X63866594Y-135958888D01*
X63805919Y-135995753D01*
X63773481Y-136000000D01*
X28556686Y-136000000D01*
X28488565Y-135979998D01*
X28442072Y-135926342D01*
X28431968Y-135856068D01*
X28441311Y-135823359D01*
X28488483Y-135715898D01*
X28567244Y-135439406D01*
X28607751Y-135154784D01*
X28607845Y-135136951D01*
X28609235Y-134871583D01*
X28609235Y-134871576D01*
X28609257Y-134867297D01*
X28571732Y-134582266D01*
X28495871Y-134304964D01*
X28383077Y-134040524D01*
X28235439Y-133793839D01*
X28055687Y-133569472D01*
X27847149Y-133371577D01*
X27613683Y-133203814D01*
X27591843Y-133192250D01*
X27568654Y-133179972D01*
X27359608Y-133069288D01*
X27089627Y-132970489D01*
X26808736Y-132909245D01*
X26777685Y-132906801D01*
X26585718Y-132891693D01*
X26585709Y-132891693D01*
X26583261Y-132891500D01*
X26427729Y-132891500D01*
X26425593Y-132891646D01*
X26425582Y-132891646D01*
X26217452Y-132905835D01*
X26217446Y-132905836D01*
X26213175Y-132906127D01*
X26208980Y-132906996D01*
X26208978Y-132906996D01*
X26072417Y-132935276D01*
X25931658Y-132964426D01*
X25660657Y-133060393D01*
X25405188Y-133192250D01*
X25401687Y-133194711D01*
X25401683Y-133194713D01*
X25391594Y-133201804D01*
X25169977Y-133357559D01*
X24959378Y-133553260D01*
X24777287Y-133775732D01*
X24627073Y-134020858D01*
X24511517Y-134284102D01*
X24432756Y-134560594D01*
X24392249Y-134845216D01*
X24392227Y-134849505D01*
X24392226Y-134849512D01*
X24390765Y-135128417D01*
X24390743Y-135132703D01*
X24428268Y-135417734D01*
X24504129Y-135695036D01*
X24505813Y-135698984D01*
X24559378Y-135824565D01*
X24567707Y-135895072D01*
X24536594Y-135958888D01*
X24475919Y-135995753D01*
X24443481Y-136000000D01*
X23134500Y-136000000D01*
X23066379Y-135979998D01*
X23019886Y-135926342D01*
X23008500Y-135874000D01*
X23008500Y-38984669D01*
X38462001Y-38984669D01*
X38462371Y-38991490D01*
X38467895Y-39042352D01*
X38471521Y-39057604D01*
X38516676Y-39178054D01*
X38525214Y-39193649D01*
X38601715Y-39295724D01*
X38614276Y-39308285D01*
X38716351Y-39384786D01*
X38731946Y-39393324D01*
X38852394Y-39438478D01*
X38867649Y-39442105D01*
X38918514Y-39447631D01*
X38925328Y-39448000D01*
X39747885Y-39448000D01*
X39763124Y-39443525D01*
X39764329Y-39442135D01*
X39766000Y-39434452D01*
X39766000Y-39429884D01*
X40274000Y-39429884D01*
X40278475Y-39445123D01*
X40279865Y-39446328D01*
X40287548Y-39447999D01*
X41114669Y-39447999D01*
X41121490Y-39447629D01*
X41172352Y-39442105D01*
X41187604Y-39438479D01*
X41308054Y-39393324D01*
X41323649Y-39384786D01*
X41425724Y-39308285D01*
X41438285Y-39295724D01*
X41514786Y-39193649D01*
X41523324Y-39178054D01*
X41568478Y-39057606D01*
X41572105Y-39042351D01*
X41577631Y-38991486D01*
X41578000Y-38984672D01*
X41578000Y-38162115D01*
X41576625Y-38157431D01*
X42441933Y-38157431D01*
X42492517Y-38368125D01*
X42495566Y-38377510D01*
X42585625Y-38594933D01*
X42590107Y-38603728D01*
X42713065Y-38804376D01*
X42718872Y-38812369D01*
X42871708Y-38991317D01*
X42878683Y-38998292D01*
X43057631Y-39151128D01*
X43065624Y-39156935D01*
X43266272Y-39279893D01*
X43275067Y-39284375D01*
X43492490Y-39374434D01*
X43501875Y-39377483D01*
X43708385Y-39427062D01*
X43722470Y-39426357D01*
X43726000Y-39417478D01*
X43726000Y-39413176D01*
X44234000Y-39413176D01*
X44237973Y-39426707D01*
X44247431Y-39428067D01*
X44458125Y-39377483D01*
X44467510Y-39374434D01*
X44684933Y-39284375D01*
X44693728Y-39279893D01*
X44894376Y-39156935D01*
X44902369Y-39151128D01*
X45081317Y-38998292D01*
X45088292Y-38991317D01*
X45241128Y-38812369D01*
X45246935Y-38804376D01*
X45369893Y-38603728D01*
X45374375Y-38594933D01*
X45464434Y-38377510D01*
X45467483Y-38368125D01*
X45517062Y-38161615D01*
X45516357Y-38147530D01*
X45507478Y-38144000D01*
X44252115Y-38144000D01*
X44236876Y-38148475D01*
X44235671Y-38149865D01*
X44234000Y-38157548D01*
X44234000Y-39413176D01*
X43726000Y-39413176D01*
X43726000Y-38162115D01*
X43721525Y-38146876D01*
X43720135Y-38145671D01*
X43712452Y-38144000D01*
X42456824Y-38144000D01*
X42443293Y-38147973D01*
X42441933Y-38157431D01*
X41576625Y-38157431D01*
X41573525Y-38146876D01*
X41572135Y-38145671D01*
X41564452Y-38144000D01*
X40292115Y-38144000D01*
X40276876Y-38148475D01*
X40275671Y-38149865D01*
X40274000Y-38157548D01*
X40274000Y-39429884D01*
X39766000Y-39429884D01*
X39766000Y-38162115D01*
X39761525Y-38146876D01*
X39760135Y-38145671D01*
X39752452Y-38144000D01*
X38480116Y-38144000D01*
X38464877Y-38148475D01*
X38463672Y-38149865D01*
X38462001Y-38157548D01*
X38462001Y-38984669D01*
X23008500Y-38984669D01*
X23008500Y-37890000D01*
X46376681Y-37890000D01*
X46395928Y-38134557D01*
X46397082Y-38139364D01*
X46397083Y-38139370D01*
X46402424Y-38161615D01*
X46453195Y-38373092D01*
X46547073Y-38599732D01*
X46675248Y-38808896D01*
X46834567Y-38995433D01*
X46838323Y-38998641D01*
X47016861Y-39151128D01*
X47021104Y-39154752D01*
X47025327Y-39157340D01*
X47025330Y-39157342D01*
X47094515Y-39199738D01*
X47230268Y-39282927D01*
X47374967Y-39342864D01*
X47452335Y-39374911D01*
X47452337Y-39374912D01*
X47456908Y-39376805D01*
X47525715Y-39393324D01*
X47690630Y-39432917D01*
X47690636Y-39432918D01*
X47695443Y-39434072D01*
X47940000Y-39453319D01*
X48184557Y-39434072D01*
X48189364Y-39432918D01*
X48189370Y-39432917D01*
X48354285Y-39393324D01*
X48423092Y-39376805D01*
X48427663Y-39374912D01*
X48427665Y-39374911D01*
X48505033Y-39342864D01*
X48649732Y-39282927D01*
X48785485Y-39199738D01*
X48854670Y-39157342D01*
X48854673Y-39157340D01*
X48858896Y-39154752D01*
X48863140Y-39151128D01*
X49041677Y-38998641D01*
X49045433Y-38995433D01*
X49204752Y-38808896D01*
X49332927Y-38599732D01*
X49426805Y-38373092D01*
X49477576Y-38161615D01*
X49482917Y-38139370D01*
X49482918Y-38139364D01*
X49484072Y-38134557D01*
X49503319Y-37890000D01*
X50336681Y-37890000D01*
X50355928Y-38134557D01*
X50357082Y-38139364D01*
X50357083Y-38139370D01*
X50362424Y-38161615D01*
X50413195Y-38373092D01*
X50507073Y-38599732D01*
X50635248Y-38808896D01*
X50794567Y-38995433D01*
X50798323Y-38998641D01*
X50976861Y-39151128D01*
X50981104Y-39154752D01*
X50985327Y-39157340D01*
X50985330Y-39157342D01*
X51054515Y-39199738D01*
X51190268Y-39282927D01*
X51334967Y-39342864D01*
X51412335Y-39374911D01*
X51412337Y-39374912D01*
X51416908Y-39376805D01*
X51485715Y-39393324D01*
X51650630Y-39432917D01*
X51650636Y-39432918D01*
X51655443Y-39434072D01*
X51900000Y-39453319D01*
X52144557Y-39434072D01*
X52149364Y-39432918D01*
X52149370Y-39432917D01*
X52314285Y-39393324D01*
X52383092Y-39376805D01*
X52387663Y-39374912D01*
X52387665Y-39374911D01*
X52465033Y-39342864D01*
X52609732Y-39282927D01*
X52745485Y-39199738D01*
X52814670Y-39157342D01*
X52814673Y-39157340D01*
X52818896Y-39154752D01*
X52823140Y-39151128D01*
X53001677Y-38998641D01*
X53005433Y-38995433D01*
X53164752Y-38808896D01*
X53292927Y-38599732D01*
X53386805Y-38373092D01*
X53437576Y-38161615D01*
X53442917Y-38139370D01*
X53442918Y-38139364D01*
X53444072Y-38134557D01*
X53463319Y-37890000D01*
X54296681Y-37890000D01*
X54315928Y-38134557D01*
X54317082Y-38139364D01*
X54317083Y-38139370D01*
X54322424Y-38161615D01*
X54373195Y-38373092D01*
X54467073Y-38599732D01*
X54595248Y-38808896D01*
X54754567Y-38995433D01*
X54758323Y-38998641D01*
X54936861Y-39151128D01*
X54941104Y-39154752D01*
X54945327Y-39157340D01*
X54945330Y-39157342D01*
X55014515Y-39199738D01*
X55150268Y-39282927D01*
X55294967Y-39342864D01*
X55372335Y-39374911D01*
X55372337Y-39374912D01*
X55376908Y-39376805D01*
X55445715Y-39393324D01*
X55610630Y-39432917D01*
X55610636Y-39432918D01*
X55615443Y-39434072D01*
X55860000Y-39453319D01*
X56104557Y-39434072D01*
X56109364Y-39432918D01*
X56109370Y-39432917D01*
X56274285Y-39393324D01*
X56343092Y-39376805D01*
X56347663Y-39374912D01*
X56347665Y-39374911D01*
X56425033Y-39342864D01*
X56569732Y-39282927D01*
X56705485Y-39199738D01*
X56774670Y-39157342D01*
X56774673Y-39157340D01*
X56778896Y-39154752D01*
X56783140Y-39151128D01*
X56961677Y-38998641D01*
X56965433Y-38995433D01*
X57124752Y-38808896D01*
X57252927Y-38599732D01*
X57346805Y-38373092D01*
X57397576Y-38161615D01*
X57402917Y-38139370D01*
X57402918Y-38139364D01*
X57404072Y-38134557D01*
X57423319Y-37890000D01*
X58256681Y-37890000D01*
X58275928Y-38134557D01*
X58277082Y-38139364D01*
X58277083Y-38139370D01*
X58282424Y-38161615D01*
X58333195Y-38373092D01*
X58427073Y-38599732D01*
X58555248Y-38808896D01*
X58714567Y-38995433D01*
X58718323Y-38998641D01*
X58896861Y-39151128D01*
X58901104Y-39154752D01*
X58905327Y-39157340D01*
X58905330Y-39157342D01*
X58974515Y-39199738D01*
X59110268Y-39282927D01*
X59254967Y-39342864D01*
X59332335Y-39374911D01*
X59332337Y-39374912D01*
X59336908Y-39376805D01*
X59405715Y-39393324D01*
X59570630Y-39432917D01*
X59570636Y-39432918D01*
X59575443Y-39434072D01*
X59820000Y-39453319D01*
X60064557Y-39434072D01*
X60069364Y-39432918D01*
X60069370Y-39432917D01*
X60234285Y-39393324D01*
X60303092Y-39376805D01*
X60307663Y-39374912D01*
X60307665Y-39374911D01*
X60385033Y-39342864D01*
X60529732Y-39282927D01*
X60665485Y-39199738D01*
X60734670Y-39157342D01*
X60734673Y-39157340D01*
X60738896Y-39154752D01*
X60743140Y-39151128D01*
X60921677Y-38998641D01*
X60925433Y-38995433D01*
X61084752Y-38808896D01*
X61212927Y-38599732D01*
X61306805Y-38373092D01*
X61357576Y-38161615D01*
X61362917Y-38139370D01*
X61362918Y-38139364D01*
X61364072Y-38134557D01*
X61383319Y-37890000D01*
X109736681Y-37890000D01*
X109755928Y-38134557D01*
X109757082Y-38139364D01*
X109757083Y-38139370D01*
X109762424Y-38161615D01*
X109813195Y-38373092D01*
X109907073Y-38599732D01*
X110035248Y-38808896D01*
X110194567Y-38995433D01*
X110198323Y-38998641D01*
X110376861Y-39151128D01*
X110381104Y-39154752D01*
X110385327Y-39157340D01*
X110385330Y-39157342D01*
X110454515Y-39199738D01*
X110590268Y-39282927D01*
X110734967Y-39342864D01*
X110812335Y-39374911D01*
X110812337Y-39374912D01*
X110816908Y-39376805D01*
X110885715Y-39393324D01*
X111050630Y-39432917D01*
X111050636Y-39432918D01*
X111055443Y-39434072D01*
X111300000Y-39453319D01*
X111544557Y-39434072D01*
X111549364Y-39432918D01*
X111549370Y-39432917D01*
X111714285Y-39393324D01*
X111783092Y-39376805D01*
X111787663Y-39374912D01*
X111787665Y-39374911D01*
X111865033Y-39342864D01*
X112009732Y-39282927D01*
X112145485Y-39199738D01*
X112214670Y-39157342D01*
X112214673Y-39157340D01*
X112218896Y-39154752D01*
X112223140Y-39151128D01*
X112401677Y-38998641D01*
X112405433Y-38995433D01*
X112564752Y-38808896D01*
X112692927Y-38599732D01*
X112786805Y-38373092D01*
X112837576Y-38161615D01*
X112842917Y-38139370D01*
X112842918Y-38139364D01*
X112844072Y-38134557D01*
X112863319Y-37890000D01*
X113696681Y-37890000D01*
X113715928Y-38134557D01*
X113717082Y-38139364D01*
X113717083Y-38139370D01*
X113722424Y-38161615D01*
X113773195Y-38373092D01*
X113867073Y-38599732D01*
X113995248Y-38808896D01*
X114154567Y-38995433D01*
X114158323Y-38998641D01*
X114336861Y-39151128D01*
X114341104Y-39154752D01*
X114345327Y-39157340D01*
X114345330Y-39157342D01*
X114414515Y-39199738D01*
X114550268Y-39282927D01*
X114694967Y-39342864D01*
X114772335Y-39374911D01*
X114772337Y-39374912D01*
X114776908Y-39376805D01*
X114845715Y-39393324D01*
X115010630Y-39432917D01*
X115010636Y-39432918D01*
X115015443Y-39434072D01*
X115260000Y-39453319D01*
X115504557Y-39434072D01*
X115509364Y-39432918D01*
X115509370Y-39432917D01*
X115674285Y-39393324D01*
X115743092Y-39376805D01*
X115747663Y-39374912D01*
X115747665Y-39374911D01*
X115825033Y-39342864D01*
X115969732Y-39282927D01*
X116105485Y-39199738D01*
X116174670Y-39157342D01*
X116174673Y-39157340D01*
X116178896Y-39154752D01*
X116183140Y-39151128D01*
X116361677Y-38998641D01*
X116365433Y-38995433D01*
X116524752Y-38808896D01*
X116652927Y-38599732D01*
X116746805Y-38373092D01*
X116797576Y-38161615D01*
X116802917Y-38139370D01*
X116802918Y-38139364D01*
X116804072Y-38134557D01*
X116823319Y-37890000D01*
X117656681Y-37890000D01*
X117675928Y-38134557D01*
X117677082Y-38139364D01*
X117677083Y-38139370D01*
X117682424Y-38161615D01*
X117733195Y-38373092D01*
X117827073Y-38599732D01*
X117955248Y-38808896D01*
X118114567Y-38995433D01*
X118118323Y-38998641D01*
X118296861Y-39151128D01*
X118301104Y-39154752D01*
X118305327Y-39157340D01*
X118305330Y-39157342D01*
X118374515Y-39199738D01*
X118510268Y-39282927D01*
X118654967Y-39342864D01*
X118732335Y-39374911D01*
X118732337Y-39374912D01*
X118736908Y-39376805D01*
X118805715Y-39393324D01*
X118970630Y-39432917D01*
X118970636Y-39432918D01*
X118975443Y-39434072D01*
X119220000Y-39453319D01*
X119464557Y-39434072D01*
X119469364Y-39432918D01*
X119469370Y-39432917D01*
X119634285Y-39393324D01*
X119703092Y-39376805D01*
X119707663Y-39374912D01*
X119707665Y-39374911D01*
X119785033Y-39342864D01*
X119929732Y-39282927D01*
X120065485Y-39199738D01*
X120134670Y-39157342D01*
X120134673Y-39157340D01*
X120138896Y-39154752D01*
X120143140Y-39151128D01*
X120321677Y-38998641D01*
X120325433Y-38995433D01*
X120484752Y-38808896D01*
X120612927Y-38599732D01*
X120706805Y-38373092D01*
X120757576Y-38161615D01*
X120762917Y-38139370D01*
X120762918Y-38139364D01*
X120764072Y-38134557D01*
X120783319Y-37890000D01*
X121616681Y-37890000D01*
X121635928Y-38134557D01*
X121637082Y-38139364D01*
X121637083Y-38139370D01*
X121642424Y-38161615D01*
X121693195Y-38373092D01*
X121787073Y-38599732D01*
X121915248Y-38808896D01*
X122074567Y-38995433D01*
X122078323Y-38998641D01*
X122256861Y-39151128D01*
X122261104Y-39154752D01*
X122265327Y-39157340D01*
X122265330Y-39157342D01*
X122334515Y-39199738D01*
X122470268Y-39282927D01*
X122614967Y-39342864D01*
X122692335Y-39374911D01*
X122692337Y-39374912D01*
X122696908Y-39376805D01*
X122765715Y-39393324D01*
X122930630Y-39432917D01*
X122930636Y-39432918D01*
X122935443Y-39434072D01*
X123180000Y-39453319D01*
X123424557Y-39434072D01*
X123429364Y-39432918D01*
X123429370Y-39432917D01*
X123594285Y-39393324D01*
X123663092Y-39376805D01*
X123667663Y-39374912D01*
X123667665Y-39374911D01*
X123745033Y-39342864D01*
X123889732Y-39282927D01*
X124025485Y-39199738D01*
X124094670Y-39157342D01*
X124094673Y-39157340D01*
X124098896Y-39154752D01*
X124103140Y-39151128D01*
X124281677Y-38998641D01*
X124285433Y-38995433D01*
X124444752Y-38808896D01*
X124572927Y-38599732D01*
X124666805Y-38373092D01*
X124717576Y-38161615D01*
X124722917Y-38139370D01*
X124722918Y-38139364D01*
X124724072Y-38134557D01*
X124743319Y-37890000D01*
X125576681Y-37890000D01*
X125595928Y-38134557D01*
X125597082Y-38139364D01*
X125597083Y-38139370D01*
X125602424Y-38161615D01*
X125653195Y-38373092D01*
X125747073Y-38599732D01*
X125875248Y-38808896D01*
X126034567Y-38995433D01*
X126038323Y-38998641D01*
X126216861Y-39151128D01*
X126221104Y-39154752D01*
X126225327Y-39157340D01*
X126225330Y-39157342D01*
X126294515Y-39199738D01*
X126430268Y-39282927D01*
X126574967Y-39342864D01*
X126652335Y-39374911D01*
X126652337Y-39374912D01*
X126656908Y-39376805D01*
X126725715Y-39393324D01*
X126890630Y-39432917D01*
X126890636Y-39432918D01*
X126895443Y-39434072D01*
X127140000Y-39453319D01*
X127384557Y-39434072D01*
X127389364Y-39432918D01*
X127389370Y-39432917D01*
X127554285Y-39393324D01*
X127623092Y-39376805D01*
X127627663Y-39374912D01*
X127627665Y-39374911D01*
X127705033Y-39342864D01*
X127849732Y-39282927D01*
X127985485Y-39199738D01*
X128054670Y-39157342D01*
X128054673Y-39157340D01*
X128058896Y-39154752D01*
X128063140Y-39151128D01*
X128241677Y-38998641D01*
X128245433Y-38995433D01*
X128404752Y-38808896D01*
X128532927Y-38599732D01*
X128626805Y-38373092D01*
X128677576Y-38161615D01*
X128682917Y-38139370D01*
X128682918Y-38139364D01*
X128684072Y-38134557D01*
X128703319Y-37890000D01*
X129536681Y-37890000D01*
X129555928Y-38134557D01*
X129557082Y-38139364D01*
X129557083Y-38139370D01*
X129562424Y-38161615D01*
X129613195Y-38373092D01*
X129707073Y-38599732D01*
X129835248Y-38808896D01*
X129994567Y-38995433D01*
X129998323Y-38998641D01*
X130176861Y-39151128D01*
X130181104Y-39154752D01*
X130185327Y-39157340D01*
X130185330Y-39157342D01*
X130254515Y-39199738D01*
X130390268Y-39282927D01*
X130534967Y-39342864D01*
X130612335Y-39374911D01*
X130612337Y-39374912D01*
X130616908Y-39376805D01*
X130685715Y-39393324D01*
X130850630Y-39432917D01*
X130850636Y-39432918D01*
X130855443Y-39434072D01*
X131100000Y-39453319D01*
X131344557Y-39434072D01*
X131349364Y-39432918D01*
X131349370Y-39432917D01*
X131514285Y-39393324D01*
X131583092Y-39376805D01*
X131587663Y-39374912D01*
X131587665Y-39374911D01*
X131665033Y-39342864D01*
X131809732Y-39282927D01*
X131945485Y-39199738D01*
X132014670Y-39157342D01*
X132014673Y-39157340D01*
X132018896Y-39154752D01*
X132023140Y-39151128D01*
X132201677Y-38998641D01*
X132205433Y-38995433D01*
X132364752Y-38808896D01*
X132492927Y-38599732D01*
X132586805Y-38373092D01*
X132637576Y-38161615D01*
X132642917Y-38139370D01*
X132642918Y-38139364D01*
X132644072Y-38134557D01*
X132663319Y-37890000D01*
X133496681Y-37890000D01*
X133515928Y-38134557D01*
X133517082Y-38139364D01*
X133517083Y-38139370D01*
X133522424Y-38161615D01*
X133573195Y-38373092D01*
X133667073Y-38599732D01*
X133795248Y-38808896D01*
X133954567Y-38995433D01*
X133958323Y-38998641D01*
X134136861Y-39151128D01*
X134141104Y-39154752D01*
X134145327Y-39157340D01*
X134145330Y-39157342D01*
X134214515Y-39199738D01*
X134350268Y-39282927D01*
X134494967Y-39342864D01*
X134572335Y-39374911D01*
X134572337Y-39374912D01*
X134576908Y-39376805D01*
X134645715Y-39393324D01*
X134810630Y-39432917D01*
X134810636Y-39432918D01*
X134815443Y-39434072D01*
X135060000Y-39453319D01*
X135304557Y-39434072D01*
X135309364Y-39432918D01*
X135309370Y-39432917D01*
X135474285Y-39393324D01*
X135543092Y-39376805D01*
X135547663Y-39374912D01*
X135547665Y-39374911D01*
X135625033Y-39342864D01*
X135769732Y-39282927D01*
X135905485Y-39199738D01*
X135974670Y-39157342D01*
X135974673Y-39157340D01*
X135978896Y-39154752D01*
X135983140Y-39151128D01*
X136161677Y-38998641D01*
X136165433Y-38995433D01*
X136324752Y-38808896D01*
X136452927Y-38599732D01*
X136546805Y-38373092D01*
X136597576Y-38161615D01*
X136602917Y-38139370D01*
X136602918Y-38139364D01*
X136604072Y-38134557D01*
X136623319Y-37890000D01*
X137456681Y-37890000D01*
X137475928Y-38134557D01*
X137477082Y-38139364D01*
X137477083Y-38139370D01*
X137482424Y-38161615D01*
X137533195Y-38373092D01*
X137627073Y-38599732D01*
X137755248Y-38808896D01*
X137914567Y-38995433D01*
X137918323Y-38998641D01*
X138096861Y-39151128D01*
X138101104Y-39154752D01*
X138105327Y-39157340D01*
X138105330Y-39157342D01*
X138174515Y-39199738D01*
X138310268Y-39282927D01*
X138454967Y-39342864D01*
X138532335Y-39374911D01*
X138532337Y-39374912D01*
X138536908Y-39376805D01*
X138605715Y-39393324D01*
X138770630Y-39432917D01*
X138770636Y-39432918D01*
X138775443Y-39434072D01*
X139020000Y-39453319D01*
X139264557Y-39434072D01*
X139269364Y-39432918D01*
X139269370Y-39432917D01*
X139434285Y-39393324D01*
X139503092Y-39376805D01*
X139507663Y-39374912D01*
X139507665Y-39374911D01*
X139585033Y-39342864D01*
X139729732Y-39282927D01*
X139865485Y-39199738D01*
X139934670Y-39157342D01*
X139934673Y-39157340D01*
X139938896Y-39154752D01*
X139943140Y-39151128D01*
X140121677Y-38998641D01*
X140125433Y-38995433D01*
X140284752Y-38808896D01*
X140412927Y-38599732D01*
X140506805Y-38373092D01*
X140557576Y-38161615D01*
X140562917Y-38139370D01*
X140562918Y-38139364D01*
X140564072Y-38134557D01*
X140583319Y-37890000D01*
X141416681Y-37890000D01*
X141435928Y-38134557D01*
X141437082Y-38139364D01*
X141437083Y-38139370D01*
X141442424Y-38161615D01*
X141493195Y-38373092D01*
X141587073Y-38599732D01*
X141715248Y-38808896D01*
X141874567Y-38995433D01*
X141878323Y-38998641D01*
X142056861Y-39151128D01*
X142061104Y-39154752D01*
X142065327Y-39157340D01*
X142065330Y-39157342D01*
X142134515Y-39199738D01*
X142270268Y-39282927D01*
X142414967Y-39342864D01*
X142492335Y-39374911D01*
X142492337Y-39374912D01*
X142496908Y-39376805D01*
X142565715Y-39393324D01*
X142730630Y-39432917D01*
X142730636Y-39432918D01*
X142735443Y-39434072D01*
X142980000Y-39453319D01*
X143224557Y-39434072D01*
X143229364Y-39432918D01*
X143229370Y-39432917D01*
X143394285Y-39393324D01*
X143463092Y-39376805D01*
X143467663Y-39374912D01*
X143467665Y-39374911D01*
X143545033Y-39342864D01*
X143689732Y-39282927D01*
X143825485Y-39199738D01*
X143894670Y-39157342D01*
X143894673Y-39157340D01*
X143898896Y-39154752D01*
X143903140Y-39151128D01*
X144081677Y-38998641D01*
X144085433Y-38995433D01*
X144244752Y-38808896D01*
X144372927Y-38599732D01*
X144466805Y-38373092D01*
X144517576Y-38161615D01*
X144522917Y-38139370D01*
X144522918Y-38139364D01*
X144524072Y-38134557D01*
X144543319Y-37890000D01*
X145376681Y-37890000D01*
X145395928Y-38134557D01*
X145397082Y-38139364D01*
X145397083Y-38139370D01*
X145402424Y-38161615D01*
X145453195Y-38373092D01*
X145547073Y-38599732D01*
X145675248Y-38808896D01*
X145834567Y-38995433D01*
X145838323Y-38998641D01*
X146016861Y-39151128D01*
X146021104Y-39154752D01*
X146025327Y-39157340D01*
X146025330Y-39157342D01*
X146094515Y-39199738D01*
X146230268Y-39282927D01*
X146374967Y-39342864D01*
X146452335Y-39374911D01*
X146452337Y-39374912D01*
X146456908Y-39376805D01*
X146525715Y-39393324D01*
X146690630Y-39432917D01*
X146690636Y-39432918D01*
X146695443Y-39434072D01*
X146940000Y-39453319D01*
X147184557Y-39434072D01*
X147189364Y-39432918D01*
X147189370Y-39432917D01*
X147354285Y-39393324D01*
X147423092Y-39376805D01*
X147427663Y-39374912D01*
X147427665Y-39374911D01*
X147505033Y-39342864D01*
X147649732Y-39282927D01*
X147785485Y-39199738D01*
X147854670Y-39157342D01*
X147854673Y-39157340D01*
X147858896Y-39154752D01*
X147863140Y-39151128D01*
X148041677Y-38998641D01*
X148045433Y-38995433D01*
X148204752Y-38808896D01*
X148332927Y-38599732D01*
X148426805Y-38373092D01*
X148477576Y-38161615D01*
X148478581Y-38157431D01*
X149361933Y-38157431D01*
X149412517Y-38368125D01*
X149415566Y-38377510D01*
X149505625Y-38594933D01*
X149510107Y-38603728D01*
X149633065Y-38804376D01*
X149638872Y-38812369D01*
X149791708Y-38991317D01*
X149798683Y-38998292D01*
X149977631Y-39151128D01*
X149985624Y-39156935D01*
X150186272Y-39279893D01*
X150195067Y-39284375D01*
X150412490Y-39374434D01*
X150421875Y-39377483D01*
X150628385Y-39427062D01*
X150642470Y-39426357D01*
X150646000Y-39417478D01*
X150646000Y-39413176D01*
X151154000Y-39413176D01*
X151157973Y-39426707D01*
X151167431Y-39428067D01*
X151378125Y-39377483D01*
X151387510Y-39374434D01*
X151604933Y-39284375D01*
X151613728Y-39279893D01*
X151814376Y-39156935D01*
X151822369Y-39151128D01*
X152001317Y-38998292D01*
X152008292Y-38991317D01*
X152161128Y-38812369D01*
X152166935Y-38804376D01*
X152289893Y-38603728D01*
X152294375Y-38594933D01*
X152384434Y-38377510D01*
X152387483Y-38368125D01*
X152437062Y-38161615D01*
X152436853Y-38157431D01*
X153321933Y-38157431D01*
X153372517Y-38368125D01*
X153375566Y-38377510D01*
X153465625Y-38594933D01*
X153470107Y-38603728D01*
X153593065Y-38804376D01*
X153598872Y-38812369D01*
X153751708Y-38991317D01*
X153758683Y-38998292D01*
X153937631Y-39151128D01*
X153945624Y-39156935D01*
X154146272Y-39279893D01*
X154155067Y-39284375D01*
X154372490Y-39374434D01*
X154381875Y-39377483D01*
X154588385Y-39427062D01*
X154602470Y-39426357D01*
X154606000Y-39417478D01*
X154606000Y-39413176D01*
X155114000Y-39413176D01*
X155117973Y-39426707D01*
X155127431Y-39428067D01*
X155338125Y-39377483D01*
X155347510Y-39374434D01*
X155564933Y-39284375D01*
X155573728Y-39279893D01*
X155774376Y-39156935D01*
X155782369Y-39151128D01*
X155961317Y-38998292D01*
X155968292Y-38991317D01*
X156121128Y-38812369D01*
X156126935Y-38804376D01*
X156249893Y-38603728D01*
X156254375Y-38594933D01*
X156344434Y-38377510D01*
X156347483Y-38368125D01*
X156397062Y-38161615D01*
X156396357Y-38147530D01*
X156387478Y-38144000D01*
X155132115Y-38144000D01*
X155116876Y-38148475D01*
X155115671Y-38149865D01*
X155114000Y-38157548D01*
X155114000Y-39413176D01*
X154606000Y-39413176D01*
X154606000Y-38162115D01*
X154601525Y-38146876D01*
X154600135Y-38145671D01*
X154592452Y-38144000D01*
X153336824Y-38144000D01*
X153323293Y-38147973D01*
X153321933Y-38157431D01*
X152436853Y-38157431D01*
X152436357Y-38147530D01*
X152427478Y-38144000D01*
X151172115Y-38144000D01*
X151156876Y-38148475D01*
X151155671Y-38149865D01*
X151154000Y-38157548D01*
X151154000Y-39413176D01*
X150646000Y-39413176D01*
X150646000Y-38162115D01*
X150641525Y-38146876D01*
X150640135Y-38145671D01*
X150632452Y-38144000D01*
X149376824Y-38144000D01*
X149363293Y-38147973D01*
X149361933Y-38157431D01*
X148478581Y-38157431D01*
X148482917Y-38139370D01*
X148482918Y-38139364D01*
X148484072Y-38134557D01*
X148503319Y-37890000D01*
X148484072Y-37645443D01*
X148481115Y-37633124D01*
X148477576Y-37618385D01*
X149362938Y-37618385D01*
X149363643Y-37632470D01*
X149372522Y-37636000D01*
X150627885Y-37636000D01*
X150643124Y-37631525D01*
X150644329Y-37630135D01*
X150646000Y-37622452D01*
X150646000Y-37617885D01*
X151154000Y-37617885D01*
X151158475Y-37633124D01*
X151159865Y-37634329D01*
X151167548Y-37636000D01*
X152423176Y-37636000D01*
X152436707Y-37632027D01*
X152438067Y-37622569D01*
X152437062Y-37618385D01*
X153322938Y-37618385D01*
X153323643Y-37632470D01*
X153332522Y-37636000D01*
X154587885Y-37636000D01*
X154603124Y-37631525D01*
X154604329Y-37630135D01*
X154606000Y-37622452D01*
X154606000Y-37617885D01*
X155114000Y-37617885D01*
X155118475Y-37633124D01*
X155119865Y-37634329D01*
X155127548Y-37636000D01*
X156383176Y-37636000D01*
X156396707Y-37632027D01*
X156398067Y-37622569D01*
X156347483Y-37411875D01*
X156344434Y-37402490D01*
X156254375Y-37185067D01*
X156249893Y-37176272D01*
X156126935Y-36975624D01*
X156121128Y-36967631D01*
X155968292Y-36788683D01*
X155961317Y-36781708D01*
X155782369Y-36628872D01*
X155774376Y-36623065D01*
X155573728Y-36500107D01*
X155564933Y-36495625D01*
X155347510Y-36405566D01*
X155338125Y-36402517D01*
X155131615Y-36352938D01*
X155117530Y-36353643D01*
X155114000Y-36362522D01*
X155114000Y-37617885D01*
X154606000Y-37617885D01*
X154606000Y-36366824D01*
X154602027Y-36353293D01*
X154592569Y-36351933D01*
X154381875Y-36402517D01*
X154372490Y-36405566D01*
X154155067Y-36495625D01*
X154146272Y-36500107D01*
X153945624Y-36623065D01*
X153937631Y-36628872D01*
X153758683Y-36781708D01*
X153751708Y-36788683D01*
X153598872Y-36967631D01*
X153593065Y-36975624D01*
X153470107Y-37176272D01*
X153465625Y-37185067D01*
X153375566Y-37402490D01*
X153372517Y-37411875D01*
X153322938Y-37618385D01*
X152437062Y-37618385D01*
X152387483Y-37411875D01*
X152384434Y-37402490D01*
X152294375Y-37185067D01*
X152289893Y-37176272D01*
X152166935Y-36975624D01*
X152161128Y-36967631D01*
X152008292Y-36788683D01*
X152001317Y-36781708D01*
X151822369Y-36628872D01*
X151814376Y-36623065D01*
X151613728Y-36500107D01*
X151604933Y-36495625D01*
X151387510Y-36405566D01*
X151378125Y-36402517D01*
X151171615Y-36352938D01*
X151157530Y-36353643D01*
X151154000Y-36362522D01*
X151154000Y-37617885D01*
X150646000Y-37617885D01*
X150646000Y-36366824D01*
X150642027Y-36353293D01*
X150632569Y-36351933D01*
X150421875Y-36402517D01*
X150412490Y-36405566D01*
X150195067Y-36495625D01*
X150186272Y-36500107D01*
X149985624Y-36623065D01*
X149977631Y-36628872D01*
X149798683Y-36781708D01*
X149791708Y-36788683D01*
X149638872Y-36967631D01*
X149633065Y-36975624D01*
X149510107Y-37176272D01*
X149505625Y-37185067D01*
X149415566Y-37402490D01*
X149412517Y-37411875D01*
X149362938Y-37618385D01*
X148477576Y-37618385D01*
X148427960Y-37411720D01*
X148426805Y-37406908D01*
X148332927Y-37180268D01*
X148204752Y-36971104D01*
X148045433Y-36784567D01*
X147990500Y-36737649D01*
X147862663Y-36628465D01*
X147862660Y-36628463D01*
X147858896Y-36625248D01*
X147854673Y-36622660D01*
X147854670Y-36622658D01*
X147785485Y-36580262D01*
X147649732Y-36497073D01*
X147505033Y-36437136D01*
X147427665Y-36405089D01*
X147427663Y-36405088D01*
X147423092Y-36403195D01*
X147340437Y-36383351D01*
X147189370Y-36347083D01*
X147189364Y-36347082D01*
X147184557Y-36345928D01*
X146940000Y-36326681D01*
X146695443Y-36345928D01*
X146690636Y-36347082D01*
X146690630Y-36347083D01*
X146539563Y-36383351D01*
X146456908Y-36403195D01*
X146452337Y-36405088D01*
X146452335Y-36405089D01*
X146374967Y-36437136D01*
X146230268Y-36497073D01*
X146094515Y-36580262D01*
X146025330Y-36622658D01*
X146025327Y-36622660D01*
X146021104Y-36625248D01*
X146017340Y-36628463D01*
X146017337Y-36628465D01*
X145889500Y-36737649D01*
X145834567Y-36784567D01*
X145675248Y-36971104D01*
X145547073Y-37180268D01*
X145453195Y-37406908D01*
X145452040Y-37411720D01*
X145398886Y-37633124D01*
X145395928Y-37645443D01*
X145376681Y-37890000D01*
X144543319Y-37890000D01*
X144524072Y-37645443D01*
X144521115Y-37633124D01*
X144467960Y-37411720D01*
X144466805Y-37406908D01*
X144372927Y-37180268D01*
X144244752Y-36971104D01*
X144085433Y-36784567D01*
X144030500Y-36737649D01*
X143902663Y-36628465D01*
X143902660Y-36628463D01*
X143898896Y-36625248D01*
X143894673Y-36622660D01*
X143894670Y-36622658D01*
X143825485Y-36580262D01*
X143689732Y-36497073D01*
X143545033Y-36437136D01*
X143467665Y-36405089D01*
X143467663Y-36405088D01*
X143463092Y-36403195D01*
X143380437Y-36383351D01*
X143229370Y-36347083D01*
X143229364Y-36347082D01*
X143224557Y-36345928D01*
X142980000Y-36326681D01*
X142735443Y-36345928D01*
X142730636Y-36347082D01*
X142730630Y-36347083D01*
X142579563Y-36383351D01*
X142496908Y-36403195D01*
X142492337Y-36405088D01*
X142492335Y-36405089D01*
X142414967Y-36437136D01*
X142270268Y-36497073D01*
X142134515Y-36580262D01*
X142065330Y-36622658D01*
X142065327Y-36622660D01*
X142061104Y-36625248D01*
X142057340Y-36628463D01*
X142057337Y-36628465D01*
X141929500Y-36737649D01*
X141874567Y-36784567D01*
X141715248Y-36971104D01*
X141587073Y-37180268D01*
X141493195Y-37406908D01*
X141492040Y-37411720D01*
X141438886Y-37633124D01*
X141435928Y-37645443D01*
X141416681Y-37890000D01*
X140583319Y-37890000D01*
X140564072Y-37645443D01*
X140561115Y-37633124D01*
X140507960Y-37411720D01*
X140506805Y-37406908D01*
X140412927Y-37180268D01*
X140284752Y-36971104D01*
X140125433Y-36784567D01*
X140070500Y-36737649D01*
X139942663Y-36628465D01*
X139942660Y-36628463D01*
X139938896Y-36625248D01*
X139934673Y-36622660D01*
X139934670Y-36622658D01*
X139865485Y-36580262D01*
X139729732Y-36497073D01*
X139585033Y-36437136D01*
X139507665Y-36405089D01*
X139507663Y-36405088D01*
X139503092Y-36403195D01*
X139420437Y-36383351D01*
X139269370Y-36347083D01*
X139269364Y-36347082D01*
X139264557Y-36345928D01*
X139020000Y-36326681D01*
X138775443Y-36345928D01*
X138770636Y-36347082D01*
X138770630Y-36347083D01*
X138619563Y-36383351D01*
X138536908Y-36403195D01*
X138532337Y-36405088D01*
X138532335Y-36405089D01*
X138454967Y-36437136D01*
X138310268Y-36497073D01*
X138174515Y-36580262D01*
X138105330Y-36622658D01*
X138105327Y-36622660D01*
X138101104Y-36625248D01*
X138097340Y-36628463D01*
X138097337Y-36628465D01*
X137969500Y-36737649D01*
X137914567Y-36784567D01*
X137755248Y-36971104D01*
X137627073Y-37180268D01*
X137533195Y-37406908D01*
X137532040Y-37411720D01*
X137478886Y-37633124D01*
X137475928Y-37645443D01*
X137456681Y-37890000D01*
X136623319Y-37890000D01*
X136604072Y-37645443D01*
X136601115Y-37633124D01*
X136547960Y-37411720D01*
X136546805Y-37406908D01*
X136452927Y-37180268D01*
X136324752Y-36971104D01*
X136165433Y-36784567D01*
X136110500Y-36737649D01*
X135982663Y-36628465D01*
X135982660Y-36628463D01*
X135978896Y-36625248D01*
X135974673Y-36622660D01*
X135974670Y-36622658D01*
X135905485Y-36580262D01*
X135769732Y-36497073D01*
X135625033Y-36437136D01*
X135547665Y-36405089D01*
X135547663Y-36405088D01*
X135543092Y-36403195D01*
X135460437Y-36383351D01*
X135309370Y-36347083D01*
X135309364Y-36347082D01*
X135304557Y-36345928D01*
X135060000Y-36326681D01*
X134815443Y-36345928D01*
X134810636Y-36347082D01*
X134810630Y-36347083D01*
X134659563Y-36383351D01*
X134576908Y-36403195D01*
X134572337Y-36405088D01*
X134572335Y-36405089D01*
X134494967Y-36437136D01*
X134350268Y-36497073D01*
X134214515Y-36580262D01*
X134145330Y-36622658D01*
X134145327Y-36622660D01*
X134141104Y-36625248D01*
X134137340Y-36628463D01*
X134137337Y-36628465D01*
X134009500Y-36737649D01*
X133954567Y-36784567D01*
X133795248Y-36971104D01*
X133667073Y-37180268D01*
X133573195Y-37406908D01*
X133572040Y-37411720D01*
X133518886Y-37633124D01*
X133515928Y-37645443D01*
X133496681Y-37890000D01*
X132663319Y-37890000D01*
X132644072Y-37645443D01*
X132641115Y-37633124D01*
X132587960Y-37411720D01*
X132586805Y-37406908D01*
X132492927Y-37180268D01*
X132364752Y-36971104D01*
X132205433Y-36784567D01*
X132150500Y-36737649D01*
X132022663Y-36628465D01*
X132022660Y-36628463D01*
X132018896Y-36625248D01*
X132014673Y-36622660D01*
X132014670Y-36622658D01*
X131945485Y-36580262D01*
X131809732Y-36497073D01*
X131665033Y-36437136D01*
X131587665Y-36405089D01*
X131587663Y-36405088D01*
X131583092Y-36403195D01*
X131500437Y-36383351D01*
X131349370Y-36347083D01*
X131349364Y-36347082D01*
X131344557Y-36345928D01*
X131100000Y-36326681D01*
X130855443Y-36345928D01*
X130850636Y-36347082D01*
X130850630Y-36347083D01*
X130699563Y-36383351D01*
X130616908Y-36403195D01*
X130612337Y-36405088D01*
X130612335Y-36405089D01*
X130534967Y-36437136D01*
X130390268Y-36497073D01*
X130254515Y-36580262D01*
X130185330Y-36622658D01*
X130185327Y-36622660D01*
X130181104Y-36625248D01*
X130177340Y-36628463D01*
X130177337Y-36628465D01*
X130049500Y-36737649D01*
X129994567Y-36784567D01*
X129835248Y-36971104D01*
X129707073Y-37180268D01*
X129613195Y-37406908D01*
X129612040Y-37411720D01*
X129558886Y-37633124D01*
X129555928Y-37645443D01*
X129536681Y-37890000D01*
X128703319Y-37890000D01*
X128684072Y-37645443D01*
X128681115Y-37633124D01*
X128627960Y-37411720D01*
X128626805Y-37406908D01*
X128532927Y-37180268D01*
X128404752Y-36971104D01*
X128245433Y-36784567D01*
X128190500Y-36737649D01*
X128062663Y-36628465D01*
X128062660Y-36628463D01*
X128058896Y-36625248D01*
X128054673Y-36622660D01*
X128054670Y-36622658D01*
X127985485Y-36580262D01*
X127849732Y-36497073D01*
X127705033Y-36437136D01*
X127627665Y-36405089D01*
X127627663Y-36405088D01*
X127623092Y-36403195D01*
X127540437Y-36383351D01*
X127389370Y-36347083D01*
X127389364Y-36347082D01*
X127384557Y-36345928D01*
X127140000Y-36326681D01*
X126895443Y-36345928D01*
X126890636Y-36347082D01*
X126890630Y-36347083D01*
X126739563Y-36383351D01*
X126656908Y-36403195D01*
X126652337Y-36405088D01*
X126652335Y-36405089D01*
X126574967Y-36437136D01*
X126430268Y-36497073D01*
X126294515Y-36580262D01*
X126225330Y-36622658D01*
X126225327Y-36622660D01*
X126221104Y-36625248D01*
X126217340Y-36628463D01*
X126217337Y-36628465D01*
X126089500Y-36737649D01*
X126034567Y-36784567D01*
X125875248Y-36971104D01*
X125747073Y-37180268D01*
X125653195Y-37406908D01*
X125652040Y-37411720D01*
X125598886Y-37633124D01*
X125595928Y-37645443D01*
X125576681Y-37890000D01*
X124743319Y-37890000D01*
X124724072Y-37645443D01*
X124721115Y-37633124D01*
X124667960Y-37411720D01*
X124666805Y-37406908D01*
X124572927Y-37180268D01*
X124444752Y-36971104D01*
X124285433Y-36784567D01*
X124230500Y-36737649D01*
X124102663Y-36628465D01*
X124102660Y-36628463D01*
X124098896Y-36625248D01*
X124094673Y-36622660D01*
X124094670Y-36622658D01*
X124025485Y-36580262D01*
X123889732Y-36497073D01*
X123745033Y-36437136D01*
X123667665Y-36405089D01*
X123667663Y-36405088D01*
X123663092Y-36403195D01*
X123580437Y-36383351D01*
X123429370Y-36347083D01*
X123429364Y-36347082D01*
X123424557Y-36345928D01*
X123180000Y-36326681D01*
X122935443Y-36345928D01*
X122930636Y-36347082D01*
X122930630Y-36347083D01*
X122779563Y-36383351D01*
X122696908Y-36403195D01*
X122692337Y-36405088D01*
X122692335Y-36405089D01*
X122614967Y-36437136D01*
X122470268Y-36497073D01*
X122334515Y-36580262D01*
X122265330Y-36622658D01*
X122265327Y-36622660D01*
X122261104Y-36625248D01*
X122257340Y-36628463D01*
X122257337Y-36628465D01*
X122129500Y-36737649D01*
X122074567Y-36784567D01*
X121915248Y-36971104D01*
X121787073Y-37180268D01*
X121693195Y-37406908D01*
X121692040Y-37411720D01*
X121638886Y-37633124D01*
X121635928Y-37645443D01*
X121616681Y-37890000D01*
X120783319Y-37890000D01*
X120764072Y-37645443D01*
X120761115Y-37633124D01*
X120707960Y-37411720D01*
X120706805Y-37406908D01*
X120612927Y-37180268D01*
X120484752Y-36971104D01*
X120325433Y-36784567D01*
X120270500Y-36737649D01*
X120142663Y-36628465D01*
X120142660Y-36628463D01*
X120138896Y-36625248D01*
X120134673Y-36622660D01*
X120134670Y-36622658D01*
X120065485Y-36580262D01*
X119929732Y-36497073D01*
X119785033Y-36437136D01*
X119707665Y-36405089D01*
X119707663Y-36405088D01*
X119703092Y-36403195D01*
X119620437Y-36383351D01*
X119469370Y-36347083D01*
X119469364Y-36347082D01*
X119464557Y-36345928D01*
X119220000Y-36326681D01*
X118975443Y-36345928D01*
X118970636Y-36347082D01*
X118970630Y-36347083D01*
X118819563Y-36383351D01*
X118736908Y-36403195D01*
X118732337Y-36405088D01*
X118732335Y-36405089D01*
X118654967Y-36437136D01*
X118510268Y-36497073D01*
X118374515Y-36580262D01*
X118305330Y-36622658D01*
X118305327Y-36622660D01*
X118301104Y-36625248D01*
X118297340Y-36628463D01*
X118297337Y-36628465D01*
X118169500Y-36737649D01*
X118114567Y-36784567D01*
X117955248Y-36971104D01*
X117827073Y-37180268D01*
X117733195Y-37406908D01*
X117732040Y-37411720D01*
X117678886Y-37633124D01*
X117675928Y-37645443D01*
X117656681Y-37890000D01*
X116823319Y-37890000D01*
X116804072Y-37645443D01*
X116801115Y-37633124D01*
X116747960Y-37411720D01*
X116746805Y-37406908D01*
X116652927Y-37180268D01*
X116524752Y-36971104D01*
X116365433Y-36784567D01*
X116310500Y-36737649D01*
X116182663Y-36628465D01*
X116182660Y-36628463D01*
X116178896Y-36625248D01*
X116174673Y-36622660D01*
X116174670Y-36622658D01*
X116105485Y-36580262D01*
X115969732Y-36497073D01*
X115825033Y-36437136D01*
X115747665Y-36405089D01*
X115747663Y-36405088D01*
X115743092Y-36403195D01*
X115660437Y-36383351D01*
X115509370Y-36347083D01*
X115509364Y-36347082D01*
X115504557Y-36345928D01*
X115260000Y-36326681D01*
X115015443Y-36345928D01*
X115010636Y-36347082D01*
X115010630Y-36347083D01*
X114859563Y-36383351D01*
X114776908Y-36403195D01*
X114772337Y-36405088D01*
X114772335Y-36405089D01*
X114694967Y-36437136D01*
X114550268Y-36497073D01*
X114414515Y-36580262D01*
X114345330Y-36622658D01*
X114345327Y-36622660D01*
X114341104Y-36625248D01*
X114337340Y-36628463D01*
X114337337Y-36628465D01*
X114209500Y-36737649D01*
X114154567Y-36784567D01*
X113995248Y-36971104D01*
X113867073Y-37180268D01*
X113773195Y-37406908D01*
X113772040Y-37411720D01*
X113718886Y-37633124D01*
X113715928Y-37645443D01*
X113696681Y-37890000D01*
X112863319Y-37890000D01*
X112844072Y-37645443D01*
X112841115Y-37633124D01*
X112787960Y-37411720D01*
X112786805Y-37406908D01*
X112692927Y-37180268D01*
X112564752Y-36971104D01*
X112405433Y-36784567D01*
X112350500Y-36737649D01*
X112222663Y-36628465D01*
X112222660Y-36628463D01*
X112218896Y-36625248D01*
X112214673Y-36622660D01*
X112214670Y-36622658D01*
X112145485Y-36580262D01*
X112009732Y-36497073D01*
X111865033Y-36437136D01*
X111787665Y-36405089D01*
X111787663Y-36405088D01*
X111783092Y-36403195D01*
X111700437Y-36383351D01*
X111549370Y-36347083D01*
X111549364Y-36347082D01*
X111544557Y-36345928D01*
X111300000Y-36326681D01*
X111055443Y-36345928D01*
X111050636Y-36347082D01*
X111050630Y-36347083D01*
X110899563Y-36383351D01*
X110816908Y-36403195D01*
X110812337Y-36405088D01*
X110812335Y-36405089D01*
X110734967Y-36437136D01*
X110590268Y-36497073D01*
X110454515Y-36580262D01*
X110385330Y-36622658D01*
X110385327Y-36622660D01*
X110381104Y-36625248D01*
X110377340Y-36628463D01*
X110377337Y-36628465D01*
X110249500Y-36737649D01*
X110194567Y-36784567D01*
X110035248Y-36971104D01*
X109907073Y-37180268D01*
X109813195Y-37406908D01*
X109812040Y-37411720D01*
X109758886Y-37633124D01*
X109755928Y-37645443D01*
X109736681Y-37890000D01*
X61383319Y-37890000D01*
X61364072Y-37645443D01*
X61361115Y-37633124D01*
X61307960Y-37411720D01*
X61306805Y-37406908D01*
X61212927Y-37180268D01*
X61084752Y-36971104D01*
X60925433Y-36784567D01*
X60870500Y-36737649D01*
X60742663Y-36628465D01*
X60742660Y-36628463D01*
X60738896Y-36625248D01*
X60734673Y-36622660D01*
X60734670Y-36622658D01*
X60665485Y-36580262D01*
X60529732Y-36497073D01*
X60385033Y-36437136D01*
X60307665Y-36405089D01*
X60307663Y-36405088D01*
X60303092Y-36403195D01*
X60220437Y-36383351D01*
X60069370Y-36347083D01*
X60069364Y-36347082D01*
X60064557Y-36345928D01*
X59820000Y-36326681D01*
X59575443Y-36345928D01*
X59570636Y-36347082D01*
X59570630Y-36347083D01*
X59419563Y-36383351D01*
X59336908Y-36403195D01*
X59332337Y-36405088D01*
X59332335Y-36405089D01*
X59254967Y-36437136D01*
X59110268Y-36497073D01*
X58974515Y-36580262D01*
X58905330Y-36622658D01*
X58905327Y-36622660D01*
X58901104Y-36625248D01*
X58897340Y-36628463D01*
X58897337Y-36628465D01*
X58769500Y-36737649D01*
X58714567Y-36784567D01*
X58555248Y-36971104D01*
X58427073Y-37180268D01*
X58333195Y-37406908D01*
X58332040Y-37411720D01*
X58278886Y-37633124D01*
X58275928Y-37645443D01*
X58256681Y-37890000D01*
X57423319Y-37890000D01*
X57404072Y-37645443D01*
X57401115Y-37633124D01*
X57347960Y-37411720D01*
X57346805Y-37406908D01*
X57252927Y-37180268D01*
X57124752Y-36971104D01*
X56965433Y-36784567D01*
X56910500Y-36737649D01*
X56782663Y-36628465D01*
X56782660Y-36628463D01*
X56778896Y-36625248D01*
X56774673Y-36622660D01*
X56774670Y-36622658D01*
X56705485Y-36580262D01*
X56569732Y-36497073D01*
X56425033Y-36437136D01*
X56347665Y-36405089D01*
X56347663Y-36405088D01*
X56343092Y-36403195D01*
X56260437Y-36383351D01*
X56109370Y-36347083D01*
X56109364Y-36347082D01*
X56104557Y-36345928D01*
X55860000Y-36326681D01*
X55615443Y-36345928D01*
X55610636Y-36347082D01*
X55610630Y-36347083D01*
X55459563Y-36383351D01*
X55376908Y-36403195D01*
X55372337Y-36405088D01*
X55372335Y-36405089D01*
X55294967Y-36437136D01*
X55150268Y-36497073D01*
X55014515Y-36580262D01*
X54945330Y-36622658D01*
X54945327Y-36622660D01*
X54941104Y-36625248D01*
X54937340Y-36628463D01*
X54937337Y-36628465D01*
X54809500Y-36737649D01*
X54754567Y-36784567D01*
X54595248Y-36971104D01*
X54467073Y-37180268D01*
X54373195Y-37406908D01*
X54372040Y-37411720D01*
X54318886Y-37633124D01*
X54315928Y-37645443D01*
X54296681Y-37890000D01*
X53463319Y-37890000D01*
X53444072Y-37645443D01*
X53441115Y-37633124D01*
X53387960Y-37411720D01*
X53386805Y-37406908D01*
X53292927Y-37180268D01*
X53164752Y-36971104D01*
X53005433Y-36784567D01*
X52950500Y-36737649D01*
X52822663Y-36628465D01*
X52822660Y-36628463D01*
X52818896Y-36625248D01*
X52814673Y-36622660D01*
X52814670Y-36622658D01*
X52745485Y-36580262D01*
X52609732Y-36497073D01*
X52465033Y-36437136D01*
X52387665Y-36405089D01*
X52387663Y-36405088D01*
X52383092Y-36403195D01*
X52300437Y-36383351D01*
X52149370Y-36347083D01*
X52149364Y-36347082D01*
X52144557Y-36345928D01*
X51900000Y-36326681D01*
X51655443Y-36345928D01*
X51650636Y-36347082D01*
X51650630Y-36347083D01*
X51499563Y-36383351D01*
X51416908Y-36403195D01*
X51412337Y-36405088D01*
X51412335Y-36405089D01*
X51334967Y-36437136D01*
X51190268Y-36497073D01*
X51054515Y-36580262D01*
X50985330Y-36622658D01*
X50985327Y-36622660D01*
X50981104Y-36625248D01*
X50977340Y-36628463D01*
X50977337Y-36628465D01*
X50849500Y-36737649D01*
X50794567Y-36784567D01*
X50635248Y-36971104D01*
X50507073Y-37180268D01*
X50413195Y-37406908D01*
X50412040Y-37411720D01*
X50358886Y-37633124D01*
X50355928Y-37645443D01*
X50336681Y-37890000D01*
X49503319Y-37890000D01*
X49484072Y-37645443D01*
X49481115Y-37633124D01*
X49427960Y-37411720D01*
X49426805Y-37406908D01*
X49332927Y-37180268D01*
X49204752Y-36971104D01*
X49045433Y-36784567D01*
X48990500Y-36737649D01*
X48862663Y-36628465D01*
X48862660Y-36628463D01*
X48858896Y-36625248D01*
X48854673Y-36622660D01*
X48854670Y-36622658D01*
X48785485Y-36580262D01*
X48649732Y-36497073D01*
X48505033Y-36437136D01*
X48427665Y-36405089D01*
X48427663Y-36405088D01*
X48423092Y-36403195D01*
X48340437Y-36383351D01*
X48189370Y-36347083D01*
X48189364Y-36347082D01*
X48184557Y-36345928D01*
X47940000Y-36326681D01*
X47695443Y-36345928D01*
X47690636Y-36347082D01*
X47690630Y-36347083D01*
X47539563Y-36383351D01*
X47456908Y-36403195D01*
X47452337Y-36405088D01*
X47452335Y-36405089D01*
X47374967Y-36437136D01*
X47230268Y-36497073D01*
X47094515Y-36580262D01*
X47025330Y-36622658D01*
X47025327Y-36622660D01*
X47021104Y-36625248D01*
X47017340Y-36628463D01*
X47017337Y-36628465D01*
X46889500Y-36737649D01*
X46834567Y-36784567D01*
X46675248Y-36971104D01*
X46547073Y-37180268D01*
X46453195Y-37406908D01*
X46452040Y-37411720D01*
X46398886Y-37633124D01*
X46395928Y-37645443D01*
X46376681Y-37890000D01*
X23008500Y-37890000D01*
X23008500Y-37617885D01*
X38462000Y-37617885D01*
X38466475Y-37633124D01*
X38467865Y-37634329D01*
X38475548Y-37636000D01*
X39747885Y-37636000D01*
X39763124Y-37631525D01*
X39764329Y-37630135D01*
X39766000Y-37622452D01*
X39766000Y-37617885D01*
X40274000Y-37617885D01*
X40278475Y-37633124D01*
X40279865Y-37634329D01*
X40287548Y-37636000D01*
X41559884Y-37636000D01*
X41575123Y-37631525D01*
X41576328Y-37630135D01*
X41577999Y-37622452D01*
X41577999Y-37618385D01*
X42442938Y-37618385D01*
X42443643Y-37632470D01*
X42452522Y-37636000D01*
X43707885Y-37636000D01*
X43723124Y-37631525D01*
X43724329Y-37630135D01*
X43726000Y-37622452D01*
X43726000Y-37617885D01*
X44234000Y-37617885D01*
X44238475Y-37633124D01*
X44239865Y-37634329D01*
X44247548Y-37636000D01*
X45503176Y-37636000D01*
X45516707Y-37632027D01*
X45518067Y-37622569D01*
X45467483Y-37411875D01*
X45464434Y-37402490D01*
X45374375Y-37185067D01*
X45369893Y-37176272D01*
X45246935Y-36975624D01*
X45241128Y-36967631D01*
X45088292Y-36788683D01*
X45081317Y-36781708D01*
X44902369Y-36628872D01*
X44894376Y-36623065D01*
X44693728Y-36500107D01*
X44684933Y-36495625D01*
X44467510Y-36405566D01*
X44458125Y-36402517D01*
X44251615Y-36352938D01*
X44237530Y-36353643D01*
X44234000Y-36362522D01*
X44234000Y-37617885D01*
X43726000Y-37617885D01*
X43726000Y-36366824D01*
X43722027Y-36353293D01*
X43712569Y-36351933D01*
X43501875Y-36402517D01*
X43492490Y-36405566D01*
X43275067Y-36495625D01*
X43266272Y-36500107D01*
X43065624Y-36623065D01*
X43057631Y-36628872D01*
X42878683Y-36781708D01*
X42871708Y-36788683D01*
X42718872Y-36967631D01*
X42713065Y-36975624D01*
X42590107Y-37176272D01*
X42585625Y-37185067D01*
X42495566Y-37402490D01*
X42492517Y-37411875D01*
X42442938Y-37618385D01*
X41577999Y-37618385D01*
X41577999Y-36795331D01*
X41577629Y-36788510D01*
X41572105Y-36737648D01*
X41568479Y-36722396D01*
X41523324Y-36601946D01*
X41514786Y-36586351D01*
X41438285Y-36484276D01*
X41425724Y-36471715D01*
X41323649Y-36395214D01*
X41308054Y-36386676D01*
X41187606Y-36341522D01*
X41172351Y-36337895D01*
X41121486Y-36332369D01*
X41114672Y-36332000D01*
X40292115Y-36332000D01*
X40276876Y-36336475D01*
X40275671Y-36337865D01*
X40274000Y-36345548D01*
X40274000Y-37617885D01*
X39766000Y-37617885D01*
X39766000Y-36350116D01*
X39761525Y-36334877D01*
X39760135Y-36333672D01*
X39752452Y-36332001D01*
X38925331Y-36332001D01*
X38918510Y-36332371D01*
X38867648Y-36337895D01*
X38852396Y-36341521D01*
X38731946Y-36386676D01*
X38716351Y-36395214D01*
X38614276Y-36471715D01*
X38601715Y-36484276D01*
X38525214Y-36586351D01*
X38516676Y-36601946D01*
X38471522Y-36722394D01*
X38467895Y-36737649D01*
X38462369Y-36788514D01*
X38462000Y-36795328D01*
X38462000Y-37617885D01*
X23008500Y-37617885D01*
X23008500Y-29626000D01*
X23028502Y-29557879D01*
X23082158Y-29511386D01*
X23134500Y-29500000D01*
X24296178Y-29500000D01*
X24364299Y-29520002D01*
G37*
G04 #@! TD.AperFunction*
M02*
