M48
; DRILL file {KiCad (6.0.6)} date Fri Aug 19 10:50:02 2022
; FORMAT={-:-/ absolute / metric / decimal}
; #@! TF.CreationDate,2022-08-19T10:50:02-05:00
; #@! TF.GenerationSoftware,Kicad,Pcbnew,(6.0.6)
; #@! TF.FileFunction,Plated,1,2,PTH
FMAT,2
METRIC
; #@! TA.AperFunction,Plated,PTH,ViaDrill
T1C0.400
; #@! TA.AperFunction,Plated,PTH,ComponentDrill
T2C1.600
%
G90
G05
T1
X30.0Y-40.0
X30.0Y-50.0
X30.0Y-60.0
X30.0Y-70.0
X30.0Y-80.0
X30.0Y-90.0
X30.0Y-100.0
X30.0Y-110.0
X30.0Y-120.0
X30.0Y-130.0
X34.285Y-40.312
X40.0Y-50.0
X40.0Y-60.0
X40.0Y-70.0
X40.0Y-80.0
X40.0Y-90.0
X40.0Y-100.0
X40.0Y-110.0
X40.0Y-120.0
X40.0Y-130.0
X44.285Y-40.312
X50.0Y-50.0
X50.0Y-60.0
X50.0Y-70.0
X50.0Y-80.0
X50.0Y-90.0
X50.0Y-100.0
X50.0Y-110.0
X50.0Y-120.0
X50.0Y-130.0
X54.285Y-40.312
X60.0Y-50.0
X60.0Y-60.0
X60.0Y-70.0
X60.0Y-80.0
X60.0Y-90.0
X60.0Y-100.0
X60.0Y-110.0
X60.0Y-120.0
X60.0Y-130.0
X70.0Y-40.0
X70.0Y-50.0
X70.0Y-60.0
X70.0Y-70.0
X70.0Y-80.0
X70.0Y-90.0
X70.0Y-100.0
X70.0Y-110.0
X70.0Y-120.0
X70.0Y-130.0
X80.0Y-40.0
X80.0Y-50.0
X80.0Y-60.0
X80.0Y-70.0
X80.0Y-80.0
X80.0Y-90.0
X80.0Y-100.0
X80.0Y-110.0
X80.0Y-120.0
X80.0Y-130.0
X90.0Y-40.0
X90.0Y-50.0
X90.0Y-60.0
X90.0Y-70.0
X90.0Y-80.0
X90.0Y-90.0
X90.0Y-100.0
X90.0Y-110.0
X90.0Y-120.0
X90.0Y-130.0
X100.0Y-40.0
X100.0Y-50.0
X100.0Y-60.0
X100.0Y-70.0
X100.0Y-80.0
X100.0Y-90.0
X100.0Y-100.0
X100.0Y-110.0
X100.0Y-120.0
X100.0Y-130.0
X110.0Y-40.0
X110.0Y-50.0
X110.0Y-60.0
X110.0Y-70.0
X110.0Y-80.0
X110.0Y-90.0
X110.0Y-100.0
X110.0Y-110.0
X110.0Y-120.0
X110.0Y-130.0
X120.0Y-40.0
X120.0Y-50.0
X120.0Y-60.0
X120.0Y-70.0
X120.0Y-80.0
X120.0Y-90.0
X120.0Y-100.0
X120.0Y-110.0
X120.0Y-120.0
X120.0Y-130.0
X130.0Y-40.0
X130.0Y-50.0
X130.0Y-60.0
X130.0Y-70.0
X130.0Y-80.0
X130.0Y-90.0
X130.0Y-100.0
X130.0Y-110.0
X130.0Y-120.0
X130.0Y-130.0
X140.0Y-40.0
X140.0Y-50.0
X140.0Y-60.0
X140.0Y-70.0
X140.0Y-80.0
X140.0Y-90.0
X140.0Y-100.0
X140.0Y-110.0
X140.0Y-120.0
X140.0Y-130.0
X150.0Y-40.0
X150.0Y-50.0
X150.0Y-60.0
X150.0Y-70.0
X150.0Y-80.0
X150.0Y-90.0
X150.0Y-100.0
X150.0Y-110.0
X150.0Y-120.0
X150.0Y-130.0
X160.0Y-40.0
X160.0Y-50.0
X160.0Y-60.0
X160.0Y-70.0
X160.0Y-80.0
X160.0Y-90.0
X160.0Y-100.0
X160.0Y-110.0
X160.0Y-120.0
X160.0Y-130.0
X170.0Y-40.0
X170.0Y-50.0
X170.0Y-60.0
X170.0Y-70.0
X170.0Y-80.0
X170.0Y-90.0
X170.0Y-100.0
X170.0Y-110.0
X170.0Y-120.0
X170.0Y-130.0
X180.0Y-40.0
X180.0Y-50.0
X180.0Y-60.0
X180.0Y-70.0
X180.0Y-80.0
X180.0Y-90.0
X180.0Y-100.0
X180.0Y-110.0
X180.0Y-120.0
X180.0Y-130.0
X190.0Y-40.0
X190.0Y-50.0
X190.0Y-60.0
X190.0Y-70.0
X190.0Y-80.0
X190.0Y-90.0
X190.0Y-100.0
X190.0Y-110.0
X190.0Y-120.0
X190.0Y-130.0
X200.0Y-40.0
X200.0Y-50.0
X200.0Y-60.0
X200.0Y-70.0
X200.0Y-80.0
X200.0Y-90.0
X200.0Y-100.0
X200.0Y-110.0
X200.0Y-120.0
X200.0Y-130.0
X210.0Y-40.0
X210.0Y-50.0
X210.0Y-60.0
X210.0Y-70.0
X210.0Y-80.0
X210.0Y-90.0
X210.0Y-100.0
X210.0Y-110.0
X210.0Y-120.0
X210.0Y-130.0
X220.0Y-40.0
X220.0Y-50.0
X220.0Y-60.0
X220.0Y-70.0
X220.0Y-80.0
X220.0Y-90.0
X220.0Y-100.0
X220.0Y-110.0
X220.0Y-120.0
X220.0Y-130.0
T2
X40.02Y-37.89
X43.98Y-37.89
X47.94Y-37.89
X51.9Y-37.89
X55.86Y-37.89
X59.82Y-37.89
X111.3Y-37.89
X115.26Y-37.89
X119.22Y-37.89
X123.18Y-37.89
X127.14Y-37.89
X131.1Y-37.89
X135.06Y-37.89
X139.02Y-37.89
X142.98Y-37.89
X146.94Y-37.89
X150.9Y-37.89
X154.86Y-37.89
T0
M30
