G04 #@! TF.GenerationSoftware,KiCad,Pcbnew,(6.0.6)*
G04 #@! TF.CreationDate,2022-08-19T10:49:20-05:00*
G04 #@! TF.ProjectId,gndplate,676e6470-6c61-4746-952e-6b696361645f,rev?*
G04 #@! TF.SameCoordinates,Original*
G04 #@! TF.FileFunction,Legend,Top*
G04 #@! TF.FilePolarity,Positive*
%FSLAX46Y46*%
G04 Gerber Fmt 4.6, Leading zero omitted, Abs format (unit mm)*
G04 Created by KiCad (PCBNEW (6.0.6)) date 2022-08-19 10:49:20*
%MOMM*%
%LPD*%
G01*
G04 APERTURE LIST*
%ADD10C,0.120000*%
%ADD11C,3.200000*%
%ADD12R,2.100000X2.100000*%
%ADD13O,2.100000X2.100000*%
G04 APERTURE END LIST*
G36*
X128985940Y-85518256D02*
G01*
X129257163Y-85538655D01*
X129417238Y-85568310D01*
X129444666Y-85588408D01*
X129472594Y-85730298D01*
X129496058Y-85800075D01*
X129500191Y-85862659D01*
X129435886Y-85902345D01*
X129275221Y-85924098D01*
X128990274Y-85932885D01*
X128743116Y-85934000D01*
X128354255Y-85928973D01*
X128103691Y-85910678D01*
X127960597Y-85874290D01*
X127894147Y-85814983D01*
X127887391Y-85800075D01*
X127850650Y-85669888D01*
X127877745Y-85585767D01*
X127994459Y-85537801D01*
X128226579Y-85516078D01*
X128599888Y-85510689D01*
X128640333Y-85510667D01*
X128985940Y-85518256D01*
G37*
G36*
X122751226Y-85512160D02*
G01*
X122984940Y-85522257D01*
X123112955Y-85549383D01*
X123167089Y-85601964D01*
X123179158Y-85688424D01*
X123179333Y-85722333D01*
X123173776Y-85820261D01*
X123135994Y-85882080D01*
X123034321Y-85916096D01*
X122837090Y-85930615D01*
X122512636Y-85933942D01*
X122372342Y-85934000D01*
X121974515Y-85928045D01*
X121717846Y-85907507D01*
X121574491Y-85868379D01*
X121518173Y-85811054D01*
X121495944Y-85680590D01*
X121561927Y-85592810D01*
X121737503Y-85540263D01*
X122044053Y-85515496D01*
X122379996Y-85510667D01*
X122751226Y-85512160D01*
G37*
G36*
X102544034Y-84243496D02*
G01*
X102768997Y-84256759D01*
X102889116Y-84287618D01*
X102936620Y-84343234D01*
X102944000Y-84410000D01*
X102931267Y-84490452D01*
X102871584Y-84540444D01*
X102732720Y-84567137D01*
X102482447Y-84577693D01*
X102182000Y-84579333D01*
X101819965Y-84576504D01*
X101595002Y-84563241D01*
X101474883Y-84532382D01*
X101427379Y-84476766D01*
X101420000Y-84410000D01*
X101432732Y-84329548D01*
X101492415Y-84279556D01*
X101631279Y-84252863D01*
X101881552Y-84242306D01*
X102182000Y-84240667D01*
X102544034Y-84243496D01*
G37*
G36*
X128991752Y-84920723D02*
G01*
X129238925Y-84932356D01*
X129374648Y-84958096D01*
X129427842Y-85003141D01*
X129428740Y-85066167D01*
X129391542Y-85138463D01*
X129291906Y-85185820D01*
X129097797Y-85215194D01*
X128777177Y-85233540D01*
X128635261Y-85238451D01*
X128290262Y-85242951D01*
X128011778Y-85234668D01*
X127841440Y-85215382D01*
X127810729Y-85203173D01*
X127754685Y-85071543D01*
X127751333Y-85030889D01*
X127792122Y-84976951D01*
X127930300Y-84942250D01*
X128189584Y-84923647D01*
X128593691Y-84918002D01*
X128604208Y-84918000D01*
X128991752Y-84920723D01*
G37*
G36*
X135752333Y-86866449D02*
G01*
X135498333Y-87034667D01*
X135336608Y-87119903D01*
X135137816Y-87170975D01*
X134856995Y-87195201D01*
X134482333Y-87200052D01*
X133968367Y-87179227D01*
X133616466Y-87120910D01*
X133487500Y-87070906D01*
X133325515Y-86971798D01*
X133254782Y-86906279D01*
X133254666Y-86904962D01*
X133334412Y-86891098D01*
X133553972Y-86879427D01*
X133883835Y-86870872D01*
X134294487Y-86866357D01*
X134503500Y-86865891D01*
X135752333Y-86866449D01*
G37*
G36*
X134125478Y-85513314D02*
G01*
X135244333Y-85515962D01*
X134821000Y-85724207D01*
X134563917Y-85834323D01*
X134308189Y-85898376D01*
X133992377Y-85927532D01*
X133670944Y-85933226D01*
X133335689Y-85927731D01*
X133068586Y-85912408D01*
X132912203Y-85890130D01*
X132890756Y-85880534D01*
X132882284Y-85772952D01*
X132921957Y-85668868D01*
X132971668Y-85604164D01*
X133058382Y-85559966D01*
X133210803Y-85532565D01*
X133457632Y-85518249D01*
X133827574Y-85513309D01*
X134125478Y-85513314D01*
G37*
G36*
X124405861Y-83035056D02*
G01*
X124454899Y-83058312D01*
X124600889Y-83164813D01*
X124583368Y-83241290D01*
X124401261Y-83288284D01*
X124053493Y-83306337D01*
X123962500Y-83306516D01*
X123306333Y-83303700D01*
X123506213Y-83137183D01*
X123770585Y-83009763D01*
X124098332Y-82973405D01*
X124405861Y-83035056D01*
G37*
G36*
X136886952Y-85512136D02*
G01*
X137121956Y-85522111D01*
X137251063Y-85548936D01*
X137305993Y-85600960D01*
X137318463Y-85686530D01*
X137318666Y-85722333D01*
X137313081Y-85820391D01*
X137275178Y-85882234D01*
X137173241Y-85916210D01*
X136975549Y-85930665D01*
X136650386Y-85933946D01*
X136514333Y-85934000D01*
X136141714Y-85932530D01*
X135906710Y-85922556D01*
X135777603Y-85895730D01*
X135722673Y-85843706D01*
X135710203Y-85758137D01*
X135710000Y-85722333D01*
X135715585Y-85624276D01*
X135753487Y-85562432D01*
X135855425Y-85528457D01*
X136053116Y-85514002D01*
X136378279Y-85510720D01*
X136514333Y-85510667D01*
X136886952Y-85512136D01*
G37*
G36*
X131139956Y-84254624D02*
G01*
X131282533Y-84258735D01*
X131669481Y-84274008D01*
X131918040Y-84296619D01*
X132059152Y-84332802D01*
X132123758Y-84388796D01*
X132138060Y-84431167D01*
X132134692Y-84502289D01*
X132071017Y-84546341D01*
X131916488Y-84569614D01*
X131640556Y-84578398D01*
X131418574Y-84579333D01*
X131052478Y-84575035D01*
X130817973Y-84557084D01*
X130677424Y-84517896D01*
X130593197Y-84449884D01*
X130563047Y-84406902D01*
X130520389Y-84328182D01*
X130529668Y-84279172D01*
X130617967Y-84254294D01*
X130812369Y-84247970D01*
X131139956Y-84254624D01*
G37*
G36*
X114251978Y-86189329D02*
G01*
X114545329Y-86196282D01*
X114722231Y-86213310D01*
X114809128Y-86244863D01*
X114832459Y-86295391D01*
X114821865Y-86357333D01*
X114790345Y-86430913D01*
X114721497Y-86479478D01*
X114585010Y-86508166D01*
X114350575Y-86522115D01*
X113987880Y-86526462D01*
X113822850Y-86526667D01*
X113396238Y-86522934D01*
X113110241Y-86509196D01*
X112936253Y-86481647D01*
X112845671Y-86436479D01*
X112816725Y-86392742D01*
X112771896Y-86257774D01*
X112765333Y-86223408D01*
X112844634Y-86209948D01*
X113061083Y-86198840D01*
X113382500Y-86191171D01*
X113776705Y-86188024D01*
X113815740Y-86188000D01*
X114251978Y-86189329D01*
G37*
G36*
X115020256Y-84243818D02*
G01*
X115233997Y-84258465D01*
X115344665Y-84292399D01*
X115385372Y-84353411D01*
X115390000Y-84410000D01*
X115377398Y-84490067D01*
X115318229Y-84539992D01*
X115180442Y-84566812D01*
X114931989Y-84577566D01*
X114618941Y-84579333D01*
X114253764Y-84575816D01*
X114029484Y-84561746D01*
X113917747Y-84531846D01*
X113890198Y-84480841D01*
X113899274Y-84445408D01*
X113944103Y-84310441D01*
X113950666Y-84276075D01*
X114028848Y-84260073D01*
X114237478Y-84247835D01*
X114537678Y-84241274D01*
X114670333Y-84240667D01*
X115020256Y-84243818D01*
G37*
G36*
X119355534Y-83026852D02*
G01*
X119693352Y-83085175D01*
X119922359Y-83178037D01*
X119932671Y-83185505D01*
X119974698Y-83231233D01*
X119946935Y-83263759D01*
X119828789Y-83285331D01*
X119599668Y-83298198D01*
X119238977Y-83304609D01*
X118823233Y-83306640D01*
X118280503Y-83302555D01*
X117901247Y-83287727D01*
X117687300Y-83262284D01*
X117640492Y-83226352D01*
X117641426Y-83225373D01*
X117834522Y-83122981D01*
X118148399Y-83051134D01*
X118537139Y-83010630D01*
X118954823Y-83002270D01*
X119355534Y-83026852D01*
G37*
G36*
X119441571Y-83565997D02*
G01*
X119914541Y-83575855D01*
X120257584Y-83595705D01*
X120490376Y-83628345D01*
X120632589Y-83676573D01*
X120703900Y-83743188D01*
X120723983Y-83830987D01*
X120724000Y-83834267D01*
X120643318Y-83853734D01*
X120417204Y-83871014D01*
X120069554Y-83885256D01*
X119624262Y-83895612D01*
X119105226Y-83901231D01*
X118819000Y-83902000D01*
X118271482Y-83899131D01*
X117785489Y-83891092D01*
X117384916Y-83878731D01*
X117093659Y-83862898D01*
X116935612Y-83844443D01*
X116914000Y-83834267D01*
X116932732Y-83745723D01*
X117002045Y-83678456D01*
X117141614Y-83629668D01*
X117371114Y-83596560D01*
X117710219Y-83576334D01*
X118178604Y-83566192D01*
X118795943Y-83563336D01*
X118819000Y-83563333D01*
X119441571Y-83565997D01*
G37*
G36*
X106400749Y-83018619D02*
G01*
X106565906Y-83045543D01*
X106913452Y-83124902D01*
X107093287Y-83189794D01*
X107105207Y-83240319D01*
X106949011Y-83276574D01*
X106624497Y-83298659D01*
X106131462Y-83306672D01*
X106030100Y-83306640D01*
X105563965Y-83303783D01*
X105246004Y-83296026D01*
X105055075Y-83280846D01*
X104970033Y-83255721D01*
X104969736Y-83218129D01*
X105006635Y-83184550D01*
X105240391Y-83081065D01*
X105586462Y-83015723D01*
X105991148Y-82993312D01*
X106400749Y-83018619D01*
G37*
G36*
X141678798Y-85596898D02*
G01*
X141981013Y-85604171D01*
X142168388Y-85621555D01*
X142268167Y-85653319D01*
X142307592Y-85703735D01*
X142314000Y-85764667D01*
X142302071Y-85844025D01*
X142245057Y-85893076D01*
X142111116Y-85918280D01*
X141868405Y-85926103D01*
X141530833Y-85923624D01*
X141085918Y-85906669D01*
X140766530Y-85865156D01*
X140529806Y-85792365D01*
X140451333Y-85754423D01*
X140155000Y-85595596D01*
X141234500Y-85595465D01*
X141678798Y-85596898D01*
G37*
G36*
X119415196Y-86190808D02*
G01*
X119907796Y-86198683D01*
X120315498Y-86210804D01*
X120614668Y-86226348D01*
X120781671Y-86244494D01*
X120808666Y-86255733D01*
X120790426Y-86343370D01*
X120722698Y-86410170D01*
X120585969Y-86458847D01*
X120360727Y-86492117D01*
X120027458Y-86512693D01*
X119566652Y-86523291D01*
X118958794Y-86526625D01*
X118861333Y-86526667D01*
X118202469Y-86523101D01*
X117700702Y-86511963D01*
X117343938Y-86492584D01*
X117120082Y-86464300D01*
X117017039Y-86426445D01*
X117015600Y-86425067D01*
X116926460Y-86300596D01*
X116914000Y-86255733D01*
X116994725Y-86236468D01*
X117221143Y-86219334D01*
X117569621Y-86205154D01*
X118016524Y-86194748D01*
X118538216Y-86188939D01*
X118861333Y-86188000D01*
X119415196Y-86190808D01*
G37*
G36*
X140777589Y-84920858D02*
G01*
X141204659Y-84924679D01*
X141510771Y-84934503D01*
X141720109Y-84952551D01*
X141856859Y-84981045D01*
X141945204Y-85022209D01*
X142009328Y-85078263D01*
X142017666Y-85087333D01*
X142066774Y-85146034D01*
X142078964Y-85189309D01*
X142033971Y-85219510D01*
X141911533Y-85238987D01*
X141691385Y-85250093D01*
X141353264Y-85255180D01*
X140876907Y-85256598D01*
X140558501Y-85256667D01*
X139992407Y-85255402D01*
X139570344Y-85250061D01*
X139267016Y-85238318D01*
X139057132Y-85217850D01*
X138915397Y-85186332D01*
X138816518Y-85141440D01*
X138746213Y-85090150D01*
X138546333Y-84923633D01*
X140205377Y-84920817D01*
X140777589Y-84920858D01*
G37*
G36*
X134324503Y-84249306D02*
G01*
X134567263Y-84274368D01*
X134654447Y-84314571D01*
X134651666Y-84325333D01*
X134548396Y-84363996D01*
X134318744Y-84393395D01*
X134005604Y-84408794D01*
X133884669Y-84410000D01*
X133535949Y-84400576D01*
X133289219Y-84374677D01*
X133174538Y-84335865D01*
X133170000Y-84325333D01*
X133249963Y-84284841D01*
X133471471Y-84255932D01*
X133806950Y-84241651D01*
X133936996Y-84240667D01*
X134324503Y-84249306D01*
G37*
G36*
X106711384Y-86188312D02*
G01*
X107185336Y-86190414D01*
X107527376Y-86196057D01*
X107756216Y-86206990D01*
X107890565Y-86224966D01*
X107949135Y-86251732D01*
X107950637Y-86289041D01*
X107913782Y-86338642D01*
X107897000Y-86357333D01*
X107835340Y-86414733D01*
X107753010Y-86457492D01*
X107626330Y-86487751D01*
X107431622Y-86507652D01*
X107145207Y-86519335D01*
X106743406Y-86524942D01*
X106202541Y-86526612D01*
X106024189Y-86526667D01*
X105442257Y-86525842D01*
X105006821Y-86521944D01*
X104695050Y-86512837D01*
X104484108Y-86496385D01*
X104351164Y-86470452D01*
X104273382Y-86432902D01*
X104227930Y-86381599D01*
X104214000Y-86357333D01*
X104189702Y-86303448D01*
X104194880Y-86262409D01*
X104248873Y-86232467D01*
X104371022Y-86211873D01*
X104580669Y-86198879D01*
X104897153Y-86191736D01*
X105339815Y-86188696D01*
X105927997Y-86188009D01*
X106086810Y-86188000D01*
X106711384Y-86188312D01*
G37*
G36*
X109803062Y-83576597D02*
G01*
X109991532Y-83581323D01*
X110366535Y-83597341D01*
X110603934Y-83621617D01*
X110735453Y-83660899D01*
X110792813Y-83721942D01*
X110802073Y-83753833D01*
X110798774Y-83824525D01*
X110735695Y-83868503D01*
X110582475Y-83891923D01*
X110308752Y-83900941D01*
X110071266Y-83902000D01*
X109694198Y-83896423D01*
X109454650Y-83876216D01*
X109321071Y-83836166D01*
X109261908Y-83771061D01*
X109260725Y-83768075D01*
X109215833Y-83631228D01*
X109209333Y-83595565D01*
X109287717Y-83581218D01*
X109498042Y-83574669D01*
X109803062Y-83576597D01*
G37*
G36*
X106013166Y-86872240D02*
G01*
X106502084Y-86875638D01*
X106840638Y-86881492D01*
X107047798Y-86892446D01*
X107142534Y-86911145D01*
X107143815Y-86940233D01*
X107070611Y-86982354D01*
X107008000Y-87010911D01*
X106656631Y-87112568D01*
X106210190Y-87165959D01*
X105736567Y-87168825D01*
X105303653Y-87118908D01*
X105124166Y-87073605D01*
X104893802Y-86992648D01*
X104748292Y-86927630D01*
X104722000Y-86905104D01*
X104801823Y-86891798D01*
X105021943Y-86881294D01*
X105353338Y-86874333D01*
X105766983Y-86871653D01*
X106013166Y-86872240D01*
G37*
G36*
X112446896Y-82988409D02*
G01*
X112798713Y-83006210D01*
X113014523Y-83034514D01*
X113127633Y-83081249D01*
X113171350Y-83154343D01*
X113172771Y-83161167D01*
X113169221Y-83233151D01*
X113104301Y-83277343D01*
X112947091Y-83300310D01*
X112666668Y-83308621D01*
X112475208Y-83309333D01*
X112123740Y-83306351D01*
X111908520Y-83292159D01*
X111796495Y-83258892D01*
X111754614Y-83198683D01*
X111749333Y-83136576D01*
X111761027Y-83052126D01*
X111818601Y-83002817D01*
X111955793Y-82981482D01*
X112206338Y-82980955D01*
X112446896Y-82988409D01*
G37*
G36*
X122718016Y-86867657D02*
G01*
X122964702Y-86878716D01*
X123103372Y-86904639D01*
X123164677Y-86951556D01*
X123179264Y-87025598D01*
X123179333Y-87034667D01*
X123166999Y-87113938D01*
X123108879Y-87163718D01*
X122973296Y-87190794D01*
X122728574Y-87201954D01*
X122389111Y-87204000D01*
X122038618Y-87198308D01*
X121754780Y-87183041D01*
X121578307Y-87160914D01*
X121542444Y-87147555D01*
X121489251Y-87019144D01*
X121486000Y-86978222D01*
X121526937Y-86924108D01*
X121665584Y-86889366D01*
X121925692Y-86870830D01*
X122331014Y-86865333D01*
X122332666Y-86865333D01*
X122718016Y-86867657D01*
G37*
G36*
X137059930Y-86868955D02*
G01*
X137305156Y-86884279D01*
X137451604Y-86917997D01*
X137534518Y-86976798D01*
X137572666Y-87034667D01*
X137606000Y-87111856D01*
X137587834Y-87161115D01*
X137490617Y-87188706D01*
X137286802Y-87200892D01*
X136948840Y-87203934D01*
X136827756Y-87204000D01*
X136467063Y-87198609D01*
X136172354Y-87184099D01*
X135983028Y-87162963D01*
X135935777Y-87147555D01*
X135882584Y-87019144D01*
X135879333Y-86978222D01*
X135921434Y-86922762D01*
X136063731Y-86887729D01*
X136330213Y-86869743D01*
X136680687Y-86865333D01*
X137059930Y-86868955D01*
G37*
G36*
X112866116Y-83570615D02*
G01*
X113128750Y-83598874D01*
X113279211Y-83657727D01*
X113345889Y-83756794D01*
X113358000Y-83866591D01*
X113279023Y-83880799D01*
X113064839Y-83892288D01*
X112749570Y-83899765D01*
X112423687Y-83902000D01*
X112017300Y-83900661D01*
X111753818Y-83893107D01*
X111606815Y-83874036D01*
X111549865Y-83838142D01*
X111556542Y-83780123D01*
X111580000Y-83732667D01*
X111640225Y-83652545D01*
X111740332Y-83602382D01*
X111915799Y-83575374D01*
X112202101Y-83564716D01*
X112462920Y-83563333D01*
X112866116Y-83570615D01*
G37*
G36*
X145623265Y-86188302D02*
G01*
X146104599Y-86190337D01*
X146453691Y-86195801D01*
X146689086Y-86206389D01*
X146829331Y-86223797D01*
X146892971Y-86249719D01*
X146898552Y-86285850D01*
X146864619Y-86333886D01*
X146843666Y-86357333D01*
X146782778Y-86414116D01*
X146701521Y-86456589D01*
X146576551Y-86486818D01*
X146384522Y-86506866D01*
X146102092Y-86518797D01*
X145705915Y-86524675D01*
X145172648Y-86526565D01*
X144928523Y-86526667D01*
X144338628Y-86525878D01*
X143895534Y-86522140D01*
X143576709Y-86513393D01*
X143359623Y-86497577D01*
X143221745Y-86472633D01*
X143140544Y-86436502D01*
X143093490Y-86387124D01*
X143076000Y-86357333D01*
X143051909Y-86303949D01*
X143056894Y-86263158D01*
X143110111Y-86233266D01*
X143230715Y-86212580D01*
X143437862Y-86199406D01*
X143750709Y-86192051D01*
X144188412Y-86188819D01*
X144770126Y-86188019D01*
X144991143Y-86188000D01*
X145623265Y-86188302D01*
G37*
G36*
X105046171Y-85515915D02*
G01*
X105269668Y-85536683D01*
X105398559Y-85580503D01*
X105470113Y-85654908D01*
X105478595Y-85669902D01*
X105514125Y-85785094D01*
X105434556Y-85848733D01*
X105301657Y-85881568D01*
X105072738Y-85910131D01*
X104755157Y-85929174D01*
X104509624Y-85934000D01*
X104212402Y-85926639D01*
X104043355Y-85896747D01*
X103961668Y-85832608D01*
X103936749Y-85769569D01*
X103921887Y-85613389D01*
X103940986Y-85557902D01*
X104041946Y-85536177D01*
X104269273Y-85519724D01*
X104580020Y-85511251D01*
X104690798Y-85510667D01*
X105046171Y-85515915D01*
G37*
G36*
X120144703Y-84258315D02*
G01*
X120158652Y-84258750D01*
X120531732Y-84274843D01*
X120767340Y-84299369D01*
X120897327Y-84339162D01*
X120953546Y-84401060D01*
X120962073Y-84431167D01*
X120958769Y-84501889D01*
X120895647Y-84545873D01*
X120742333Y-84569283D01*
X120468452Y-84578284D01*
X120232082Y-84579333D01*
X119868721Y-84576037D01*
X119640276Y-84561233D01*
X119512379Y-84527546D01*
X119450664Y-84467599D01*
X119428661Y-84406917D01*
X119416544Y-84326161D01*
X119451898Y-84277050D01*
X119564916Y-84253458D01*
X119785787Y-84249255D01*
X120144703Y-84258315D01*
G37*
G36*
X114310860Y-85512202D02*
G01*
X114647089Y-85518823D01*
X114863128Y-85533547D01*
X114983542Y-85559395D01*
X115032895Y-85599386D01*
X115035753Y-85656539D01*
X115035323Y-85658833D01*
X115006676Y-85719231D01*
X114930093Y-85762065D01*
X114779050Y-85791209D01*
X114527024Y-85810535D01*
X114147490Y-85823918D01*
X113860175Y-85830449D01*
X113435385Y-85834935D01*
X113072784Y-85830839D01*
X112805285Y-85819124D01*
X112665801Y-85800753D01*
X112654726Y-85795171D01*
X112599329Y-85664271D01*
X112596000Y-85623555D01*
X112630796Y-85577798D01*
X112749370Y-85545577D01*
X112973002Y-85524946D01*
X113322970Y-85513959D01*
X113820554Y-85510667D01*
X113829874Y-85510667D01*
X114310860Y-85512202D01*
G37*
G36*
X130655536Y-83564239D02*
G01*
X131075410Y-83568491D01*
X131372907Y-83578395D01*
X131571506Y-83596254D01*
X131694683Y-83624371D01*
X131765915Y-83665052D01*
X131808679Y-83720599D01*
X131815333Y-83732666D01*
X131840062Y-83787599D01*
X131834471Y-83829148D01*
X131778835Y-83859181D01*
X131653426Y-83879567D01*
X131438519Y-83892174D01*
X131114388Y-83898870D01*
X130661305Y-83901522D01*
X130059545Y-83902000D01*
X130027189Y-83902000D01*
X129417957Y-83901666D01*
X128959003Y-83899419D01*
X128631274Y-83893388D01*
X128415716Y-83881704D01*
X128293275Y-83862497D01*
X128244895Y-83833896D01*
X128251524Y-83794032D01*
X128294106Y-83741035D01*
X128301666Y-83732667D01*
X128364965Y-83673965D01*
X128449585Y-83630618D01*
X128579919Y-83600313D01*
X128780359Y-83580743D01*
X129075297Y-83569597D01*
X129489124Y-83564565D01*
X130046234Y-83563336D01*
X130089810Y-83563333D01*
X130655536Y-83564239D01*
G37*
G36*
X146677645Y-84248796D02*
G01*
X146930915Y-84279977D01*
X147072826Y-84344393D01*
X147132120Y-84452232D01*
X147140000Y-84543925D01*
X147061466Y-84559140D01*
X146850381Y-84571081D01*
X146543518Y-84578127D01*
X146335666Y-84579333D01*
X145961830Y-84576776D01*
X145725890Y-84564697D01*
X145596438Y-84536482D01*
X145542061Y-84485519D01*
X145531333Y-84410000D01*
X145544200Y-84329157D01*
X145604409Y-84279099D01*
X145744373Y-84252537D01*
X145996503Y-84242182D01*
X146284274Y-84240667D01*
X146677645Y-84248796D01*
G37*
G36*
X102553749Y-81705616D02*
G01*
X102785307Y-81723679D01*
X102905611Y-81759678D01*
X102943598Y-81818437D01*
X102944000Y-81827667D01*
X102914304Y-81889625D01*
X102805927Y-81928218D01*
X102589930Y-81948268D01*
X102237374Y-81954600D01*
X102182000Y-81954667D01*
X101810250Y-81949717D01*
X101578692Y-81931654D01*
X101458388Y-81895655D01*
X101420401Y-81836896D01*
X101420000Y-81827667D01*
X101449695Y-81765708D01*
X101558072Y-81727115D01*
X101774069Y-81707065D01*
X102126625Y-81700733D01*
X102182000Y-81700667D01*
X102553749Y-81705616D01*
G37*
G36*
X102544034Y-86190829D02*
G01*
X102768997Y-86204092D01*
X102889116Y-86234951D01*
X102936620Y-86290567D01*
X102944000Y-86357333D01*
X102931267Y-86437785D01*
X102871584Y-86487777D01*
X102732720Y-86514470D01*
X102482447Y-86525027D01*
X102182000Y-86526667D01*
X101819965Y-86523837D01*
X101595002Y-86510574D01*
X101474883Y-86479715D01*
X101427379Y-86424099D01*
X101420000Y-86357333D01*
X101432732Y-86276881D01*
X101492415Y-86226889D01*
X101631279Y-86200196D01*
X101881552Y-86189640D01*
X102182000Y-86188000D01*
X102544034Y-86190829D01*
G37*
G36*
X115490436Y-83578829D02*
G01*
X115597445Y-83604628D01*
X115622527Y-83654625D01*
X115612048Y-83693810D01*
X115566431Y-83830404D01*
X115559333Y-83866591D01*
X115481123Y-83882531D01*
X115272299Y-83894748D01*
X114971571Y-83901352D01*
X114833458Y-83902000D01*
X114481480Y-83898468D01*
X114267845Y-83883493D01*
X114161632Y-83850509D01*
X114131921Y-83792946D01*
X114135911Y-83753833D01*
X114173680Y-83680871D01*
X114274867Y-83633227D01*
X114471771Y-83603735D01*
X114796693Y-83585226D01*
X114914500Y-83581052D01*
X115272466Y-83572535D01*
X115490436Y-83578829D01*
G37*
G36*
X122974246Y-86200760D02*
G01*
X123108006Y-86222673D01*
X123165968Y-86268433D01*
X123179261Y-86343634D01*
X123179333Y-86354267D01*
X123168434Y-86432457D01*
X123115345Y-86482605D01*
X122989474Y-86510895D01*
X122760229Y-86523510D01*
X122397021Y-86526634D01*
X122326458Y-86526667D01*
X121938915Y-86523944D01*
X121691743Y-86512311D01*
X121556022Y-86486571D01*
X121502832Y-86441527D01*
X121501939Y-86378500D01*
X121537272Y-86308578D01*
X121631895Y-86262029D01*
X121816794Y-86232588D01*
X122122956Y-86213992D01*
X122354814Y-86206101D01*
X122733558Y-86197101D01*
X122974246Y-86200760D01*
G37*
G36*
X107751396Y-84247111D02*
G01*
X108024807Y-84272449D01*
X108185073Y-84325686D01*
X108260141Y-84415830D01*
X108278000Y-84543925D01*
X108199545Y-84559319D01*
X107989014Y-84571331D01*
X107683655Y-84578279D01*
X107494032Y-84579333D01*
X107117803Y-84575330D01*
X106874424Y-84558703D01*
X106727509Y-84522527D01*
X106640671Y-84459877D01*
X106604315Y-84410000D01*
X106563573Y-84332922D01*
X106575598Y-84283695D01*
X106667376Y-84256082D01*
X106865892Y-84243845D01*
X107198131Y-84240747D01*
X107336890Y-84240667D01*
X107751396Y-84247111D01*
G37*
G36*
X111468876Y-86189542D02*
G01*
X111766269Y-86197103D01*
X111949351Y-86215084D01*
X112045631Y-86247886D01*
X112082617Y-86299911D01*
X112088000Y-86357333D01*
X112077915Y-86429231D01*
X112028828Y-86477285D01*
X111912484Y-86506272D01*
X111700631Y-86520966D01*
X111365016Y-86526142D01*
X111086111Y-86526667D01*
X110690044Y-86522152D01*
X110357890Y-86509869D01*
X110125114Y-86491708D01*
X110027777Y-86470222D01*
X109974584Y-86341811D01*
X109971333Y-86300889D01*
X110008300Y-86251894D01*
X110134138Y-86218557D01*
X110371252Y-86198485D01*
X110742047Y-86189291D01*
X111029666Y-86188000D01*
X111468876Y-86189542D01*
G37*
G36*
X118882500Y-86872240D02*
G01*
X119370931Y-86875713D01*
X119708934Y-86881739D01*
X119915413Y-86892879D01*
X120009273Y-86911690D01*
X120009419Y-86940732D01*
X119934756Y-86982563D01*
X119879589Y-87007199D01*
X119519496Y-87110015D01*
X119066036Y-87164060D01*
X118588721Y-87166870D01*
X118157061Y-87115982D01*
X117993500Y-87074034D01*
X117763164Y-86992843D01*
X117617651Y-86927672D01*
X117591333Y-86905104D01*
X117671156Y-86891798D01*
X117891277Y-86881294D01*
X118222671Y-86874333D01*
X118636316Y-86871653D01*
X118882500Y-86872240D01*
G37*
G36*
X138999589Y-84262202D02*
G01*
X139075500Y-84265488D01*
X139498451Y-84296026D01*
X139918180Y-84346550D01*
X140265275Y-84408040D01*
X140366666Y-84433244D01*
X140832333Y-84564932D01*
X139541166Y-84572133D01*
X139048706Y-84573933D01*
X138700578Y-84570778D01*
X138471790Y-84559421D01*
X138337349Y-84536614D01*
X138272264Y-84499112D01*
X138251542Y-84443665D01*
X138250000Y-84404377D01*
X138259224Y-84324519D01*
X138307657Y-84275612D01*
X138426437Y-84252416D01*
X138646701Y-84249693D01*
X138999589Y-84262202D01*
G37*
G36*
X110154036Y-84258315D02*
G01*
X110167986Y-84258750D01*
X110541066Y-84274843D01*
X110776673Y-84299369D01*
X110906660Y-84339162D01*
X110962879Y-84401060D01*
X110971407Y-84431167D01*
X110968102Y-84501889D01*
X110904980Y-84545873D01*
X110751666Y-84569283D01*
X110477785Y-84578284D01*
X110241416Y-84579333D01*
X109878055Y-84576037D01*
X109649609Y-84561233D01*
X109521713Y-84527546D01*
X109459998Y-84467599D01*
X109437995Y-84406917D01*
X109425877Y-84326161D01*
X109461231Y-84277050D01*
X109574249Y-84253458D01*
X109795120Y-84249255D01*
X110154036Y-84258315D01*
G37*
G36*
X140882926Y-86201204D02*
G01*
X141368976Y-86205552D01*
X141723217Y-86214137D01*
X141964409Y-86228193D01*
X142111309Y-86248958D01*
X142182676Y-86277668D01*
X142197266Y-86315560D01*
X142193644Y-86328216D01*
X142150288Y-86460186D01*
X142144666Y-86491258D01*
X142064857Y-86504995D01*
X141844780Y-86515281D01*
X141513464Y-86522276D01*
X141099937Y-86526139D01*
X140633226Y-86527029D01*
X140142359Y-86525105D01*
X139656364Y-86520526D01*
X139204268Y-86513452D01*
X138815100Y-86504040D01*
X138517887Y-86492451D01*
X138341657Y-86478843D01*
X138306444Y-86470222D01*
X138252617Y-86341309D01*
X138250000Y-86306453D01*
X138286150Y-86270959D01*
X138405464Y-86243721D01*
X138624231Y-86223869D01*
X138958742Y-86210534D01*
X139425290Y-86202844D01*
X140040166Y-86199931D01*
X140246310Y-86199855D01*
X140882926Y-86201204D01*
G37*
G36*
X140856289Y-82996690D02*
G01*
X140895492Y-83003379D01*
X141145688Y-83077263D01*
X141345306Y-83179601D01*
X141346790Y-83180717D01*
X141392760Y-83227427D01*
X141373772Y-83260696D01*
X141269235Y-83282720D01*
X141058560Y-83295693D01*
X140721156Y-83301810D01*
X140236435Y-83303266D01*
X140197333Y-83303251D01*
X139703297Y-83302173D01*
X139358875Y-83297835D01*
X139144352Y-83287660D01*
X139040011Y-83269073D01*
X139026133Y-83239497D01*
X139083003Y-83196358D01*
X139139000Y-83164992D01*
X139377302Y-83083824D01*
X139726308Y-83021061D01*
X140127892Y-82982052D01*
X140523927Y-82972146D01*
X140856289Y-82996690D01*
G37*
G36*
X144160633Y-84254162D02*
G01*
X144285138Y-84278452D01*
X144336281Y-84328498D01*
X144346000Y-84406823D01*
X144334617Y-84486705D01*
X144279566Y-84537224D01*
X144149496Y-84565053D01*
X143913055Y-84576865D01*
X143538889Y-84579333D01*
X143535458Y-84579333D01*
X143159464Y-84576379D01*
X142923207Y-84563787D01*
X142797137Y-84535957D01*
X142751705Y-84487295D01*
X142753259Y-84431167D01*
X142789907Y-84359572D01*
X142888073Y-84312428D01*
X143079478Y-84282981D01*
X143395847Y-84264482D01*
X143563800Y-84258656D01*
X143930831Y-84249579D01*
X144160633Y-84254162D01*
G37*
G36*
X114175085Y-86868056D02*
G01*
X114422258Y-86879689D01*
X114557981Y-86905430D01*
X114611175Y-86950475D01*
X114612073Y-87013500D01*
X114575099Y-87085512D01*
X114476061Y-87132784D01*
X114283049Y-87162187D01*
X113964154Y-87180596D01*
X113811758Y-87185875D01*
X113436476Y-87193066D01*
X113197378Y-87183170D01*
X113061786Y-87151717D01*
X112997023Y-87094239D01*
X112987225Y-87073117D01*
X112941700Y-86936714D01*
X112934666Y-86900742D01*
X113013377Y-86885927D01*
X113225702Y-86874158D01*
X113535929Y-86866915D01*
X113787541Y-86865333D01*
X114175085Y-86868056D01*
G37*
G36*
X122708017Y-83060334D02*
G01*
X122938249Y-83078582D01*
X123057364Y-83114941D01*
X123094364Y-83174278D01*
X123094666Y-83182333D01*
X123064642Y-83244789D01*
X122955155Y-83283473D01*
X122737079Y-83303330D01*
X122381289Y-83309307D01*
X122346777Y-83309333D01*
X122006418Y-83303576D01*
X121733739Y-83288189D01*
X121570640Y-83266003D01*
X121544746Y-83255191D01*
X121511388Y-83165743D01*
X121623818Y-83103842D01*
X121889302Y-83067656D01*
X122315103Y-83055355D01*
X122337663Y-83055333D01*
X122708017Y-83060334D01*
G37*
G36*
X134782381Y-83576901D02*
G01*
X135310563Y-83582890D01*
X135924074Y-83591318D01*
X136389024Y-83601001D01*
X136726187Y-83613800D01*
X136956333Y-83631577D01*
X137100235Y-83656193D01*
X137178665Y-83689510D01*
X137212394Y-83733390D01*
X137217931Y-83753833D01*
X137216702Y-83800749D01*
X137179590Y-83836602D01*
X137086983Y-83862867D01*
X136919274Y-83881018D01*
X136656852Y-83892531D01*
X136280109Y-83898879D01*
X135769434Y-83901538D01*
X135247562Y-83902000D01*
X134616625Y-83901640D01*
X134135837Y-83899412D01*
X133786015Y-83893599D01*
X133547976Y-83882481D01*
X133402535Y-83864338D01*
X133330510Y-83837451D01*
X133312717Y-83800100D01*
X133329972Y-83750568D01*
X133340194Y-83731057D01*
X133376732Y-83675588D01*
X133433478Y-83633996D01*
X133532205Y-83604645D01*
X133694686Y-83585898D01*
X133942693Y-83576116D01*
X134298000Y-83573663D01*
X134782381Y-83576901D01*
G37*
G36*
X111468329Y-86867000D02*
G01*
X111731239Y-86875594D01*
X111880786Y-86896504D01*
X111944950Y-86935120D01*
X111951712Y-86996831D01*
X111943198Y-87034667D01*
X111908753Y-87112784D01*
X111833025Y-87162425D01*
X111683315Y-87189939D01*
X111426921Y-87201676D01*
X111071183Y-87204000D01*
X110676297Y-87199223D01*
X110420095Y-87181798D01*
X110272119Y-87147086D01*
X110201910Y-87090445D01*
X110192058Y-87070075D01*
X110147230Y-86935107D01*
X110140666Y-86900742D01*
X110219609Y-86886457D01*
X110433558Y-86874931D01*
X110748191Y-86867480D01*
X111064073Y-86865333D01*
X111468329Y-86867000D01*
G37*
G36*
X115659769Y-82986163D02*
G01*
X115766778Y-83011961D01*
X115791861Y-83061958D01*
X115781381Y-83101143D01*
X115735764Y-83237738D01*
X115728666Y-83273925D01*
X115650456Y-83289865D01*
X115441632Y-83302081D01*
X115140904Y-83308686D01*
X115002791Y-83309333D01*
X114650813Y-83305801D01*
X114437178Y-83290827D01*
X114330965Y-83257842D01*
X114301254Y-83200279D01*
X114305244Y-83161167D01*
X114343013Y-83088204D01*
X114444200Y-83040560D01*
X114641105Y-83011068D01*
X114966026Y-82992559D01*
X115083834Y-82988385D01*
X115441799Y-82979868D01*
X115659769Y-82986163D01*
G37*
G36*
X111508322Y-85511846D02*
G01*
X111843227Y-85517736D01*
X112059958Y-85531864D01*
X112184093Y-85557759D01*
X112241210Y-85598948D01*
X112256886Y-85658959D01*
X112257333Y-85680000D01*
X112248783Y-85746021D01*
X112206082Y-85792215D01*
X112103652Y-85822109D01*
X111915915Y-85839231D01*
X111617293Y-85847109D01*
X111182209Y-85849272D01*
X111029666Y-85849333D01*
X110551010Y-85848154D01*
X110216105Y-85842264D01*
X109999374Y-85828136D01*
X109875239Y-85802241D01*
X109818123Y-85761052D01*
X109802446Y-85701040D01*
X109802000Y-85680000D01*
X109810549Y-85613978D01*
X109853250Y-85567785D01*
X109955681Y-85537891D01*
X110143418Y-85520769D01*
X110442039Y-85512890D01*
X110877124Y-85510728D01*
X111029666Y-85510667D01*
X111508322Y-85511846D01*
G37*
G36*
X110234742Y-82977272D02*
G01*
X110491383Y-82999545D01*
X110631276Y-83041168D01*
X110676107Y-83089389D01*
X110696294Y-83188120D01*
X110648708Y-83252302D01*
X110507431Y-83289111D01*
X110246544Y-83305722D01*
X109881613Y-83309333D01*
X109509917Y-83303473D01*
X109275380Y-83282291D01*
X109146120Y-83240383D01*
X109091391Y-83175408D01*
X109046563Y-83040441D01*
X109040000Y-83006075D01*
X109118498Y-82990781D01*
X109329340Y-82978808D01*
X109635541Y-82971805D01*
X109835274Y-82970667D01*
X110234742Y-82977272D01*
G37*
G36*
X123602638Y-84241431D02*
G01*
X124006290Y-84245357D01*
X124285969Y-84254899D01*
X124464355Y-84272507D01*
X124564126Y-84300633D01*
X124607962Y-84341729D01*
X124618543Y-84398247D01*
X124618666Y-84410000D01*
X124611598Y-84469492D01*
X124575275Y-84513130D01*
X124487017Y-84543366D01*
X124324145Y-84562651D01*
X124063979Y-84573437D01*
X123683841Y-84578176D01*
X123161050Y-84579320D01*
X123052333Y-84579333D01*
X122502028Y-84578569D01*
X122098376Y-84574642D01*
X121818696Y-84565101D01*
X121640311Y-84547493D01*
X121540539Y-84519367D01*
X121496703Y-84478271D01*
X121486123Y-84421753D01*
X121486000Y-84410000D01*
X121493067Y-84350507D01*
X121529391Y-84306869D01*
X121617649Y-84276634D01*
X121780521Y-84257349D01*
X122040686Y-84246563D01*
X122420825Y-84241824D01*
X122943616Y-84240680D01*
X123052333Y-84240667D01*
X123602638Y-84241431D01*
G37*
G36*
X145212080Y-82999583D02*
G01*
X145582578Y-83042659D01*
X145597233Y-83045542D01*
X145942437Y-83124041D01*
X146122835Y-83188103D01*
X146137670Y-83238047D01*
X145986184Y-83274190D01*
X145667618Y-83296853D01*
X145181215Y-83306353D01*
X144976766Y-83306640D01*
X144490757Y-83303892D01*
X144153472Y-83296559D01*
X143944316Y-83282395D01*
X143842698Y-83259150D01*
X143828023Y-83224575D01*
X143867328Y-83185505D01*
X144080270Y-83093596D01*
X144409596Y-83029204D01*
X144803976Y-82996482D01*
X145212080Y-82999583D01*
G37*
G36*
X112818897Y-84243427D02*
G01*
X113140779Y-84250949D01*
X113359591Y-84262091D01*
X113442613Y-84275713D01*
X113442666Y-84276075D01*
X113469005Y-84375599D01*
X113494058Y-84445408D01*
X113497575Y-84500030D01*
X113442527Y-84537606D01*
X113304385Y-84561216D01*
X113058621Y-84573937D01*
X112680706Y-84578846D01*
X112426666Y-84579333D01*
X111971172Y-84577245D01*
X111660453Y-84568930D01*
X111469982Y-84551309D01*
X111375229Y-84521305D01*
X111351666Y-84475841D01*
X111359274Y-84445408D01*
X111404103Y-84310441D01*
X111410666Y-84276075D01*
X111489877Y-84262406D01*
X111705695Y-84251188D01*
X112025401Y-84243562D01*
X112416273Y-84240668D01*
X112426666Y-84240667D01*
X112818897Y-84243427D01*
G37*
G36*
X119457376Y-84918395D02*
G01*
X119987549Y-84920508D01*
X120385981Y-84925731D01*
X120671468Y-84935457D01*
X120862806Y-84951079D01*
X120978791Y-84973987D01*
X121038220Y-85005575D01*
X121059887Y-85047235D01*
X121062666Y-85087333D01*
X121057236Y-85138317D01*
X121028260Y-85177886D01*
X120956705Y-85207485D01*
X120823540Y-85228560D01*
X120609733Y-85242556D01*
X120296254Y-85250918D01*
X119864070Y-85255091D01*
X119294151Y-85256522D01*
X118833111Y-85256667D01*
X118234949Y-85254605D01*
X117693158Y-85248796D01*
X117230578Y-85239804D01*
X116870050Y-85228193D01*
X116634414Y-85214527D01*
X116547111Y-85200222D01*
X116493917Y-85071811D01*
X116490666Y-85030889D01*
X116519663Y-84996206D01*
X116617668Y-84969068D01*
X116801202Y-84948660D01*
X117086785Y-84934166D01*
X117490939Y-84924770D01*
X118030183Y-84919655D01*
X118721039Y-84918007D01*
X118776666Y-84918000D01*
X119457376Y-84918395D01*
G37*
G36*
X102544034Y-82296163D02*
G01*
X102768997Y-82309426D01*
X102889116Y-82340284D01*
X102936620Y-82395900D01*
X102944000Y-82462667D01*
X102931267Y-82543119D01*
X102871584Y-82593110D01*
X102732720Y-82619803D01*
X102482447Y-82630360D01*
X102182000Y-82632000D01*
X101819965Y-82629170D01*
X101595002Y-82615907D01*
X101474883Y-82585049D01*
X101427379Y-82529433D01*
X101420000Y-82462667D01*
X101432732Y-82382214D01*
X101492415Y-82332223D01*
X101631279Y-82305530D01*
X101881552Y-82294973D01*
X102182000Y-82293333D01*
X102544034Y-82296163D01*
G37*
G36*
X102544034Y-86868163D02*
G01*
X102768997Y-86881426D01*
X102889116Y-86912284D01*
X102936620Y-86967900D01*
X102944000Y-87034667D01*
X102931267Y-87115119D01*
X102871584Y-87165110D01*
X102732720Y-87191803D01*
X102482447Y-87202360D01*
X102182000Y-87204000D01*
X101819965Y-87201170D01*
X101595002Y-87187907D01*
X101474883Y-87157049D01*
X101427379Y-87101433D01*
X101420000Y-87034667D01*
X101432732Y-86954214D01*
X101492415Y-86904223D01*
X101631279Y-86877530D01*
X101881552Y-86866973D01*
X102182000Y-86865333D01*
X102544034Y-86868163D01*
G37*
G36*
X108103346Y-85521684D02*
G01*
X108223399Y-85544444D01*
X108267276Y-85593979D01*
X108265996Y-85677270D01*
X108263149Y-85697906D01*
X108240967Y-85787265D01*
X108183440Y-85845273D01*
X108058232Y-85880210D01*
X107833002Y-85900354D01*
X107475414Y-85913985D01*
X107411767Y-85915880D01*
X106587869Y-85940093D01*
X106659254Y-85746546D01*
X106705404Y-85654798D01*
X106785305Y-85595928D01*
X106934168Y-85560923D01*
X107187203Y-85540767D01*
X107510635Y-85528572D01*
X107876097Y-85518720D01*
X108103346Y-85521684D01*
G37*
G36*
X117838169Y-84243223D02*
G01*
X118074109Y-84255303D01*
X118203561Y-84283518D01*
X118257938Y-84334481D01*
X118268666Y-84410000D01*
X118257151Y-84486734D01*
X118202278Y-84535999D01*
X118073555Y-84563827D01*
X117840487Y-84576252D01*
X117472583Y-84579309D01*
X117412941Y-84579333D01*
X117024160Y-84576302D01*
X116777366Y-84564180D01*
X116645274Y-84538424D01*
X116600600Y-84494492D01*
X116608608Y-84445408D01*
X116653436Y-84310441D01*
X116660000Y-84276075D01*
X116738533Y-84260859D01*
X116949618Y-84248919D01*
X117256481Y-84241873D01*
X117464333Y-84240667D01*
X117838169Y-84243223D01*
G37*
G36*
X102544034Y-83566163D02*
G01*
X102768997Y-83579426D01*
X102889116Y-83610284D01*
X102936620Y-83665900D01*
X102944000Y-83732667D01*
X102931267Y-83813119D01*
X102871584Y-83863110D01*
X102732720Y-83889803D01*
X102482447Y-83900360D01*
X102182000Y-83902000D01*
X101819965Y-83899170D01*
X101595002Y-83885907D01*
X101474883Y-83855049D01*
X101427379Y-83799433D01*
X101420000Y-83732667D01*
X101432732Y-83652214D01*
X101492415Y-83602223D01*
X101631279Y-83575530D01*
X101881552Y-83564973D01*
X102182000Y-83563333D01*
X102544034Y-83566163D01*
G37*
G36*
X140750148Y-83691455D02*
G01*
X141197256Y-83695949D01*
X141517607Y-83705505D01*
X141732484Y-83721814D01*
X141863172Y-83746568D01*
X141930955Y-83781456D01*
X141957117Y-83828170D01*
X141958269Y-83833590D01*
X141955178Y-83880800D01*
X141911714Y-83916411D01*
X141807531Y-83942047D01*
X141622283Y-83959331D01*
X141335623Y-83969886D01*
X140927205Y-83975335D01*
X140376682Y-83977301D01*
X140154881Y-83977464D01*
X139551856Y-83976728D01*
X139097797Y-83972981D01*
X138772341Y-83964604D01*
X138555128Y-83949981D01*
X138425794Y-83927494D01*
X138363979Y-83895524D01*
X138349321Y-83852455D01*
X138351611Y-83834207D01*
X138374582Y-83786016D01*
X138436597Y-83749870D01*
X138558960Y-83724071D01*
X138762973Y-83706918D01*
X139069940Y-83696713D01*
X139501162Y-83691755D01*
X140077943Y-83690345D01*
X140155000Y-83690333D01*
X140750148Y-83691455D01*
G37*
G36*
X130667689Y-86871424D02*
G01*
X131054825Y-86889964D01*
X131275528Y-86921351D01*
X131331034Y-86965983D01*
X131222581Y-87024260D01*
X130951402Y-87096580D01*
X130879070Y-87112481D01*
X130169426Y-87193861D01*
X129487904Y-87120875D01*
X129337462Y-87084026D01*
X129091913Y-87010383D01*
X128920034Y-86944831D01*
X128878851Y-86920407D01*
X128938996Y-86901459D01*
X129141052Y-86885326D01*
X129457602Y-86873233D01*
X129861231Y-86866403D01*
X130112885Y-86865333D01*
X130667689Y-86871424D01*
G37*
G36*
X130541913Y-86189499D02*
G01*
X131028023Y-86193700D01*
X131428720Y-86200160D01*
X131720111Y-86208434D01*
X131878305Y-86218079D01*
X131900000Y-86223408D01*
X131873661Y-86322933D01*
X131848608Y-86392742D01*
X131812291Y-86438275D01*
X131728861Y-86472358D01*
X131576984Y-86496579D01*
X131335325Y-86512525D01*
X130982548Y-86521782D01*
X130497318Y-86525940D01*
X130048641Y-86526667D01*
X129460863Y-86525837D01*
X129019594Y-86521960D01*
X128702013Y-86512950D01*
X128485299Y-86496725D01*
X128346630Y-86471199D01*
X128263186Y-86434289D01*
X128212144Y-86383912D01*
X128194315Y-86357333D01*
X128164615Y-86302742D01*
X128165672Y-86261359D01*
X128216926Y-86231354D01*
X128337819Y-86210900D01*
X128547792Y-86198166D01*
X128866285Y-86191325D01*
X129312740Y-86188546D01*
X129906598Y-86188002D01*
X129994282Y-86188000D01*
X130541913Y-86189499D01*
G37*
G36*
X107948553Y-84923413D02*
G01*
X108195494Y-84942155D01*
X108324937Y-84977980D01*
X108362665Y-85034642D01*
X108362666Y-85035125D01*
X108291155Y-85145588D01*
X108172166Y-85203302D01*
X107980140Y-85232623D01*
X107704431Y-85249478D01*
X107397148Y-85253984D01*
X107110401Y-85246261D01*
X106896299Y-85226426D01*
X106810444Y-85200222D01*
X106757251Y-85071811D01*
X106754000Y-85030889D01*
X106796020Y-84975521D01*
X106938063Y-84940506D01*
X107204106Y-84922481D01*
X107558333Y-84918000D01*
X107948553Y-84923413D01*
G37*
G36*
X102542717Y-82887685D02*
G01*
X102766686Y-82898776D01*
X102886493Y-82928323D01*
X102934724Y-82985378D01*
X102943962Y-83078993D01*
X102944000Y-83097667D01*
X102937932Y-83197866D01*
X102898006Y-83260079D01*
X102791636Y-83293359D01*
X102586237Y-83306757D01*
X102249223Y-83309323D01*
X102182000Y-83309333D01*
X101821282Y-83307648D01*
X101597313Y-83296557D01*
X101477506Y-83267010D01*
X101429275Y-83209955D01*
X101420037Y-83116340D01*
X101420000Y-83097667D01*
X101426067Y-82997467D01*
X101465993Y-82935254D01*
X101572363Y-82901974D01*
X101777762Y-82888576D01*
X102114776Y-82886010D01*
X102182000Y-82886000D01*
X102542717Y-82887685D01*
G37*
G36*
X102544034Y-85513496D02*
G01*
X102768997Y-85526759D01*
X102889116Y-85557618D01*
X102936620Y-85613234D01*
X102944000Y-85680000D01*
X102931267Y-85760452D01*
X102871584Y-85810444D01*
X102732720Y-85837137D01*
X102482447Y-85847693D01*
X102182000Y-85849333D01*
X101819965Y-85846504D01*
X101595002Y-85833241D01*
X101474883Y-85802382D01*
X101427379Y-85746766D01*
X101420000Y-85680000D01*
X101432732Y-85599548D01*
X101492415Y-85549556D01*
X101631279Y-85522863D01*
X101881552Y-85512306D01*
X102182000Y-85510667D01*
X102544034Y-85513496D01*
G37*
G36*
X145569991Y-84918408D02*
G01*
X146093287Y-84920586D01*
X146485194Y-84925967D01*
X146764683Y-84935981D01*
X146950727Y-84952061D01*
X147062296Y-84975640D01*
X147118363Y-85008147D01*
X147137900Y-85051016D01*
X147140000Y-85087333D01*
X147134595Y-85138175D01*
X147105733Y-85177669D01*
X147034441Y-85207247D01*
X146901749Y-85228341D01*
X146688684Y-85242382D01*
X146376274Y-85250802D01*
X145945548Y-85255034D01*
X145377534Y-85256508D01*
X144896333Y-85256667D01*
X144222675Y-85256259D01*
X143699379Y-85254080D01*
X143307472Y-85248700D01*
X143027982Y-85238685D01*
X142841939Y-85222605D01*
X142730369Y-85199027D01*
X142674302Y-85166519D01*
X142654766Y-85123650D01*
X142652666Y-85087333D01*
X142658071Y-85036491D01*
X142686933Y-84996997D01*
X142758225Y-84967419D01*
X142890917Y-84946326D01*
X143103982Y-84932285D01*
X143416392Y-84923864D01*
X143847118Y-84919633D01*
X144415132Y-84918158D01*
X144896333Y-84918000D01*
X145569991Y-84918408D01*
G37*
G36*
X124294961Y-83578256D02*
G01*
X124469811Y-83593219D01*
X124566788Y-83620040D01*
X124608749Y-83660913D01*
X124618553Y-83718033D01*
X124618666Y-83730757D01*
X124611980Y-83790808D01*
X124576826Y-83834886D01*
X124490558Y-83865456D01*
X124330531Y-83884984D01*
X124074099Y-83895937D01*
X123698618Y-83900780D01*
X123181442Y-83901980D01*
X123046125Y-83902000D01*
X122493470Y-83900928D01*
X122088183Y-83896308D01*
X121808301Y-83886032D01*
X121631865Y-83867992D01*
X121536914Y-83840083D01*
X121501487Y-83800196D01*
X121502049Y-83753833D01*
X121526290Y-83700884D01*
X121591032Y-83661416D01*
X121719182Y-83632935D01*
X121933649Y-83612946D01*
X122257341Y-83598954D01*
X122713167Y-83588464D01*
X123074590Y-83582590D01*
X123620209Y-83575135D01*
X124019380Y-83572960D01*
X124294961Y-83578256D01*
G37*
G36*
X139235474Y-85774030D02*
G01*
X139483665Y-85799784D01*
X139599767Y-85838421D01*
X139604666Y-85849333D01*
X139525074Y-85890565D01*
X139306169Y-85919764D01*
X138977753Y-85933423D01*
X138885000Y-85934000D01*
X138534525Y-85924636D01*
X138286334Y-85898882D01*
X138170232Y-85860245D01*
X138165333Y-85849333D01*
X138244925Y-85808101D01*
X138463830Y-85778902D01*
X138792246Y-85765243D01*
X138885000Y-85764667D01*
X139235474Y-85774030D01*
G37*
G36*
X102544034Y-84920829D02*
G01*
X102768997Y-84934092D01*
X102889116Y-84964951D01*
X102936620Y-85020567D01*
X102944000Y-85087333D01*
X102931267Y-85167785D01*
X102871584Y-85217777D01*
X102732720Y-85244470D01*
X102482447Y-85255027D01*
X102182000Y-85256667D01*
X101819965Y-85253837D01*
X101595002Y-85240574D01*
X101474883Y-85209715D01*
X101427379Y-85154099D01*
X101420000Y-85087333D01*
X101432732Y-85006881D01*
X101492415Y-84956889D01*
X101631279Y-84930196D01*
X101881552Y-84919640D01*
X102182000Y-84918000D01*
X102544034Y-84920829D01*
G37*
G36*
X140731924Y-86875542D02*
G01*
X141108432Y-86881120D01*
X141352218Y-86891037D01*
X141481588Y-86907355D01*
X141514847Y-86932140D01*
X141470300Y-86967454D01*
X141388523Y-87005730D01*
X141090519Y-87089952D01*
X140683079Y-87145885D01*
X140224092Y-87171262D01*
X139771444Y-87163815D01*
X139383023Y-87121276D01*
X139243462Y-87089757D01*
X138998294Y-87012907D01*
X138826437Y-86945350D01*
X138784851Y-86920407D01*
X138846545Y-86902981D01*
X139051736Y-86888611D01*
X139374605Y-86878174D01*
X139789328Y-86872545D01*
X140204388Y-86872240D01*
X140731924Y-86875542D01*
G37*
G36*
X145030388Y-86872240D02*
G01*
X145522087Y-86875665D01*
X145863310Y-86881573D01*
X146072917Y-86892507D01*
X146169766Y-86911015D01*
X146172716Y-86939641D01*
X146100624Y-86980931D01*
X146039333Y-87008430D01*
X145715377Y-87102519D01*
X145298610Y-87159618D01*
X144853647Y-87177053D01*
X144445103Y-87152148D01*
X144149200Y-87086694D01*
X143933132Y-86998788D01*
X143792853Y-86928607D01*
X143775255Y-86915478D01*
X143837288Y-86898737D01*
X144041234Y-86885263D01*
X144359688Y-86875998D01*
X144765245Y-86871887D01*
X145030388Y-86872240D01*
G37*
G36*
X106634245Y-83564455D02*
G01*
X107047364Y-83569440D01*
X107340890Y-83580712D01*
X107539690Y-83600698D01*
X107668632Y-83631824D01*
X107752582Y-83676516D01*
X107812333Y-83732667D01*
X107858244Y-83787475D01*
X107870924Y-83828962D01*
X107831363Y-83858982D01*
X107720547Y-83879390D01*
X107519465Y-83892040D01*
X107209104Y-83898789D01*
X106770452Y-83901490D01*
X106184497Y-83901998D01*
X106076666Y-83902000D01*
X105465578Y-83901669D01*
X105004810Y-83899440D01*
X104675352Y-83893458D01*
X104458190Y-83881868D01*
X104334314Y-83862816D01*
X104284710Y-83834445D01*
X104290366Y-83794903D01*
X104332271Y-83742333D01*
X104341000Y-83732667D01*
X104405385Y-83673109D01*
X104491532Y-83629384D01*
X104624307Y-83599066D01*
X104828578Y-83579728D01*
X105129211Y-83568945D01*
X105551073Y-83564289D01*
X106076666Y-83563333D01*
X106634245Y-83564455D01*
G37*
G36*
X117173469Y-85523598D02*
G01*
X117399852Y-85528767D01*
X117786100Y-85544064D01*
X118034005Y-85566753D01*
X118174554Y-85603097D01*
X118238734Y-85659362D01*
X118252727Y-85701167D01*
X118249692Y-85770317D01*
X118188731Y-85814008D01*
X118040156Y-85837930D01*
X117774278Y-85847770D01*
X117479599Y-85849333D01*
X117091476Y-85844275D01*
X116841601Y-85825868D01*
X116699104Y-85789266D01*
X116633113Y-85729620D01*
X116626725Y-85715408D01*
X116581835Y-85578627D01*
X116575333Y-85543009D01*
X116653886Y-85528976D01*
X116865358Y-85522296D01*
X117173469Y-85523598D01*
G37*
G36*
X135932736Y-83042335D02*
G01*
X136260119Y-83104537D01*
X136445111Y-83187290D01*
X136483474Y-83231099D01*
X136451692Y-83262580D01*
X136329792Y-83283675D01*
X136097802Y-83296326D01*
X135735747Y-83302476D01*
X135244333Y-83304066D01*
X134711161Y-83299659D01*
X134323412Y-83286640D01*
X134088258Y-83265466D01*
X134012872Y-83236596D01*
X134023249Y-83226046D01*
X134288263Y-83125793D01*
X134657687Y-83056560D01*
X135085552Y-83019082D01*
X135525891Y-83014095D01*
X135932736Y-83042335D01*
G37*
G36*
X112897005Y-84918182D02*
G01*
X113229089Y-84936451D01*
X113476454Y-84965138D01*
X113602945Y-85004304D01*
X113612000Y-85019600D01*
X113636990Y-85078504D01*
X113713599Y-85019600D01*
X113857020Y-84964743D01*
X114141938Y-84929753D01*
X114524141Y-84918000D01*
X114871141Y-84921668D01*
X115080090Y-84937203D01*
X115182195Y-84971399D01*
X115208662Y-85031054D01*
X115204570Y-85066167D01*
X115186251Y-85107262D01*
X115137287Y-85140286D01*
X115040410Y-85166299D01*
X114878350Y-85186361D01*
X114633838Y-85201533D01*
X114289607Y-85212875D01*
X113828387Y-85221449D01*
X113232909Y-85228314D01*
X112485905Y-85234531D01*
X112460033Y-85234726D01*
X111798096Y-85238009D01*
X111191033Y-85237783D01*
X110659406Y-85234311D01*
X110223776Y-85227854D01*
X109904706Y-85218673D01*
X109722757Y-85207030D01*
X109688337Y-85199448D01*
X109635890Y-85071880D01*
X109632666Y-85030889D01*
X109709106Y-84973833D01*
X109907403Y-84934852D01*
X110181024Y-84914167D01*
X110483438Y-84912005D01*
X110768113Y-84928587D01*
X110988514Y-84964137D01*
X111098110Y-85018880D01*
X111100593Y-85023833D01*
X111138847Y-85086225D01*
X111149982Y-85023833D01*
X111231161Y-84980908D01*
X111444541Y-84948026D01*
X111753969Y-84925251D01*
X112123291Y-84912643D01*
X112516354Y-84910266D01*
X112897005Y-84918182D01*
G37*
G36*
X145512518Y-83564348D02*
G01*
X145941155Y-83568889D01*
X146248690Y-83579198D01*
X146459238Y-83597519D01*
X146596910Y-83626094D01*
X146685821Y-83667168D01*
X146750084Y-83722983D01*
X146759000Y-83732667D01*
X146804054Y-83786435D01*
X146816830Y-83827414D01*
X146778656Y-83857342D01*
X146670860Y-83877954D01*
X146474774Y-83890988D01*
X146171725Y-83898180D01*
X145743042Y-83901267D01*
X145170055Y-83901986D01*
X144938666Y-83902000D01*
X144312276Y-83901691D01*
X143836548Y-83899605D01*
X143492812Y-83894006D01*
X143262397Y-83883156D01*
X143126631Y-83865320D01*
X143066845Y-83838760D01*
X143064366Y-83801739D01*
X143100525Y-83752521D01*
X143118333Y-83732667D01*
X143180992Y-83674471D01*
X143264718Y-83631350D01*
X143393623Y-83601060D01*
X143591822Y-83581358D01*
X143883428Y-83570001D01*
X144292554Y-83564745D01*
X144843313Y-83563349D01*
X144938666Y-83563333D01*
X145512518Y-83564348D01*
G37*
G36*
X129122733Y-84246961D02*
G01*
X129404674Y-84263933D01*
X129577317Y-84288716D01*
X129614000Y-84308400D01*
X129568060Y-84430938D01*
X129417195Y-84513317D01*
X129141832Y-84560842D01*
X128722399Y-84578816D01*
X128614341Y-84579333D01*
X128241952Y-84575976D01*
X128010799Y-84562545D01*
X127892858Y-84534004D01*
X127860106Y-84485316D01*
X127869274Y-84445408D01*
X127914103Y-84310441D01*
X127920666Y-84276075D01*
X127999355Y-84261211D01*
X128211528Y-84249420D01*
X128521340Y-84242200D01*
X128767333Y-84240667D01*
X129122733Y-84246961D01*
G37*
G36*
X130480579Y-83008811D02*
G01*
X130723199Y-83066889D01*
X130955293Y-83153951D01*
X131053479Y-83218652D01*
X131010418Y-83263756D01*
X130818769Y-83292030D01*
X130471194Y-83306237D01*
X130079666Y-83309333D01*
X129667355Y-83304101D01*
X129343678Y-83289641D01*
X129134304Y-83267809D01*
X129064904Y-83240459D01*
X129067900Y-83236222D01*
X129316343Y-83099117D01*
X129672094Y-83011679D01*
X130078917Y-82979659D01*
X130480579Y-83008811D01*
G37*
G36*
X133734611Y-86189337D02*
G01*
X134067715Y-86202323D01*
X134359737Y-86221637D01*
X134568679Y-86246144D01*
X134651666Y-86272667D01*
X134762850Y-86327129D01*
X134972861Y-86355959D01*
X135032666Y-86357333D01*
X135256432Y-86337363D01*
X135398946Y-86287854D01*
X135413666Y-86272667D01*
X135516622Y-86236971D01*
X135755435Y-86209131D01*
X136096702Y-86192035D01*
X136392330Y-86188000D01*
X136798632Y-86189968D01*
X137064964Y-86199448D01*
X137220674Y-86221807D01*
X137295110Y-86262407D01*
X137317621Y-86326615D01*
X137318666Y-86357333D01*
X137313169Y-86408699D01*
X137283884Y-86448468D01*
X137211618Y-86478122D01*
X137077181Y-86499144D01*
X136861379Y-86513016D01*
X136545022Y-86521220D01*
X136108917Y-86525240D01*
X135533872Y-86526557D01*
X135126391Y-86526667D01*
X134452669Y-86525623D01*
X133929224Y-86521735D01*
X133537007Y-86513865D01*
X133256970Y-86500876D01*
X133070065Y-86481632D01*
X132957245Y-86454994D01*
X132899460Y-86419828D01*
X132882725Y-86392742D01*
X132837896Y-86257774D01*
X132831333Y-86223408D01*
X132908787Y-86199715D01*
X133113149Y-86186897D01*
X133402424Y-86183816D01*
X133734611Y-86189337D01*
G37*
G36*
X143905442Y-85513773D02*
G01*
X144143229Y-85527592D01*
X144278572Y-85558870D01*
X144344894Y-85614356D01*
X144370532Y-85680000D01*
X144380922Y-85757167D01*
X144343920Y-85806465D01*
X144230365Y-85834109D01*
X144011094Y-85846314D01*
X143656946Y-85849296D01*
X143576073Y-85849333D01*
X143192858Y-85846968D01*
X142948167Y-85835729D01*
X142811214Y-85809401D01*
X142751210Y-85761767D01*
X142737369Y-85686612D01*
X142737333Y-85680000D01*
X142749610Y-85600900D01*
X142807504Y-85551153D01*
X142942612Y-85524023D01*
X143186531Y-85512775D01*
X143531791Y-85510667D01*
X143905442Y-85513773D01*
G37*
G36*
X105444697Y-84250417D02*
G01*
X105565156Y-84268529D01*
X105597620Y-84308924D01*
X105569173Y-84377181D01*
X105550952Y-84406902D01*
X105479982Y-84490694D01*
X105369976Y-84542180D01*
X105183299Y-84568944D01*
X104882317Y-84578571D01*
X104695425Y-84579333D01*
X104337093Y-84575969D01*
X104117482Y-84561683D01*
X104006046Y-84530185D01*
X103972237Y-84475182D01*
X103975939Y-84431167D01*
X104011198Y-84361344D01*
X104105622Y-84314826D01*
X104290152Y-84285377D01*
X104595730Y-84266760D01*
X104831466Y-84258735D01*
X105209161Y-84249011D01*
X105444697Y-84250417D01*
G37*
G36*
X122780026Y-84920521D02*
G01*
X123037874Y-84931313D01*
X123183079Y-84955216D01*
X123243970Y-84997075D01*
X123248875Y-85061729D01*
X123248060Y-85066167D01*
X123212240Y-85136732D01*
X123116312Y-85183485D01*
X122928995Y-85212870D01*
X122619008Y-85231330D01*
X122412158Y-85238361D01*
X122057479Y-85242886D01*
X121768701Y-85235286D01*
X121586140Y-85217202D01*
X121545305Y-85203083D01*
X121489349Y-85071551D01*
X121486000Y-85030889D01*
X121525839Y-84978103D01*
X121661000Y-84943682D01*
X121914947Y-84924665D01*
X122311146Y-84918095D01*
X122381208Y-84918000D01*
X122780026Y-84920521D01*
G37*
G36*
X104999368Y-84920829D02*
G01*
X105224330Y-84934092D01*
X105344449Y-84964951D01*
X105391954Y-85020567D01*
X105399333Y-85087333D01*
X105386600Y-85167785D01*
X105326917Y-85217777D01*
X105188053Y-85244470D01*
X104937780Y-85255027D01*
X104637333Y-85256667D01*
X104275298Y-85253837D01*
X104050335Y-85240574D01*
X103930217Y-85209715D01*
X103882712Y-85154099D01*
X103875333Y-85087333D01*
X103888065Y-85006881D01*
X103947749Y-84956889D01*
X104086612Y-84930196D01*
X104336885Y-84919640D01*
X104637333Y-84918000D01*
X104999368Y-84920829D01*
G37*
G36*
X131762355Y-85598554D02*
G01*
X131987441Y-85612250D01*
X132103681Y-85642473D01*
X132141291Y-85695273D01*
X132138088Y-85743500D01*
X132099956Y-85816915D01*
X131997798Y-85864691D01*
X131799119Y-85894132D01*
X131471420Y-85912539D01*
X131369880Y-85916129D01*
X131014870Y-85925269D01*
X130796194Y-85919603D01*
X130681051Y-85892562D01*
X130636641Y-85837578D01*
X130630000Y-85767963D01*
X130641923Y-85686267D01*
X130699141Y-85635387D01*
X130833823Y-85608096D01*
X131078140Y-85597164D01*
X131398208Y-85595333D01*
X131762355Y-85598554D01*
G37*
G36*
X136128514Y-84918609D02*
G01*
X136572507Y-84921783D01*
X136889714Y-84929543D01*
X137101406Y-84943912D01*
X137228858Y-84966909D01*
X137293342Y-85000556D01*
X137316131Y-85046874D01*
X137318666Y-85087333D01*
X137312854Y-85140447D01*
X137282131Y-85181111D01*
X137206567Y-85210986D01*
X137066230Y-85231732D01*
X136841190Y-85245010D01*
X136511517Y-85252482D01*
X136057279Y-85255808D01*
X135458547Y-85256650D01*
X135286666Y-85256667D01*
X134720313Y-85255069D01*
X134214727Y-85250583D01*
X133793045Y-85243665D01*
X133478406Y-85234772D01*
X133293946Y-85224361D01*
X133254666Y-85216507D01*
X133321547Y-85154644D01*
X133484559Y-85057593D01*
X133504462Y-85047174D01*
X133624043Y-85001893D01*
X133798795Y-84968029D01*
X134051318Y-84944145D01*
X134404210Y-84928804D01*
X134880067Y-84920569D01*
X135501489Y-84918005D01*
X135536462Y-84918000D01*
X136128514Y-84918609D01*
G37*
G36*
X136857349Y-84242991D02*
G01*
X137104035Y-84254049D01*
X137242706Y-84279972D01*
X137304010Y-84326890D01*
X137318597Y-84400931D01*
X137318666Y-84410000D01*
X137307046Y-84487070D01*
X137251753Y-84536407D01*
X137122137Y-84564141D01*
X136887550Y-84576402D01*
X136517344Y-84579319D01*
X136472000Y-84579333D01*
X136086650Y-84577009D01*
X135839964Y-84565950D01*
X135701293Y-84540027D01*
X135639989Y-84493110D01*
X135625402Y-84419069D01*
X135625333Y-84410000D01*
X135636953Y-84332930D01*
X135692246Y-84283593D01*
X135821862Y-84255859D01*
X136056449Y-84243598D01*
X136426655Y-84240680D01*
X136472000Y-84240667D01*
X136857349Y-84242991D01*
G37*
D10*
X156840000Y-39220000D02*
X156840000Y-36560000D01*
X42000000Y-39220000D02*
X42000000Y-36560000D01*
X38690000Y-39220000D02*
X38690000Y-37890000D01*
X40020000Y-39220000D02*
X38690000Y-39220000D01*
X42000000Y-39220000D02*
X156840000Y-39220000D01*
X42000000Y-36560000D02*
X156840000Y-36560000D01*
%LPC*%
D11*
X26500000Y-135000000D03*
X65830000Y-135000000D03*
X65830000Y-30000000D03*
X223150000Y-30000000D03*
X26500000Y-30000000D03*
X183820000Y-30000000D03*
X105160000Y-135000000D03*
X105160000Y-30000000D03*
X144490000Y-30000000D03*
X183820000Y-135000000D03*
X144490000Y-135000000D03*
X223150000Y-135000000D03*
D12*
X40020000Y-37890000D03*
D13*
X43980000Y-37890000D03*
X47940000Y-37890000D03*
X51900000Y-37890000D03*
X55860000Y-37890000D03*
X59820000Y-37890000D03*
X111300000Y-37890000D03*
X115260000Y-37890000D03*
X119220000Y-37890000D03*
X123180000Y-37890000D03*
X127140000Y-37890000D03*
X131100000Y-37890000D03*
X135060000Y-37890000D03*
X139020000Y-37890000D03*
X142980000Y-37890000D03*
X146940000Y-37890000D03*
X150900000Y-37890000D03*
X154860000Y-37890000D03*
M02*
