%FSLAX45Y45*%
G04 Gerber Fmt 4.5, Leading zero omitted, Abs format (unit mm)*
G04 Created by KiCad (PCBNEW (6.0.6)) date 2022-08-19 10:50:03*
%MOMM*%
%LPD*%
G01*
G04 APERTURE LIST*
%TA.AperFunction,Profile*%
%ADD10C,0.050000*%
%TD*%
%ADD11C,0.200000*%
%ADD12C,0.040000*%
%ADD13C,0.160000*%
G04 APERTURE END LIST*
D10*
X2250000Y-2600000D02*
X22840000Y-2600000D01*
X22840000Y-2600000D02*
X22840000Y-13900000D01*
X22840000Y-13900000D02*
X2250000Y-13900000D01*
X2250000Y-13900000D02*
X2250000Y-2600000D01*
D11*
D12*
X2980000Y-3980000D02*
X3020000Y-4020000D01*
X3020000Y-3980000D02*
X2980000Y-4020000D01*
X2980000Y-4980000D02*
X3020000Y-5020000D01*
X3020000Y-4980000D02*
X2980000Y-5020000D01*
X2980000Y-5980000D02*
X3020000Y-6020000D01*
X3020000Y-5980000D02*
X2980000Y-6020000D01*
X2980000Y-6980000D02*
X3020000Y-7020000D01*
X3020000Y-6980000D02*
X2980000Y-7020000D01*
X2980000Y-7980000D02*
X3020000Y-8020000D01*
X3020000Y-7980000D02*
X2980000Y-8020000D01*
X2980000Y-8980000D02*
X3020000Y-9020000D01*
X3020000Y-8980000D02*
X2980000Y-9020000D01*
X2980000Y-9980000D02*
X3020000Y-10020000D01*
X3020000Y-9980000D02*
X2980000Y-10020000D01*
X2980000Y-10980000D02*
X3020000Y-11020000D01*
X3020000Y-10980000D02*
X2980000Y-11020000D01*
X2980000Y-11980000D02*
X3020000Y-12020000D01*
X3020000Y-11980000D02*
X2980000Y-12020000D01*
X2980000Y-12980000D02*
X3020000Y-13020000D01*
X3020000Y-12980000D02*
X2980000Y-13020000D01*
X3408500Y-4011250D02*
X3448500Y-4051250D01*
X3448500Y-4011250D02*
X3408500Y-4051250D01*
X3980000Y-4980000D02*
X4020000Y-5020000D01*
X4020000Y-4980000D02*
X3980000Y-5020000D01*
X3980000Y-5980000D02*
X4020000Y-6020000D01*
X4020000Y-5980000D02*
X3980000Y-6020000D01*
X3980000Y-6980000D02*
X4020000Y-7020000D01*
X4020000Y-6980000D02*
X3980000Y-7020000D01*
X3980000Y-7980000D02*
X4020000Y-8020000D01*
X4020000Y-7980000D02*
X3980000Y-8020000D01*
X3980000Y-8980000D02*
X4020000Y-9020000D01*
X4020000Y-8980000D02*
X3980000Y-9020000D01*
X3980000Y-9980000D02*
X4020000Y-10020000D01*
X4020000Y-9980000D02*
X3980000Y-10020000D01*
X3980000Y-10980000D02*
X4020000Y-11020000D01*
X4020000Y-10980000D02*
X3980000Y-11020000D01*
X3980000Y-11980000D02*
X4020000Y-12020000D01*
X4020000Y-11980000D02*
X3980000Y-12020000D01*
X3980000Y-12980000D02*
X4020000Y-13020000D01*
X4020000Y-12980000D02*
X3980000Y-13020000D01*
X4408500Y-4011250D02*
X4448500Y-4051250D01*
X4448500Y-4011250D02*
X4408500Y-4051250D01*
X4980000Y-4980000D02*
X5020000Y-5020000D01*
X5020000Y-4980000D02*
X4980000Y-5020000D01*
X4980000Y-5980000D02*
X5020000Y-6020000D01*
X5020000Y-5980000D02*
X4980000Y-6020000D01*
X4980000Y-6980000D02*
X5020000Y-7020000D01*
X5020000Y-6980000D02*
X4980000Y-7020000D01*
X4980000Y-7980000D02*
X5020000Y-8020000D01*
X5020000Y-7980000D02*
X4980000Y-8020000D01*
X4980000Y-8980000D02*
X5020000Y-9020000D01*
X5020000Y-8980000D02*
X4980000Y-9020000D01*
X4980000Y-9980000D02*
X5020000Y-10020000D01*
X5020000Y-9980000D02*
X4980000Y-10020000D01*
X4980000Y-10980000D02*
X5020000Y-11020000D01*
X5020000Y-10980000D02*
X4980000Y-11020000D01*
X4980000Y-11980000D02*
X5020000Y-12020000D01*
X5020000Y-11980000D02*
X4980000Y-12020000D01*
X4980000Y-12980000D02*
X5020000Y-13020000D01*
X5020000Y-12980000D02*
X4980000Y-13020000D01*
X5408500Y-4011250D02*
X5448500Y-4051250D01*
X5448500Y-4011250D02*
X5408500Y-4051250D01*
X5980000Y-4980000D02*
X6020000Y-5020000D01*
X6020000Y-4980000D02*
X5980000Y-5020000D01*
X5980000Y-5980000D02*
X6020000Y-6020000D01*
X6020000Y-5980000D02*
X5980000Y-6020000D01*
X5980000Y-6980000D02*
X6020000Y-7020000D01*
X6020000Y-6980000D02*
X5980000Y-7020000D01*
X5980000Y-7980000D02*
X6020000Y-8020000D01*
X6020000Y-7980000D02*
X5980000Y-8020000D01*
X5980000Y-8980000D02*
X6020000Y-9020000D01*
X6020000Y-8980000D02*
X5980000Y-9020000D01*
X5980000Y-9980000D02*
X6020000Y-10020000D01*
X6020000Y-9980000D02*
X5980000Y-10020000D01*
X5980000Y-10980000D02*
X6020000Y-11020000D01*
X6020000Y-10980000D02*
X5980000Y-11020000D01*
X5980000Y-11980000D02*
X6020000Y-12020000D01*
X6020000Y-11980000D02*
X5980000Y-12020000D01*
X5980000Y-12980000D02*
X6020000Y-13020000D01*
X6020000Y-12980000D02*
X5980000Y-13020000D01*
X6980000Y-3980000D02*
X7020000Y-4020000D01*
X7020000Y-3980000D02*
X6980000Y-4020000D01*
X6980000Y-4980000D02*
X7020000Y-5020000D01*
X7020000Y-4980000D02*
X6980000Y-5020000D01*
X6980000Y-5980000D02*
X7020000Y-6020000D01*
X7020000Y-5980000D02*
X6980000Y-6020000D01*
X6980000Y-6980000D02*
X7020000Y-7020000D01*
X7020000Y-6980000D02*
X6980000Y-7020000D01*
X6980000Y-7980000D02*
X7020000Y-8020000D01*
X7020000Y-7980000D02*
X6980000Y-8020000D01*
X6980000Y-8980000D02*
X7020000Y-9020000D01*
X7020000Y-8980000D02*
X6980000Y-9020000D01*
X6980000Y-9980000D02*
X7020000Y-10020000D01*
X7020000Y-9980000D02*
X6980000Y-10020000D01*
X6980000Y-10980000D02*
X7020000Y-11020000D01*
X7020000Y-10980000D02*
X6980000Y-11020000D01*
X6980000Y-11980000D02*
X7020000Y-12020000D01*
X7020000Y-11980000D02*
X6980000Y-12020000D01*
X6980000Y-12980000D02*
X7020000Y-13020000D01*
X7020000Y-12980000D02*
X6980000Y-13020000D01*
X7980000Y-3980000D02*
X8020000Y-4020000D01*
X8020000Y-3980000D02*
X7980000Y-4020000D01*
X7980000Y-4980000D02*
X8020000Y-5020000D01*
X8020000Y-4980000D02*
X7980000Y-5020000D01*
X7980000Y-5980000D02*
X8020000Y-6020000D01*
X8020000Y-5980000D02*
X7980000Y-6020000D01*
X7980000Y-6980000D02*
X8020000Y-7020000D01*
X8020000Y-6980000D02*
X7980000Y-7020000D01*
X7980000Y-7980000D02*
X8020000Y-8020000D01*
X8020000Y-7980000D02*
X7980000Y-8020000D01*
X7980000Y-8980000D02*
X8020000Y-9020000D01*
X8020000Y-8980000D02*
X7980000Y-9020000D01*
X7980000Y-9980000D02*
X8020000Y-10020000D01*
X8020000Y-9980000D02*
X7980000Y-10020000D01*
X7980000Y-10980000D02*
X8020000Y-11020000D01*
X8020000Y-10980000D02*
X7980000Y-11020000D01*
X7980000Y-11980000D02*
X8020000Y-12020000D01*
X8020000Y-11980000D02*
X7980000Y-12020000D01*
X7980000Y-12980000D02*
X8020000Y-13020000D01*
X8020000Y-12980000D02*
X7980000Y-13020000D01*
X8980000Y-3980000D02*
X9020000Y-4020000D01*
X9020000Y-3980000D02*
X8980000Y-4020000D01*
X8980000Y-4980000D02*
X9020000Y-5020000D01*
X9020000Y-4980000D02*
X8980000Y-5020000D01*
X8980000Y-5980000D02*
X9020000Y-6020000D01*
X9020000Y-5980000D02*
X8980000Y-6020000D01*
X8980000Y-6980000D02*
X9020000Y-7020000D01*
X9020000Y-6980000D02*
X8980000Y-7020000D01*
X8980000Y-7980000D02*
X9020000Y-8020000D01*
X9020000Y-7980000D02*
X8980000Y-8020000D01*
X8980000Y-8980000D02*
X9020000Y-9020000D01*
X9020000Y-8980000D02*
X8980000Y-9020000D01*
X8980000Y-9980000D02*
X9020000Y-10020000D01*
X9020000Y-9980000D02*
X8980000Y-10020000D01*
X8980000Y-10980000D02*
X9020000Y-11020000D01*
X9020000Y-10980000D02*
X8980000Y-11020000D01*
X8980000Y-11980000D02*
X9020000Y-12020000D01*
X9020000Y-11980000D02*
X8980000Y-12020000D01*
X8980000Y-12980000D02*
X9020000Y-13020000D01*
X9020000Y-12980000D02*
X8980000Y-13020000D01*
X9980000Y-3980000D02*
X10020000Y-4020000D01*
X10020000Y-3980000D02*
X9980000Y-4020000D01*
X9980000Y-4980000D02*
X10020000Y-5020000D01*
X10020000Y-4980000D02*
X9980000Y-5020000D01*
X9980000Y-5980000D02*
X10020000Y-6020000D01*
X10020000Y-5980000D02*
X9980000Y-6020000D01*
X9980000Y-6980000D02*
X10020000Y-7020000D01*
X10020000Y-6980000D02*
X9980000Y-7020000D01*
X9980000Y-7980000D02*
X10020000Y-8020000D01*
X10020000Y-7980000D02*
X9980000Y-8020000D01*
X9980000Y-8980000D02*
X10020000Y-9020000D01*
X10020000Y-8980000D02*
X9980000Y-9020000D01*
X9980000Y-9980000D02*
X10020000Y-10020000D01*
X10020000Y-9980000D02*
X9980000Y-10020000D01*
X9980000Y-10980000D02*
X10020000Y-11020000D01*
X10020000Y-10980000D02*
X9980000Y-11020000D01*
X9980000Y-11980000D02*
X10020000Y-12020000D01*
X10020000Y-11980000D02*
X9980000Y-12020000D01*
X9980000Y-12980000D02*
X10020000Y-13020000D01*
X10020000Y-12980000D02*
X9980000Y-13020000D01*
X10980000Y-3980000D02*
X11020000Y-4020000D01*
X11020000Y-3980000D02*
X10980000Y-4020000D01*
X10980000Y-4980000D02*
X11020000Y-5020000D01*
X11020000Y-4980000D02*
X10980000Y-5020000D01*
X10980000Y-5980000D02*
X11020000Y-6020000D01*
X11020000Y-5980000D02*
X10980000Y-6020000D01*
X10980000Y-6980000D02*
X11020000Y-7020000D01*
X11020000Y-6980000D02*
X10980000Y-7020000D01*
X10980000Y-7980000D02*
X11020000Y-8020000D01*
X11020000Y-7980000D02*
X10980000Y-8020000D01*
X10980000Y-8980000D02*
X11020000Y-9020000D01*
X11020000Y-8980000D02*
X10980000Y-9020000D01*
X10980000Y-9980000D02*
X11020000Y-10020000D01*
X11020000Y-9980000D02*
X10980000Y-10020000D01*
X10980000Y-10980000D02*
X11020000Y-11020000D01*
X11020000Y-10980000D02*
X10980000Y-11020000D01*
X10980000Y-11980000D02*
X11020000Y-12020000D01*
X11020000Y-11980000D02*
X10980000Y-12020000D01*
X10980000Y-12980000D02*
X11020000Y-13020000D01*
X11020000Y-12980000D02*
X10980000Y-13020000D01*
X11980000Y-3980000D02*
X12020000Y-4020000D01*
X12020000Y-3980000D02*
X11980000Y-4020000D01*
X11980000Y-4980000D02*
X12020000Y-5020000D01*
X12020000Y-4980000D02*
X11980000Y-5020000D01*
X11980000Y-5980000D02*
X12020000Y-6020000D01*
X12020000Y-5980000D02*
X11980000Y-6020000D01*
X11980000Y-6980000D02*
X12020000Y-7020000D01*
X12020000Y-6980000D02*
X11980000Y-7020000D01*
X11980000Y-7980000D02*
X12020000Y-8020000D01*
X12020000Y-7980000D02*
X11980000Y-8020000D01*
X11980000Y-8980000D02*
X12020000Y-9020000D01*
X12020000Y-8980000D02*
X11980000Y-9020000D01*
X11980000Y-9980000D02*
X12020000Y-10020000D01*
X12020000Y-9980000D02*
X11980000Y-10020000D01*
X11980000Y-10980000D02*
X12020000Y-11020000D01*
X12020000Y-10980000D02*
X11980000Y-11020000D01*
X11980000Y-11980000D02*
X12020000Y-12020000D01*
X12020000Y-11980000D02*
X11980000Y-12020000D01*
X11980000Y-12980000D02*
X12020000Y-13020000D01*
X12020000Y-12980000D02*
X11980000Y-13020000D01*
X12980000Y-3980000D02*
X13020000Y-4020000D01*
X13020000Y-3980000D02*
X12980000Y-4020000D01*
X12980000Y-4980000D02*
X13020000Y-5020000D01*
X13020000Y-4980000D02*
X12980000Y-5020000D01*
X12980000Y-5980000D02*
X13020000Y-6020000D01*
X13020000Y-5980000D02*
X12980000Y-6020000D01*
X12980000Y-6980000D02*
X13020000Y-7020000D01*
X13020000Y-6980000D02*
X12980000Y-7020000D01*
X12980000Y-7980000D02*
X13020000Y-8020000D01*
X13020000Y-7980000D02*
X12980000Y-8020000D01*
X12980000Y-8980000D02*
X13020000Y-9020000D01*
X13020000Y-8980000D02*
X12980000Y-9020000D01*
X12980000Y-9980000D02*
X13020000Y-10020000D01*
X13020000Y-9980000D02*
X12980000Y-10020000D01*
X12980000Y-10980000D02*
X13020000Y-11020000D01*
X13020000Y-10980000D02*
X12980000Y-11020000D01*
X12980000Y-11980000D02*
X13020000Y-12020000D01*
X13020000Y-11980000D02*
X12980000Y-12020000D01*
X12980000Y-12980000D02*
X13020000Y-13020000D01*
X13020000Y-12980000D02*
X12980000Y-13020000D01*
X13980000Y-3980000D02*
X14020000Y-4020000D01*
X14020000Y-3980000D02*
X13980000Y-4020000D01*
X13980000Y-4980000D02*
X14020000Y-5020000D01*
X14020000Y-4980000D02*
X13980000Y-5020000D01*
X13980000Y-5980000D02*
X14020000Y-6020000D01*
X14020000Y-5980000D02*
X13980000Y-6020000D01*
X13980000Y-6980000D02*
X14020000Y-7020000D01*
X14020000Y-6980000D02*
X13980000Y-7020000D01*
X13980000Y-7980000D02*
X14020000Y-8020000D01*
X14020000Y-7980000D02*
X13980000Y-8020000D01*
X13980000Y-8980000D02*
X14020000Y-9020000D01*
X14020000Y-8980000D02*
X13980000Y-9020000D01*
X13980000Y-9980000D02*
X14020000Y-10020000D01*
X14020000Y-9980000D02*
X13980000Y-10020000D01*
X13980000Y-10980000D02*
X14020000Y-11020000D01*
X14020000Y-10980000D02*
X13980000Y-11020000D01*
X13980000Y-11980000D02*
X14020000Y-12020000D01*
X14020000Y-11980000D02*
X13980000Y-12020000D01*
X13980000Y-12980000D02*
X14020000Y-13020000D01*
X14020000Y-12980000D02*
X13980000Y-13020000D01*
X14980000Y-3980000D02*
X15020000Y-4020000D01*
X15020000Y-3980000D02*
X14980000Y-4020000D01*
X14980000Y-4980000D02*
X15020000Y-5020000D01*
X15020000Y-4980000D02*
X14980000Y-5020000D01*
X14980000Y-5980000D02*
X15020000Y-6020000D01*
X15020000Y-5980000D02*
X14980000Y-6020000D01*
X14980000Y-6980000D02*
X15020000Y-7020000D01*
X15020000Y-6980000D02*
X14980000Y-7020000D01*
X14980000Y-7980000D02*
X15020000Y-8020000D01*
X15020000Y-7980000D02*
X14980000Y-8020000D01*
X14980000Y-8980000D02*
X15020000Y-9020000D01*
X15020000Y-8980000D02*
X14980000Y-9020000D01*
X14980000Y-9980000D02*
X15020000Y-10020000D01*
X15020000Y-9980000D02*
X14980000Y-10020000D01*
X14980000Y-10980000D02*
X15020000Y-11020000D01*
X15020000Y-10980000D02*
X14980000Y-11020000D01*
X14980000Y-11980000D02*
X15020000Y-12020000D01*
X15020000Y-11980000D02*
X14980000Y-12020000D01*
X14980000Y-12980000D02*
X15020000Y-13020000D01*
X15020000Y-12980000D02*
X14980000Y-13020000D01*
X15980000Y-3980000D02*
X16020000Y-4020000D01*
X16020000Y-3980000D02*
X15980000Y-4020000D01*
X15980000Y-4980000D02*
X16020000Y-5020000D01*
X16020000Y-4980000D02*
X15980000Y-5020000D01*
X15980000Y-5980000D02*
X16020000Y-6020000D01*
X16020000Y-5980000D02*
X15980000Y-6020000D01*
X15980000Y-6980000D02*
X16020000Y-7020000D01*
X16020000Y-6980000D02*
X15980000Y-7020000D01*
X15980000Y-7980000D02*
X16020000Y-8020000D01*
X16020000Y-7980000D02*
X15980000Y-8020000D01*
X15980000Y-8980000D02*
X16020000Y-9020000D01*
X16020000Y-8980000D02*
X15980000Y-9020000D01*
X15980000Y-9980000D02*
X16020000Y-10020000D01*
X16020000Y-9980000D02*
X15980000Y-10020000D01*
X15980000Y-10980000D02*
X16020000Y-11020000D01*
X16020000Y-10980000D02*
X15980000Y-11020000D01*
X15980000Y-11980000D02*
X16020000Y-12020000D01*
X16020000Y-11980000D02*
X15980000Y-12020000D01*
X15980000Y-12980000D02*
X16020000Y-13020000D01*
X16020000Y-12980000D02*
X15980000Y-13020000D01*
X16980000Y-3980000D02*
X17020000Y-4020000D01*
X17020000Y-3980000D02*
X16980000Y-4020000D01*
X16980000Y-4980000D02*
X17020000Y-5020000D01*
X17020000Y-4980000D02*
X16980000Y-5020000D01*
X16980000Y-5980000D02*
X17020000Y-6020000D01*
X17020000Y-5980000D02*
X16980000Y-6020000D01*
X16980000Y-6980000D02*
X17020000Y-7020000D01*
X17020000Y-6980000D02*
X16980000Y-7020000D01*
X16980000Y-7980000D02*
X17020000Y-8020000D01*
X17020000Y-7980000D02*
X16980000Y-8020000D01*
X16980000Y-8980000D02*
X17020000Y-9020000D01*
X17020000Y-8980000D02*
X16980000Y-9020000D01*
X16980000Y-9980000D02*
X17020000Y-10020000D01*
X17020000Y-9980000D02*
X16980000Y-10020000D01*
X16980000Y-10980000D02*
X17020000Y-11020000D01*
X17020000Y-10980000D02*
X16980000Y-11020000D01*
X16980000Y-11980000D02*
X17020000Y-12020000D01*
X17020000Y-11980000D02*
X16980000Y-12020000D01*
X16980000Y-12980000D02*
X17020000Y-13020000D01*
X17020000Y-12980000D02*
X16980000Y-13020000D01*
X17980000Y-3980000D02*
X18020000Y-4020000D01*
X18020000Y-3980000D02*
X17980000Y-4020000D01*
X17980000Y-4980000D02*
X18020000Y-5020000D01*
X18020000Y-4980000D02*
X17980000Y-5020000D01*
X17980000Y-5980000D02*
X18020000Y-6020000D01*
X18020000Y-5980000D02*
X17980000Y-6020000D01*
X17980000Y-6980000D02*
X18020000Y-7020000D01*
X18020000Y-6980000D02*
X17980000Y-7020000D01*
X17980000Y-7980000D02*
X18020000Y-8020000D01*
X18020000Y-7980000D02*
X17980000Y-8020000D01*
X17980000Y-8980000D02*
X18020000Y-9020000D01*
X18020000Y-8980000D02*
X17980000Y-9020000D01*
X17980000Y-9980000D02*
X18020000Y-10020000D01*
X18020000Y-9980000D02*
X17980000Y-10020000D01*
X17980000Y-10980000D02*
X18020000Y-11020000D01*
X18020000Y-10980000D02*
X17980000Y-11020000D01*
X17980000Y-11980000D02*
X18020000Y-12020000D01*
X18020000Y-11980000D02*
X17980000Y-12020000D01*
X17980000Y-12980000D02*
X18020000Y-13020000D01*
X18020000Y-12980000D02*
X17980000Y-13020000D01*
X18980000Y-3980000D02*
X19020000Y-4020000D01*
X19020000Y-3980000D02*
X18980000Y-4020000D01*
X18980000Y-4980000D02*
X19020000Y-5020000D01*
X19020000Y-4980000D02*
X18980000Y-5020000D01*
X18980000Y-5980000D02*
X19020000Y-6020000D01*
X19020000Y-5980000D02*
X18980000Y-6020000D01*
X18980000Y-6980000D02*
X19020000Y-7020000D01*
X19020000Y-6980000D02*
X18980000Y-7020000D01*
X18980000Y-7980000D02*
X19020000Y-8020000D01*
X19020000Y-7980000D02*
X18980000Y-8020000D01*
X18980000Y-8980000D02*
X19020000Y-9020000D01*
X19020000Y-8980000D02*
X18980000Y-9020000D01*
X18980000Y-9980000D02*
X19020000Y-10020000D01*
X19020000Y-9980000D02*
X18980000Y-10020000D01*
X18980000Y-10980000D02*
X19020000Y-11020000D01*
X19020000Y-10980000D02*
X18980000Y-11020000D01*
X18980000Y-11980000D02*
X19020000Y-12020000D01*
X19020000Y-11980000D02*
X18980000Y-12020000D01*
X18980000Y-12980000D02*
X19020000Y-13020000D01*
X19020000Y-12980000D02*
X18980000Y-13020000D01*
X19980000Y-3980000D02*
X20020000Y-4020000D01*
X20020000Y-3980000D02*
X19980000Y-4020000D01*
X19980000Y-4980000D02*
X20020000Y-5020000D01*
X20020000Y-4980000D02*
X19980000Y-5020000D01*
X19980000Y-5980000D02*
X20020000Y-6020000D01*
X20020000Y-5980000D02*
X19980000Y-6020000D01*
X19980000Y-6980000D02*
X20020000Y-7020000D01*
X20020000Y-6980000D02*
X19980000Y-7020000D01*
X19980000Y-7980000D02*
X20020000Y-8020000D01*
X20020000Y-7980000D02*
X19980000Y-8020000D01*
X19980000Y-8980000D02*
X20020000Y-9020000D01*
X20020000Y-8980000D02*
X19980000Y-9020000D01*
X19980000Y-9980000D02*
X20020000Y-10020000D01*
X20020000Y-9980000D02*
X19980000Y-10020000D01*
X19980000Y-10980000D02*
X20020000Y-11020000D01*
X20020000Y-10980000D02*
X19980000Y-11020000D01*
X19980000Y-11980000D02*
X20020000Y-12020000D01*
X20020000Y-11980000D02*
X19980000Y-12020000D01*
X19980000Y-12980000D02*
X20020000Y-13020000D01*
X20020000Y-12980000D02*
X19980000Y-13020000D01*
X20980000Y-3980000D02*
X21020000Y-4020000D01*
X21020000Y-3980000D02*
X20980000Y-4020000D01*
X20980000Y-4980000D02*
X21020000Y-5020000D01*
X21020000Y-4980000D02*
X20980000Y-5020000D01*
X20980000Y-5980000D02*
X21020000Y-6020000D01*
X21020000Y-5980000D02*
X20980000Y-6020000D01*
X20980000Y-6980000D02*
X21020000Y-7020000D01*
X21020000Y-6980000D02*
X20980000Y-7020000D01*
X20980000Y-7980000D02*
X21020000Y-8020000D01*
X21020000Y-7980000D02*
X20980000Y-8020000D01*
X20980000Y-8980000D02*
X21020000Y-9020000D01*
X21020000Y-8980000D02*
X20980000Y-9020000D01*
X20980000Y-9980000D02*
X21020000Y-10020000D01*
X21020000Y-9980000D02*
X20980000Y-10020000D01*
X20980000Y-10980000D02*
X21020000Y-11020000D01*
X21020000Y-10980000D02*
X20980000Y-11020000D01*
X20980000Y-11980000D02*
X21020000Y-12020000D01*
X21020000Y-11980000D02*
X20980000Y-12020000D01*
X20980000Y-12980000D02*
X21020000Y-13020000D01*
X21020000Y-12980000D02*
X20980000Y-13020000D01*
X21980000Y-3980000D02*
X22020000Y-4020000D01*
X22020000Y-3980000D02*
X21980000Y-4020000D01*
X21980000Y-4980000D02*
X22020000Y-5020000D01*
X22020000Y-4980000D02*
X21980000Y-5020000D01*
X21980000Y-5980000D02*
X22020000Y-6020000D01*
X22020000Y-5980000D02*
X21980000Y-6020000D01*
X21980000Y-6980000D02*
X22020000Y-7020000D01*
X22020000Y-6980000D02*
X21980000Y-7020000D01*
X21980000Y-7980000D02*
X22020000Y-8020000D01*
X22020000Y-7980000D02*
X21980000Y-8020000D01*
X21980000Y-8980000D02*
X22020000Y-9020000D01*
X22020000Y-8980000D02*
X21980000Y-9020000D01*
X21980000Y-9980000D02*
X22020000Y-10020000D01*
X22020000Y-9980000D02*
X21980000Y-10020000D01*
X21980000Y-10980000D02*
X22020000Y-11020000D01*
X22020000Y-10980000D02*
X21980000Y-11020000D01*
X21980000Y-11980000D02*
X22020000Y-12020000D01*
X22020000Y-11980000D02*
X21980000Y-12020000D01*
X21980000Y-12980000D02*
X22020000Y-13020000D01*
X22020000Y-12980000D02*
X21980000Y-13020000D01*
D13*
X4082000Y-3789000D02*
G75*
G03*
X4082000Y-3789000I-80000J0D01*
G01*
X4478000Y-3789000D02*
G75*
G03*
X4478000Y-3789000I-80000J0D01*
G01*
X4874000Y-3789000D02*
G75*
G03*
X4874000Y-3789000I-80000J0D01*
G01*
X5270000Y-3789000D02*
G75*
G03*
X5270000Y-3789000I-80000J0D01*
G01*
X5666000Y-3789000D02*
G75*
G03*
X5666000Y-3789000I-80000J0D01*
G01*
X6062000Y-3789000D02*
G75*
G03*
X6062000Y-3789000I-80000J0D01*
G01*
X11210000Y-3789000D02*
G75*
G03*
X11210000Y-3789000I-80000J0D01*
G01*
X11606000Y-3789000D02*
G75*
G03*
X11606000Y-3789000I-80000J0D01*
G01*
X12002000Y-3789000D02*
G75*
G03*
X12002000Y-3789000I-80000J0D01*
G01*
X12398000Y-3789000D02*
G75*
G03*
X12398000Y-3789000I-80000J0D01*
G01*
X12794000Y-3789000D02*
G75*
G03*
X12794000Y-3789000I-80000J0D01*
G01*
X13190000Y-3789000D02*
G75*
G03*
X13190000Y-3789000I-80000J0D01*
G01*
X13586000Y-3789000D02*
G75*
G03*
X13586000Y-3789000I-80000J0D01*
G01*
X13982000Y-3789000D02*
G75*
G03*
X13982000Y-3789000I-80000J0D01*
G01*
X14378000Y-3789000D02*
G75*
G03*
X14378000Y-3789000I-80000J0D01*
G01*
X14774000Y-3789000D02*
G75*
G03*
X14774000Y-3789000I-80000J0D01*
G01*
X15170000Y-3789000D02*
G75*
G03*
X15170000Y-3789000I-80000J0D01*
G01*
X15566000Y-3789000D02*
G75*
G03*
X15566000Y-3789000I-80000J0D01*
G01*
D11*
X2505119Y-14212976D02*
X2505119Y-14012976D01*
X2552738Y-14012976D01*
X2581310Y-14022500D01*
X2600357Y-14041548D01*
X2609881Y-14060595D01*
X2619405Y-14098690D01*
X2619405Y-14127262D01*
X2609881Y-14165357D01*
X2600357Y-14184405D01*
X2581310Y-14203452D01*
X2552738Y-14212976D01*
X2505119Y-14212976D01*
X2705119Y-14212976D02*
X2705119Y-14079643D01*
X2705119Y-14117738D02*
X2714643Y-14098690D01*
X2724167Y-14089167D01*
X2743214Y-14079643D01*
X2762262Y-14079643D01*
X2828928Y-14212976D02*
X2828928Y-14079643D01*
X2828928Y-14012976D02*
X2819405Y-14022500D01*
X2828928Y-14032024D01*
X2838452Y-14022500D01*
X2828928Y-14012976D01*
X2828928Y-14032024D01*
X2952738Y-14212976D02*
X2933690Y-14203452D01*
X2924167Y-14184405D01*
X2924167Y-14012976D01*
X3057500Y-14212976D02*
X3038452Y-14203452D01*
X3028928Y-14184405D01*
X3028928Y-14012976D01*
X3286071Y-14212976D02*
X3286071Y-14012976D01*
X3352738Y-14155833D01*
X3419405Y-14012976D01*
X3419405Y-14212976D01*
X3600357Y-14212976D02*
X3600357Y-14108214D01*
X3590833Y-14089167D01*
X3571786Y-14079643D01*
X3533690Y-14079643D01*
X3514643Y-14089167D01*
X3600357Y-14203452D02*
X3581309Y-14212976D01*
X3533690Y-14212976D01*
X3514643Y-14203452D01*
X3505119Y-14184405D01*
X3505119Y-14165357D01*
X3514643Y-14146309D01*
X3533690Y-14136786D01*
X3581309Y-14136786D01*
X3600357Y-14127262D01*
X3695595Y-14079643D02*
X3695595Y-14279643D01*
X3695595Y-14089167D02*
X3714643Y-14079643D01*
X3752738Y-14079643D01*
X3771786Y-14089167D01*
X3781309Y-14098690D01*
X3790833Y-14117738D01*
X3790833Y-14174881D01*
X3781309Y-14193928D01*
X3771786Y-14203452D01*
X3752738Y-14212976D01*
X3714643Y-14212976D01*
X3695595Y-14203452D01*
X3876548Y-14193928D02*
X3886071Y-14203452D01*
X3876548Y-14212976D01*
X3867024Y-14203452D01*
X3876548Y-14193928D01*
X3876548Y-14212976D01*
X3876548Y-14089167D02*
X3886071Y-14098690D01*
X3876548Y-14108214D01*
X3867024Y-14098690D01*
X3876548Y-14089167D01*
X3876548Y-14108214D01*
D12*
X2207500Y-14522500D02*
X2247500Y-14562500D01*
X2247500Y-14522500D02*
X2207500Y-14562500D01*
D11*
X2543214Y-14432976D02*
X2562262Y-14432976D01*
X2581310Y-14442500D01*
X2590833Y-14452024D01*
X2600357Y-14471071D01*
X2609881Y-14509167D01*
X2609881Y-14556786D01*
X2600357Y-14594881D01*
X2590833Y-14613928D01*
X2581310Y-14623452D01*
X2562262Y-14632976D01*
X2543214Y-14632976D01*
X2524167Y-14623452D01*
X2514643Y-14613928D01*
X2505119Y-14594881D01*
X2495595Y-14556786D01*
X2495595Y-14509167D01*
X2505119Y-14471071D01*
X2514643Y-14452024D01*
X2524167Y-14442500D01*
X2543214Y-14432976D01*
X2695595Y-14613928D02*
X2705119Y-14623452D01*
X2695595Y-14632976D01*
X2686071Y-14623452D01*
X2695595Y-14613928D01*
X2695595Y-14632976D01*
X2876548Y-14499643D02*
X2876548Y-14632976D01*
X2828928Y-14423452D02*
X2781310Y-14566309D01*
X2905119Y-14566309D01*
X3019405Y-14432976D02*
X3038452Y-14432976D01*
X3057500Y-14442500D01*
X3067024Y-14452024D01*
X3076548Y-14471071D01*
X3086071Y-14509167D01*
X3086071Y-14556786D01*
X3076548Y-14594881D01*
X3067024Y-14613928D01*
X3057500Y-14623452D01*
X3038452Y-14632976D01*
X3019405Y-14632976D01*
X3000357Y-14623452D01*
X2990833Y-14613928D01*
X2981309Y-14594881D01*
X2971786Y-14556786D01*
X2971786Y-14509167D01*
X2981309Y-14471071D01*
X2990833Y-14452024D01*
X3000357Y-14442500D01*
X3019405Y-14432976D01*
X3209881Y-14432976D02*
X3228928Y-14432976D01*
X3247976Y-14442500D01*
X3257500Y-14452024D01*
X3267024Y-14471071D01*
X3276548Y-14509167D01*
X3276548Y-14556786D01*
X3267024Y-14594881D01*
X3257500Y-14613928D01*
X3247976Y-14623452D01*
X3228928Y-14632976D01*
X3209881Y-14632976D01*
X3190833Y-14623452D01*
X3181309Y-14613928D01*
X3171786Y-14594881D01*
X3162262Y-14556786D01*
X3162262Y-14509167D01*
X3171786Y-14471071D01*
X3181309Y-14452024D01*
X3190833Y-14442500D01*
X3209881Y-14432976D01*
X3362262Y-14632976D02*
X3362262Y-14499643D01*
X3362262Y-14518690D02*
X3371786Y-14509167D01*
X3390833Y-14499643D01*
X3419405Y-14499643D01*
X3438452Y-14509167D01*
X3447976Y-14528214D01*
X3447976Y-14632976D01*
X3447976Y-14528214D02*
X3457500Y-14509167D01*
X3476548Y-14499643D01*
X3505119Y-14499643D01*
X3524167Y-14509167D01*
X3533690Y-14528214D01*
X3533690Y-14632976D01*
X3628928Y-14632976D02*
X3628928Y-14499643D01*
X3628928Y-14518690D02*
X3638452Y-14509167D01*
X3657500Y-14499643D01*
X3686071Y-14499643D01*
X3705119Y-14509167D01*
X3714643Y-14528214D01*
X3714643Y-14632976D01*
X3714643Y-14528214D02*
X3724167Y-14509167D01*
X3743214Y-14499643D01*
X3771786Y-14499643D01*
X3790833Y-14509167D01*
X3800357Y-14528214D01*
X3800357Y-14632976D01*
X4190833Y-14423452D02*
X4019405Y-14680595D01*
X4447976Y-14432976D02*
X4467024Y-14432976D01*
X4486071Y-14442500D01*
X4495595Y-14452024D01*
X4505119Y-14471071D01*
X4514643Y-14509167D01*
X4514643Y-14556786D01*
X4505119Y-14594881D01*
X4495595Y-14613928D01*
X4486071Y-14623452D01*
X4467024Y-14632976D01*
X4447976Y-14632976D01*
X4428929Y-14623452D01*
X4419405Y-14613928D01*
X4409881Y-14594881D01*
X4400357Y-14556786D01*
X4400357Y-14509167D01*
X4409881Y-14471071D01*
X4419405Y-14452024D01*
X4428929Y-14442500D01*
X4447976Y-14432976D01*
X4600357Y-14613928D02*
X4609881Y-14623452D01*
X4600357Y-14632976D01*
X4590833Y-14623452D01*
X4600357Y-14613928D01*
X4600357Y-14632976D01*
X4733690Y-14432976D02*
X4752738Y-14432976D01*
X4771786Y-14442500D01*
X4781310Y-14452024D01*
X4790833Y-14471071D01*
X4800357Y-14509167D01*
X4800357Y-14556786D01*
X4790833Y-14594881D01*
X4781310Y-14613928D01*
X4771786Y-14623452D01*
X4752738Y-14632976D01*
X4733690Y-14632976D01*
X4714643Y-14623452D01*
X4705119Y-14613928D01*
X4695595Y-14594881D01*
X4686071Y-14556786D01*
X4686071Y-14509167D01*
X4695595Y-14471071D01*
X4705119Y-14452024D01*
X4714643Y-14442500D01*
X4733690Y-14432976D01*
X4990833Y-14632976D02*
X4876548Y-14632976D01*
X4933690Y-14632976D02*
X4933690Y-14432976D01*
X4914643Y-14461548D01*
X4895595Y-14480595D01*
X4876548Y-14490119D01*
X5171786Y-14432976D02*
X5076548Y-14432976D01*
X5067024Y-14528214D01*
X5076548Y-14518690D01*
X5095595Y-14509167D01*
X5143214Y-14509167D01*
X5162262Y-14518690D01*
X5171786Y-14528214D01*
X5181310Y-14547262D01*
X5181310Y-14594881D01*
X5171786Y-14613928D01*
X5162262Y-14623452D01*
X5143214Y-14632976D01*
X5095595Y-14632976D01*
X5076548Y-14623452D01*
X5067024Y-14613928D01*
X5247976Y-14432976D02*
X5381310Y-14432976D01*
X5295595Y-14632976D01*
X5447976Y-14432976D02*
X5447976Y-14471071D01*
X5524167Y-14432976D02*
X5524167Y-14471071D01*
X5819405Y-14709167D02*
X5809881Y-14699643D01*
X5790833Y-14671071D01*
X5781309Y-14652024D01*
X5771786Y-14623452D01*
X5762262Y-14575833D01*
X5762262Y-14537738D01*
X5771786Y-14490119D01*
X5781309Y-14461548D01*
X5790833Y-14442500D01*
X5809881Y-14413928D01*
X5819405Y-14404405D01*
X5886071Y-14452024D02*
X5895595Y-14442500D01*
X5914643Y-14432976D01*
X5962262Y-14432976D01*
X5981309Y-14442500D01*
X5990833Y-14452024D01*
X6000357Y-14471071D01*
X6000357Y-14490119D01*
X5990833Y-14518690D01*
X5876548Y-14632976D01*
X6000357Y-14632976D01*
X6124167Y-14432976D02*
X6143214Y-14432976D01*
X6162262Y-14442500D01*
X6171786Y-14452024D01*
X6181309Y-14471071D01*
X6190833Y-14509167D01*
X6190833Y-14556786D01*
X6181309Y-14594881D01*
X6171786Y-14613928D01*
X6162262Y-14623452D01*
X6143214Y-14632976D01*
X6124167Y-14632976D01*
X6105119Y-14623452D01*
X6095595Y-14613928D01*
X6086071Y-14594881D01*
X6076548Y-14556786D01*
X6076548Y-14509167D01*
X6086071Y-14471071D01*
X6095595Y-14452024D01*
X6105119Y-14442500D01*
X6124167Y-14432976D01*
X6314643Y-14432976D02*
X6333690Y-14432976D01*
X6352738Y-14442500D01*
X6362262Y-14452024D01*
X6371786Y-14471071D01*
X6381309Y-14509167D01*
X6381309Y-14556786D01*
X6371786Y-14594881D01*
X6362262Y-14613928D01*
X6352738Y-14623452D01*
X6333690Y-14632976D01*
X6314643Y-14632976D01*
X6295595Y-14623452D01*
X6286071Y-14613928D01*
X6276548Y-14594881D01*
X6267024Y-14556786D01*
X6267024Y-14509167D01*
X6276548Y-14471071D01*
X6286071Y-14452024D01*
X6295595Y-14442500D01*
X6314643Y-14432976D01*
X6619405Y-14632976D02*
X6619405Y-14432976D01*
X6705119Y-14632976D02*
X6705119Y-14528214D01*
X6695595Y-14509167D01*
X6676548Y-14499643D01*
X6647976Y-14499643D01*
X6628928Y-14509167D01*
X6619405Y-14518690D01*
X6828928Y-14632976D02*
X6809881Y-14623452D01*
X6800357Y-14613928D01*
X6790833Y-14594881D01*
X6790833Y-14537738D01*
X6800357Y-14518690D01*
X6809881Y-14509167D01*
X6828928Y-14499643D01*
X6857500Y-14499643D01*
X6876548Y-14509167D01*
X6886071Y-14518690D01*
X6895595Y-14537738D01*
X6895595Y-14594881D01*
X6886071Y-14613928D01*
X6876548Y-14623452D01*
X6857500Y-14632976D01*
X6828928Y-14632976D01*
X7009881Y-14632976D02*
X6990833Y-14623452D01*
X6981309Y-14604405D01*
X6981309Y-14432976D01*
X7162262Y-14623452D02*
X7143214Y-14632976D01*
X7105119Y-14632976D01*
X7086071Y-14623452D01*
X7076548Y-14604405D01*
X7076548Y-14528214D01*
X7086071Y-14509167D01*
X7105119Y-14499643D01*
X7143214Y-14499643D01*
X7162262Y-14509167D01*
X7171786Y-14528214D01*
X7171786Y-14547262D01*
X7076548Y-14566309D01*
X7247976Y-14623452D02*
X7267024Y-14632976D01*
X7305119Y-14632976D01*
X7324167Y-14623452D01*
X7333690Y-14604405D01*
X7333690Y-14594881D01*
X7324167Y-14575833D01*
X7305119Y-14566309D01*
X7276548Y-14566309D01*
X7257500Y-14556786D01*
X7247976Y-14537738D01*
X7247976Y-14528214D01*
X7257500Y-14509167D01*
X7276548Y-14499643D01*
X7305119Y-14499643D01*
X7324167Y-14509167D01*
X7400357Y-14709167D02*
X7409881Y-14699643D01*
X7428928Y-14671071D01*
X7438452Y-14652024D01*
X7447976Y-14623452D01*
X7457500Y-14575833D01*
X7457500Y-14537738D01*
X7447976Y-14490119D01*
X7438452Y-14461548D01*
X7428928Y-14442500D01*
X7409881Y-14413928D01*
X7400357Y-14404405D01*
D13*
X2247500Y-14806500D02*
G75*
G03*
X2247500Y-14806500I-80000J0D01*
G01*
D11*
X2609881Y-14896976D02*
X2495595Y-14896976D01*
X2552738Y-14896976D02*
X2552738Y-14696976D01*
X2533690Y-14725548D01*
X2514643Y-14744595D01*
X2495595Y-14754119D01*
X2695595Y-14877928D02*
X2705119Y-14887452D01*
X2695595Y-14896976D01*
X2686071Y-14887452D01*
X2695595Y-14877928D01*
X2695595Y-14896976D01*
X2876548Y-14696976D02*
X2838452Y-14696976D01*
X2819405Y-14706500D01*
X2809881Y-14716024D01*
X2790833Y-14744595D01*
X2781310Y-14782690D01*
X2781310Y-14858881D01*
X2790833Y-14877928D01*
X2800357Y-14887452D01*
X2819405Y-14896976D01*
X2857500Y-14896976D01*
X2876548Y-14887452D01*
X2886071Y-14877928D01*
X2895595Y-14858881D01*
X2895595Y-14811262D01*
X2886071Y-14792214D01*
X2876548Y-14782690D01*
X2857500Y-14773167D01*
X2819405Y-14773167D01*
X2800357Y-14782690D01*
X2790833Y-14792214D01*
X2781310Y-14811262D01*
X3019405Y-14696976D02*
X3038452Y-14696976D01*
X3057500Y-14706500D01*
X3067024Y-14716024D01*
X3076548Y-14735071D01*
X3086071Y-14773167D01*
X3086071Y-14820786D01*
X3076548Y-14858881D01*
X3067024Y-14877928D01*
X3057500Y-14887452D01*
X3038452Y-14896976D01*
X3019405Y-14896976D01*
X3000357Y-14887452D01*
X2990833Y-14877928D01*
X2981309Y-14858881D01*
X2971786Y-14820786D01*
X2971786Y-14773167D01*
X2981309Y-14735071D01*
X2990833Y-14716024D01*
X3000357Y-14706500D01*
X3019405Y-14696976D01*
X3209881Y-14696976D02*
X3228928Y-14696976D01*
X3247976Y-14706500D01*
X3257500Y-14716024D01*
X3267024Y-14735071D01*
X3276548Y-14773167D01*
X3276548Y-14820786D01*
X3267024Y-14858881D01*
X3257500Y-14877928D01*
X3247976Y-14887452D01*
X3228928Y-14896976D01*
X3209881Y-14896976D01*
X3190833Y-14887452D01*
X3181309Y-14877928D01*
X3171786Y-14858881D01*
X3162262Y-14820786D01*
X3162262Y-14773167D01*
X3171786Y-14735071D01*
X3181309Y-14716024D01*
X3190833Y-14706500D01*
X3209881Y-14696976D01*
X3362262Y-14896976D02*
X3362262Y-14763643D01*
X3362262Y-14782690D02*
X3371786Y-14773167D01*
X3390833Y-14763643D01*
X3419405Y-14763643D01*
X3438452Y-14773167D01*
X3447976Y-14792214D01*
X3447976Y-14896976D01*
X3447976Y-14792214D02*
X3457500Y-14773167D01*
X3476548Y-14763643D01*
X3505119Y-14763643D01*
X3524167Y-14773167D01*
X3533690Y-14792214D01*
X3533690Y-14896976D01*
X3628928Y-14896976D02*
X3628928Y-14763643D01*
X3628928Y-14782690D02*
X3638452Y-14773167D01*
X3657500Y-14763643D01*
X3686071Y-14763643D01*
X3705119Y-14773167D01*
X3714643Y-14792214D01*
X3714643Y-14896976D01*
X3714643Y-14792214D02*
X3724167Y-14773167D01*
X3743214Y-14763643D01*
X3771786Y-14763643D01*
X3790833Y-14773167D01*
X3800357Y-14792214D01*
X3800357Y-14896976D01*
X4190833Y-14687452D02*
X4019405Y-14944595D01*
X4447976Y-14696976D02*
X4467024Y-14696976D01*
X4486071Y-14706500D01*
X4495595Y-14716024D01*
X4505119Y-14735071D01*
X4514643Y-14773167D01*
X4514643Y-14820786D01*
X4505119Y-14858881D01*
X4495595Y-14877928D01*
X4486071Y-14887452D01*
X4467024Y-14896976D01*
X4447976Y-14896976D01*
X4428929Y-14887452D01*
X4419405Y-14877928D01*
X4409881Y-14858881D01*
X4400357Y-14820786D01*
X4400357Y-14773167D01*
X4409881Y-14735071D01*
X4419405Y-14716024D01*
X4428929Y-14706500D01*
X4447976Y-14696976D01*
X4600357Y-14877928D02*
X4609881Y-14887452D01*
X4600357Y-14896976D01*
X4590833Y-14887452D01*
X4600357Y-14877928D01*
X4600357Y-14896976D01*
X4733690Y-14696976D02*
X4752738Y-14696976D01*
X4771786Y-14706500D01*
X4781310Y-14716024D01*
X4790833Y-14735071D01*
X4800357Y-14773167D01*
X4800357Y-14820786D01*
X4790833Y-14858881D01*
X4781310Y-14877928D01*
X4771786Y-14887452D01*
X4752738Y-14896976D01*
X4733690Y-14896976D01*
X4714643Y-14887452D01*
X4705119Y-14877928D01*
X4695595Y-14858881D01*
X4686071Y-14820786D01*
X4686071Y-14773167D01*
X4695595Y-14735071D01*
X4705119Y-14716024D01*
X4714643Y-14706500D01*
X4733690Y-14696976D01*
X4971786Y-14696976D02*
X4933690Y-14696976D01*
X4914643Y-14706500D01*
X4905119Y-14716024D01*
X4886071Y-14744595D01*
X4876548Y-14782690D01*
X4876548Y-14858881D01*
X4886071Y-14877928D01*
X4895595Y-14887452D01*
X4914643Y-14896976D01*
X4952738Y-14896976D01*
X4971786Y-14887452D01*
X4981310Y-14877928D01*
X4990833Y-14858881D01*
X4990833Y-14811262D01*
X4981310Y-14792214D01*
X4971786Y-14782690D01*
X4952738Y-14773167D01*
X4914643Y-14773167D01*
X4895595Y-14782690D01*
X4886071Y-14792214D01*
X4876548Y-14811262D01*
X5057500Y-14696976D02*
X5181310Y-14696976D01*
X5114643Y-14773167D01*
X5143214Y-14773167D01*
X5162262Y-14782690D01*
X5171786Y-14792214D01*
X5181310Y-14811262D01*
X5181310Y-14858881D01*
X5171786Y-14877928D01*
X5162262Y-14887452D01*
X5143214Y-14896976D01*
X5086071Y-14896976D01*
X5067024Y-14887452D01*
X5057500Y-14877928D01*
X5305119Y-14696976D02*
X5324167Y-14696976D01*
X5343214Y-14706500D01*
X5352738Y-14716024D01*
X5362262Y-14735071D01*
X5371786Y-14773167D01*
X5371786Y-14820786D01*
X5362262Y-14858881D01*
X5352738Y-14877928D01*
X5343214Y-14887452D01*
X5324167Y-14896976D01*
X5305119Y-14896976D01*
X5286071Y-14887452D01*
X5276548Y-14877928D01*
X5267024Y-14858881D01*
X5257500Y-14820786D01*
X5257500Y-14773167D01*
X5267024Y-14735071D01*
X5276548Y-14716024D01*
X5286071Y-14706500D01*
X5305119Y-14696976D01*
X5447976Y-14696976D02*
X5447976Y-14735071D01*
X5524167Y-14696976D02*
X5524167Y-14735071D01*
X5819405Y-14973167D02*
X5809881Y-14963643D01*
X5790833Y-14935071D01*
X5781309Y-14916024D01*
X5771786Y-14887452D01*
X5762262Y-14839833D01*
X5762262Y-14801738D01*
X5771786Y-14754119D01*
X5781309Y-14725548D01*
X5790833Y-14706500D01*
X5809881Y-14677928D01*
X5819405Y-14668405D01*
X6000357Y-14896976D02*
X5886071Y-14896976D01*
X5943214Y-14896976D02*
X5943214Y-14696976D01*
X5924167Y-14725548D01*
X5905119Y-14744595D01*
X5886071Y-14754119D01*
X6114643Y-14782690D02*
X6095595Y-14773167D01*
X6086071Y-14763643D01*
X6076548Y-14744595D01*
X6076548Y-14735071D01*
X6086071Y-14716024D01*
X6095595Y-14706500D01*
X6114643Y-14696976D01*
X6152738Y-14696976D01*
X6171786Y-14706500D01*
X6181309Y-14716024D01*
X6190833Y-14735071D01*
X6190833Y-14744595D01*
X6181309Y-14763643D01*
X6171786Y-14773167D01*
X6152738Y-14782690D01*
X6114643Y-14782690D01*
X6095595Y-14792214D01*
X6086071Y-14801738D01*
X6076548Y-14820786D01*
X6076548Y-14858881D01*
X6086071Y-14877928D01*
X6095595Y-14887452D01*
X6114643Y-14896976D01*
X6152738Y-14896976D01*
X6171786Y-14887452D01*
X6181309Y-14877928D01*
X6190833Y-14858881D01*
X6190833Y-14820786D01*
X6181309Y-14801738D01*
X6171786Y-14792214D01*
X6152738Y-14782690D01*
X6428928Y-14896976D02*
X6428928Y-14696976D01*
X6514643Y-14896976D02*
X6514643Y-14792214D01*
X6505119Y-14773167D01*
X6486071Y-14763643D01*
X6457500Y-14763643D01*
X6438452Y-14773167D01*
X6428928Y-14782690D01*
X6638452Y-14896976D02*
X6619405Y-14887452D01*
X6609881Y-14877928D01*
X6600357Y-14858881D01*
X6600357Y-14801738D01*
X6609881Y-14782690D01*
X6619405Y-14773167D01*
X6638452Y-14763643D01*
X6667024Y-14763643D01*
X6686071Y-14773167D01*
X6695595Y-14782690D01*
X6705119Y-14801738D01*
X6705119Y-14858881D01*
X6695595Y-14877928D01*
X6686071Y-14887452D01*
X6667024Y-14896976D01*
X6638452Y-14896976D01*
X6819405Y-14896976D02*
X6800357Y-14887452D01*
X6790833Y-14868405D01*
X6790833Y-14696976D01*
X6971786Y-14887452D02*
X6952738Y-14896976D01*
X6914643Y-14896976D01*
X6895595Y-14887452D01*
X6886071Y-14868405D01*
X6886071Y-14792214D01*
X6895595Y-14773167D01*
X6914643Y-14763643D01*
X6952738Y-14763643D01*
X6971786Y-14773167D01*
X6981309Y-14792214D01*
X6981309Y-14811262D01*
X6886071Y-14830309D01*
X7057500Y-14887452D02*
X7076548Y-14896976D01*
X7114643Y-14896976D01*
X7133690Y-14887452D01*
X7143214Y-14868405D01*
X7143214Y-14858881D01*
X7133690Y-14839833D01*
X7114643Y-14830309D01*
X7086071Y-14830309D01*
X7067024Y-14820786D01*
X7057500Y-14801738D01*
X7057500Y-14792214D01*
X7067024Y-14773167D01*
X7086071Y-14763643D01*
X7114643Y-14763643D01*
X7133690Y-14773167D01*
X7209881Y-14973167D02*
X7219405Y-14963643D01*
X7238452Y-14935071D01*
X7247976Y-14916024D01*
X7257500Y-14887452D01*
X7267024Y-14839833D01*
X7267024Y-14801738D01*
X7257500Y-14754119D01*
X7247976Y-14725548D01*
X7238452Y-14706500D01*
X7219405Y-14677928D01*
X7209881Y-14668405D01*
M02*
